<svg version="1.2" xmlns="http://www.w3.org/2000/svg" viewBox="0 0 1280 1280" width="1280" height="1280">
	<title>08-opcioni me 2 layers-ai</title>
	<style>
		.s0 { fill: #000000 } 
		.s1 { fill: #ffffff } 
		.s2 { fill: none;stroke: #090000;stroke-miterlimit:10;stroke-width: 6 } 
	</style>
	<g id="Black">
		<path id="&lt;Path&gt;" class="s0" d="m1222.4 615.7c-9.7-32.9-21.9-63.2-36-91.2-40.7-79.6-97.2-139.5-156.5-181.6-370.8-263.2-875.1-46.8-957.9 335-1.7 8 65.7 60.7 72.8 64.9 606.1 362.7 1056.7-49.5 1047.5-86.9-2.2-8.8 29.6-30.6 30.1-40.2z"/>
	</g>
	<g id="Color">
		<g id="&lt;Group&gt;">
			<g id="&lt;Group&gt;">
				<path id="&lt;Compound Path&gt;" fill-rule="evenodd" class="s1" d="m1075.2 633.9c7.5 30.4-359.4 366-852.8 70.8-5.7-3.5-60.6-46.4-59.2-52.9 67.4-310.8 477.9-486.9 779.8-272.7 48.2 34.3 94.3 83.1 127.3 147.9 11.6 22.7 21.5 47.4 29.4 74.2-0.4 7.8-26.3 25.5-24.5 32.7zm-804.3-65.7c0-7.3-6.4-13.1-14.3-13.1-7.9 0-14.4 5.8-14.4 13.1 0 7.2 6.5 13.1 14.4 13.1 7.9 0 14.3-5.9 14.3-13.1zm262.8-13.1c0 7.2 6.5 13.1 14.4 13.1 7.9 0 14.3-5.9 14.3-13.1 0-7.3-6.4-13.1-14.3-13.1-7.9 0-14.4 5.8-14.4 13.1zm-45-166c0 6.5 5.8 11.8 12.9 11.8 7.1 0 12.9-5.3 12.9-11.8 0-6.5-5.8-11.8-12.9-11.8-7.1 0-12.9 5.3-12.9 11.8zm-136.4 247c0-7.2-6.4-13.1-14.3-13.1-7.9 0-14.4 5.9-14.4 13.1 0 7.3 6.5 13.1 14.4 13.1 7.9 0 14.3-5.8 14.3-13.1zm47.9-26.2c8 0 14.4-5.8 14.4-13.1 0-7.2-6.4-13-14.4-13-7.9 0-14.3 5.8-14.3 13 0 7.3 6.4 13.1 14.3 13.1zm18.8 66c0-7.2-6.4-13.1-14.4-13.1-7.9 0-14.3 5.9-14.3 13.1 0 7.3 6.4 13.1 14.3 13.1 8 0 14.4-5.8 14.4-13.1zm0-144.6c0-7.3-6.4-13.1-14.4-13.1-7.9 0-14.3 5.8-14.3 13.1 0 7.2 6.4 13.1 14.3 13.1 8 0 14.4-5.9 14.4-13.1zm9.9-80.3c0-7.3-6.4-13.1-14.3-13.1-7.9 0-14.4 5.8-14.4 13.1 0 7.2 6.5 13.1 14.4 13.1 7.9 0 14.3-5.9 14.3-13.1zm28.7 298.5c0-7.2-6.4-13.1-14.3-13.1-7.9 0-14.4 5.9-14.4 13.1 0 7.2 6.5 13.1 14.4 13.1 7.9 0 14.3-5.9 14.3-13.1zm44.6-165.7c0-7.3-6.4-13.1-14.3-13.1-7.9 0-14.4 5.8-14.4 13.1 0 7.2 6.5 13 14.4 13 7.9 0 14.3-5.8 14.3-13zm14.4-113.2c0-7.2-6.4-13.1-14.4-13.1-7.9 0-14.3 5.9-14.3 13.1 0 7.2 6.4 13.1 14.3 13.1 8 0 14.4-5.9 14.4-13.1zm28.7 182.4c0-7.2-6.4-13.1-14.4-13.1-7.9 0-14.3 5.9-14.3 13.1 0 7.2 6.4 13.1 14.3 13.1 8 0 14.4-5.9 14.4-13.1zm28.7 70.4c0-7.2-6.4-13.1-14.4-13.1-7.9 0-14.3 5.9-14.3 13.1 0 7.3 6.4 13.1 14.3 13.1 8 0 14.4-5.8 14.4-13.1zm0-279c0-7.2-6.4-13.1-14.4-13.1-7.9 0-14.3 5.9-14.3 13.1 0 7.2 6.4 13.1 14.3 13.1 8 0 14.4-5.9 14.4-13.1zm31.5-68.1c7.9 0 14.3-5.9 14.3-13.1 0-7.2-6.4-13.1-14.3-13.1-7.9 0-14.4 5.9-14.4 13.1 0 7.2 6.5 13.1 14.4 13.1zm33.3 74.7c0-7.3-6.4-13.1-14.3-13.1-7.9 0-14.4 5.8-14.4 13.1 0 7.2 6.5 13.1 14.4 13.1 7.9 0 14.3-5.9 14.3-13.1zm42.5 215.1c0-7.2-6.5-13.1-14.4-13.1-7.9 0-14.3 5.9-14.3 13.1 0 7.2 6.4 13.1 14.3 13.1 7.9 0 14.4-5.9 14.4-13.1zm0.6-161c0-7.2-6.5-13.1-14.4-13.1-7.9 0-14.3 5.9-14.3 13.1 0 7.2 6.4 13.1 14.3 13.1 7.9 0 14.4-5.9 14.4-13.1zm14.3-67.2c0-7.3-6.4-13.1-14.3-13.1-8 0-14.4 5.8-14.4 13.1 0 7.2 6.4 13.1 14.4 13.1 7.9 0 14.3-5.9 14.3-13.1zm28.1 285.5c0-7.2-6.4-13.1-14.4-13.1-7.9 0-14.3 5.9-14.3 13.1 0 7.3 6.4 13.1 14.3 13.1 8 0 14.4-5.8 14.4-13.1zm14.3-334c0-7.2-6.4-13.1-14.3-13.1-7.9 0-14.4 5.9-14.4 13.1 0 7.2 6.5 13.1 14.4 13.1 7.9 0 14.3-5.9 14.3-13.1zm28.7 141.9c0-7.3-6.4-13.1-14.3-13.1-7.9 0-14.4 5.8-14.4 13.1 0 7.2 6.5 13.1 14.4 13.1 7.9 0 14.3-5.9 14.3-13.1zm0-67.2c0-7.3-6.4-13.1-14.3-13.1-7.9 0-14.4 5.8-14.4 13.1 0 7.2 6.5 13.1 14.4 13.1 7.9 0 14.3-5.9 14.3-13.1zm52.1 162.7c0-7.2-6.5-13.1-14.4-13.1-7.9 0-14.3 5.9-14.3 13.1 0 7.2 6.4 13.1 14.3 13.1 7.9 0 14.4-5.9 14.4-13.1zm0-237.4c0-7.2-6.5-13.1-14.4-13.1-7.9 0-14.3 5.9-14.3 13.1 0 7.2 6.4 13.1 14.3 13.1 7.9 0 14.4-5.9 14.4-13.1zm19.1 68.1c7.9 0 14.3-5.9 14.3-13.1 0-7.2-6.4-13.1-14.3-13.1-7.9 0-14.4 5.9-14.4 13.1 0 7.2 6.5 13.1 14.4 13.1zm14.3 78.6c8 0 14.4-5.9 14.4-13.1 0-7.3-6.4-13.1-14.4-13.1-7.9 0-14.3 5.8-14.3 13.1 0 7.2 6.4 13.1 14.3 13.1zm28.7 187.3c0-7.2-6.4-13.1-14.3-13.1-7.9 0-14.4 5.9-14.4 13.1 0 7.3 6.5 13.1 14.4 13.1 7.9 0 14.3-5.8 14.3-13.1zm60.5-113.5c0-7.2-6.4-13.1-14.3-13.1-7.9 0-14.4 5.9-14.4 13.1 0 7.3 6.5 13.1 14.4 13.1 7.9 0 14.3-5.8 14.3-13.1zm62.9-60.7c0-7.3-6.5-13.1-14.4-13.1-7.9 0-14.3 5.8-14.3 13.1 0 7.2 6.4 13.1 14.3 13.1 7.9 0 14.4-5.9 14.4-13.1z"/>
				<g id="&lt;Group&gt;" style="opacity: 0">
					<path id="&lt;Compound Path&gt;" fill-rule="evenodd" class="s2" d="m1075.2 633.9c7.5 30.4-359.4 366-852.8 70.8-5.7-3.5-60.6-46.4-59.2-52.9 67.4-310.8 477.9-486.9 779.8-272.7 48.2 34.3 94.3 83.1 127.3 147.9 11.6 22.7 21.5 47.4 29.4 74.2-0.4 7.8-26.3 25.5-24.5 32.7zm-804.3-65.7c0-7.3-6.4-13.1-14.3-13.1-7.9 0-14.4 5.8-14.4 13.1 0 7.2 6.5 13.1 14.4 13.1 7.9 0 14.3-5.9 14.3-13.1zm262.8-13.1c0 7.2 6.5 13.1 14.4 13.1 7.9 0 14.3-5.9 14.3-13.1 0-7.3-6.4-13.1-14.3-13.1-7.9 0-14.4 5.8-14.4 13.1zm-45-166c0 6.5 5.8 11.8 12.9 11.8 7.1 0 12.9-5.3 12.9-11.8 0-6.5-5.8-11.8-12.9-11.8-7.1 0-12.9 5.3-12.9 11.8zm-136.4 247c0-7.2-6.4-13.1-14.3-13.1-7.9 0-14.4 5.9-14.4 13.1 0 7.3 6.5 13.1 14.4 13.1 7.9 0 14.3-5.8 14.3-13.1zm47.9-26.2c8 0 14.4-5.8 14.4-13.1 0-7.2-6.4-13-14.4-13-7.9 0-14.3 5.8-14.3 13 0 7.3 6.4 13.1 14.3 13.1zm18.8 66c0-7.2-6.4-13.1-14.4-13.1-7.9 0-14.3 5.9-14.3 13.1 0 7.3 6.4 13.1 14.3 13.1 8 0 14.4-5.8 14.4-13.1zm0-144.6c0-7.3-6.4-13.1-14.4-13.1-7.9 0-14.3 5.8-14.3 13.1 0 7.2 6.4 13.1 14.3 13.1 8 0 14.4-5.9 14.4-13.1zm9.9-80.3c0-7.3-6.4-13.1-14.3-13.1-7.9 0-14.4 5.8-14.4 13.1 0 7.2 6.5 13.1 14.4 13.1 7.9 0 14.3-5.9 14.3-13.1zm28.7 298.5c0-7.2-6.4-13.1-14.3-13.1-7.9 0-14.4 5.9-14.4 13.1 0 7.2 6.5 13.1 14.4 13.1 7.9 0 14.3-5.9 14.3-13.1zm44.6-165.7c0-7.3-6.4-13.1-14.3-13.1-7.9 0-14.4 5.8-14.4 13.1 0 7.2 6.5 13 14.4 13 7.9 0 14.3-5.8 14.3-13zm14.4-113.2c0-7.2-6.4-13.1-14.4-13.1-7.9 0-14.3 5.9-14.3 13.1 0 7.2 6.4 13.1 14.3 13.1 8 0 14.4-5.9 14.4-13.1zm28.7 182.4c0-7.2-6.4-13.1-14.4-13.1-7.9 0-14.3 5.9-14.3 13.1 0 7.2 6.4 13.1 14.3 13.1 8 0 14.4-5.9 14.4-13.1zm28.7 70.4c0-7.2-6.4-13.1-14.4-13.1-7.9 0-14.3 5.9-14.3 13.1 0 7.3 6.4 13.1 14.3 13.1 8 0 14.4-5.8 14.4-13.1zm0-279c0-7.2-6.4-13.1-14.4-13.1-7.9 0-14.3 5.9-14.3 13.1 0 7.2 6.4 13.1 14.3 13.1 8 0 14.4-5.9 14.4-13.1zm31.5-68.1c7.9 0 14.3-5.9 14.3-13.1 0-7.2-6.4-13.1-14.3-13.1-7.9 0-14.4 5.9-14.4 13.1 0 7.2 6.5 13.1 14.4 13.1zm33.3 74.7c0-7.3-6.4-13.1-14.3-13.1-7.9 0-14.4 5.8-14.4 13.1 0 7.2 6.5 13.1 14.4 13.1 7.9 0 14.3-5.9 14.3-13.1zm42.5 215.1c0-7.2-6.5-13.1-14.4-13.1-7.9 0-14.3 5.9-14.3 13.1 0 7.2 6.4 13.1 14.3 13.1 7.9 0 14.4-5.9 14.4-13.1zm0.6-161c0-7.2-6.5-13.1-14.4-13.1-7.9 0-14.3 5.9-14.3 13.1 0 7.2 6.4 13.1 14.3 13.1 7.9 0 14.4-5.9 14.4-13.1zm14.3-67.2c0-7.3-6.4-13.1-14.3-13.1-8 0-14.4 5.8-14.4 13.1 0 7.2 6.4 13.1 14.4 13.1 7.9 0 14.3-5.9 14.3-13.1zm28.1 285.5c0-7.2-6.4-13.1-14.4-13.1-7.9 0-14.3 5.9-14.3 13.1 0 7.3 6.4 13.1 14.3 13.1 8 0 14.4-5.8 14.4-13.1zm14.3-334c0-7.2-6.4-13.1-14.3-13.1-7.9 0-14.4 5.9-14.4 13.1 0 7.2 6.5 13.1 14.4 13.1 7.9 0 14.3-5.9 14.3-13.1zm28.7 141.9c0-7.3-6.4-13.1-14.3-13.1-7.9 0-14.4 5.8-14.4 13.1 0 7.2 6.5 13.1 14.4 13.1 7.9 0 14.3-5.9 14.3-13.1zm0-67.2c0-7.3-6.4-13.1-14.3-13.1-7.9 0-14.4 5.8-14.4 13.1 0 7.2 6.5 13.1 14.4 13.1 7.9 0 14.3-5.9 14.3-13.1zm52.1 162.7c0-7.2-6.5-13.1-14.4-13.1-7.9 0-14.3 5.9-14.3 13.1 0 7.2 6.4 13.1 14.3 13.1 7.9 0 14.4-5.9 14.4-13.1zm0-237.4c0-7.2-6.5-13.1-14.4-13.1-7.9 0-14.3 5.9-14.3 13.1 0 7.2 6.4 13.1 14.3 13.1 7.9 0 14.4-5.9 14.4-13.1zm19.1 68.1c7.9 0 14.3-5.9 14.3-13.1 0-7.2-6.4-13.1-14.3-13.1-7.9 0-14.4 5.9-14.4 13.1 0 7.2 6.5 13.1 14.4 13.1zm14.3 78.6c8 0 14.4-5.9 14.4-13.1 0-7.3-6.4-13.1-14.4-13.1-7.9 0-14.3 5.8-14.3 13.1 0 7.2 6.4 13.1 14.3 13.1zm28.7 187.3c0-7.2-6.4-13.1-14.3-13.1-7.9 0-14.4 5.9-14.4 13.1 0 7.3 6.5 13.1 14.4 13.1 7.9 0 14.3-5.8 14.3-13.1zm60.5-113.5c0-7.2-6.4-13.1-14.3-13.1-7.9 0-14.4 5.9-14.4 13.1 0 7.3 6.5 13.1 14.4 13.1 7.9 0 14.3-5.8 14.3-13.1zm62.9-60.7c0-7.3-6.5-13.1-14.4-13.1-7.9 0-14.3 5.8-14.3 13.1 0 7.2 6.4 13.1 14.3 13.1 7.9 0 14.4-5.9 14.4-13.1z"/>
				</g>
			</g>
		</g>
		<path id="&lt;Path&gt;" class="s1" d="m605.8 353.1c-6.2 0-11.3 4.5-11.3 10.1 0 5.6 5.1 10.1 11.3 10.1 6.3 0 11.4-4.5 11.4-10.1 0-5.6-5.1-10.1-11.4-10.1z"/>
		<path id="&lt;Path&gt;" class="s1" d="m560 713.3c-6.3 0-11.4 4.5-11.4 10.1 0 5.6 5.1 10.1 11.4 10.1 6.2 0 11.3-4.5 11.3-10.1 0-5.6-5.1-10.1-11.3-10.1z"/>
		<path id="&lt;Path&gt;" class="s1" d="m990.9 539.1c-6.3 0-11.4 4.5-11.4 10.1 0 5.5 5.1 10.1 11.4 10.1 6.2 0 11.3-4.6 11.3-10.1 0-5.6-5.1-10.1-11.3-10.1z"/>
		<path id="&lt;Path&gt;" class="s1" d="m443.6 739.4c-6.2 0-11.3 4.5-11.3 10.1 0 5.6 5.1 10.1 11.3 10.1 6.3 0 11.4-4.5 11.4-10.1 0-5.6-5.1-10.1-11.4-10.1z"/>
		<path id="&lt;Path&gt;" class="s1" d="m667.9 495c-6.3 0-11.4 4.5-11.4 10.1 0 5.6 5.1 10.1 11.4 10.1 6.2 0 11.3-4.5 11.3-10.1 0-5.6-5.1-10.1-11.3-10.1z"/>
		<path id="&lt;Path&gt;" class="s1" d="m624.8 440.9c-6.2 0-11.3 4.5-11.3 10.1 0 5.5 5.1 10.1 11.3 10.1 6.3 0 11.4-4.6 11.4-10.1 0-5.6-5.1-10.1-11.4-10.1z"/>
		<path id="&lt;Path&gt;" class="s1" d="m502.6 480.7c6.2 0 11.3-4.5 11.3-10.1 0-5.6-5.1-10.1-11.3-10.1-6.3 0-11.4 4.5-11.4 10.1 0 5.6 5.1 10.1 11.4 10.1z"/>
		<path id="&lt;Path&gt;" class="s1" d="m405 521.2c-6.3 0-11.4 4.5-11.4 10.1 0 5.5 5.1 10.1 11.4 10.1 6.2 0 11.3-4.6 11.3-10.1 0-5.6-5.1-10.1-11.3-10.1z"/>
		<path id="&lt;Path&gt;" class="s1" d="m400.6 606.9c6.3 0 11.3-4.5 11.3-10.1 0-5.5-5-10-11.3-10-6.3 0-11.4 4.5-11.4 10 0 5.6 5.1 10.1 11.4 10.1z"/>
		<path id="&lt;Path&gt;" class="s1" d="m710.3 713.3c-6.3 0-11.3 4.5-11.3 10.1 0 5.6 5 10.1 11.3 10.1 6.3 0 11.4-4.5 11.4-10.1 0-5.6-5.1-10.1-11.4-10.1z"/>
		<path id="&lt;Path&gt;" class="s1" d="m850.2 444.4c0-5.6-5.1-10.1-11.4-10.1-6.2 0-11.3 4.5-11.3 10.1 0 5.6 5.1 10.1 11.3 10.1 6.3 0 11.4-4.5 11.4-10.1z"/>
		<path id="&lt;Path&gt;" class="s1" d="m864.5 523c0-5.6-5.1-10.1-11.3-10.1-6.3 0-11.4 4.5-11.4 10.1 0 5.6 5.1 10.1 11.4 10.1 6.2 0 11.3-4.5 11.3-10.1z"/>
		<path id="&lt;Path&gt;" class="s1" d="m805.4 616.7c-6.3 0-11.4 4.5-11.4 10.1 0 5.6 5.1 10.1 11.4 10.1 6.2 0 11.3-4.5 11.3-10.1 0-5.6-5.1-10.1-11.3-10.1z"/>
		<path id="&lt;Path&gt;" class="s1" d="m753.3 521.2c-6.2 0-11.3 4.5-11.3 10.1 0 5.5 5.1 10.1 11.3 10.1 6.3 0 11.4-4.6 11.4-10.1 0-5.6-5.1-10.1-11.4-10.1z"/>
		<path id="&lt;Path&gt;" class="s1" d="m867.5 713.3c-6.2 0-11.3 4.5-11.3 10.1 0 5.6 5.1 10.1 11.3 10.1 6.3 0 11.4-4.5 11.4-10.1 0-5.6-5.1-10.1-11.4-10.1z"/>
		<path id="&lt;Path&gt;" class="s1" d="m753.3 454c-6.2 0-11.3 4.5-11.3 10.1 0 5.5 5.1 10.1 11.3 10.1 6.3 0 11.4-4.6 11.4-10.1 0-5.6-5.1-10.1-11.4-10.1z"/>
		<path id="&lt;Path&gt;" class="s1" d="m805.4 399.5c6.2 0 11.3-4.5 11.3-10.1 0-5.6-5.1-10.1-11.3-10.1-6.3 0-11.4 4.5-11.4 10.1 0 5.6 5.1 10.1 11.4 10.1z"/>
		<path id="&lt;Path&gt;" class="s1" d="m667.3 656c-6.3 0-11.4 4.5-11.4 10.1 0 5.6 5.1 10.1 11.4 10.1 6.2 0 11.3-4.5 11.3-10.1 0-5.6-5.1-10.1-11.3-10.1z"/>
		<path id="&lt;Path&gt;" class="s1" d="m928 599.8c-6.2 0-11.3 4.6-11.3 10.1 0 5.6 5.1 10.1 11.3 10.1 6.3 0 11.4-4.5 11.4-10.1 0-5.5-5.1-10.1-11.4-10.1z"/>
		<path id="&lt;Path&gt;" class="s1" d="m724.7 399.5c6.2 0 11.3-4.5 11.3-10.1 0-5.6-5.1-10.1-11.3-10.1-6.3 0-11.4 4.5-11.4 10.1 0 5.6 5.1 10.1 11.4 10.1z"/>
		<path id="&lt;Path&gt;" class="s1" d="m682.2 448c6.3 0 11.4-4.6 11.4-10.1 0-5.6-5.1-10.1-11.4-10.1-6.2 0-11.3 4.5-11.3 10.1 0 5.5 5.1 10.1 11.3 10.1z"/>
		<path id="&lt;Path&gt;" class="s1" d="m501.9 397.9c5.5 0 10-4 10-8.8 0-4.9-4.5-8.8-10-8.8-5.4 0-9.9 3.9-9.9 8.8 0 4.8 4.5 8.8 9.9 8.8z"/>
		<path id="&lt;Path&gt;" class="s1" d="m414.9 461.1c6.3 0 11.4-4.6 11.4-10.1 0-5.6-5.1-10.1-11.4-10.1-6.2 0-11.3 4.5-11.3 10.1 0 5.5 5.1 10.1 11.3 10.1z"/>
		<path id="&lt;Path&gt;" class="s1" d="m488.2 573.7c-6.2 0-11.3 4.5-11.3 10.1 0 5.5 5.1 10 11.3 10 6.3 0 11.4-4.5 11.4-10 0-5.6-5.1-10.1-11.4-10.1z"/>
		<path id="&lt;Path&gt;" class="s1" d="m257 558.1c-6.3 0-11.4 4.5-11.4 10.1 0 5.5 5.1 10.1 11.4 10.1 6.2 0 11.3-4.6 11.3-10.1 0-5.6-5.1-10.1-11.3-10.1z"/>
		<path id="&lt;Path&gt;" class="s1" d="m548.5 565.2c6.2 0 11.3-4.6 11.3-10.1 0-5.6-5.1-10.1-11.3-10.1-6.3 0-11.4 4.5-11.4 10.1 0 5.5 5.1 10.1 11.4 10.1z"/>
		<path id="&lt;Path&gt;" class="s1" d="m560 434.3c-6.3 0-11.4 4.5-11.4 10.1 0 5.6 5.1 10.1 11.4 10.1 6.2 0 11.3-4.5 11.3-10.1 0-5.6-5.1-10.1-11.3-10.1z"/>
		<path id="&lt;Path&gt;" class="s1" d="m338.3 626c-6.2 0-11.3 4.6-11.3 10.1 0 5.6 5.1 10.1 11.3 10.1 6.3 0 11.4-4.5 11.4-10.1 0-5.5-5.1-10.1-11.4-10.1z"/>
		<path id="&lt;Path&gt;" class="s1" d="m531.3 642.9c-6.3 0-11.4 4.5-11.4 10.1 0 5.6 5.1 10.1 11.4 10.1 6.2 0 11.3-4.5 11.3-10.1 0-5.6-5.1-10.1-11.3-10.1z"/>
		<path id="&lt;Path&gt;" class="s1" d="m405 665.8c-6.3 0-11.4 4.6-11.4 10.1 0 5.6 5.1 10.1 11.4 10.1 6.2 0 11.3-4.5 11.3-10.1 0-5.5-5.1-10.1-11.3-10.1z"/>
	</g>
</svg>