<svg version="1.2" xmlns="http://www.w3.org/2000/svg" viewBox="0 0 700 908" width="700" height="908">
	<title>08-1-e-LIBRi-hamam2i-ai</title>
	<style>
		.s0 { fill: #000000 } 
		.s1 { fill: #fcfcfc } 
		.s2 { fill: #ffffff } 
	</style>
	<path id="Shape 1" class="s0" d="m810.4-5.3v921.5h-920.8v-921.5z"/>
	<g id="Black">
	</g>
	<g id="Color">
		<path id="&lt;Compound Path&gt;" fill-rule="evenodd" class="s1" d="m-104.2 0h908.4v908h-908.4zm448.9 128.4c-16.7 0.6-32.4 2.3-48.6 5.2-60.3 10.9-117.3 37.9-162.9 77.1-31.1 26.7-55.9 58.2-73.6 93.2-18.3 36.2-28.2 75-29.7 116-0.1 5.6 0 19.5 1.6 159.3 0.9 84.3 1.7 154.2 1.7 155.4 0.1 2.1 0 2.3-0.3 2.6-0.3 0.3-0.3 0.6-0.4 9.1-0.1 4.8-0.1 14.1-0.1 20.8v12.1l0.4 0.4c0.2 0.2 0.5 0.4 0.7 0.4q0.2 0 0.3 0.7c0 0.4 0.3 19.6 0.5 42.6 0.3 23 0.5 44.4 0.6 47.5l0.1 5.6 0.5 0.5 0.5 0.5 37.5-0.1c20.7-0.1 162.8-0.3 315.8-0.5 152.9-0.2 278.3-0.4 278.5-0.5 0.2 0 0.5-0.3 0.6-0.5 0.3-0.4 0.3-3.3 0.1-34.1-0.2-40.7-0.7-174.6-1.2-318.7-0.3-101.6-0.4-106.3-0.7-111.9-2-35.6-9.3-69-21.6-99.8-9.2-22.9-21.7-45.2-36.3-64.3-15.2-20-33.1-37.8-52.8-52.5-28.7-21.5-62.1-38.8-95.9-49.9-28.5-9.3-56.3-14.4-87.5-16.1-4.4-0.2-23.1-0.3-27.8-0.1z"/>
		<path id="&lt;Compound Path&gt;" fill-rule="evenodd" class="s2" d="m369.2 131.2c41.2 1.7 79.7 10.4 116.9 26.3 27.3 11.7 55.2 28.4 76.6 45.9 37.4 30.5 65.6 70.4 82.6 116.6 0.8 2.3 1.9 5.3 2.3 6.7l0.9 2.5-0.6 1.1c-5 9.1-13.6 20.8-22 30.1-19.4 21.3-44.8 40.8-75.8 58.1-56 31.4-123.5 51.5-185.2 55.2-15.1 0.9-38.8 0.6-60.4-0.7-36.6-2.4-67.7-7.6-94.6-15.9-6.6-2-11.8-3.8-24-8.5-4.5-1.8-16.8-6.4-32.3-12.1-31.4-11.7-47.2-19.2-63.8-30.4-9.6-6.5-18.6-13.6-29.2-23.3-3.4-3.2-13.6-13.2-17.4-17.2l-2.5-2.7 0.6-2.4c5.4-20.7 12.7-39.6 22.4-58.4 10.6-20.4 23.9-39.8 39.4-57.6 43.7-50 104.5-86.7 171.5-103.3 23.2-5.8 45.7-9 69.2-9.9 4.9-0.2 20.7-0.2 25.4-0.1zm-36.6 9.3c-2.1 0.5-4.6 2.1-5.9 3.7q-2.4 3-2.2 6.6c0.2 2.6 1.1 4.6 3.1 6.5 1.4 1.3 2.5 1.9 4.3 2.5 1.1 0.4 1.6 0.4 3.4 0.5 2.3 0 3.3-0.3 5.4-1.4 4-2 6.2-6.4 5.3-10.4-0.4-2-1.1-3.4-2.7-4.9-1.6-1.6-3.1-2.5-5.2-3-1.5-0.4-4-0.4-5.5-0.1zm-67.8 17.2c-4.7 1.2-8.1 5.2-8.1 9.7 0 2.7 0.9 4.8 2.9 6.8 1.5 1.5 2.7 2.2 4.6 2.8 4.3 1.3 9.2-0.1 12-3.5 1.4-1.8 2.1-3.7 2.2-5.9 0-1.7-0.3-2.9-1.2-4.6-1.2-2.4-3.9-4.4-6.8-5.2-1.6-0.4-4.1-0.4-5.6-0.1zm145.9 0c-1.2 0.3-3.2 1.3-4.3 2.1-1 0.7-2.3 2.3-2.8 3.2-1.4 2.8-1.5 5.9-0.1 8.7 0.8 1.6 2.7 3.5 4.5 4.4 2.1 1.1 3.1 1.3 5.4 1.3 2.2 0 3.3-0.2 5.3-1.3 3.3-1.7 5.5-5.2 5.6-8.7 0-1.1-0.6-3.3-1.2-4.3-0.5-1.1-1.9-2.6-2.8-3.4-0.9-0.6-2.2-1.3-3.5-1.8-1.3-0.4-4.6-0.5-6.1-0.2zm52.8 0.1c-3.5 0.9-6.5 3.6-7.6 6.8-0.5 1.4-0.5 3.9-0.1 5.4 0.8 2.6 2.7 4.9 5.2 6.1 2 1.1 3 1.3 5.3 1.3 2.2 0.1 3.7-0.3 5.6-1.3 1.4-0.7 3.6-2.9 4.3-4.3 1.7-3.6 1.3-7.4-1.3-10.5-1.4-1.6-3.7-3.1-5.9-3.6-1.5-0.3-4-0.3-5.5 0.1zm-80.9 31.8c-1.5 0.3-3.5 1.5-4.9 2.8-3.8 3.5-4.1 9.1-0.8 13 2.2 2.5 5.1 3.9 8.5 3.9 2.1 0 3.3-0.3 5.2-1.2 1.7-0.8 3.8-2.9 4.7-4.4 1-1.9 1.3-4.3 0.8-6.4-0.7-3.6-4-6.8-7.9-7.8-1.2-0.3-4.2-0.3-5.6 0.1zm-82.5 5.2c-2.8 1.4-4.7 3.7-5.5 6.5-0.8 3.3 0.1 6.4 2.6 8.9 3.4 3.4 8.2 4.3 12.6 2.4 2.3-1 4.3-2.8 5.3-4.8 2.8-5.7-0.5-12.2-7.1-13.9-2.6-0.7-5.6-0.3-7.9 0.9zm180.3 2c-2 2-2.9 4.1-2.9 6.9 0 2.5 1 4.7 2.9 6.6 3.4 3.4 8.6 4.3 13 2.1 2.7-1.3 5-4.1 5.6-6.9 0.9-4.3-1.3-8.5-5.4-10.6-0.9-0.5-2.1-1-2.7-1.1-3.9-0.8-7.7 0.3-10.5 3zm-275.5 2.2c-2.8 1.4-5.1 4.2-5.6 6.9-1.3 6.2 3.9 12 10.7 12 2.9 0 5.5-1 7.7-3q3.1-2.9 3.1-7c0-3.8-2.1-7-5.7-8.8-0.9-0.4-2.1-0.9-2.8-1-2.5-0.5-5.1-0.2-7.4 0.9zm135 2.1c-3.1 3.1-3.8 7.1-2 11 0.8 1.5 2.8 3.6 4.6 4.5 4.6 2.4 10.4 1.4 13.8-2.6 0.9-1 1.5-1.9 2-3.4 0.5-1.4 0.4-4.2-0.1-5.7-1.1-3.3-4.4-6.1-8.1-6.8-3.7-0.8-7.5 0.3-10.2 3zm89.5 5.7c-1.9 0.4-3.7 1.5-5.1 2.9-2 2-2.9 4.1-2.9 6.7 0 2.8 0.8 4.7 2.9 6.9 2.3 2.2 4.6 3.2 7.9 3.2 2.7 0 4.7-0.7 6.9-2.3 1.8-1.4 3.2-3.5 3.7-5.5 0.3-1.2 0.3-3.5-0.1-4.7-1-3.4-4.2-6.4-7.7-7.3-1.4-0.3-4.4-0.3-5.6 0.1zm-164.5 4.2c-0.6 0.1-1.8 0.6-2.6 1-4.2 2.2-6.3 6.4-5.4 10.7 0.7 3.8 4.3 7.1 8.5 7.9 3.6 0.7 7.5-0.5 10.1-3.1 1.9-1.9 2.8-4.1 2.9-6.6 0-2.8-0.9-4.9-3-6.9-1.5-1.5-3.1-2.4-5-2.9-1.6-0.4-3.9-0.4-5.5-0.1zm189.2 17.3c-5 1.3-8.3 5.6-8 10.3 0.2 2.5 1.2 4.6 3.1 6.4 1.4 1.2 2.5 1.9 4.3 2.5 1.1 0.4 1.6 0.4 3.4 0.4 2.3 0 3.3-0.2 5.4-1.3 1-0.5 1.8-1.1 2.6-1.9 3-3 3.7-7.1 1.9-10.9-0.4-0.9-0.9-1.5-1.9-2.5-1.6-1.6-3.1-2.5-5.1-3-1.7-0.5-4-0.5-5.7 0zm-86.4 8.7c-4.4 4.8-2.8 12.2 3.2 15.2 2.1 1 3.7 1.3 5.8 1.2 2.9-0.2 5.2-1.2 7.3-3.2 1-1 1.5-1.7 1.9-2.5 2.8-5.9-0.5-12.3-7.1-14-4-1-8.3 0.3-11.1 3.3zm-45.6-0.4c-1.3 0.3-3.4 1.1-4.4 1.8-1.4 1-2.9 2.6-3.5 4-2 4.2-0.9 8.9 2.9 11.8 2.1 1.6 4.2 2.3 6.9 2.3 3.2 0 5.5-0.9 7.8-3 3.8-3.6 4.2-9.1 0.8-13.1-1.5-1.7-3.4-2.9-5.6-3.5-1.2-0.4-3.8-0.5-4.9-0.3zm168.8 10.8c-4.6 3.5-5.3 9.7-1.6 14 2.2 2.6 5.7 4 9.2 3.7 3.2-0.2 5.8-1.5 7.8-3.8 1.6-1.9 2.3-3.7 2.3-6.1 0-2.8-0.9-4.8-2.9-6.8-1.5-1.5-3.1-2.4-5.1-2.9-3.3-0.9-7-0.1-9.7 1.9zm-295.4 6.4c-2 2-2.9 4-2.9 6.8 0 2.4 0.7 4.3 2.3 6.1 2.6 3.1 6.6 4.5 10.7 3.7 6.7-1.3 10.5-8 7.8-13.8-1.3-2.8-4.3-5.1-7.4-5.8-3.9-0.8-7.7 0.3-10.5 3zm234.1-3c-3.1 0.7-6.1 3-7.4 5.8-2.7 5.8 1.1 12.5 7.9 13.8 4.1 0.8 8.5-0.8 10.9-4 1.5-1.9 2-3.6 2-6 0-4.4-3.3-8.3-7.9-9.5-1.6-0.4-3.9-0.4-5.5-0.1zm153.7 12.6c-3.8 1.8-5.9 5.1-5.9 9 0 2.4 0.6 4.2 2.2 6 2 2.4 4.7 3.7 7.8 3.9 5.2 0.4 10.1-2.9 11.3-7.7 0.4-1.2 0.4-3.4 0.1-4.6-1-3.6-4.2-6.6-8.1-7.4-2.5-0.5-5.3-0.2-7.4 0.8zm-284.9 2.8c-3.3-0.3-6.3 0.9-8.7 3.3-2 2-2.9 4-2.9 6.7 0 2.7 0.9 4.7 2.9 6.8 2.2 2.2 4.8 3.2 7.9 3.2 3.1 0 5.6-1 7.8-3.1 2.1-2 3-4.1 3-6.9 0-1.8-0.2-2.9-1.1-4.5-1.2-2.3-4.1-4.5-6.8-5.2-0.5-0.1-1.5-0.3-2.1-0.3zm-192.3 8.6c-6.9 0-12.1 6.1-10.5 12.3 1.4 5.3 7.3 8.7 13 7.5 3.9-0.8 7.2-3.8 8.2-7.4 0.3-1.1 0.3-3.3 0-4.5-0.6-2.8-2.7-5.3-5.4-6.7-0.9-0.4-2.2-0.9-2.8-1-0.7-0.1-1.8-0.2-2.5-0.2zm252.2 3.3c-2 2-2.9 4-2.9 6.7 0 3.8 2.2 7.2 6 8.9 7.1 3.4 15.7-1.5 15.7-8.9 0-4.6-3.6-8.8-8.5-9.8-3.7-0.8-7.7 0.4-10.3 3.1zm-108.8 10.8c-1.5 1.9-2.2 3.8-2.2 6.2 0 2.7 0.9 4.7 2.9 6.7 0.8 0.8 1.7 1.5 2.5 1.9 3.9 2.1 8.9 1.7 12.3-0.9 4.6-3.6 5.3-9.7 1.6-14-1.6-1.8-3.9-3.1-6.3-3.6-4.1-0.8-8.1 0.6-10.8 3.7zm-51.8 5c-1.8 0.5-3.7 1.6-5.1 3-2 2-2.9 4-2.9 6.8 0 3 1.4 5.8 4 7.7 2.1 1.5 4.2 2.2 6.8 2.2 2.7 0 4.8-0.7 6.9-2.2 3.2-2.4 4.7-6.4 3.7-10.2-0.9-3.4-4.1-6.3-7.8-7.3-1.3-0.3-4.3-0.3-5.6 0zm344.1 9.5c-5.1 2.6-7.1 8.1-4.8 13 0.8 1.6 2.9 3.6 4.6 4.5 7.4 3.9 16.6-1.3 16.1-9.2-0.1-2.6-1.1-4.7-3.2-6.6-1.4-1.3-3.4-2.3-5.3-2.7-2.6-0.5-4.9-0.2-7.4 1zm-80.6 11.1c-4.4 2.2-6.7 7-5.4 11.4 1.1 3.4 4.4 6.4 8.1 7.2 6.8 1.4 13.3-3.4 13.3-9.8 0-4.6-3.7-8.9-8.6-9.8-2.7-0.6-4.8-0.2-7.4 1zm-308.6 7.3c-1.1 0.9-2.4 2.5-3 3.8-1.6 3.7-0.7 8 2.4 10.9 4.7 4.3 12.3 3.8 16.4-1.1 2.9-3.6 2.8-8.7-0.3-12.2-1.6-1.9-3.8-3.1-6.2-3.6-3.4-0.6-6.6 0.1-9.3 2.2zm131.3 8.9c-0.6 0.1-1.8 0.6-2.7 1-2.7 1.4-4.8 3.9-5.5 6.6-0.2 1.3-0.2 3.5 0.1 4.7 1.3 4.4 5.6 7.5 10.6 7.5 1.9 0 3.4-0.4 5.2-1.3 2.4-1.3 4.3-3.3 5.1-5.6 0.5-1.4 0.6-3.9 0.3-5.3-0.9-3.5-3.7-6.3-7.5-7.4-1.3-0.5-4.2-0.5-5.6-0.2zm88.9 8.7c-2.9 0.7-5.8 3-7 5.5-1.3 2.8-1.3 5.5 0 8.3 1.7 3.7 6.4 6.3 10.7 5.9 5.7-0.5 10-4.8 10-10 0-1.6-0.3-2.9-1.1-4.4-1.3-2.5-4.2-4.7-7-5.3-1.4-0.4-4.4-0.4-5.6 0zm-177.2 9.2c-2 2-3 4.2-3 6.9 0 2.4 0.8 4.5 2.4 6.3q3.3 3.7 8.4 3.7c3.2 0 5.8-1 8-3.2 2-2.1 2.9-4.1 2.9-6.8 0-2.6-0.9-4.8-2.9-6.7-1.5-1.5-3.4-2.6-5.2-3-4-0.9-7.7 0.1-10.6 2.8zm106.8 28.4c-1.1 0.3-3.1 1.2-4.2 2-5.9 4.5-4.9 13.2 1.9 16.5 3.4 1.7 6.8 1.7 10.1 0 2.6-1.2 4.5-3.3 5.4-5.8 0.5-1.5 0.6-4.3 0.1-5.7-1.2-3.5-4.1-6.2-7.9-7-1.2-0.3-4.1-0.3-5.4 0zm98.6 0.1c-3.8 0.9-7 4.1-7.7 7.6-0.5 2.1-0.1 4.5 0.9 6.4 0.7 1.3 2.9 3.6 4.3 4.3 1.8 0.9 3.3 1.3 5.4 1.3 3.6 0 6.3-1.2 8.6-3.9 2-2.3 2.8-5.7 2-8.5-1.1-3.5-4.1-6.4-7.9-7.3-1.4-0.4-4.1-0.4-5.6 0.1zm97.6 3.5c-4.1 4.8-2.5 11.9 3.4 14.9 5.3 2.6 11.9 0.8 14.8-4.1 1.1-2 1.5-4.7 1-6.9-0.9-3.5-4-6.5-7.8-7.4-4.1-1.1-8.7 0.3-11.4 3.5zm-271.5 13.3c-3.4 0.5-6.6 2.8-8.1 5.6-2.9 5.7 0.5 12.3 7.1 14 6.6 1.7 13.5-3.2 13.5-9.6 0-2.7-0.9-4.8-2.9-6.8-1.5-1.5-2.7-2.3-4.6-2.8-1.3-0.4-3.7-0.6-5-0.4z"/>
		<path id="&lt;Path&gt;" class="s2" d="m333.2 143.4c-1.5 0.4-2.9 1.3-4 2.4-1.3 1.4-1.7 2.6-1.7 4.5-0.1 1.4 0 1.6 0.6 2.8 2.3 4.8 9.3 5.8 13.1 1.9 4.6-4.7 0.9-11.9-6.1-11.8-0.5 0-1.4 0.1-1.9 0.2z"/>
		<path id="&lt;Path&gt;" class="s2" d="m265.4 160.6c-3.8 1-6.3 4.4-5.7 7.8 0.2 1.6 0.8 2.6 1.9 3.8 3.9 3.9 10.8 2.9 13.2-1.9 0.5-0.9 0.5-1.2 0.5-2.8 0-1.7 0-1.9-0.5-2.9-0.7-1.3-1.8-2.4-3.2-3.2-1.7-1-4.3-1.3-6.2-0.8z"/>
		<path id="&lt;Path&gt;" class="s2" d="m411.2 160.6c-1.4 0.4-2.5 1-3.6 2-3.6 3.4-2.6 8.9 2 11.1 3.3 1.6 7.2 0.9 9.7-1.5 3.8-3.9 1.8-10.1-3.8-11.6-1.3-0.3-3.1-0.3-4.3 0z"/>
		<path id="&lt;Path&gt;" class="s2" d="m464.2 160.6c-2.2 0.6-4.1 2.1-5.1 4-0.5 1-0.5 1.2-0.5 2.9 0 1.6 0 1.9 0.4 2.7 0.7 1.4 2.1 2.8 3.6 3.5 4.1 2 9.1 0.4 11-3.4 0.6-1.2 0.6-1.4 0.6-2.8 0-3-1.7-5.3-4.8-6.6-1.4-0.5-3.7-0.7-5.2-0.3z"/>
		<path id="&lt;Path&gt;" class="s2" d="m383.3 192.4c-2.2 0.6-4.1 2.2-5.1 4-0.5 1.1-0.5 1.3-0.5 2.9 0 1.5 0 1.7 0.5 2.8 0.8 1.5 2.1 2.7 3.8 3.5 1.3 0.6 1.3 0.6 3.5 0.6 2.2 0 2.2 0 3.5-0.6q3.3-1.6 4.2-4.6c1-3.6-1.5-7.5-5.5-8.6-1.2-0.3-3.2-0.3-4.4 0z"/>
		<path id="&lt;Path&gt;" class="s2" d="m303.1 196.7c-2.9 0.7-5.2 3.1-5.7 5.8-0.9 4.7 3.9 8.9 9.1 8.1 1.7-0.3 3.4-1.2 4.6-2.3 2.8-2.8 2.7-6.9-0.2-9.6-2.1-1.9-4.9-2.7-7.8-2z"/>
		<path id="&lt;Path&gt;" class="s2" d="m486.1 196.8c-2.1 0.5-4.2 2.2-5.1 4-0.4 0.9-0.5 1.2-0.5 2.8 0 1.6 0.1 1.9 0.5 2.7 1.5 3 5.1 4.8 8.5 4.3 4.4-0.7 7.4-4.5 6.6-8.2-0.8-4.2-5.5-6.8-10-5.6z"/>
		<path id="&lt;Path&gt;" class="s2" d="m208.2 201c-1.3 0.2-2.8 1-3.8 1.9-2.2 1.9-2.9 4.7-1.9 7.4 0.5 1.3 2.2 3.1 3.5 3.7 1.8 0.9 3.9 1.2 5.7 0.8 2.4-0.5 4.7-2.2 5.6-4.2 0.4-0.9 0.4-1.2 0.4-2.8 0-1.6 0-1.8-0.4-2.7-1-2-3.2-3.7-5.5-4.1-1.4-0.4-2.2-0.4-3.6 0z"/>
		<path id="&lt;Path&gt;" class="s2" d="m346 201c-3.1 0.6-5.6 3.1-6 5.9-0.6 3.5 2 6.9 5.8 7.8 2.8 0.7 5.6 0 7.7-2 2.4-2.1 2.9-5.2 1.4-8-1-1.8-3.1-3.3-5.4-3.8-1.4-0.3-2.2-0.3-3.5 0.1z"/>
		<path id="&lt;Path&gt;" class="s2" d="m429.9 209.7c-2.2 0.5-4.1 2.1-5 4.1-0.5 1-0.6 1.3-0.6 2.6 0.1 2.2 0.5 3.3 1.9 4.7 1.9 1.9 4.2 2.7 7.1 2.4 2.5-0.3 5.1-2 6.2-4.2 0.5-1.1 0.5-1.3 0.5-2.9 0-1.5 0-1.7-0.5-2.8-1-1.9-2.9-3.4-5.1-4-1.3-0.3-3.3-0.3-4.5 0.1z"/>
		<path id="&lt;Path&gt;" class="s2" d="m265.4 213.9c-2.1 0.6-4.1 2.1-5 3.8-1.5 2.6-0.9 5.9 1.4 7.9 1.2 1.1 2.9 1.9 4.4 2.2 3.4 0.5 7.2-1.3 8.7-4.3 0.4-0.8 0.4-1.1 0.4-2.7 0-1.6 0-1.9-0.4-2.8-1.6-3.2-5.9-5.1-9.5-4.1z"/>
		<path id="&lt;Path&gt;" class="s2" d="m455.1 231c-1.4 0.3-2.9 1.1-4.1 2.3-1.5 1.5-1.9 2.6-1.9 4.7-0.1 1.3 0 1.5 0.6 2.7 1.1 2.3 3.3 3.8 5.9 4.3 4.2 0.7 8.7-2.2 9.2-6.1 0.5-3.6-2-6.9-5.8-7.8-1.2-0.3-2.7-0.3-3.9-0.1z"/>
		<path id="&lt;Path&gt;" class="s2" d="m374 236.5c-2.9 0.7-5.3 3.1-5.8 5.8-0.6 3.8 2.4 7.5 6.7 8.1 5.1 0.8 9.8-3.4 9-8-0.1-0.5-0.4-1.4-0.6-2-0.6-1.1-2.1-2.6-3.3-3.2-1.8-0.9-4.1-1.1-6-0.7z"/>
		<path id="&lt;Path&gt;" class="s2" d="m322.9 239.5c-2.2 0.3-4.6 1.7-5.7 3.5-3 4.7 0.8 10.6 6.8 10.6 3.2 0 6-1.6 7.3-4.2 0.5-1 0.6-1.2 0.6-2.8 0-1.5-0.1-1.8-0.5-2.7-0.7-1.4-2-2.7-3.6-3.5-1.2-0.6-1.6-0.8-3.3-1-0.3 0-1 0.1-1.6 0.1z"/>
		<path id="&lt;Path&gt;" class="s2" d="m495.6 248.3c-2.2 0.6-4.2 2.2-5.2 4.1-0.4 1.1-0.5 1.3-0.5 2.8 0 1.5 0.1 1.7 0.6 2.7 1.4 3 5 4.8 8.4 4.3 1.8-0.3 3.2-0.9 4.6-2.2 1.4-1.4 2-2.6 2.1-4.6 0.1-1 0-1.6-0.3-2.3-0.3-1.1-1.4-2.6-2.2-3.3-2.1-1.5-5.1-2.2-7.5-1.5z"/>
		<path id="&lt;Path&gt;" class="s2" d="m201.4 253.7c-2.3 0.7-4.4 2.3-5.3 4.2-0.4 0.8-0.5 1.1-0.5 2.6 0 2.3 0.5 3.4 2.1 4.9 1.4 1.3 2.8 2 4.6 2.2 1.6 0.2 3.3 0 4.9-0.7 1.3-0.6 2.9-2.2 3.5-3.5 0.5-1.1 0.6-1.3 0.6-2.8 0-1.4-0.1-1.7-0.6-2.7-1.5-3.3-5.7-5.1-9.3-4.2z"/>
		<path id="&lt;Path&gt;" class="s2" d="m430.1 253.7c-2.3 0.7-4.3 2.2-5.2 4.2-0.5 1-0.6 1.3-0.6 2.7 0 1.5 0.1 1.7 0.6 2.8 1.5 2.9 5.1 4.7 8.5 4.2 2.8-0.4 4.9-1.9 6.1-4.3 0.5-1 0.5-1.2 0.5-2.8 0-1.5 0-1.8-0.5-2.7-1.6-3.2-5.8-5-9.4-4.1z"/>
		<path id="&lt;Path&gt;" class="s2" d="m586.1 265.5c-3.7 1-6 3.9-5.8 7.3 0.1 1.7 0.8 3.1 2.2 4.4 2.7 2.5 6.4 2.9 9.7 1.3 1.1-0.6 2.7-2.2 3.3-3.4 0.5-1 0.5-1.2 0.5-2.7 0-1.5 0-1.8-0.5-2.8-1.6-3.2-5.8-5.1-9.4-4.1z"/>
		<path id="&lt;Path&gt;" class="s2" d="m295.2 269.5c-2.6 0.8-4.5 2.5-5.2 4.8-1.4 4.5 2.4 9 7.6 9 0.8 0 1.8-0.1 2.2-0.3 2.2-0.6 4.2-2.1 5.1-4 0.5-1 0.6-1.2 0.6-2.8 0-1.6-0.1-1.8-0.6-2.8-0.9-1.9-2.7-3.3-5-4-1.2-0.4-3.5-0.3-4.7 0.1z"/>
		<path id="&lt;Path&gt;" class="s2" d="m104.3 277.9c-2.2 0.5-4.4 2.1-5.4 4.1-0.5 1.1-0.5 1.3-0.5 2.8 0 1.5 0 1.7 0.5 2.7 1.3 2.6 4.3 4.4 7.3 4.4 2.7 0 5.6-1.5 7-3.7 1.2-2 1.2-4.8 0-6.8-1.1-1.7-3.1-3.1-5.2-3.5-1.4-0.3-2.3-0.3-3.7 0z"/>
		<path id="&lt;Path&gt;" class="s2" d="m364.4 277.9c-2.3 0.5-4.5 2.1-5.5 4.1-0.4 0.9-0.5 1.2-0.5 2.8 0 1.6 0.1 1.9 0.5 2.8 1.3 2.5 4.4 4.3 7.4 4.3 1.1 0 2.8-0.4 3.8-0.9 1.3-0.7 2.8-2.2 3.4-3.4 0.5-1.1 0.6-1.3 0.6-2.8 0-1.5-0.1-1.7-0.6-2.8-1-2-3.1-3.6-5.4-4.1-1.4-0.3-2.4-0.3-3.7 0z"/>
		<path id="&lt;Path&gt;" class="s2" d="m256.5 288c-2.4 0.5-4.6 2.1-5.7 4.3-0.5 1-0.5 1.2-0.5 2.8 0 1.5 0 1.8 0.5 2.6 0.9 2 3 3.6 5.3 4.2 3.6 1 7.8-0.9 9.3-4.2 0.5-1 0.5-1.2 0.5-2.7 0-1.5 0-1.7-0.5-2.8-0.7-1.3-2.2-2.8-3.6-3.4-1-0.5-2.9-0.9-3.8-0.9-0.3 0-1 0.1-1.5 0.1z"/>
		<path id="&lt;Path&gt;" class="s2" d="m198.3 296.8c-2.2 0.6-4.2 2.2-5.1 4.1-0.4 0.9-0.5 1.2-0.5 2.7 0 1.6 0 1.8 0.6 2.8 1.8 3.8 6.9 5.4 10.8 3.5 1.6-0.7 3-2 3.7-3.4 1.1-2.1 0.8-4.8-0.6-6.7-0.8-1.1-2.3-2.3-3.6-2.8-1.3-0.4-4-0.6-5.3-0.2z"/>
		<path id="&lt;Path&gt;" class="s2" d="m545.4 305.2c-2.3 0.4-4.8 2.2-5.8 4.2-1.9 3.9 0.6 8.6 5.3 9.7 3 0.7 5.8-0.1 7.9-2.3 1.5-1.5 2-2.5 2-4.6 0-1.4 0-1.5-0.6-2.8-1.1-2.1-3.1-3.6-5.6-4.1-1.2-0.3-1.9-0.3-3.2-0.1z"/>
		<path id="&lt;Path&gt;" class="s2" d="m464.5 316.4c-2.3 0.5-4.5 2.2-5.4 4.1-0.5 0.9-0.5 1.1-0.5 2.8 0 1.5 0 1.9 0.4 2.7 1.2 2.5 4.4 4.4 7.4 4.4 1.2 0 2.8-0.4 3.9-0.9 1.3-0.7 3-2.5 3.5-3.8 1-2.7 0.4-5.4-1.7-7.3-1.1-1-2.6-1.7-4.1-2-1.3-0.3-2.1-0.3-3.5 0z"/>
		<path id="&lt;Path&gt;" class="s2" d="m158.1 322.4c-2.4 0.4-4.6 2.1-5.7 4.3-0.5 1-0.6 1.2-0.6 2.8 0 1.5 0.1 1.8 0.5 2.7 1.3 2.6 4.3 4.3 7.4 4.3 3 0 6-1.8 7.3-4.4 0.5-1 0.5-1.2 0.5-2.7 0-1.5 0-1.7-0.6-2.8-1-2-3.1-3.6-5.6-4.1-1.3-0.3-1.9-0.3-3.2-0.1z"/>
		<path id="&lt;Path&gt;" class="s2" d="m284.5 333.6c-2.4 0.5-4.4 2.1-5.4 4.1-0.5 1.1-0.5 1.3-0.5 2.8 0 1.6 0 1.8 0.4 2.7 1.5 3 5.2 4.8 8.7 4.3 2.6-0.4 4.9-2.1 6-4.3 0.5-1 0.5-1.3 0.5-2.7 0-1.5 0-1.8-0.5-2.8-0.6-1.2-2.1-2.8-3.2-3.3-1.8-0.9-4.2-1.3-6-0.8z"/>
		<path id="&lt;Path&gt;" class="s2" d="m373.6 342.2c-2.2 0.5-4.3 2.2-5.2 4.1-1.7 3.5-0.1 7.3 3.7 9.1 1.3 0.6 1.3 0.6 3.5 0.6 2.2 0 2.2 0 3.6-0.6 1.7-0.8 3-2 3.7-3.5 0.5-1.1 0.6-1.3 0.6-2.8 0-1.6-0.1-1.8-0.6-2.9-0.9-1.9-2.8-3.4-5.1-4-1-0.2-3.2-0.3-4.2 0z"/>
		<path id="&lt;Path&gt;" class="s2" d="m201 348.8c-2.3 0.7-3.9 2.1-4.8 3.9-0.6 1-0.6 1.2-0.6 2.8 0 1.6 0 1.8 0.6 2.9 0.7 1.4 2 2.7 3.8 3.5 1.2 0.6 1.2 0.6 3.4 0.6 2.3 0 2.3 0 3.6-0.6 3.4-1.6 5-4.8 4.1-8.1-0.6-2.1-2.4-4-4.7-4.8-1.3-0.6-4.1-0.7-5.4-0.2z"/>
		<path id="&lt;Path&gt;" class="s2" d="m303 379.9q-2 0.5-3.6 2c-3.2 3.1-2.7 8 1.1 10.5 4.2 2.8 10.5 1.1 12.2-3.4 0.5-1.3 0.5-3.3 0-4.7-0.5-1.3-2-2.9-3.4-3.6-1.9-1.1-4.3-1.4-6.3-0.8z"/>
		<path id="&lt;Path&gt;" class="s2" d="m401.8 379.8c-2.3 0.7-4.3 2.3-5.2 4.2-0.5 1-0.5 1.3-0.5 2.7 0 2.1 0.4 3.2 1.9 4.6 3.9 4 10.8 3 13.2-1.8 0.5-1 0.5-1.2 0.5-2.8 0-1.6 0-1.8-0.5-2.9-0.9-1.8-2.9-3.4-5.1-3.9-1.2-0.3-3.3-0.3-4.3-0.1z"/>
		<path id="&lt;Path&gt;" class="s2" d="m504.9 379.8c-4.2 1.4-6.4 4.9-5.5 8.5 0.6 2.1 2 3.7 4.1 4.7 3.3 1.5 7.1 0.9 9.6-1.5 3.5-3.6 2.5-8.7-2.3-11.1-1.3-0.7-1.5-0.7-3.3-0.7-1.3-0.1-2.2 0-2.6 0.1z"/>
		<path id="&lt;Path&gt;" class="s2" d="m226.9 396.9c-2.2 0.5-4.4 2.1-5.4 4.1-0.5 0.9-0.5 1.1-0.5 2.8 0 1.7 0 1.9 0.5 2.9 1.3 2.6 4.2 4.2 7.3 4.2 3.2 0 6.1-1.7 7.4-4.3 0.4-0.9 0.5-1.2 0.5-2.7 0-1.6-0.1-1.8-0.6-2.8-1-2.1-3.1-3.7-5.4-4.2-1.5-0.3-2.4-0.3-3.8 0z"/>
		<path id="&lt;Path&gt;" class="s2" d="m648.2 335.4c-15.2 25.6-42.2 51.5-76.2 73.4-62.4 40-142.7 65.5-214.8 68.2-9.7 0.3-28.7 0.1-43.2-0.6-36.5-1.8-69.7-6.6-96.6-14.1-10.3-2.8-17.3-5.2-30.6-10.3-5.7-2.2-15.9-6-29.6-11.1-20.8-7.8-31.1-11.9-41.5-16.8-16.4-7.7-32.1-17.9-46.6-30-7.4-6.3-12.6-11.1-21.5-20-5.5-5.5-7.8-7.6-7.8-7.4-0.2 0.7-1.2 5.3-1.9 8.7-2.5 12.4-4 24.6-4.9 38.5-0.4 7.6-0.3 19.5 1.4 171.2 1 83.3 1.8 151.4 1.8 151.4 0 0 74.2-7.2 74.5-7.2 0.1 0-1.1-0.6-2.5-1.1-7.4-3.1-11.7-5.4-14.4-7.7-0.9-0.7-2.3-2.4-2.5-3.1-0.5-1.2 2.4-20.1 4.8-31.2 2.2-10.4 4.7-19 7.1-24.5 2-4.5 3.6-6.8 7.2-10.5q5.8-6 12.1-10.4c1.3-0.9 2.5-1.8 2.7-2 0.5-0.4 1.3-2 1.8-3.8 0.1-0.7 0.3-1.3 0.3-1.4 0.1-0.3 0-0.3-1.4-0.1-0.8 0.2-1.6 0.3-1.7 0.3-0.1 0-0.7-0.5-1.4-1.1-3.3-3.1-5.4-8.3-6.4-15.7-0.3-2.5-0.5-8.1-0.3-10.5l0.2-1.9-0.7-2c-1.1-3.3-1.2-4.4-1.2-8.5 0-3.4 0-3.8 0.5-5.7 1.1-4.8 3-8.9 6.2-13.1 1.3-1.8 1.4-1.9 1.4-2.8 0-1.5 0.5-4.4 1.1-6.4 2.1-6.9 6.6-12 12.3-13.8 2.1-0.7 3.1-0.8 6.1-0.8 2.6 0 3 0 4.4 0.4 2.6 0.8 4 1.9 4.9 3.8 0.4 0.7 0.7 1.6 0.7 2.2l0.1 0.9 4.1 0.1c4.2 0.1 6.3 0.4 9.2 1.1 5.6 1.4 9.3 3.6 12.1 7.4 1.1 1.5 2.5 4.2 3 5.8 0.9 2.7 1.1 6 0.4 8.7l-0.3 1.2 0.4 0.8c1.9 2.9 3 7.5 2.7 11.9-0.2 4.1-1.6 6.9-5.3 10.7-3 3.2-8 6.8-12.6 9.3-1.1 0.6-1.2 0.7-1.8 1.8-0.6 1.2-2 2.8-3.2 3.6-0.3 0.2-1.9 1.1-3.5 2-1.5 0.8-3.2 1.8-3.6 2.1-2.2 1.4-4.2 4.3-4.2 6.1 0 0.8 0.7 5.2 1.1 6.3 0.1 0.5 0.3 0.7 1.3 1.2 6 3.5 12.6 8.7 17.2 13.4 1.9 2.1 2.9 3.4 4.1 5.3 0.5 0.8 1.3 2 1.8 2.7 2.8 3.7 5.8 9.3 6.9 12.8 1.9 5.9 3.4 14.8 3.9 24.1 0.3 4.4 0.2 14.5-0.2 18.2-0.3 3-1.1 8.4-1.3 8.8-0.1 0.3 0.1 0.3 1.2 0.2 0.7 0 17.4-1 37.1-2.2l35.9-2.2 55 1.1c30.2 0.6 56.8 1.1 59.1 1.1 3.9 0.1 4.1 0.1 4.1-0.2 0-0.5 1.6-7.4 2.4-10.4 3-11.7 6.7-21.2 12.2-30.9 2.7-4.9 2.5-4.5 3.9-8.3 3.1-8.4 6-14.2 9.9-19.1 2-2.6 1.9-2.4 1.4-2.3-0.3 0.1-0.5 0.1-0.5 0.1 0-0.1 2.7-2.2 4.9-3.8 0.7-0.5 2.8-2.1 4.5-3.4 1.7-1.3 4.1-3.1 5.2-3.9 2.4-1.8 3-2.3 4.6-4.2 1.9-2.2 4.5-6.5 5.4-8.6l0.2-0.6-1.1-1c-1.3-1.2-2.2-2.7-2.3-3.9-0.1-1.3-0.2-1.6-0.5-1.6-0.5 0-2.2-0.8-2.7-1.3-0.6-0.5-1.2-1.6-1.4-2.2-0.1-0.6-0.4-0.7-1.7-0.7-1.3 0-3.7-0.5-5.2-1-1.2-0.5-2.2-1.1-3.1-1.9-1.1-0.9-2-3-2-4.4 0.1-0.8 0-0.8-1.3-2.1-2.1-2.1-2.9-4.5-2.7-7.6 0.4-5.5 3.6-10.1 8.4-12l1.5-0.6-0.1-1c0-0.5 0.1-1.4 0.2-2 0.5-1.8 2.4-4.4 4-5.5 0.8-0.6 0.9-0.7 1-1.5 0.1-1.9 1.8-4.1 4.2-5.7 3-2 6.7-3.2 9.5-3.2h1.3l0.1-2c0-1.6 0.1-2 0.5-2.8q1.2-2.5 4.3-3.4c1.2-0.4 4.6-0.3 6 0.1 2.1 0.5 4 1.8 4.7 3.1 0.2 0.6 0.3 0.6 1.1 0.6 0.5-0.1 1 0 1.4 0.3 2.4 1.2 3.9 3.6 4.1 6.4l0.1 1.4 0.7 0.6c0.9 0.8 2.5 3.2 3 4.5 0.7 2.1 0.5 4.3-0.7 6.2l-0.6 1 0.9 1.7q0.9 1.7 1.4 1.9c0.2 0.2 0.6 0.5 0.9 0.9 0.4 0.5 0.4 0.6 0.3 0.9-0.2 0.4-0.2 1.6 0.1 2.3 0.3 0.8 0.2 1.5-0.2 2.4l-0.4 0.8 0.7 1.5c1.8 3.9 3.4 9.3 4.9 15.8 1 4.6 1.9 11.6 1.7 13.1-0.2 2.4-0.7 3.5-1.9 4.3-1.2 0.9-4.8 2.4-6 2.6l-1.2 0.2v0.7c0 0.4 0 0.9-0.1 1.3l-0.1 0.6 3.5 1.4c7 2.9 12.8 4.7 21.5 6.8 3.7 0.9 11.9 2.5 16.6 3.3 10.4 1.8 28.5 4 30 3.7 6.6-1.5 24.7-2.3 43.8-1.9 8.5 0.2 9 0.1 10.2-0.1 0.7-0.2 1.7-0.4 2.2-0.5 0.5 0 1-0.2 1.1-0.4 0.2-0.1 1.2-0.4 2.4-0.7 1.9-0.5 2.2-0.5 4.5-0.4 3.7 0.1 7.4 0.8 9.4 1.8 1.4 0.7 1.9 1.6 2 3.5l0.1 1.2 0.8-1c2-2.4 5.6-4.3 9.8-5 2.2-0.4 6.5-0.4 8.7 0q6.8 1.1 9.7 4.9c1 1.3 1.1 1.6 1.6 3.2 0.7 2.4 0.3 5.6-1.2 8.1-0.9 1.5-3.6 4.1-5.2 5-3 1.7-5.8 2.3-10.5 2.2-3.2-0.1-4.7-0.4-6.9-1.2-2-0.7-4.2-2.1-5.4-3.4l-0.5-0.5-0.3 0.7c-0.4 1.5-2.5 3.5-4 4-0.8 0.3-1.5 0.2-2.3-0.2-0.5-0.2-0.5-0.2-0.9 0.5-0.9 1.1-3.4 2.5-4.9 2.5-0.7 0-1.5-0.4-2.1-0.9l-0.4-0.5-0.9 0.7c-2 1.5-3.7 1.8-5.1 0.8-0.9-0.5-2.1-2.1-2.3-3-0.1-0.3-0.2-0.5-0.3-0.5-0.1 0-4 1.7-9.3 4.1-16 7.2-27.2 10.4-39.8 11.5-0.7 0-2.3 0.4-3.4 0.7-10.1 2.9-30.1 3-53.2 0.2-1.5-0.2-2.7-0.3-2.7-0.3 0 0-4.3 8.8-7.4 15.4l-1.6 3.3 1.2 0.2c2.1 0.3 6.9 1.3 9.5 2 9.7 2.4 19.3 6.2 26.3 10.4 1.1 0.7 3.5 1.9 5.3 2.8 4 2 4.5 2.4 5.8 5 0.5 1 0.9 2.1 1.1 2.4q0.2 0.7 0.5 0.8c0.9 0.2 145.7 25.9 145.7 25.8 0 0 0-30.9-0.2-68.6-0.1-37.7-0.4-113.5-0.6-168.3-0.4-108.8-0.3-102.2-1.4-114.7q-2.5-29.7-10.1-57.3c-0.9-3.6-3.1-10.8-3.2-10.9 0 0-0.7 1.1-1.5 2.4z"/>
		<path id="&lt;Path&gt;" class="s2" d="m138.6 554.5c-5.1 1.1-8.8 4.2-11.2 9.5-1.2 2.7-1.9 5.5-2.1 9.2l-0.2 1.7-1 1.2c-3.4 4.1-6.1 9.8-6.8 14.7-0.2 1.5-0.2 5.3 0 6.4l0.1 0.8 0.6-2c1.4-4.2 3.6-7.8 7.6-12.9 3.3-4 4.1-5.2 6-8.1 1-1.5 1.8-2.7 1.9-2.7 0.1 0 0.3 1.3 0.6 2.8 1 6.4 2.8 9.6 10.1 18.8 5.5 6.9 6.9 9.2 7.7 12.6l0.2 0.7 1.5-0.8c4.5-2.2 7.9-2.4 9.4-0.6 1.2 1.5 1 4.5-0.3 6.7-2.2 3.4-6.1 5.4-11.1 5.7l-1.8 0.1-0.4 0.8c-0.6 1.1-1.5 2.7-2.3 3.7-0.3 0.5-0.6 0.9-0.6 1 0 0 0.3 0.8 0.8 1.6l0.8 1.6 0.6-0.8c0.7-1 2.2-2.5 3.3-3.3 0.6-0.4 2.2-1.3 3.6-2 4.4-2.3 5.3-3.2 6.4-5.7 0.2-0.7 0.4-0.8 2.3-1.9 7.4-4.1 13.6-9.4 15.6-13.5 1.2-2.5 1.3-6.2 0.4-10.4-0.4-1.6-1.6-4.1-2.5-5l-0.7-0.7 0.3-0.7c1.8-3.5 1.2-8.4-1.3-12.5-2.6-4.2-5.7-6.3-11.4-7.7-3.5-0.9-5.9-1.1-10.8-1-2.4 0.1-4.5 0.2-4.8 0.2l-0.6 0.1 0.4-1.2c0.9-3.2-0.1-5.2-3.1-6.1-1.5-0.5-5.5-0.7-7.2-0.3z"/>
		<path id="&lt;Path&gt;" class="s2" d="m442.7 561.9c-3.1 0.7-3.7 2.9-2.3 8 0.4 1.4 0.7 2.5 0.7 2.6 0 0.1-0.8-0.4-1.9-1l-1.9-1.1h-1.9c-1.7 0-2 0-3.5 0.5-3 1.1-5.6 2.7-6.6 4.2-0.7 1-0.8 2-0.5 3.1 0.2 0.4 0.2 0.8 0.2 0.8-0.1 0.1-0.5 0.2-1 0.4-0.5 0.1-1.2 0.5-1.6 0.7-0.9 0.7-2.3 2.6-2.7 3.6-0.4 1.2-0.2 2.1 0.6 3.3 0.4 0.6 0.7 1.1 0.7 1.2 0 0.1-0.9 0.4-2 0.6-2.8 0.5-4.4 1.3-6.2 3.1-1.9 1.9-2.9 4.3-3.1 7.2-0.3 2.8 1 5.3 3.3 6.5 0.9 0.4 1 0.6 0.9 1-0.2 2.3-0.1 3.1 0.2 3.6 1 1.7 3.8 2.6 8.1 2.9l2.1 0.1-0.9-1c-1.3-1.4-1.7-2.6-1.7-4.4 0.1-1.6 0.5-2.6 1.7-3.9 1.2-1.3 2.4-1.9 4.1-1.9 1.1 0 1.4 0.1 2.3 0.5q3 1.5 4.4 5.3l0.6 1.5 0.6-1.5 0.6-1.5-0.2-1.5c-0.2-0.9-0.6-3.2-1-5.2-1.5-8-1.6-8.8-1.6-10.8 0-1.3 0.1-2.3 0.3-3 0.4-1.3 1.5-3.2 2.6-4.1 2.4-2.1 6-4 9.8-5.3 2.3-0.8 2.7-0.9 3.7-0.8 1.3 0.1 2.5 0.5 3.7 1.5 0.5 0.3 1 0.6 1 0.5 0 0 0.4-1.4 0.9-3.1 1-3.5 1.1-4.6 0.6-6.2-0.4-1.1-1.7-2.5-2.2-2.4-0.2 0-0.9 0.9-1.7 2.1l-1.3 2-0.1-0.9c-0.1-0.6-0.2-1.7-0.2-2.6 0-2.5-0.7-3.6-2.6-4.3-1.1-0.3-3.9-0.5-5-0.3z"/>
		<path id="&lt;Path&gt;" class="s2" d="m456.5 576.4l-1.4 2.2 1.3 1.7c0.7 1 1.4 2 1.5 2.2 0.2 0.3 0.3 0.2 1-0.6 0.9-0.9 1.5-2.3 1.5-3.3-0.1-0.3-0.2-1-0.3-1.4-0.4-1-1.7-3-1.9-3-0.2 0-0.9 1-1.7 2.2z"/>
		<path id="&lt;Compound Path&gt;" fill-rule="evenodd" class="s2" d="m451 579.1c1.4 0.9 3.6 3.6 5.3 6.5l0.5 0.8-1.1 0.2c-1.2 0.2-1.8 0.6-2.1 1.4-0.2 0.6-0.2 0.7 0.1 1.3 0.2 0.4 0.6 0.7 1.1 1 0.8 0.4 2.9 0.9 4.1 0.9 0.7 0 0.8 0.1 1.1 0.7l0.4 0.7h-0.7q-1 0-1.5 1c-0.3 0.4-0.3 0.4-0.8-0.7l-0.6-1-1.6 0.8c-0.8 0.4-1.5 0.7-1.5 0.8 0 0 0.4 2 0.9 4.5 0.4 2.5 0.8 4.5 0.7 4.6-0.7 0.2-1.4 0.7-1.7 1.3-0.5 0.9-0.7 2.6-0.4 3.5 0.3 0.8 1.1 1.7 1.6 1.7 0.8 0 0.5 0.2-1 0.9-2.2 0.9-4.6 2.4-5.6 3.4-0.8 0.8-0.9 1.1-1.3 2.4-1.4 4.4-1.7 9.8-0.7 12.6 0.1 0.4 0.2 0.8 0.2 0.9-0.1 0.1-3.1-0.5-4.7-1-1.6-0.4-3.3-1.2-4.1-1.8-0.9-0.7-1-1.4-0.9-8.3v-6.1l0.7-1.3c1.2-2.4 1.5-3.5 1.5-5 0-1.5-0.4-4.1-1.1-7-0.9-3.3-1.6-8.3-1.6-10.5 0-1.7 0.3-2.6 1.4-3.8 1.9-2.1 6.3-4.6 10.1-5.6 1.7-0.4 2.4-0.4 3.3 0.2zm-6.2 9.2c-1.8 0.6-3.5 1.4-3.8 1.7-0.1 0.2-0.3 0.7-0.3 1.2l-0.2 0.9 1.3 0.4c2.7 0.8 5 0.7 7.3-0.5 1.5-0.7 2.8-2 2.7-2.5-0.1-0.3-0.1-0.6-0.1-0.8 0-0.3-0.2-0.5-0.9-0.8-1.7-0.7-2.6-0.7-6 0.4zm-0.1 9.6c0 1.4 0.3 2.5 1.4 4.2l0.6 1 1.4-0.7 1.3-0.7 1.6 0.1c0.9 0.1 1.8 0.2 1.9 0.2 0.2 0.1 0.3-0.1 0.4-1.3 0.1-1.6-0.1-2.8-0.7-3.9-0.5-1.1-1.6-2.2-2.4-2.6-2.8-1.4-5.3 0.3-5.5 3.7z"/>
		<path id="&lt;Path&gt;" class="s2" d="m447.8 597c-0.2 0.4-0.3 1.7-0.1 2 0.1 0.2 0.3 0.2 0.8 0.1 0.4-0.2 1-0.2 1.3-0.2 0.3 0 0.5-0.1 0.5-0.1 0-0.1-0.1-0.4-0.3-0.8-0.6-1.2-1.8-1.8-2.2-1z"/>
		<path id="&lt;Compound Path&gt;" fill-rule="evenodd" class="s2" d="m132 579.6l0.5 1.2c1.5 4.2 3.7 7.8 8.2 13.3l0.6 0.7-1-0.7c-0.6-0.3-1.6-0.9-2.3-1.2-1.1-0.6-3.7-1.5-4.2-1.5-0.2 0-0.3 0.5-0.5 2.6l-0.1 1.2h1.6c2.1-0.1 3.9 0.2 5.7 1 2.3 1 3.2 1.7 4.7 3.6 2.4 3.2 3.6 5.7 4 7.9 0.3 1.7-0.1 4.8-0.9 6.4-0.3 0.6-0.5 1.4-0.6 1.6 0 0.2-0.5 1.3-1 2.3-2.7 5.3-7.1 8.9-13.5 11-1.9 0.6-5.4 1.4-7.4 1.6l-0.9 0.1-0.8-0.9c-3.1-3.4-4.9-9.7-5.2-17.8-0.1-4.6 0.4-10.2 1-10.8 0.2-0.2 0.2-0.2 0.1 0.2-0.4 1.3 0.1 3.4 1 4 0.5 0.4 1.6 0.3 2.2 0 1.5-1.1 2.2-3.7 1.4-5.4-0.3-0.6-0.2-0.6 0.7 0l0.8 0.4-0.6-0.8c-1.4-2-3.3-2.5-4.7-1.2-0.3 0.3-0.6 0.4-0.6 0.3 0-0.5 1.1-3.4 1.4-3.6 0.1-0.2 0.8-0.2 2-0.2 1.5 0 2 0.1 2.8 0.4 0.5 0.2 1 0.3 1 0.3 0.1 0 0-0.9-0.2-2l-0.4-2.1h-0.6c-0.6 0-2.6 0.4-3.1 0.7-0.3 0.1-0.3 0 0.1-0.8 0.9-1.5 2.7-4 5-6.8 1.2-1.6 2.6-3.3 3-3.9zm5.2 18.3c-1.6-0.1-3.3 0.8-4.3 2.5 0 0.1 0.2 0 0.5-0.2 0.9-0.5 1-0.4 0.6 0.4-0.3 0.5-0.4 1-0.4 1.8 0 3.9 4.2 4.9 5.6 1.5 0.3-0.7 0.4-2.2 0.2-2.8-0.1-0.4 0-0.4 0.7 0.1 0.4 0.3 1 0.8 1.2 0.9 0.3 0.3 0.4 0.4 0.4 0.1 0-0.4-1-2.2-1.5-2.9-0.3-0.3-0.9-0.7-1.3-1-0.5-0.2-1.3-0.4-1.7-0.4zm-8.9 6.9c-0.4 0-2.4 4.1-2.6 5.1-0.1 0.9 0.2 1.1 2.2 1.2h1.8l-1.2-0.4c-1.6-0.5-1.8-0.7-1.5-1.8 0.1-0.4 0.4-1.5 0.8-2.4 0.3-0.9 0.5-1.7 0.5-1.7zm6.7 9.6h-1.5c-1.6 0-10.8 0.5-10.9 0.6-0.1 0.1 0.4 2.5 0.9 3.8 0.6 1.5 1.5 2.7 2.6 3.2 0.6 0.3 0.9 0.4 2.5 0.3 2.4-0.1 3.6-0.5 4.7-1.7 1.2-1.1 1.6-2.3 1.6-4.5z"/>
		<path id="&lt;Path&gt;" class="s2" d="m127.5 615.9c-1.3 0.1-2.4 0.2-2.4 0.2-0.2 0.2 0.2 1.7 0.6 2.4 0.2 0.4 0.7 0.9 1.1 1.2 0.6 0.5 0.7 0.5 2.2 0.5 1.8 0 2.6-0.2 3.5-1 0.8-0.7 1.3-2.1 1.1-3l-0.1-0.5-1.8 0.1c-1 0-2.9 0-4.2 0.1z"/>
		<path id="&lt;Path&gt;" class="s2" d="m459.9 595.4c0.2 1 0.7 2.5 0.9 2.6 0.1 0 0.5 0 0.7-0.1l0.6-0.1-0.5-1c-0.9-1.9-1.9-2.7-1.7-1.4z"/>
		<path id="&lt;Path&gt;" class="s2" d="m456.4 596.1c0 0.1 1.3 6.8 1.5 7.9 0.1 0.5 0.1 0.5-0.5 0.5-0.4 0-1 0.1-1.3 0.2-0.6 0.1-0.7 0.2-0.8 0.7 0 0.3 0 0.8 0 1.1 0 0.5 0.1 0.5 1.2 0.5 1.4 0.1 4.3-0.2 5.3-0.5l0.6-0.2-0.4-0.8c-0.6-1.1-5.2-9.2-5.4-9.4q-0.1-0.2-0.2 0z"/>
		<path id="&lt;Path&gt;" class="s2" d="m462.7 602.3c1.7 3 2.2 4 1.9 4.7-0.2 0.6-0.8 1.2-1.1 1.2-0.5 0-0.1 0.3 0.5 0.4 0.3 0.1 1 0.3 1.6 0.5 0.6 0.3 1.1 0.4 1.1 0.4 0-0.1-1.7-6.1-2-7.1l-0.3-1.1-1.3-0.6c-0.7-0.4-1.4-0.6-1.5-0.6-0.1 0 0.4 1 1.1 2.2z"/>
		<path id="&lt;Path&gt;" class="s2" d="m426.2 604.4c-1.1 0.6-2.1 1.9-2.4 3.1-0.1 0.8 0.2 2.1 0.7 2.7l0.4 0.5-0.3-0.8c-0.8-1.8-0.1-3.8 1.7-4.9 0.8-0.5 1.1-0.5 1.9-0.5 0.8 0.1 0.8 0.1 0.5-0.1-0.6-0.3-1.9-0.3-2.5 0z"/>
		<path id="&lt;Path&gt;" class="s2" d="m159.9 607.5c0 0 0.2 0.3 0.4 0.6 0.2 0.3 0.3 0.9 0.3 1.2 0 0.5 0.1 0.6 0.2 0.5 0.1-0.2 0.1-0.7 0.1-1.2 0-0.8 0-0.9-0.4-1.1-0.5-0.1-0.6-0.2-0.6 0z"/>
		<path id="&lt;Path&gt;" class="s2" d="m427.5 607.7q-0.7 0.7 0.1 1.5c0.4 0.4 0.7 0.5 0.7 0.2 0 0 0.2-0.4 0.5-0.6l0.4-0.6-0.4-0.4c-0.5-0.5-0.8-0.5-1.3-0.1z"/>
		<path id="&lt;Path&gt;" class="s2" d="m156.2 609.9l-1 0.4v1.2 1.1l0.5-0.2c1.1-0.6 2-1.7 2-2.5 0-0.4-0.1-0.4-1.5 0z"/>
		<path id="&lt;Path&gt;" class="s2" d="m431.1 610.7c0 0 0.3 0.7 0.7 1.4 0.5 1.2 0.7 1.4 1.1 1.4 0.5 0 0.5-0.4 0.1-1.9l-0.2-0.9-0.8-0.1c-0.5 0-0.9 0-0.9 0.1z"/>
		<path id="&lt;Path&gt;" class="s2" d="m151.1 611.5l-0.8 0.6h0.7c0.5 0 0.9-0.1 1.1-0.3l0.4-0.3-0.3-0.4-0.4-0.3z"/>
		<path id="&lt;Compound Path&gt;" fill-rule="evenodd" class="s2" d="m463.2 611.5c2.8 0.7 3.2 1.1 4.1 4 1.1 3.3 1.5 5.5 1.5 8 0 1.3-0.1 2.5-0.2 2.8-0.2 0.6-3.6 2.1-5.6 2.5-5.7 1.2-11.9 1.3-13.3 0.2-1.5-1.2-1.5-7.8 0-12.4 0.3-1.2 0.7-1.6 2.9-2.8 1.1-0.6 4-1.9 6.1-2.7 0.4-0.2 3.1 0 4.5 0.4zm-1.9 0.5c-3.8 0-5.6 0.4-6.6 1.4-1.4 1.3-0.8 3.2 1.3 3.8 2.3 0.8 7.6-0.8 8.8-2.6 0.3-0.5 0.3-0.7 0.1-1.3-0.1-0.5-0.3-0.7-0.9-1-0.6-0.3-1-0.3-2.7-0.3z"/>
		<path id="&lt;Path&gt;" class="s2" d="m459.4 614.2c-2.1 0.2-3.6 0.6-3 0.9 0.8 0.4 3.6 0 5.2-0.8 0.5-0.3 0.6-0.3-2.2-0.1z"/>
		<path id="&lt;Path&gt;" class="s2" d="m429.5 613.1c0.1 0 0.3 0 0.4 0q0.2-0.1-0.2-0.1-0.4 0-0.2 0.1z"/>
		<path id="&lt;Path&gt;" class="s2" d="m430.5 613.3c0.1 0 0.3 0 0.3 0 0.1-0.1 0-0.1-0.2-0.1-0.2 0-0.2 0-0.1 0.1z"/>
		<path id="&lt;Path&gt;" class="s2" d="m425.5 615c0.1 0.5 0.2 1.1 0.4 1.3 0.4 0.7 1.6 1.2 3.3 1.3 0.8 0 1.5 0.1 1.5 0.1 0 0-0.1 0.6-0.3 1.4-0.3 1.5-0.3 2.5 0.1 2.7 0.3 0.2 0.5-0.2 1.7-2.6 0.8-1.5 1.4-3 1.4-3.2 0-0.4 0-0.4-2-0.5-1.9-0.1-3.9-0.5-4.9-1-0.3-0.2-0.7-0.3-0.9-0.4-0.4-0.1-0.4-0.1-0.3 0.9z"/>
		<path id="&lt;Path&gt;" class="s2" d="m143.4 626.7c-2.9 2.4-6.9 4.5-11.2 5.6-0.9 0.2-1.6 0.5-1.7 0.5 0 0-0.3 1.1-0.6 2.4-0.4 1.2-1 3-1.3 3.8l-0.6 1.5-1.6 1c-3.9 2.7-8.8 6.6-12.8 10.4l-1.8 1.7 0.6 0.7c0.6 0.8 1.5 2.8 2 4.4 0.1 0.6 0.3 1.2 0.4 1.4 0.1 0.1 0.2 0.8 0.3 1.5l0.2 1.1 1.5 1.2c2 1.5 3.2 2.3 5 3.3l1.5 0.8 0.6-0.3c0.3-0.2 0.9-0.4 1.3-0.5 0.4-0.1 1-0.3 1.3-0.4 0.8-0.5 2.2-0.9 3.4-0.9 0.6 0 1.5-0.1 2.1-0.2 1.7-0.5 3.7-0.1 5.6 1.3 0.4 0.3 1 0.9 1.2 1.2 0.2 0.3 0.4 0.6 0.5 0.6 0 0.1 4.8-0.8 8.3-1.6 4.3-1 9.1-2.2 13.7-3.6 0.3-0.1 0.3-0.4 0.3-3.5 0-4.1 0.3-7 0.6-8q0.3-0.8 0.8-1l0.5-0.2-2.1-1.8c-3.9-3.2-7.1-5.4-11.2-7.8-1.1-0.6-1.9-1.3-2-1.5-0.3-0.6-1-4-1.3-5.9-0.4-2.5-1-4.8-1.8-6.5l-0.8-1.5z"/>
		<path id="&lt;Path&gt;" class="s2" d="m432.8 629.1c-2.4 5.1-6.3 10.3-9.1 12.2-1.2 0.8-5.1 3.7-5.1 3.8 0 0 0.5-0.1 1-0.1 1.6-0.3 5.4-0.1 6.7 0.3 1.1 0.4 2.2 0.9 2.9 1.4l0.5 0.4v-0.6c0-1.3 1.4-2.2 3.2-2.2 2.5 0 8.9 1.7 12.2 3.3 1.5 0.6 4.4 2.7 4.8 3.4 0.6 0.7 0.7 0.8 0.8 0.2 0.1-0.3 0.3-0.8 0.6-1.1 1.7-2 12.3-5.8 15.7-5.6 2 0.2 3.2 1.1 3.4 2.6 0.2 1.8-1.9 3.9-4.5 4.5-0.9 0.2-7.1 1.1-10.5 1.5-1.6 0.2-2.4 0.2-3.1 0.1-0.8-0.2-0.9-0.2-1.7 0.3-2.5 1.6-2.6 1.6-4.7 1.6-2.1 0-3.5-0.3-6-1.2-1.7-0.6-5.1-2.2-6.3-3-0.6-0.3-1-0.6-1-0.5 0 0 0.7 1 1.5 2.2 3.4 5 4 5.9 4.6 7.2 0.8 1.5 1.3 3 1.7 4.9 0.2 1.2 0.3 3 0.4 9.2l0.1 7.8 1.3 2.4c0.7 1.3 2.3 4.3 3.6 6.7l2.4 4.2 1.7 1c1.8 1.1 5.8 3.1 7.8 3.9 3 1.2 9 3 9.2 2.8 0 0 0.9-1.9 1.9-4 2.1-4.3 8.3-17 8.3-17.1 0 0 2 0.3 4.4 0.5 13.1 1.5 23.6 2.2 33.2 2 9.4-0.2 15.4-0.9 20-2.3q1.5-0.5 3.2-0.6c5.2-0.4 11.9-1.6 17.8-3.3 6.5-1.8 11.9-3.9 21.5-8.2 2.4-1 4.5-2 4.8-2.1 0.4-0.2 0.3-0.2-0.6-0.4-1.5-0.4-2.5-1-3.6-2.2-1.5-1.6-1.9-2.4-1.9-4.2 0-1.8 0.5-2.7 1.9-4.1 1.8-1.6 4.5-2.7 7.9-3 1.7-0.2 4.4-0.1 5.4 0.1 0.4 0.1 0.4 0.1 0.4-2 0-2 0-2-0.4-2-0.2 0.1-1.2 0.3-2.2 0.5l-1.9 0.4-9.2-0.1c-18.3-0.4-35.4 0.3-42.2 1.6l-1.9 0.4-3.9-0.4c-10.2-0.9-22.6-2.7-31.6-4.4-13.9-2.7-23.9-5.4-33-9.2-1.8-0.8-3.7-1.6-4.4-1.8l-1.2-0.4 0.1-1.8 0.1-1.8-5.4-0.1c-8.3-0.1-13.7-1-17.4-2.8-0.9-0.4-2.5-1.9-3-2.8-0.1-0.2-0.4 0.2-1.2 2z"/>
		<path id="&lt;Path&gt;" class="s2" d="m433.5 647.3c0 0.2 2.1 1.5 3.7 2.3 3.5 1.7 6.9 2.8 8.9 2.7l1.1-0.1-1.3-0.8c-1.7-1.2-1.9-1.3-4.5-2.2-3-1-7.9-2.2-7.9-1.9z"/>
		<path id="&lt;Path&gt;" class="s2" d="m464.3 647.7c-1.8 0.4-6.3 1.9-6 2 0.2 0.1 6.2-0.7 7.1-1 0.8-0.2 1.9-0.9 1.9-1.1 0-0.3-1.4-0.2-3 0.1z"/>
		<path id="&lt;Path&gt;" class="s2" d="m418.6 648c-2.8 0.7-6.9 2.2-7.7 2.9-0.3 0.3-1.3 1.4-2.3 2.6-4.5 5.4-7.5 11-10.7 19.8-1.3 3.7-1.4 4-3.8 8.2-5.5 9.9-9.1 18.8-12.1 30.3-2.6 9.7-4.6 22.5-5.2 32.8 0 1-0.1 2.2-0.2 2.7l-0.1 0.9 1.2-1c3.9-3.8 10.4-7.2 19.6-10.7 1.1-0.3 1.2-0.4 2.3-2 2.9-4.3 5.3-7.8 7.6-11.7 1.3-2.2 2.5-4.1 2.5-4 0 0 0.5 2 1.1 4.5 0.6 2.5 1.2 5.1 1.5 5.8 0.2 0.7 0.4 1.6 0.5 2.1 0.1 0.9 0.2 0.9 1.3 0.5 1.7-0.6 7.2-1.6 8.8-1.6 1.4 0 0.6-0.3-2.1-0.8-1.5-0.3-3.1-0.7-3.5-0.9-1.4-0.7-3-2.7-4.4-5.6-1.9-3.7-4.9-11.9-6.2-16.9-1.8-6.8-2-7.7-2.5-8.7-0.6-1.4-1.3-2.4-1.9-2.8l-0.5-0.4 0.8-1.2c0.4-0.6 0.8-1.2 0.9-1.2 0.1 0 0.7 0.5 1.3 1.1 1.7 1.8 2.5 3.6 4.2 10.4 1.1 4.1 1.4 5.1 2.9 9.4 2.1 5.9 3.4 9 4.8 11.1 1.3 2 1.6 2.2 3.7 2.6 0.7 0.1 3.5 0.7 6.2 1.4 5.6 1.2 6.7 1.4 10 1.6 1.2 0 3 0.2 4 0.3 1 0.2 3.8 0.4 6.1 0.5 7.6 0.5 14.5 1 23.8 2 2.7 0.3 7.4 0.6 10.3 0.8 3 0.2 6.2 0.5 7.1 0.5 0.9 0.1 2 0.2 2.5 0.2h0.7l0.3-1c0.1-0.6 0.2-1 0.2-1 0.2 0 8.9 2 12.3 2.7 2.1 0.6 4.4 1.1 4.9 1.2 0.6 0.1 1.5 0.4 2.1 0.6 0.7 0.2 2.3 0.7 3.6 1.1 1.4 0.3 2.5 0.7 2.5 0.8 0.1 0-0.6 0-1.6 0-0.9 0-1.7 0.1-1.7 0.1 0 0.1 0.3 0.8 0.7 1.6 0.6 1.3 0.7 1.6 0.6 2.4-0.1 0.4-0.3 1.1-0.4 1.5-0.5 0.9-2.2 3.1-3.2 4.3l-0.9 0.9-2.5-3.5c-1.4-1.9-2.6-3.5-2.6-3.5 0 0 0.2 0.7 0.4 1.6 0.8 2.9 3.2 7 4.5 7.6 0.5 0.3 0.6 0.3 1.1 0 1.6-0.6 4.1-3.3 5.2-5.4 0.8-1.6 0.9-2.9 0.9-7.7 0-6.1-0.5-9.1-2-12.2-1.1-2.4-1.1-2.5-4.7-4.2-1.7-0.8-4-2-5.1-2.7-7-4.3-16.4-8-26.4-10.4-2.9-0.8-7.6-1.7-10.1-2.1-6.3-0.9-16.4-4.8-21.7-8.2l-1.6-1-2.3-4.2c-1.2-2.3-3-5.6-3.9-7.3l-1.7-3.1-0.1-8c-0.2-11.2-0.3-11.6-4.8-18.2-1.2-1.6-2.5-3.6-3-4.4-2.1-3.1-4.1-4.1-8.1-4.1-1.1 0-2.5 0.2-3.4 0.3z"/>
		<path id="&lt;Path&gt;" class="s2" d="m623 648.7c-4.6 0.3-8.6 2.1-10.2 4.3-0.4 0.5-0.3 0.5 0.5-0.2 1.3-1 2.2-1.6 3.6-2.2 5.1-2 13.1-1.7 17.3 0.7 1 0.6 2.4 1.9 3 2.7 0.2 0.3 0.2 0.3 0-0.2-1.1-2.3-4.2-4.1-8-4.8-1.6-0.2-4.9-0.4-6.2-0.3z"/>
		<path id="&lt;Path&gt;" class="s2" d="m594.1 649.9c-2 0.2-2.3 0.3-1.2 0.4 1.1 0 2.1 0.5 2.9 1.3l0.6 0.7 3.1 0.1c1.8 0 3.8 0.1 4.7 0.2l1.4 0.1v-0.9-1l-1.9-0.4c-3.6-0.9-6.4-1-9.6-0.5z"/>
		<path id="&lt;Path&gt;" class="s2" d="m622 652.3c-2.9 0.4-5.4 1.4-6.9 2.9-0.9 0.8-1.1 0.9-2.5 1.3l-1.5 0.3v1.2c0.1 1.5 0.4 1.7 0.6 0.4 0.2-1.4 0.3-1.5 0.9-0.5l0.6 0.9 0.3-0.6c0.2-0.3 0.7-1 1.3-1.4 2.2-2 5.6-2.9 10.5-3 3.8 0 6.9 0.6 8.8 1.7 0.4 0.2 0.7 0.4 0.8 0.3 0.2-0.2-1.7-1.8-2.7-2.2-2.5-1.2-6.4-1.7-10.2-1.3z"/>
		<path id="&lt;Path&gt;" class="s2" d="m164.8 653.7c-0.1 0.1-0.2 2.5-0.2 5.2-0.2 9 0.6 23.8 1.9 36.5 0.2 2.3 0.4 4.4 0.5 4.7 0 0.4 0 0.6-0.2 0.5-0.5-0.2-19.2-14.2-25-18.7l-2.8-2.3-0.4-1.8c-1.9-7.8-1.9-7.7-2.5-8.3-0.7-0.7-1.9-1.2-2.7-1.2-0.3 0-0.8 0.1-1.2 0.3-0.4 0.1-1.3 0.2-2 0.2-1.3 0-2.5 0.4-2.5 0.7 0 0.1 0.4 0.2 0.9 0.4 0.8 0.1 0.8 0.2 1.7 1.6 0.5 0.8 1.8 2.7 2.9 4.2 2 2.5 2.2 3 4.8 8.1 4.1 8.2 7.7 14.6 12.2 21.4 9 13.6 18.3 23.6 24.6 26.3 1.3 0.6 2.4 0.7 3.7 0.6 0.9-0.1 1-0.2 1.3-0.8 0.8-2.2 2.3-10.2 2.8-15.6 0.5-4.8 0.7-14 0.3-19-0.6-8.9-2-17.5-3.7-22.9-1.7-5.1-6.7-13-11.3-17.7-2.1-2.1-2.9-2.7-3.1-2.4z"/>
		<path id="&lt;Path&gt;" class="s2" d="m601.8 655.1c-4.3 1.6-4.3 1.6-3.4 1.8 0.9 0.3 1.9 0.2 3.8-0.1 2.4-0.3 3-0.6 3.1-1.2 0.3-1.1 0.3-1.8 0.1-1.7-0.1 0-1.7 0.5-3.6 1.2z"/>
		<path id="&lt;Path&gt;" class="s2" d="m109.3 656.8c-5.2 6.3-10.6 26.3-14.3 52-0.9 6.6-1 7.5-0.7 8.1 0.7 1.1 3.2 3 6.4 4.7 6.1 3.2 15.7 6.9 42.6 16.3l9.4 3.3 0.9 1.2c0.5 0.7 1.9 2.5 3 4.1 1.1 1.6 2.2 3.2 2.5 3.6 0.3 0.4 0.8 1.2 1.2 1.9 0.4 0.6 0.6 1.1 0.6 0.9 0-0.2 0.4-0.3 1.5-0.5 1.2-0.2 1.6-0.3 2.5-0.9l1-0.6-0.3-0.4c-0.4-0.4-3.8-6-3.7-6.1 0 0 1 0.4 2.2 0.9 1.2 0.6 2.2 0.9 2.2 0.9 0.1 0-3.9-2.3-6.2-3.5-1-0.6-2.4-1.2-3.2-1.4-1.3-0.4-1.6-0.7-2.6-1.6-0.6-0.5-2.2-2-3.7-3.3-13.1-11.8-26-21.5-34.2-25.9-1.1-0.5-2-1.1-2.1-1.1 0 0 0.2-2.7 0.6-6 0.8-8.2 0.8-9.2 0.6-14.2-0.6-14-2.6-27.2-4.8-32.1-0.3-0.6-0.6-1-0.7-1 0 0-0.4 0.3-0.7 0.7z"/>
		<path id="&lt;Path&gt;" class="s2" d="m585.5 656.6c-4.3 0.6-7.1 2.6-6.7 4.8 0.2 0.8 1.6 2.4 2.5 2.7 1.6 0.7 5.5 0.5 8.9-0.3l1.2-0.3 0.4-1.2c0.5-1.5 1.5-5.1 1.4-5.1-0.1-0.1-0.7-0.2-1.4-0.4-1.8-0.3-4.8-0.4-6.3-0.2z"/>
		<path id="&lt;Path&gt;" class="s2" d="m621.8 656.9c-3.5 0.6-5.9 2-5.9 3.5 0 1.1 1.5 2.3 3.8 2.9 1.3 0.4 6.2 0.5 7.9 0.3 1.6-0.3 3.4-0.9 4.6-1.6 1.1-0.7 2-1.9 1.8-2.5-0.2-1-1.6-1.8-3.8-2.3-1.5-0.4-6.8-0.5-8.4-0.3z"/>
		<path id="&lt;Path&gt;" class="s2" d="m595.4 660.6c0 0.2 0 0.5-0.1 0.7-0.1 0.4-0.1 0.4 0.5-0.1 0.6-0.4 0.6-0.5 0.3-0.7-0.6-0.3-0.7-0.2-0.7 0.1z"/>
		<path id="&lt;Path&gt;" class="s2" d="m606.4 662.6c-0.2 0.1-0.9 0.2-1.6 0.4l-1.2 0.2 0.1 0.6c0.1 0.9 0.9 2.1 1.4 2.4 0.5 0.2 0.5 0.2 1.2-0.3 1.3-0.9 1.7-1.8 1.2-2.9-0.1-0.5-0.3-0.5-1.1-0.4z"/>
		<path id="&lt;Path&gt;" class="s2" d="m598.7 664.6l-1.7 0.4 0.1 0.9c0 1 0.3 1.8 0.7 2.6 0.4 0.4 0.5 0.5 0.9 0.4 0.9-0.2 2-0.9 2.1-1.4 0.2-0.8-0.1-3.5-0.4-3.4-0.1 0-0.9 0.2-1.7 0.5z"/>
		<path id="&lt;Path&gt;" class="s2" d="m591.6 666.4l-1.7 0.4 0.1 0.6c0.2 1 1 2.2 1.5 2.2 0.5 0.1 1.9-0.7 2.3-1.3 0.2-0.4 0.2-0.6 0.1-1.4-0.2-0.5-0.3-0.9-0.4-0.9-0.1 0-1 0.2-1.9 0.4z"/>
		<path id="&lt;Path&gt;" class="s2" d="m159.7 667.1c-4.2 1.2-12.6 3.2-17 4-1.3 0.3-2.5 0.5-2.5 0.6-0.1 0 0.1 0.9 0.8 4.1l0.5 2.2 3.4 2.6c3.9 3.1 17.6 13.3 18.4 13.8 0.2 0.2 0.2 0 0.2-0.6-0.6-4.1-1.7-21.4-1.7-25.5 0-2 0.1-1.9-2.1-1.2z"/>
		<path id="&lt;Path&gt;" class="s2" d="m116.2 667.4c0.4 1.1 1.4 10.2 1.8 15.6 0.3 3.9 0.5 11.3 0.4 13.8l-0.2 2.4 1.1 3.3c0.6 1.8 1.4 4.3 1.7 5.5 0.4 1.3 0.7 2.2 0.9 2.3 0.2 0.1 1.7 1.2 3.5 2.4 8 5.3 18 13.2 28.3 22.6 3.3 3 3.3 3 4.9 3.5 0.9 0.4 2.2 1 3.1 1.5 0.8 0.4 2.2 1.2 3.1 1.7 0.9 0.5 2.5 1.4 3.6 2.1 1 0.6 2.6 1.5 3.4 2 2.2 1 3.9 2.1 4.3 2.8 0.7 1.1 0.3 2.4-1 3-1 0.5-2.1 0.4-4.1-0.4-1.2-0.5-1.3-0.6-1.1-0.2 0.4 0.6 1.2 2.2 1.9 3.9 2 4.7 2.1 6.9 0.4 7.4q-1.3 0.4-2.7-1.4l-0.7-1v2.2c-0.1 2.2-0.1 2.3-0.6 2.8-0.6 0.6-1.6 0.7-2.3 0.1-0.5-0.3-1.5-2.1-1.6-2.7 0-0.1-0.1 0.3-0.2 0.9-0.5 2.3-1.2 3.1-2.4 3-0.8-0.1-1.3-0.7-1.7-1.7-0.3-1-0.6-3.4-0.6-5.6 0-0.9-0.1-2-0.2-2.6-0.4-1.4-1.7-3.8-3.1-5.8-0.7-0.9-2-2.9-3.1-4.3-1-1.4-1.9-2.7-2-2.8-0.1 0-4.8-1.7-10.4-3.7-5.6-2-12.4-4.3-15-5.3-2.7-0.9-4.9-1.7-5-1.7-0.1 0-0.2 0.1-0.3 0.3-0.1 0.2-0.4 0.3-3.6 0.2-5.3-0.2-12.2 0.2-17 0.9l-1.3 0.2 0.9 0.3c0.5 0.1 1.2 0.4 1.5 0.6 0.7 0.3 0.7 0.3 1.6-0.2 1.6-0.7 3-1 5.5-1 7 0 16.2 3.7 23.2 9.3 1.7 1.3 4.1 3.7 5.1 5.1 1.5 2 2.7 4.6 2.9 6.4 0.4 3.5-2 12.9-6.2 25.1-1.9 5.3-2.7 7.4-3.7 10.1-0.4 1.1-0.8 2-0.7 2.1 0 0.1 9.6-0.9 21.4-2l21.4-2.2 0.7-0.5c0.3-0.3 1.1-1.1 1.8-1.7 3.5-3.8 5.6-8.6 6.4-15.1 0.3-2 0.3-7.8 0-10.2-0.7-7.3-3-16-6-23.5-1.5-3.6-1.3-3.3-3-4.3-5.4-3.3-13-11.3-20.2-21.3-5.7-8.1-11.8-18.6-16.5-28.4-1.4-2.8-1.9-3.6-3.5-5.8-1.1-1.4-2.3-3.1-2.7-3.7-0.7-1-0.9-1.1-1.5-1.3-1.4-0.4-2.9-0.9-3.3-1.2-0.3-0.1-1-0.5-1.7-0.8-1.4-0.6-2.8-1.4-4.4-2.5-1.2-0.9-1.3-0.9-1.2-0.5z"/>
		<path id="&lt;Path&gt;" class="s2" d="m117.5 706.7c-0.3 0.6-0.2 1.1 0.2 1.3 0.3 0.2 0.4 0.2 0.2-0.4 0-0.3-0.1-0.7-0.2-0.9-0.1-0.3-0.1-0.3-0.2 0z"/>
		<path id="&lt;Path&gt;" class="s2" d="m220 725.2c-19.8 1.2-36.2 2.2-36.2 2.3 0 0-0.3 0.8-0.5 1.7-1.1 4.8-1.9 5.6-5 5.8-1 0-1.8 0.1-1.8 0.1 0 0 0.5 1.3 1.1 2.9 2.9 7.8 4.8 15.6 5.5 22.8 0.2 2.6 0.2 7.8 0 10-0.9 8.3-4.2 15-9.5 19.2l-1.2 1-6.6 0.6c-3.7 0.4-6.7 0.7-6.7 0.7 0.1 0.1 212.2-6.5 212.3-6.6 0 0-0.3-0.9-0.6-2-1.3-4-1.8-7.3-1.7-12.3 0.1-3.8 0.6-6.9 1.6-10.7 0.6-2.5 2-6.5 2.5-7.5 0.3-0.6 0.4-1.2 0.5-3.9 0.3-7.5 1.3-17.2 2.2-22.8l0.3-1.3-4-0.1c-8.1-0.2-109.9-2.1-112.9-2.1-1.7 0-19.3 1-39.3 2.2z"/>
		<path id="&lt;Path&gt;" class="s2" d="m407.6 727.7c-0.5 0.8-1.6 2.5-2.5 3.7-0.8 1.3-1.5 2.3-1.4 2.4 0.1 0.1 3.6-0.3 4.9-0.7l1.5-0.3-0.1-0.7c0-0.4-0.2-1.2-0.4-1.8-0.2-0.6-0.5-1.8-0.7-2.6l-0.4-1.5z"/>
		<path id="&lt;Path&gt;" class="s2" d="m520 730.7c0.4 2.5 0.5 5.6 0.4 8.5-0.1 3.5-0.4 5.7-0.9 7-1.2 2.7-4.3 6.1-6.6 7.2q-2.7 1.4-4.9-0.6l-0.7-0.6 0.1 0.6c0.4 2.5 0.7 9.1 0.9 21.6l0.1 7.1h0.7c0.3 0 14.1-0.4 30.5-0.9 16.5-0.5 30.1-1 30.3-1 0.1 0 0.3-0.1 0.4-0.3 0.1-0.3 0.2-0.3 10.9-0.3 9.5 0 15-0.2 46.3-1.1 19.6-0.7 35.8-1.1 36.1-1.1h0.5v-10.6-10.6h-0.4c-0.2-0.1-32.3-5.8-71.3-12.7-38.9-7-71.2-12.7-71.6-12.8l-0.9-0.1z"/>
		<path id="&lt;Path&gt;" class="s2" d="m427.2 732.7c-2.7 0.1-6 0.6-10.6 1.6-3.1 0.7-6.9 1.6-7 1.8 0 0-0.4 0.1-0.8 0.2-1.1 0.2-5.6 1.6-8.6 2.6-7.3 2.7-13.5 5.7-18.1 9-2.4 1.7-5.5 4.8-6.2 6.2-1.2 2.5-2.7 7.8-3.4 11.8-0.5 2.9-0.7 8.5-0.3 11.3 0.9 6.4 3.4 11.7 7.9 16.4 4.4 4.6 9.3 7.5 18 10.7 11.3 4.3 23.1 7.5 34 9.4 3.5 0.6 8.3 1.2 9.8 1.2h1.1l-0.1-1.3c-0.7-12-0.8-13.3-0.8-20 0-6.8 0.1-7 0.4-10.8 0.4-4.8 1.3-10.8 2.2-14.3 0.8-3.1 2.5-7.7 4.1-11.1 3.4-7.3 9-13.3 14.7-16 0.9-0.4 1.3-0.7 1.3-0.9 0-0.8-1.5-2.4-2.8-3.1-1.5-0.8-11.8-3.3-15.2-3.8-1.1-0.2-2.6-0.4-3.4-0.6-1.2-0.3-2.3-0.3-7.5-0.4-3.4-0.1-7.2 0-8.7 0.1z"/>
		<path id="&lt;Path&gt;" class="s2" d="m62.5 736.9c-14.7 1.4-26.8 2.6-26.9 2.6-0.3 0-0.3 1-0.3 19 0 10.4 0 18.9 0.1 18.9 0 0 7.1 1 15.7 2.1 8.6 1.1 15.9 2 16.1 2 0.3 0 0.4 0 0.3-0.5-0.1-0.7-0.7-7.8-1-12.1-0.3-4.8-0.4-12.2-0.1-13.8 0.9-4.5 7.8-11.8 15.3-16.1 0.9-0.5 1.9-1.1 2.1-1.3 0.7-0.6 2.8-2 4.2-2.7 0.7-0.4 1.2-0.7 1.2-0.7q0-0.1 0-0.1c0 0-12 1.2-26.7 2.7z"/>
		<path id="&lt;Path&gt;" class="s2" d="m469 737.4c5.8 3 7.4 3.9 8 4.5 2.4 2.4 3 7.3 2.4 20.6-0.2 4.5-0.4 10-0.3 12.2 0 0.6 0.1 0.8 0.5 1.2 0.7 0.7 1.1 0.6 2.4-0.1 2.4-1.5 4.4-3.8 9.1-10.3 1.4-1.8 3.1-4.2 4-5.2 2.6-3.3 5.2-7.9 5.8-10.3 0.5-2.2 0.7-4.7 0.6-7.1-0.1-2.2-0.5-4.1-1-4.3-0.4-0.2-10.1-1.3-19.4-2.1-6-0.5-15.6-1.3-16.2-1.3-0.1 0 1.7 1 4.1 2.2z"/>
		<path id="&lt;Path&gt;" class="s2" d="m105.9 737.3c-2.2 0.4-3.5 1.2-4.2 2.5-1.5 2.9-3.3 13.7-5.2 31.4-0.4 3.9-1.9 18.3-3.3 32-3 31.1-4.2 41.4-5.8 53.4-0.7 4.4-1.8 11.2-2.3 14.1-0.3 1.1-0.5 2.1-0.5 2.1 0 0.1 0.2 0.1 0.5 0.1 0.3 0 0.6-0.3 1.6-1.8 8.2-11.8 20-34.6 30.3-58.5 10.9-25.2 18.5-47.4 19.2-55.6 0.1-1.7-0.1-2.8-1.1-4.6-0.8-1.6-1.8-2.9-3.7-4.8-4.1-3.9-9.6-7.1-15.7-9-3.4-1.1-7.8-1.7-9.8-1.3z"/>
		<path id="&lt;Path&gt;" class="s2" d="m95.1 737.4c-3.9 0.4-7 1.5-11.2 3.7-6.1 3.3-11.8 8.6-14.2 13.1-0.6 1.2-0.8 3.6-0.7 7.9 0.4 12 2.7 33.3 7.2 67 2.2 16.3 5.8 41.4 5.9 41.4 0.2 0 2-11.1 3.1-19.1 1.5-12 2.2-18.4 5.3-49.8 3.4-34 4.1-40.5 5.6-49.9 1-6.7 1.9-10.7 2.9-12.9 0.3-0.7 0.3-0.8 0-1-0.2-0.2-2.5-0.6-3.1-0.5-0.1 0-0.5 0-0.8 0.1z"/>
		<path id="&lt;Path&gt;" class="s2" d="m507.2 738.4c-0.2 0.1-0.3 0.2-0.3 0.2 0.1 0.3 3.7 5.3 3.9 5.3 0.1 0 1.3-1.9 1.3-2.1 0-0.2-4.2-3.5-4.5-3.5-0.1 0-0.3 0.1-0.4 0.1z"/>
		<path id="&lt;Path&gt;" class="s2" d="m468.9 742.4c-1.8 0.4-5 2-7.2 3.4-0.7 0.5-2.3 1.9-3.5 3.1-1.7 1.8-2.5 2.7-3.7 4.4-5.1 7.9-7.9 16.8-9.2 29.9-0.4 4.3-0.1 19.9 0.6 30.8 0.2 2.9 0.4 3.9 2.4 10 1.8 5.2 3.9 10.7 6.9 17.9l2.3 5.5v2.2c0 4.2-0.9 6.8-3.8 10.3-1.6 2-1.7 2.2-1.6 2.8v0.4l9.8 0.1h9.7v-0.3c0.1-1.3-0.1-1.5-2.2-2.7-4-2.4-5.9-5.4-6.9-10.8l-0.3-1.5 0.8-3.7c2.9-13.6 6.5-32.8 8.2-43.5 1.2-7.2 2.5-16.6 3.9-27.8l1.5-11.9v-6.1c0-6.4-0.1-7.7-0.8-9.6-0.1-0.4-0.4-1-0.7-1.2-0.6-0.6-2.4-1.4-3.6-1.7-1.4-0.2-1.4-0.2-2.6 0z"/>
		<path id="&lt;Path&gt;" class="s2" d="m503.8 750.9c-0.4 1.4-1.9 4.8-2.5 5.9-0.3 0.5-1 1.5-1.4 2.1-0.5 0.6-1.5 2.2-2.4 3.5-3.7 5.5-7 9.6-10.8 13.5-1.8 1.8-3.1 2.6-4.7 3.2-1.8 0.6-3.3 0.4-4.3-0.4-0.2-0.2-0.3-0.3-0.4-0.2 0 0-0.2 1.8-0.5 4-0.6 5.3-0.5 4.7-1.3 9.7-0.6 4.2-0.6 4.5-0.4 5.7 1.2 7.6 5.2 18.6 10.1 27.9 4.5 8.6 8.1 14.3 14 22.6l0.7 1 0.1 3.4c0.5 8.3 0.6 9.5 1.2 10.1 0.2 0.3 1.3 0.3 16.4 0.3 15.6 0 16.2 0 16-0.3-0.3-0.4-1.2-1-2.2-1.4-1.2-0.4-2.9-0.7-7.3-1.3-4.6-0.6-6.4-1-8.7-1.8-5-1.6-7.2-3.3-9.1-7l-0.4-0.9-0.1-32.4c-0.1-31.4-0.4-54.6-0.8-60.5-0.1-1.4-0.3-3.5-0.4-4.7-0.2-1.2-0.3-2.2-0.3-2.4 0-0.5-0.3-0.3-0.5 0.4z"/>
		<path id="&lt;Path&gt;" class="s2" d="m36.7 784.2c0 2 0.3 22.4 0.5 45.2 0.3 22.9 0.5 42.4 0.5 43.3l0.1 1.8h20.9 20.8v-0.4c0-0.2-0.7-5.8-1.7-12.4-4.6-33.1-7.4-54.4-9.2-70.4-0.4-3.7-0.7-6.6-0.7-6.7-0.1 0-30.8-4.1-31.2-4.1 0 0-0.1 1.7 0 3.7z"/>
		<path id="&lt;Path&gt;" class="s2" d="m585.5 782c-2.1 0.1-5.7 0.2-8.1 0.3l-4.3 0.1v3.8 3.8h13.5 13.5l-0.1-2.9c-0.1-1.6-0.1-3.5-0.1-4.1v-1.1h-5.3c-2.9 0-6.9 0.1-9.1 0.1z"/>
		<path id="&lt;Path&gt;" class="s2" d="m602.8 784.5c0.1 1.5 0.1 3.4 0.1 4.1v1.4h13.3 13.3l-0.1-1c-0.1-1.8-0.4-6.1-0.4-6.6v-0.5h-13.2-13.1z"/>
		<path id="&lt;Path&gt;" class="s2" d="m631.9 782.2c0 0.3 0.1 2 0.2 4 0.2 2 0.3 3.6 0.3 3.7 0 0.1 6.5 0.1 14.4 0.1h14.4v-4.1-4h-14.7-14.6z"/>
		<path id="&lt;Path&gt;" class="s2" d="m538.5 783.5c-15.5 0.5-28.6 0.9-29.1 0.9h-0.9l0.1 9.9c0 5.5 0.1 20.2 0.1 32.7v22.8l0.6 1.1c0.7 1.2 2.1 2.7 3.3 3.4 2.6 1.4 6.2 2.3 12.1 3.1 2.5 0.3 5.2 0.7 6 0.9 2.1 0.5 3.8 1.4 4.8 2.5 0.9 1.1 1.3 2 1.5 3.9l0.1 1.4h-18.1c-17.1 0-18 0-18.7-0.3q-2.1-0.9-2.6-4.7c-0.1-0.7-0.3-3.3-0.4-5.6-0.1-2.3-0.2-4.5-0.3-4.9-0.1-0.3-0.5-1.1-0.9-1.6-1.3-1.8-3.8-5.3-5.7-8.4-8-12.6-13.1-23.7-16.7-35.7-0.1-0.3-0.3 0.6-0.7 2.9-1.4 8.2-4.9 26.4-7.2 37-0.6 3.2-0.6 3.2-0.4 4.5 0.8 4.3 2.3 6.5 5.6 8.4q2.9 1.8 3.3 3.3c0.3 0.8 0.2 2.6 0 3.9l-0.2 1.1-11.7 0.1h-11.7l-0.6-0.9c-0.9-1.3-1-1.8-0.9-3 0.1-1.2 0.3-1.6 2-3.7 2.3-2.9 3.1-4.5 3.4-7.4 0.2-2.3 0.1-3-1.6-7-4.1-9.7-8.2-20.8-9.3-25.4l-0.2-0.9-2.2-0.1c-8.6-0.4-24-3.8-37-8.1-9-3-14.6-5.4-18.7-7.9-5.1-3.1-9.6-7.6-12-11.8-0.6-1-0.8-1.2-1.1-1.2-1 0-216.6 6.7-216.6 6.7-0.1 0.1-0.3 72.9-0.2 72.9 0.3 0.1 397.7 0.9 405.1 0.9h9.4v-43.3-43.4l-1.8 0.1c-1 0-14.5 0.4-29.9 0.9z"/>
		<path id="&lt;Path&gt;" class="s2" d="m134.2 794.8c-3.4 0.4-6.4 0.7-6.6 0.7-0.4 0.1-0.6 0.4-1.4 2.4-5.8 14.7-12.3 29.3-19.2 43.1-6.6 13.3-11.3 21.7-16.9 30.1-1.1 1.8-2 3.2-2 3.3 0 0 400.8-0.5 508.5-0.7l69.2-0.1v-0.7-0.6h-9.9c-5.5 0-119.1-0.3-252.6-0.6-133.4-0.2-244.2-0.5-246.1-0.5h-3.5l-0.5-0.4-0.5-0.5 0.1-37.3 0.1-37.3-0.6-0.1c-1.9-0.3-11.1-1.5-11.5-1.5-0.2 0.1-3.2 0.4-6.6 0.7z"/>
		<path id="&lt;Path&gt;" class="s2" d="m573.1 799.9v4.1h13.7 13.6l-0.1-1c-0.1-0.6-0.1-2.5-0.1-4.1v-3.1h-13.5-13.6z"/>
		<path id="&lt;Path&gt;" class="s2" d="m603.1 798.5c0 1.5 0 3.3 0.1 4.1l0.1 1.4h13.5 13.5v-0.4c0-0.2-0.1-2-0.2-4-0.2-1.9-0.3-3.6-0.3-3.7 0 0-6-0.1-13.3-0.1h-13.4z"/>
		<path id="&lt;Path&gt;" class="s2" d="m632.8 797c0.1 1.6 0.4 6 0.4 6.5v0.5h14 14v-4.1-4.1h-14.3-14.2z"/>
		<path id="&lt;Path&gt;" class="s2" d="m573.1 813.9v4h13.7 13.7v-3.2c0-1.7 0-3.5-0.1-4l-0.1-0.9h-13.6-13.6z"/>
		<path id="&lt;Path&gt;" class="s2" d="m603.3 810.3c0.1 0.3 0.1 2.1 0.1 4.1v3.5h13.9 13.9v-0.6c0-0.9-0.3-6.3-0.5-7v-0.5h-13.8-13.7z"/>
		<path id="&lt;Path&gt;" class="s2" d="m633.9 813.9l0.3 4h13.5 13.5v-4-4.1h-13.8-13.7z"/>
		<path id="&lt;Path&gt;" class="s2" d="m573.1 827.8v4.1h13.9 13.9v-1.1c0-0.7-0.1-2.5-0.1-4.1l-0.1-3h-13.8-13.8z"/>
		<path id="&lt;Path&gt;" class="s2" d="m603.7 826.2c0 1.3 0.1 3.1 0.1 4v1.7h14.2 14.2l-0.1-0.6c0-0.2-0.1-2.1-0.2-4l-0.2-3.6h-14.1-14.1z"/>
		<path id="&lt;Path&gt;" class="s2" d="m634.6 824.2c0 0.7 0.3 5.8 0.4 6.8l0.1 0.9h13.1 13v-4.1-4.1h-13.3-13.3z"/>
		<path id="&lt;Path&gt;" class="s2" d="m573.2 837.7c-0.1 0.2-0.1 2-0.1 4.2l0.1 3.9h14l14.1 0.1-0.2-1.3c0-0.8-0.1-2.6-0.1-4.2v-2.9h-13.8c-11.1 0-13.9 0.1-14 0.2z"/>
		<path id="&lt;Path&gt;" class="s2" d="m603.9 840c0 1.4 0.1 3.3 0.2 4.2l0.1 1.7h14.4c11.5 0 14.5-0.1 14.5-0.3 0-0.1-0.2-1.8-0.3-3.7-0.1-2-0.2-3.8-0.2-4v-0.4h-14.4-14.3z"/>
		<path id="&lt;Path&gt;" class="s2" d="m635.5 837.8c0 0.2 0.1 1.9 0.2 3.8 0.1 1.9 0.3 3.7 0.3 3.9v0.4h12.6 12.6v-4.2-4.2h-12.9c-12.1 0-12.8 0-12.8 0.3z"/>
		<path id="&lt;Path&gt;" class="s2" d="m573.1 855.6v4.1h14.2 14.1v-3.3c0-1.9-0.1-3.7-0.1-4.1l-0.1-0.8h-14.1-14z"/>
		<path id="&lt;Path&gt;" class="s2" d="m604.2 851.6c0 0.1 0 1.9 0 4.1l0.1 4h14.8 14.8v-0.6c0-0.4-0.4-7.2-0.5-7.6 0-0.1-29.1 0-29.2 0.1z"/>
		<path id="&lt;Path&gt;" class="s2" d="m636.4 852.4c0.1 1.2 0.4 6 0.4 6.7v0.6h12.2 12.2v-4.1-4.1h-12.5-12.4z"/>
		<path id="&lt;Path&gt;" class="s2" d="m573.1 866.7v1.3h14.2 14.3v-1.3-1.3h-14.3-14.2z"/>
		<path id="&lt;Path&gt;" class="s2" d="m604.5 866.7v1.2l15 0.1h14.9v-1.2l-0.1-1.3h-14.9l-15-0.1z"/>
		<path id="&lt;Path&gt;" class="s2" d="m637.4 866.7v1.2l11.9 0.1h11.9v-1.3-1.3h-12-11.9z"/>
	</g>
</svg>