<svg version="1.2" xmlns="http://www.w3.org/2000/svg" viewBox="0 0 1400 1822" width="1400" height="1822">
	<title>08-1-e-LIBRi-hamam2i-ai</title>
	<style>
		.s0 { fill: #000000 } 
		.s1 { fill: #fcfcfc } 
		.s2 { fill: #ffffff } 
	</style>
	<path id="Shape 1" class="s0" d="m1623.4-10.6v1849h-1846.8v-1849z"/>
	<g id="Black">
	</g>
	<g id="Color">
		<path id="&lt;Compound Path&gt;" fill-rule="evenodd" class="s1" d="m-211.1 0h1822.2v1822h-1822.2zm900.5 257.6c-33.5 1.3-65 4.7-97.5 10.6-121.1 21.8-235.3 75.9-326.8 154.6-62.3 53.6-112.1 116.8-147.5 186.9-36.8 72.8-56.7 150.6-59.6 232.8-0.4 11.2-0.1 39.3 3.1 319.7 1.9 169.1 3.5 309.5 3.5 311.9 0.1 4.1 0 4.5-0.6 5.2-0.7 0.6-0.7 1.2-0.9 18.2-0.1 9.6-0.2 28.4-0.2 41.7v24.3l0.8 0.8c0.5 0.5 1.1 0.8 1.3 0.8 0.4 0 0.6 0.5 0.7 1.5 0.1 0.8 0.6 39.2 1.1 85.5 0.5 46.2 0.9 89 1.1 95.3l0.2 11.2 1 1 1 1 75.4-0.2c41.4-0.2 326.4-0.6 633.2-1 306.9-0.4 558.3-0.8 558.7-1 0.4-0.1 1-0.6 1.3-1.1 0.5-0.7 0.5-6.6 0.1-68.4-0.4-81.6-1.4-350.2-2.3-639.4-0.7-203.8-0.8-213.3-1.4-224.6-4.1-71.3-18.7-138.5-43.4-200.3-18.3-46-43.5-90.6-72.7-129-30.6-40.2-66.5-75.9-106-105.4-57.6-43-124.5-77.9-192.3-100-57.3-18.7-113-29-175.6-32.3-8.8-0.5-46.3-0.7-55.7-0.3z"/>
		<path id="&lt;Compound Path&gt;" fill-rule="evenodd" class="s2" d="m738.6 263.4c82.5 3.3 159.9 20.7 234.5 52.7 54.7 23.5 110.6 56.9 153.6 92.1 74.9 61.1 131.6 141.2 165.6 234 1.7 4.6 3.8 10.6 4.7 13.4l1.7 5.1-1.2 2.1c-10 18.3-27.1 41.7-44.1 60.3-38.9 42.8-89.9 82-152 116.7-112.4 63-247.7 103.3-371.5 110.8-30.2 1.8-77.9 1.2-121.1-1.5-73.4-4.7-135.9-15.2-189.8-31.8-13.3-4.1-23.6-7.8-48.2-17.2-8.9-3.5-33.6-12.7-64.7-24.3-63.1-23.4-94.7-38.5-128.1-61-19.3-12.9-37.1-27.2-58.4-46.7-6.9-6.3-27.4-26.5-34.9-34.5l-5.2-5.4 1.3-4.8c10.8-41.5 25.4-79.5 45-117.3 21.2-40.8 47.9-79.7 79-115.4 87.6-100.5 209.6-174 344-207.4 46.5-11.5 91.6-18 138.7-19.9 9.8-0.4 41.6-0.4 51.1 0zm-73.5 18.6c-4.2 1-9.2 4.2-11.9 7.4q-4.8 5.9-4.3 13.2c0.3 5.2 2.2 9.3 6.2 13 2.7 2.5 4.9 3.8 8.5 5 2.3 0.8 3.4 0.9 6.8 1 4.8 0 6.7-0.5 11-2.7 7.9-4.1 12.3-12.8 10.6-20.9-0.8-4.1-2.3-6.8-5.5-9.9-3.1-3.2-6.1-4.9-10.3-6-3.1-0.8-8.2-0.8-11.1-0.1zm-135.9 34.5c-9.5 2.3-16.4 10.5-16.4 19.3 0 5.5 1.8 9.7 5.9 13.8 3 3 5.5 4.5 9.3 5.6 8.5 2.6 18.3-0.3 23.9-7.1 3-3.5 4.3-7.3 4.4-11.8 0-3.5-0.5-5.9-2.2-9.2-2.6-4.8-8-9-13.8-10.5-3.2-0.7-8.2-0.8-11.1-0.1zm292.6-0.1c-2.4 0.6-6.5 2.6-8.7 4.2-1.9 1.5-4.6 4.6-5.5 6.4-3 5.8-3.1 11.8-0.2 17.6 1.5 3.2 5.3 7 8.9 8.8 4.2 2.2 6.2 2.7 10.8 2.7 4.6 0 6.6-0.5 10.7-2.7 6.7-3.4 11.1-10.4 11.2-17.5 0-2.3-1.2-6.6-2.3-8.7-1.2-2.1-3.8-5.2-5.7-6.7-1.7-1.2-4.5-2.7-7.1-3.6-2.5-0.9-9.2-1.1-12.1-0.5zm105.8 0.2c-7 1.9-12.9 7.2-15.1 13.7-1 2.9-1.1 7.8-0.2 10.8 1.5 5.2 5.4 9.8 10.3 12.3 4.1 2.2 6.2 2.7 10.7 2.7 4.4 0 7.4-0.7 11.1-2.7 3-1.5 7.3-5.9 8.7-8.7 3.5-7.3 2.6-14.8-2.5-21-2.8-3.3-7.5-6.2-11.9-7.2-3-0.7-8.1-0.6-11.1 0.1zm-162.1 63.8c-3.2 0.7-7.1 3-10 5.6-7.5 7.1-8.2 18.3-1.5 26.1 4.3 5.1 10.2 7.8 17.1 7.8 4.2 0 6.5-0.5 10.4-2.4 3.4-1.6 7.6-5.7 9.3-8.8 2-3.9 2.6-8.6 1.7-12.9-1.4-7-8-13.5-15.8-15.4-2.5-0.7-8.5-0.7-11.2 0zm-165.6 10.4c-5.7 2.8-9.5 7.4-10.9 13.2-1.7 6.5 0.1 12.8 5.1 17.9 6.8 6.8 16.5 8.6 25.3 4.7 4.6-2 8.6-5.7 10.5-9.7 5.7-11.4-1-24.5-14.2-27.9-5.1-1.3-11.1-0.6-15.8 1.8zm361.8 4.1c-4.1 4-6 8.3-6 13.8 0.1 5.1 2 9.4 5.8 13.3 6.8 6.9 17.2 8.6 26.1 4.2 5.6-2.7 10.2-8.3 11.3-13.8 1.8-8.6-2.6-17.2-10.8-21.4-1.8-0.9-4.2-1.9-5.5-2.1-7.8-1.7-15.4 0.5-20.9 6zm-552.7 4.4c-5.6 2.8-10.2 8.4-11.3 13.9-2.6 12.4 7.8 24 21.5 24 5.8 0 11.1-2.1 15.4-6 4.2-3.9 6.2-8.5 6.2-14 0-7.6-4.2-14.1-11.4-17.7-1.8-0.8-4.3-1.8-5.6-2.1-5-1-10.2-0.3-14.8 1.9zm270.7 4.2c-6.2 6.2-7.6 14.3-3.9 22 1.4 3.1 5.6 7.3 9.1 9.1 9.4 4.9 20.9 2.8 27.8-5.1 1.8-2 2.9-4 3.9-7 1-2.8 0.9-8.3-0.1-11.3-2.4-6.7-8.8-12.2-16.2-13.7-7.6-1.6-15.2 0.7-20.6 6zm179.5 11.4c-3.8 0.9-7.4 3.1-10.2 5.9-4 4-5.9 8.2-5.9 13.5 0 5.5 1.8 9.4 6 13.7 4.5 4.5 9.2 6.4 15.7 6.4 5.5 0 9.6-1.3 13.8-4.5 3.7-2.7 6.6-7 7.6-11.1 0.6-2.5 0.5-7-0.2-9.3-2-6.9-8.4-12.9-15.6-14.6-2.7-0.7-8.7-0.7-11.2 0zm-329.9 8.5c-1.2 0.2-3.6 1.2-5.3 2.1-8.3 4.2-12.6 12.8-10.8 21.4 1.5 7.5 8.7 14.2 17 15.8 7.4 1.5 15.1-0.9 20.3-6.2 3.9-3.9 5.7-8.2 5.8-13.3 0-5.5-1.8-9.8-5.9-13.8-3-3-6.2-4.8-10.1-5.8-3.1-0.8-7.8-0.9-11-0.2zm379.6 34.7c-10.2 2.6-16.8 11.3-16.1 20.8 0.4 4.9 2.4 9.1 6.2 12.6 2.7 2.5 5 3.9 8.5 5.1 2.4 0.7 3.4 0.9 6.9 0.9 4.7 0 6.7-0.5 10.9-2.6 1.9-1 3.5-2.2 5.1-3.9 6.1-6.1 7.6-14.2 3.9-21.9-0.8-1.7-1.8-3-3.8-5.1-3.2-3.1-6.3-4.9-10.4-5.9-3.3-0.9-7.9-0.9-11.2 0zm-173.4 17.5c-8.8 9.7-5.7 24.4 6.5 30.4 4.2 2 7.4 2.8 11.5 2.5 5.9-0.4 10.5-2.3 14.7-6.5 2-2 3.1-3.4 3.8-5 5.6-11.8-0.9-24.6-14.2-28-8-2.1-16.7 0.5-22.3 6.6zm-91.5-0.8c-2.5 0.5-6.7 2.2-8.8 3.7-2.8 1.8-5.7 5.2-7.1 8-4 8.4-1.7 17.8 5.9 23.6 4.2 3.2 8.5 4.7 13.9 4.7 6.3 0 11.1-1.9 15.6-6.1 7.7-7.2 8.3-18.4 1.6-26.3-3-3.5-6.8-5.9-11.3-7.1-2.3-0.7-7.5-0.9-9.8-0.5zm338.5 21.7c-9.1 7-10.5 19.4-3.1 27.9 4.5 5.3 11.4 8.2 18.5 7.6 6.3-0.4 11.6-3 15.6-7.8 3.2-3.7 4.6-7.3 4.6-12.2 0-5.5-1.7-9.5-5.9-13.6-3-3-6.1-4.8-10.1-5.8-6.7-1.8-14.1-0.3-19.6 3.9zm-592.4 12.8c-4 4.1-5.8 8.1-5.8 13.5 0 4.9 1.4 8.7 4.5 12.4 5.3 6.2 13.4 9 21.5 7.4 13.5-2.5 21.2-16.1 15.7-27.7-2.7-5.7-8.6-10.2-14.9-11.6-7.8-1.7-15.5 0.5-21 6zm469.6-6c-6.2 1.4-12.2 6-14.8 11.6-5.5 11.6 2.1 25.2 15.7 27.7 8.3 1.6 17.1-1.6 22-8.1 2.9-3.7 4-7.2 4-11.9-0.1-8.8-6.7-16.7-16-19.1-3.1-0.8-7.7-0.9-10.9-0.2zm308.2 25.3c-7.5 3.6-11.8 10.1-11.8 17.9 0 4.9 1.3 8.5 4.5 12.2 4 4.8 9.3 7.4 15.6 7.8 10.5 0.8 20.3-5.9 22.8-15.4 0.6-2.5 0.6-6.9 0-9.2-2-7.4-8.4-13.4-16.1-15-5-1.1-10.7-0.4-15 1.7zm-571.4 5.5c-6.6-0.4-12.7 1.8-17.4 6.6-4.1 4.1-5.8 8.2-5.8 13.6 0 5.3 1.7 9.4 5.8 13.5 4.4 4.4 9.5 6.5 15.8 6.5 6.2 0 11.3-2 15.7-6.2 4.1-4 6-8.3 6-13.9 0-3.6-0.5-5.8-2.2-9.1-2.4-4.5-8.3-9-13.7-10.3-1.1-0.3-3-0.6-4.2-0.7zm-385.7 17.2c-13.8 0.2-24.2 12.4-21 24.8 2.7 10.6 14.6 17.4 26 15 7.8-1.6 14.5-7.6 16.3-14.7 0.7-2.4 0.8-6.8 0.2-9.2-1.2-5.5-5.4-10.5-10.9-13.3-1.8-0.8-4.3-1.8-5.7-2.1-1.3-0.2-3.5-0.5-4.9-0.5zm505.8 6.6c-4 4.1-5.7 8.2-5.7 13.6 0 7.7 4.4 14.4 11.9 17.9 14.3 6.8 31.5-3 31.5-17.9 0-9.3-7.1-17.6-16.9-19.7-7.5-1.5-15.6 0.8-20.8 6.1zm-218.1 21.9c-3.1 3.7-4.6 7.6-4.5 12.3 0 5.4 1.7 9.5 5.8 13.5 1.7 1.7 3.4 3 5 3.9 7.9 4.1 17.8 3.3 24.7-2 9.1-7 10.6-19.4 3.2-27.9-3.2-3.7-7.7-6.4-12.5-7.3-8.4-1.6-16.3 1.1-21.7 7.5zm-103.9 10c-3.7 0.9-7.4 3.1-10.3 5.9-4.1 4.1-5.8 8.1-5.8 13.7 0 6.1 2.9 11.6 8 15.5 4.2 3.1 8.3 4.4 13.7 4.4 5.4 0 9.6-1.3 13.7-4.4 6.5-4.9 9.4-12.9 7.5-20.4-1.8-6.8-8.2-12.8-15.7-14.8-2.6-0.6-8.6-0.6-11.1 0.1zm690.1 19.1c-10.2 5.1-14.3 16.2-9.5 26 1.4 3.1 5.6 7.3 9 9.1 15 7.8 33.5-2.8 32.5-18.6-0.4-5.2-2.3-9.3-6.5-13.1-2.9-2.7-6.7-4.7-10.6-5.4-5.3-1.1-9.8-0.5-14.9 2zm-161.6 22.2c-8.9 4.4-13.4 14-10.8 22.8 2.1 6.9 8.7 12.9 16.1 14.4 13.6 2.9 26.8-6.7 26.8-19.5 0-9.4-7.4-17.9-17.2-19.8-5.5-1-9.8-0.4-14.9 2.1zm-619.1 14.7c-2.2 1.7-4.8 5-5.9 7.5-3.4 7.6-1.5 16.1 4.7 21.8 9.4 8.8 24.8 7.8 32.9-2 5.9-7.3 5.7-17.5-0.5-24.6-3.3-3.7-7.7-6.3-12.5-7.2-6.8-1.3-13.1 0.2-18.7 4.5zm263.4 17.7c-1.2 0.3-3.6 1.2-5.4 2.1-5.5 2.7-9.7 7.8-11 13.3-0.5 2.5-0.4 7 0.2 9.3 2.6 8.9 11.3 15.1 21.2 15.1 3.9 0 6.9-0.7 10.5-2.6 4.8-2.5 8.5-6.6 10.2-11.2 1-2.9 1.3-7.9 0.5-10.7-1.8-7-7.4-12.6-14.9-14.9-2.6-0.8-8.5-1-11.3-0.4zm178.4 17.5c-6 1.5-11.7 6.1-14.1 11.1-2.7 5.6-2.7 11 0 16.7 3.5 7.4 12.7 12.5 21.4 11.8 11.5-1 20.1-9.6 20.1-20.2 0-3.2-0.6-5.6-2.2-8.8-2.5-4.9-8.3-9.3-14.1-10.7-2.6-0.6-8.7-0.6-11.1 0.1zm-355.5 18.6c-4.1 3.9-6 8.3-6 13.8 0 4.8 1.6 9 4.7 12.5 4.5 5.1 10.2 7.6 17 7.6 6.3 0 11.6-2.2 15.9-6.6 4.1-4.1 5.8-8.1 5.8-13.5 0-5.4-1.8-9.6-5.8-13.5-2.9-2.9-6.8-5.2-10.3-5.9-8.1-1.9-15.5 0.1-21.3 5.6zm214.3 56.9c-2.3 0.5-6.3 2.5-8.5 4.1-11.7 9-9.8 26.3 3.8 33 6.8 3.4 13.7 3.4 20.3 0.1 5.2-2.6 9-6.8 10.8-11.8 1.1-3 1.2-8.5 0.2-11.3-2.4-7.2-8.3-12.4-15.8-14.2-2.5-0.6-8.2-0.6-10.8 0.1zm197.6 0.1c-7.6 2-14 8.3-15.4 15.3-0.9 4.3-0.2 9 1.8 12.9 1.4 2.6 5.9 7.2 8.6 8.6 3.6 1.9 6.7 2.7 10.9 2.6 7.2 0 12.7-2.5 17.2-7.7 4.1-4.8 5.6-11.5 4-17.2-2-7-8.2-12.8-15.7-14.7-2.8-0.7-8.3-0.6-11.4 0.2zm195.9 7.1c-8.2 9.7-5 23.9 6.8 29.9 10.6 5.3 23.9 1.6 29.6-8.3 2.3-3.9 3.1-9.4 2-13.7-1.7-7-8-13-15.6-15-8.2-2.1-17.3 0.7-22.8 7.1zm-544.6 26.7c-6.9 1.1-13.3 5.6-16.2 11.3-5.8 11.4 0.9 24.6 14.2 28 13.3 3.4 27.1-6.4 27.1-19.2 0-5.5-1.8-9.7-5.9-13.8-3-2.9-5.5-4.4-9.2-5.6-2.6-0.7-7.4-1.1-10-0.7z"/>
		<path id="&lt;Path&gt;" class="s2" d="m666.2 287.8c-2.9 0.8-5.7 2.5-7.8 4.8-2.7 2.8-3.6 5.1-3.6 9.1-0.1 2.6 0 3 1.2 5.5 4.8 9.6 18.7 11.6 26.4 3.7 9.2-9.3 1.7-23.8-12.3-23.6-1.1 0-2.9 0.2-3.9 0.5z"/>
		<path id="&lt;Path&gt;" class="s2" d="m530.2 322.3c-7.6 2.1-12.5 8.9-11.4 15.7 0.5 3.1 1.6 5.1 3.9 7.4 7.8 7.9 21.6 5.9 26.5-3.7 0.9-1.8 1-2.3 1-5.6 0-3.4-0.1-3.7-1.1-5.9-1.3-2.5-3.6-4.8-6.4-6.4-3.3-1.9-8.6-2.5-12.5-1.5z"/>
		<path id="&lt;Path&gt;" class="s2" d="m822.7 322.3c-2.7 0.7-4.9 2-7.1 4-7.3 6.8-5.3 17.9 4 22.3 6.6 3.1 14.3 1.8 19.3-3.2 7.8-7.7 3.7-20.2-7.6-23.1-2.4-0.7-6.2-0.6-8.6 0z"/>
		<path id="&lt;Path&gt;" class="s2" d="m929.2 322.3c-4.5 1.1-8.4 4.1-10.3 7.9-1 2.2-1.1 2.5-1.1 5.9 0 3.2 0.1 3.8 0.9 5.5 1.4 2.7 4.2 5.5 7.2 7 8.2 3.9 18.2 0.8 22-6.9 1.2-2.5 1.3-2.9 1.3-5.5 0-6.2-3.4-10.7-9.8-13.3-2.7-1.1-7.3-1.4-10.2-0.6z"/>
		<path id="&lt;Path&gt;" class="s2" d="m766.7 386.2c-4.4 1.2-8.2 4.2-10.1 7.9-1 2.1-1.1 2.5-1.1 5.7 0 3.2 0.1 3.6 1.1 5.7 1.5 3 4.1 5.4 7.5 7.1 2.7 1.2 2.7 1.2 7.1 1.2 4.4 0 4.5 0 7-1.2 4.5-2.2 7.2-5.2 8.4-9.3 2.1-7.2-2.9-15.1-10.9-17.1-2.5-0.7-6.6-0.7-9 0z"/>
		<path id="&lt;Path&gt;" class="s2" d="m606 394.7c-5.9 1.4-10.5 6.1-11.6 11.7-1.6 9.3 7.9 17.7 18.2 16.1 3.5-0.5 7-2.2 9.3-4.5 5.7-5.7 5.6-13.9-0.3-19.3-4.2-3.9-9.9-5.4-15.6-4z"/>
		<path id="&lt;Path&gt;" class="s2" d="m973 394.8c-4.3 1.1-8.5 4.5-10.2 8.2-0.8 1.7-0.9 2.4-0.9 5.5 0 3.2 0.1 3.8 0.9 5.5 2.9 5.9 10.2 9.6 17.1 8.5 8.7-1.3 14.8-8.8 13.3-16.4-1.8-8.5-11.2-13.7-20.2-11.3z"/>
		<path id="&lt;Path&gt;" class="s2" d="m415.6 403.2c-2.7 0.6-5.7 2.2-7.7 3.9-4.4 3.9-5.8 9.4-3.7 15 0.9 2.4 4.3 6 7 7.4 3.5 1.7 7.8 2.3 11.5 1.5 4.6-1 9.3-4.5 11.1-8.4 0.8-1.7 0.9-2.3 0.9-5.5 0-3.3-0.1-3.8-0.9-5.6-2-4-6.4-7.3-11.1-8.3-2.8-0.6-4.4-0.6-7.1 0z"/>
		<path id="&lt;Path&gt;" class="s2" d="m691.9 403.2c-6.2 1.4-11.1 6.3-12.1 12-1.1 7 4.1 13.9 11.7 15.7 5.8 1.3 11.3-0.1 15.6-4.1 4.7-4.3 5.7-10.4 2.7-16-1.9-3.6-6.1-6.6-10.8-7.6-2.7-0.6-4.3-0.6-7.1 0z"/>
		<path id="&lt;Path&gt;" class="s2" d="m860.3 420.7c-4.3 1.2-8.2 4.4-10.1 8.3-1 2-1.1 2.6-1.1 5.3 0.1 4.3 0.9 6.5 3.8 9.3 3.8 3.9 8.5 5.4 14.3 4.8 4.9-0.4 10.1-4 12.3-8.4 1-2.1 1.1-2.5 1.1-5.7 0-3.2-0.1-3.6-1.2-5.7-1.9-3.8-5.7-6.8-10.2-7.9-2.4-0.7-6.5-0.7-8.9 0z"/>
		<path id="&lt;Path&gt;" class="s2" d="m530.2 429.2c-4.1 1.1-8.2 4.2-10 7.6-2.8 5.2-1.6 11.8 2.8 15.9 2.4 2.2 5.8 3.8 9 4.3 6.8 1.2 14.3-2.5 17.3-8.5 0.8-1.7 0.9-2.3 0.9-5.5 0-3.2-0.1-3.8-0.9-5.5-3.1-6.5-11.7-10.2-19.1-8.3z"/>
		<path id="&lt;Path&gt;" class="s2" d="m910.8 463.6c-2.8 0.5-5.8 2.2-8.2 4.6-3 3-3.9 5.2-3.9 9.4 0 2.7 0.1 3 1.3 5.5 2.1 4.4 6.5 7.5 11.8 8.4 8.5 1.5 17.4-4.4 18.4-12.1 1-7.2-3.9-13.9-11.6-15.7-2.4-0.5-5.4-0.6-7.8-0.1z"/>
		<path id="&lt;Path&gt;" class="s2" d="m748.1 474.7c-5.9 1.4-10.5 6.1-11.5 11.5-1.4 7.7 4.6 15 13.3 16.3 10.3 1.5 19.8-6.9 18.2-16.1-0.3-1.1-0.8-2.9-1.3-3.9-1.2-2.3-4.2-5.3-6.7-6.5-3.5-1.8-8.1-2.3-12-1.3z"/>
		<path id="&lt;Path&gt;" class="s2" d="m645.6 480.6c-4.4 0.5-9.2 3.5-11.5 7.1-5.9 9.3 1.8 21.2 13.8 21.3 6.3 0 12.1-3.4 14.6-8.5 1-2.1 1.1-2.5 1.1-5.7 0-3-0.1-3.7-0.9-5.4-1.4-2.9-4-5.5-7.2-7.1-2.3-1.1-3.3-1.4-6.7-1.8-0.5-0.1-2 0-3.2 0.1z"/>
		<path id="&lt;Path&gt;" class="s2" d="m992.1 498.2c-4.5 1.3-8.5 4.4-10.4 8.4-0.9 2-1.1 2.5-1.1 5.4 0 3 0.2 3.5 1.2 5.6 2.9 5.9 10 9.5 16.9 8.5 3.6-0.5 6.4-1.9 9.2-4.4 2.9-2.8 4.1-5.3 4.3-9.2 0.1-2.1-0.1-3.1-0.6-4.7-0.8-2.2-2.9-5.2-4.6-6.5-4.1-3.1-10.1-4.4-14.9-3.1z"/>
		<path id="&lt;Path&gt;" class="s2" d="m401.9 509.1c-4.7 1.3-8.8 4.5-10.6 8.4-0.9 1.7-1 2.3-1 5.3 0 4.5 1 6.7 4.2 9.8 2.8 2.6 5.5 3.9 9.2 4.4 3.1 0.4 6.7-0.1 9.8-1.5 2.6-1.2 5.8-4.3 7.1-7 1-2.1 1.1-2.5 1.1-5.5 0-3-0.1-3.5-1-5.5-3.2-6.6-11.6-10.3-18.8-8.4z"/>
		<path id="&lt;Path&gt;" class="s2" d="m860.6 509.2c-4.5 1.2-8.5 4.4-10.4 8.3-1 2-1.1 2.5-1.1 5.5 0 3 0.1 3.4 1.1 5.5 3 5.9 10.2 9.5 17.1 8.5 5.5-0.8 9.9-3.9 12.2-8.6 0.9-2 1.1-2.5 1.1-5.6 0-3.1-0.2-3.6-1-5.4-3.2-6.5-11.7-10.2-19-8.2z"/>
		<path id="&lt;Path&gt;" class="s2" d="m1173.6 532.7c-7.5 2-12.1 7.9-11.6 14.7 0.2 3.5 1.6 6.3 4.4 8.9 5.3 4.9 12.8 5.8 19.5 2.5 2.2-1.1 5.3-4.3 6.5-6.7 1-2.1 1.1-2.6 1.1-5.6 0-2.9-0.1-3.4-1.1-5.4-3.1-6.6-11.5-10.3-18.8-8.4z"/>
		<path id="&lt;Path&gt;" class="s2" d="m590 540.7c-5.2 1.7-8.9 5.1-10.3 9.7-2.9 9.1 4.7 18 15.2 18 1.6 0 3.6-0.2 4.5-0.5 4.4-1.1 8.3-4.3 10.1-8 1.1-2.1 1.2-2.5 1.2-5.7 0-3.2-0.1-3.6-1.2-5.7-1.8-3.7-5.4-6.6-9.9-7.9-2.5-0.8-7.2-0.7-9.6 0.1z"/>
		<path id="&lt;Path&gt;" class="s2" d="m207.2 557.6c-4.5 1-8.8 4.3-10.8 8.3-1.1 2.1-1.2 2.6-1.2 5.6 0 2.9 0.1 3.4 1.1 5.4 2.6 5.3 8.6 8.9 14.7 8.9 5.4 0 11.2-3.1 13.9-7.5 2.6-4 2.6-9.7 0-13.7-2.1-3.3-6.1-6.1-10.3-7-2.8-0.6-4.7-0.6-7.4 0z"/>
		<path id="&lt;Path&gt;" class="s2" d="m728.8 557.6c-4.5 1-8.9 4.3-10.9 8.3-0.9 1.8-1 2.3-1 5.6 0 3.2 0.1 3.8 1 5.5 2.5 5.1 8.7 8.8 14.7 8.8 2.3 0 5.6-0.8 7.7-1.9 2.6-1.3 5.6-4.3 6.9-6.9 1-2.1 1.1-2.5 1.1-5.5 0-3-0.1-3.5-1.1-5.6-2-4.1-6.3-7.3-11-8.3-2.7-0.6-4.6-0.6-7.4 0z"/>
		<path id="&lt;Path&gt;" class="s2" d="m512.4 578c-4.8 0.8-9.2 4.1-11.3 8.5-1 2-1.1 2.5-1.1 5.6 0 3.1 0.1 3.7 0.9 5.4 1.9 3.9 6 7.1 10.8 8.3 7.2 1.9 15.5-1.8 18.6-8.4 1-2 1.1-2.5 1.1-5.4 0-3-0.1-3.5-1.1-5.6-1.4-2.7-4.5-5.7-7.1-7-2.1-0.9-5.9-1.8-7.7-1.8-0.6 0.1-2 0.2-3.1 0.4z"/>
		<path id="&lt;Path&gt;" class="s2" d="m395.6 595.5c-4.2 1.2-8.3 4.6-10.1 8.2-0.9 1.9-1 2.5-1 5.5 0 3.2 0.1 3.6 1.1 5.7 3.7 7.5 13.9 10.8 21.7 7 3.3-1.5 6.1-4.1 7.5-6.9 2.1-4.3 1.6-9.6-1.3-13.5-1.6-2.2-4.6-4.4-7.2-5.5-2.6-0.9-8-1.2-10.7-0.5z"/>
		<path id="&lt;Path&gt;" class="s2" d="m1091.8 612.5c-4.4 0.7-9.5 4.4-11.4 8.3-3.9 7.9 1.2 17.3 10.5 19.5 6 1.4 11.6-0.2 15.9-4.5 3.1-3 3.9-5.2 4-9.4 0-2.7-0.1-3-1.3-5.5-2.1-4.2-6.1-7.2-11.1-8.3-2.5-0.5-3.8-0.6-6.6-0.1z"/>
		<path id="&lt;Path&gt;" class="s2" d="m929.7 634.8c-4.6 1-9 4.4-11 8.3-0.8 1.8-0.9 2.3-0.9 5.6 0 3.1 0.1 3.8 0.9 5.5 2.4 5 8.7 8.8 14.7 8.8 2.4 0 5.7-0.8 7.9-1.9 2.7-1.4 6.1-5 7-7.4 2.1-5.5 0.8-11-3.5-14.8-2.2-2-5.1-3.5-8-4.1-2.7-0.6-4.4-0.6-7.1 0z"/>
		<path id="&lt;Path&gt;" class="s2" d="m315 647c-4.8 0.8-9.2 4.1-11.4 8.5-1 2-1.1 2.5-1.1 5.6 0 3.1 0.1 3.7 1 5.4 2.5 5.2 8.6 8.8 14.8 8.8 6.1 0 12.1-3.7 14.6-8.9 0.9-2 1-2.5 1-5.4 0-3-0.1-3.5-1.1-5.6-2-4.1-6.2-7.2-11.3-8.3-2.5-0.5-3.8-0.6-6.5-0.1z"/>
		<path id="&lt;Path&gt;" class="s2" d="m568.6 669.3c-4.7 1.1-8.9 4.3-10.9 8.4-0.9 2-1 2.5-1 5.6 0 3.1 0.1 3.7 0.9 5.4 3 6 10.4 9.6 17.4 8.6 5.2-0.8 9.8-4.2 12-8.7 1-2 1.1-2.5 1.1-5.4 0-3-0.1-3.5-1.1-5.6-1.2-2.3-4.2-5.5-6.3-6.6-3.6-1.8-8.4-2.5-12.1-1.7z"/>
		<path id="&lt;Path&gt;" class="s2" d="m747.3 686.6c-4.3 1-8.7 4.5-10.5 8.3-3.2 7.1-0.1 14.6 7.6 18.3 2.5 1.2 2.6 1.2 7 1.2 4.4 0 4.5 0 7.1-1.2 3.4-1.7 6.1-4.1 7.5-7.1 1.1-2.1 1.1-2.5 1.1-5.7 0-3.2 0-3.6-1.1-5.7-1.9-3.8-5.7-6.8-10.2-7.9-2.1-0.6-6.4-0.7-8.5-0.2z"/>
		<path id="&lt;Path&gt;" class="s2" d="m401.1 699.8c-4.6 1.6-7.9 4.3-9.7 7.9-1 2.1-1.1 2.5-1.1 5.7 0 3.2 0.1 3.6 1.1 5.7 1.4 2.9 4.2 5.4 7.6 7.1 2.6 1.2 2.6 1.2 7 1.2 4.5 0 4.5 0 7.1-1.3 6.8-3.2 10.1-9.6 8.3-16.2-1.1-4.1-4.9-7.9-9.4-9.7-2.7-1-8.3-1.2-10.9-0.4z"/>
		<path id="&lt;Path&gt;" class="s2" d="m605.8 762.2c-2.8 0.8-5.1 2.2-7.3 4.2-6.4 6.1-5.4 15.9 2.2 20.9 8.5 5.8 21 2.3 24.5-6.7 1.1-2.7 1-6.6 0-9.4-1-2.6-4.1-5.9-6.8-7.4-3.8-2-8.6-2.6-12.6-1.6z"/>
		<path id="&lt;Path&gt;" class="s2" d="m803.9 762.2c-4.6 1.3-8.6 4.5-10.4 8.4-1 2-1.1 2.6-1.1 5.3 0 4.2 0.9 6.5 3.8 9.3 7.9 7.9 21.8 6 26.5-3.6 1.1-2.1 1.1-2.5 1.1-5.7 0-3.2 0-3.6-1.1-5.7-1.8-3.8-5.7-6.8-10.2-8-2.3-0.6-6.5-0.6-8.6 0z"/>
		<path id="&lt;Path&gt;" class="s2" d="m1010.7 762.2c-8.4 2.8-12.8 9.7-11 16.9 1.1 4.2 3.9 7.4 8.3 9.5 6.5 3.1 14.1 1.9 19.1-3.1 7.1-7.1 5-17.4-4.5-22.1-2.8-1.4-3-1.5-6.7-1.6-2.5 0-4.3 0.1-5.2 0.4z"/>
		<path id="&lt;Path&gt;" class="s2" d="m453.1 796.4c-4.5 1-8.9 4.3-10.9 8.3-0.9 1.8-1 2.3-1 5.5 0 3.4 0.1 3.8 1.1 5.9 2.6 5.2 8.3 8.5 14.6 8.5 6.3 0 12.2-3.5 14.8-8.7 0.8-1.9 0.9-2.4 0.9-5.5 0-3.1-0.1-3.6-1-5.6-2-4.2-6.2-7.4-11-8.4-2.8-0.6-4.7-0.6-7.5 0z"/>
		<path id="&lt;Path&gt;" class="s2" d="m1298.2 673.1c-30.6 51.3-84.7 103.3-153 147.1-125 80.3-286.2 131.5-430.7 136.9-19.6 0.7-57.7 0.2-86.8-1.2-73.2-3.5-139.7-13.2-193.7-28.2-20.6-5.7-34.6-10.4-61.5-20.8-11.4-4.4-31.7-12-59.2-22.3-41.7-15.5-62.3-23.8-83.2-33.6-33-15.5-64.5-35.8-93.4-60.2-15-12.7-25.5-22.3-43.3-40.2-10.9-10.9-15.5-15.3-15.6-14.9-0.5 1.6-2.4 10.7-3.8 17.6-5 24.9-8.1 49.3-9.8 77.3-0.9 15.1-0.7 39 2.8 343.4 1.9 167.1 3.5 303.9 3.5 303.9 0 0 148.9-14.5 149.5-14.6 0.1 0-2.2-1-5.1-2.2-14.8-6.2-23.5-10.8-28.8-15.3-1.8-1.5-4.5-4.9-5-6.2-1-2.5 4.8-40.5 9.6-62.7 4.4-20.9 9.5-38.1 14.3-49.2 4-9 7.1-13.5 14.3-20.9q11.8-12.1 24.5-21.1c2.4-1.7 4.8-3.4 5.4-3.8 1-0.9 2.4-4 3.4-7.8 0.3-1.2 0.7-2.5 0.8-2.8 0.1-0.4-0.2-0.5-2.9-0.1-1.7 0.3-3.2 0.5-3.4 0.5-0.2 0-1.4-1-2.7-2.2-6.8-6.2-11-16.5-13-31.4-0.7-5.1-0.9-16.2-0.5-21l0.3-4-1.3-3.9c-2.2-6.7-2.5-8.8-2.5-17.1 0-6.8 0.1-7.6 0.9-11.4 2.3-9.6 6.2-17.9 12.5-26.3 2.7-3.6 2.8-3.7 2.8-5.6 0-3.1 1-8.8 2.2-12.9 4.2-13.8 13.4-24.1 24.8-27.7 4.2-1.4 6.1-1.6 12.1-1.6 5.3 0 6.1 0.1 8.9 0.9 5.3 1.7 8 3.7 9.9 7.6 0.7 1.5 1.3 3.1 1.4 4.3l0.2 1.9 8.1 0.2c8.5 0.2 12.7 0.7 18.5 2.1 11.3 2.9 18.6 7.4 24.2 14.9 2.2 3 5.1 8.4 6.2 11.6 1.8 5.5 2 12.1 0.7 17.5l-0.7 2.5 1 1.5c3.8 6 5.8 15.2 5.3 24-0.4 8.1-3.2 13.8-10.6 21.4-6.1 6.3-16 13.7-25.3 18.6-2.2 1.2-2.5 1.5-3.6 3.6-1.2 2.5-4.1 5.7-6.3 7.2-0.8 0.6-4 2.4-7.1 4.1-3.1 1.7-6.4 3.6-7.3 4.2-4.4 2.9-8.3 8.7-8.3 12.2 0 1.7 1.4 10.5 2.1 12.7 0.2 1 0.7 1.4 2.6 2.5 12 6.9 25.4 17.3 34.5 26.8 3.9 4.2 5.9 6.8 8.3 10.7 1 1.5 2.6 3.9 3.6 5.3 5.6 7.5 11.6 18.7 13.9 25.7 3.8 11.8 6.7 29.7 7.8 48.4 0.5 8.8 0.2 29.1-0.5 36.5-0.6 6-2.1 16.8-2.5 17.8-0.2 0.5 0 0.5 2.3 0.3 1.4-0.1 34.9-2.1 74.5-4.5l71.9-4.3 110.3 2.1c60.7 1.2 114.1 2.2 118.7 2.3 7.7 0.2 8.2 0.2 8.2-0.3 0-1.1 3.1-15 4.7-21.1 6.1-23.5 13.5-42.3 24.5-62 5.5-9.7 5.1-9 7.9-16.5 6.1-16.9 12.1-28.5 19.8-38.3 4.1-5.2 3.9-4.9 2.8-4.6-0.5 0.1-0.9 0.2-0.9 0 0-0.2 5.3-4.3 9.7-7.5 1.5-1.1 5.6-4.2 9.1-6.9 3.5-2.6 8.2-6.2 10.4-7.8 4.9-3.5 6-4.5 9.2-8.4 3.8-4.5 9-13 10.8-17.3l0.4-1.2-2.2-2c-2.5-2.3-4.3-5.3-4.6-7.9-0.2-2.5-0.4-3-1-3-0.9 0-4.4-1.8-5.4-2.7-1.1-1-2.4-3.2-2.7-4.5-0.3-1.1-1-1.4-3.5-1.4-2.7 0-7.3-0.9-10.4-2-2.4-0.9-4.5-2.1-6.3-3.7-2.2-1.9-4-6.1-3.9-8.9 0.1-1.5 0-1.6-2.6-4.2-4.2-4.3-5.9-9-5.5-15.2 0.8-11 7.2-20.3 17-24.2l2.8-1.2-0.1-1.9c0-1.1 0.2-2.9 0.5-4 0.9-3.7 4.7-8.9 7.9-11.2 1.7-1.1 1.8-1.3 1.9-2.9 0.4-3.8 3.8-8.3 8.5-11.3 6.1-4.1 13.5-6.6 19.1-6.6h2.7l0.1-3.9c0.1-3.2 0.3-4.1 1-5.7q2.4-5 8.7-6.8c2.4-0.7 9.3-0.6 12.1 0.1 4.2 1.2 7.8 3.7 9.2 6.4 0.6 1.1 0.7 1.1 2.2 1 1.1 0 2 0.2 3 0.7 4.7 2.4 7.7 7.3 8.1 12.9l0.1 2.7 1.5 1.3c1.9 1.5 5.1 6.4 6 8.9 1.5 4.4 1.1 8.7-1.3 12.6l-1.2 1.9 1.8 3.5q1.8 3.4 2.7 3.8c0.5 0.3 1.3 1.1 1.9 1.7 0.7 1 0.8 1.4 0.5 1.9-0.4 0.8-0.2 3.1 0.3 4.6 0.6 1.5 0.5 3.1-0.4 4.8l-0.9 1.7 1.4 2.9c3.6 7.8 7 18.6 9.8 31.7 2 9.2 3.9 23.2 3.6 26.3-0.5 4.9-1.4 7.1-3.8 8.7-2.4 1.7-9.7 4.8-12.1 5.2l-2.3 0.3v1.4c0 0.8-0.1 2-0.2 2.6l-0.3 1.2 7 2.9c14 5.7 25.6 9.4 43.2 13.7 7.3 1.7 23.8 5 33.1 6.6 20.9 3.6 57.3 8 60.3 7.3 13.3-2.9 49.5-4.5 87.9-3.7 17.1 0.3 18.1 0.3 20.4-0.3 1.4-0.4 3.3-0.8 4.4-0.9 1-0.1 2-0.5 2.3-0.8 0.3-0.2 2.4-0.9 4.7-1.5 3.9-0.9 4.5-1 9.1-0.8 7.4 0.3 14.8 1.7 18.8 3.7 2.8 1.4 3.8 3.2 4.1 7l0.2 2.5 1.6-2c3.9-5 11.1-8.7 19.6-10.1 4.3-0.8 13.1-0.8 17.5-0.1q13.6 2.3 19.4 9.9c1.9 2.6 2.3 3.3 3.2 6.3 1.5 5 0.5 11.3-2.5 16.4-1.7 3-7.1 8.2-10.3 10-6.1 3.4-11.7 4.6-21 4.3-6.6-0.1-9.6-0.6-14-2.2-4-1.6-8.4-4.3-10.8-6.8l-1-1.1-0.5 1.5c-1 2.9-5.1 6.9-8.1 8-1.6 0.5-3.1 0.4-4.7-0.4-0.8-0.5-0.9-0.5-1.8 0.8-1.6 2.4-6.8 5.1-9.7 5.1-1.4 0-3-0.7-4.2-1.8l-0.9-0.9-1.7 1.3c-4 3-7.5 3.6-10.4 1.7-1.7-1.1-4.1-4.4-4.5-6.1-0.1-0.5-0.4-1-0.5-1-0.4 0-8.2 3.4-18.8 8.2-32.1 14.5-54.5 21-79.8 23-1.5 0.2-4.5 0.8-6.8 1.5-20.2 5.8-60.3 6-106.8 0.5-2.9-0.4-5.3-0.7-5.3-0.6-0.1 0-8.6 17.6-15 30.8l-3.2 6.6 2.5 0.4c4.2 0.6 13.8 2.7 19.2 4.1 19.3 4.8 38.5 12.4 52.6 20.8 2.2 1.4 7 3.9 10.7 5.7 8 4 9.1 4.9 11.6 10.1 0.9 1.9 1.9 4.1 2.1 4.8 0.3 0.8 0.6 1.3 1.1 1.4 1.7 0.4 292.2 52.1 292.3 51.9 0 0-0.1-61.9-0.5-137.6-0.2-75.7-0.8-227.7-1.2-337.8-0.7-218.4-0.5-205-2.7-230.1-3.5-39.8-10.2-78.1-20.3-114.9-1.9-7.3-6.2-21.8-6.4-21.9-0.1-0.1-1.4 2.1-3 4.8z"/>
		<path id="&lt;Path&gt;" class="s2" d="m276 1112.7c-10.2 2.2-17.6 8.4-22.5 19.1-2.4 5.3-3.8 11-4.3 18.4l-0.2 3.3-2.1 2.5c-6.9 8.2-12.2 19.7-13.6 29.6-0.4 2.9-0.5 10.5-0.1 12.8l0.2 1.6 1.3-4c2.8-8.5 7.2-15.8 15.3-25.9 6.5-8.1 8.1-10.4 12-16.3 1.9-3 3.6-5.4 3.8-5.4 0.1 0 0.6 2.5 1.1 5.5 2.1 13 5.6 19.4 20.2 37.8 11 13.8 13.8 18.4 15.6 25.2l0.3 1.4 3-1.4c9.1-4.5 15.8-5 19-1.2 2.4 2.8 2 9-0.8 13.4-4.3 6.8-12.2 10.9-22.1 11.4l-3.8 0.2-0.7 1.6c-1.1 2.2-3 5.4-4.5 7.4-0.8 1-1.3 1.8-1.3 1.9 0 0.1 0.7 1.6 1.6 3.4l1.7 3.1 1-1.5c1.5-2.1 4.5-5.1 6.8-6.7 1.1-0.7 4.3-2.6 7.2-4.1 8.7-4.6 10.6-6.3 12.7-11.3 0.6-1.5 0.9-1.7 4.7-3.8 14.9-8.2 27.3-18.9 31.2-27.2 2.4-5 2.7-12.5 0.8-20.8-0.7-3.3-3.1-8.2-4.9-10l-1.4-1.5 0.7-1.4c3.4-7 2.4-16.8-2.7-25-5.2-8.4-11.5-12.7-23-15.5-6.9-1.7-11.8-2.2-21.6-2-4.7 0.2-9 0.3-9.6 0.5l-1.1 0.2 0.6-2.5c1.8-6.4-0.1-10.4-6-12.3-3-0.9-11.1-1.2-14.5-0.5z"/>
		<path id="&lt;Path&gt;" class="s2" d="m885.9 1127.6c-6.1 1.3-7.3 5.7-4.5 16 0.8 2.8 1.4 5.1 1.4 5.2 0 0.1-1.7-0.8-3.9-2l-3.8-2.3h-3.8c-3.3 0-4.1 0.1-7 1.1-6 2.1-11.2 5.4-13.3 8.5-1.4 1.9-1.6 3.9-0.9 6.1 0.3 0.8 0.4 1.6 0.3 1.6-0.2 0.1-1 0.4-2 0.7-1 0.4-2.4 1.1-3.2 1.6-1.8 1.4-4.6 5.1-5.3 7.3-0.8 2.3-0.5 4 1.2 6.5 0.8 1.1 1.4 2.2 1.4 2.4 0 0.2-1.8 0.7-4 1.1-5.7 1.1-9 2.8-12.4 6.2-3.9 3.9-6 8.7-6.4 14.6-0.5 5.7 2.1 10.5 6.7 13 1.7 0.9 1.9 1.1 1.8 2-0.3 4.7-0.2 6.2 0.4 7.3 2 3.3 7.5 5.2 16.3 5.7l4.2 0.3-1.9-2.1c-2.6-2.8-3.5-5.1-3.3-8.8 0.2-3.3 1-5.2 3.4-7.8 2.4-2.7 4.8-3.8 8.1-3.8 2.2 0 2.9 0.2 4.7 1q6 3 8.8 10.7l1.1 2.9 1.3-3 1.3-2.9-0.6-3.2c-0.3-1.7-1.1-6.3-1.9-10.3-3-16.1-3.2-17.6-3.2-21.7 0-2.6 0.2-4.6 0.6-6.1 0.7-2.6 3.1-6.3 5.3-8.2 4.6-4.1 11.9-8.1 19.5-10.6 4.8-1.6 5.5-1.8 7.5-1.6 2.6 0.2 4.9 1.1 7.5 3 0.9 0.7 1.8 1.2 1.9 1.1 0-0.2 0.9-3 1.9-6.3 2-6.9 2.2-9.3 1.1-12.4-0.9-2.2-3.4-5.1-4.4-4.9-0.3 0.1-1.8 1.9-3.3 4.2l-2.8 4-0.2-1.8c-0.1-1-0.2-3.3-0.2-5.1-0.1-5-1.5-7.2-5.3-8.6-2.3-0.8-7.8-1.1-10.1-0.6z"/>
		<path id="&lt;Path&gt;" class="s2" d="m913.7 1156.6l-3 4.4 2.8 3.5c1.4 2 2.8 3.9 3 4.3 0.4 0.6 0.5 0.5 2-1.1 1.7-1.9 2.9-4.6 2.9-6.6-0.1-0.7-0.3-2-0.6-3-0.7-1.8-3.4-5.9-3.9-5.9-0.2 0-1.6 1.9-3.2 4.4z"/>
		<path id="&lt;Compound Path&gt;" fill-rule="evenodd" class="s2" d="m902.6 1162c2.9 1.8 7.3 7.2 10.7 13.1l0.9 1.5-2.1 0.4c-2.6 0.5-3.7 1.3-4.4 2.9-0.4 1.1-0.3 1.4 0.3 2.5 0.4 0.8 1.1 1.6 2.1 2.1 1.7 0.9 6 1.8 8.4 1.8 1.4 0 1.5 0.1 2.2 1.4l0.7 1.3h-1.3q-2.1 0.1-3.2 2.1c-0.4 0.8-0.4 0.7-1.6-1.3l-1.2-2.1-3 1.5c-1.7 0.9-3 1.6-3 1.7 0 0 0.7 4.1 1.7 9.1 0.9 5 1.5 9.1 1.4 9.1-1.4 0.5-2.7 1.5-3.4 2.7-0.9 1.7-1.4 5.2-0.8 7.1 0.5 1.6 2.1 3.3 3.3 3.3 1.5 0 0.9 0.5-2.1 1.8-4.3 1.9-9.3 4.9-11.3 6.9-1.5 1.5-1.8 2.1-2.6 4.8-2.6 8.8-3.3 19.7-1.4 25.2 0.3 0.9 0.5 1.7 0.4 1.8-0.2 0.2-6.2-1-9.3-1.9-3.2-0.9-6.7-2.4-8.3-3.6-1.8-1.4-2-2.8-1.9-16.7l0.1-12.3 1.4-2.6c2.4-4.8 3.1-7 3.1-10.1 0-2.8-0.9-8.2-2.3-13.9-1.7-6.7-3.2-16.7-3.2-21.1 0-3.5 0.6-5.2 2.8-7.6 3.8-4.3 12.7-9.3 20.2-11.2 3.5-0.9 4.9-0.8 6.7 0.3zm-12.5 18.5c-3.6 1.2-7 2.7-7.6 3.5-0.1 0.2-0.5 1.3-0.7 2.2l-0.3 1.8 2.7 0.9c5.3 1.7 9.9 1.3 14.6-0.9 2.9-1.4 5.7-4.1 5.4-5.2-0.1-0.4-0.2-1.1-0.2-1.5 0-0.7-0.4-1-1.8-1.6-3.4-1.5-5.2-1.4-12.1 0.8zm-0.1 19.2c-0.1 2.9 0.6 5.1 2.8 8.5l1.2 2 2.7-1.4 2.6-1.4 3.3 0.2c1.8 0.1 3.5 0.3 3.8 0.4 0.5 0.2 0.6-0.2 0.7-2.6 0.2-3.3-0.2-5.6-1.3-7.9-1.1-2.2-3.2-4.5-4.9-5.2-5.6-2.7-10.6 0.6-10.9 7.4z"/>
		<path id="&lt;Path&gt;" class="s2" d="m896.1 1197.9c-0.4 0.8-0.4 3.4 0 4.1 0.2 0.3 0.5 0.3 1.6 0.1 0.7-0.2 1.8-0.4 2.4-0.4 0.6 0 1.1-0.1 1.1-0.2 0-0.1-0.3-0.8-0.7-1.5-1.2-2.4-3.6-3.6-4.4-2.1z"/>
		<path id="&lt;Compound Path&gt;" fill-rule="evenodd" class="s2" d="m262.8 1163l0.9 2.5c3 8.3 7.5 15.6 16.4 26.6l1.2 1.5-2-1.4c-1.1-0.7-3.1-1.9-4.5-2.5-2.2-1.2-7.5-3-8.5-3-0.4 0-0.6 1-1.1 5.3l-0.2 2.4 3.4-0.2c4.2-0.1 7.7 0.5 11.5 2.2 4.6 1.9 6.3 3.3 9.2 7.1 4.9 6.5 7.4 11.4 8.2 15.9 0.5 3.4-0.4 9.6-1.8 12.9-0.6 1.3-1.2 2.7-1.3 3.2 0 0.4-0.9 2.5-2 4.5-5.5 10.8-14.2 17.9-27.1 22.1-3.8 1.3-10.8 2.8-14.8 3.3l-1.8 0.2-1.7-1.8c-6.1-6.8-9.8-19.6-10.3-35.8-0.3-9.2 0.7-20.3 1.9-21.5 0.4-0.5 0.4-0.4 0.3 0.2-0.9 2.7 0.1 6.9 1.9 8.1 1 0.8 3.3 0.7 4.5-0.1 3.1-2 4.4-7.3 2.7-10.7-0.6-1.2-0.4-1.2 1.5-0.1l1.5 0.8-1.1-1.5c-2.8-4-6.6-5-9.4-2.5-0.6 0.6-1.2 0.9-1.2 0.6 0-0.9 2.2-6.8 2.7-7.2 0.3-0.3 1.7-0.4 4.1-0.4 2.9 0 4 0.2 5.5 0.7 1.1 0.5 2 0.8 2.1 0.8 0.1 0-0.1-1.8-0.5-4.1l-0.6-4.1h-1.3c-1.2 0-5.1 0.7-6.3 1.2-0.6 0.3-0.6 0.1 0.3-1.4 1.8-3.1 5.4-8.1 9.9-13.8 2.5-3.1 5.3-6.6 6.2-7.8zm10.3 36.7c-3.3-0.2-6.6 1.7-8.5 5-0.1 0.2 0.2 0.1 0.9-0.3 1.8-1.1 2.1-0.9 1.2 0.8-0.5 1-0.7 2-0.7 3.6 0 7.8 8.3 9.9 11.2 3 0.6-1.4 0.7-4.4 0.3-5.7-0.2-0.7 0-0.6 1.4 0.4 1 0.6 2.1 1.4 2.5 1.8 0.6 0.6 0.7 0.6 0.7 0.1 0-0.9-1.9-4.5-3-5.8-0.5-0.6-1.7-1.5-2.6-2-0.9-0.4-2.5-0.8-3.4-0.9zm-17.8 13.9c-0.8 0-4.9 8.2-5.2 10.2-0.2 1.9 0.4 2.2 4.5 2.4l3.5 0.1-2.4-0.8c-3.2-1.1-3.5-1.5-3.1-3.6 0.2-0.9 1-3.1 1.6-5 0.7-1.8 1.2-3.3 1.1-3.3zm13.4 19.3h-3c-3.2-0.1-21.5 0.9-21.8 1.1-0.3 0.3 0.7 5.1 1.7 7.6 1.2 3.1 3.1 5.5 5.2 6.6 1.2 0.6 1.8 0.7 5.2 0.5 4.8-0.2 7-1 9.4-3.3 2.4-2.4 3.2-4.7 3.2-9.1z"/>
		<path id="&lt;Path&gt;" class="s2" d="m253.7 1235.8c-2.5 0.2-4.8 0.4-4.9 0.5-0.3 0.3 0.6 3.4 1.4 4.8 0.4 0.8 1.3 1.8 2 2.4 1.3 1 1.5 1.1 4.5 1.1 3.7 0 5.3-0.6 7.1-2.2 1.5-1.3 2.5-4.2 2.2-5.9l-0.3-1-3.6 0.1c-2 0-5.8 0.1-8.4 0.2z"/>
		<path id="&lt;Path&gt;" class="s2" d="m920.5 1194.8c0.3 2 1.3 4.9 1.8 5.1 0.2 0 0.9 0 1.4-0.2l1.1-0.2-0.9-1.9c-1.8-3.8-3.9-5.5-3.4-2.8z"/>
		<path id="&lt;Path&gt;" class="s2" d="m913.5 1196.1c0 0.3 2.5 13.7 3 15.9 0.1 0.9 0.1 1-1.2 1-0.7 0-1.8 0.1-2.5 0.3-1.1 0.3-1.3 0.5-1.5 1.5-0.1 0.6-0.2 1.6-0.1 2.1 0.1 1 0.1 1 2.5 1.1 2.7 0.1 8.6-0.4 10.5-0.9l1.3-0.4-0.9-1.8c-1.1-2.1-10.4-18.4-10.8-18.8-0.2-0.2-0.3-0.2-0.3 0z"/>
		<path id="&lt;Path&gt;" class="s2" d="m926.1 1208.6c3.4 6 4.3 8.1 3.8 9.4-0.5 1.2-1.7 2.5-2.3 2.5-0.9 0-0.1 0.6 1.1 0.8 0.6 0.1 2.1 0.6 3.2 1 1.2 0.5 2.1 0.8 2.1 0.8 0-0.2-3.4-12.4-4-14.4l-0.6-2.1-2.6-1.2c-1.4-0.7-2.7-1.3-2.9-1.3-0.2 0 0.8 2 2.2 4.5z"/>
		<path id="&lt;Path&gt;" class="s2" d="m852.9 1212.9c-2.2 1.1-4.3 3.8-4.8 6.1-0.3 1.5 0.4 4.2 1.4 5.4l0.8 1-0.7-1.6c-1.5-3.6-0.1-7.6 3.5-9.7 1.6-1 2.1-1.2 3.7-1 1.6 0.1 1.7 0.1 1-0.3-1.1-0.7-3.7-0.6-4.9 0.1z"/>
		<path id="&lt;Path&gt;" class="s2" d="m318.7 1218.9c0 0.1 0.3 0.7 0.7 1.3 0.4 0.6 0.7 1.7 0.7 2.5 0 1 0.1 1.2 0.3 0.8 0.2-0.2 0.4-1.3 0.4-2.3 0-1.6-0.1-1.8-0.9-2.1-1-0.4-1.2-0.4-1.2-0.2z"/>
		<path id="&lt;Path&gt;" class="s2" d="m855.4 1219.4c-0.9 1-0.8 2 0.2 3 0.9 0.8 1.5 1 1.5 0.5 0-0.2 0.5-0.8 0.9-1.4l0.9-1-0.9-0.9c-1-1-1.6-1.1-2.6-0.2z"/>
		<path id="&lt;Path&gt;" class="s2" d="m311.4 1223.9l-2.1 0.7v2.4 2.3l1-0.5c2.2-1.1 4-3.3 4-4.9 0-0.9-0.3-0.9-2.9 0z"/>
		<path id="&lt;Path&gt;" class="s2" d="m862.6 1225.4c0 0.1 0.6 1.4 1.4 2.9 1.1 2.4 1.5 2.8 2.2 2.8 1 0 1.1-0.8 0.4-3.8l-0.4-1.9-1.8-0.1c-1 0-1.8 0-1.8 0.1z"/>
		<path id="&lt;Path&gt;" class="s2" d="m301 1227l-1.6 1.3h1.4c1 0 1.7-0.2 2.3-0.6l0.8-0.7-0.7-0.7-0.7-0.7z"/>
		<path id="&lt;Compound Path&gt;" fill-rule="evenodd" class="s2" d="m927 1227c5.6 1.4 6.4 2.3 8.3 8.2 2.1 6.6 2.9 11 2.9 16 0 2.5-0.1 5-0.2 5.4-0.4 1.3-7.3 4.4-11.3 5.2-11.4 2.3-23.9 2.5-26.6 0.3-3.1-2.4-3.2-15.7-0.2-24.8 0.8-2.4 1.6-3.2 5.9-5.6 2.2-1.3 8-3.9 12.2-5.6 0.9-0.3 6.2 0.1 9 0.9zm-3.8 1c-7.5 0.1-11.2 0.9-13.2 2.9-2.9 2.6-1.6 6.3 2.6 7.7 4.6 1.4 15.3-1.8 17.6-5.4 0.7-1 0.7-1.3 0.4-2.5-0.4-1.1-0.8-1.5-1.9-2-1.2-0.6-2-0.7-5.5-0.7z"/>
		<path id="&lt;Path&gt;" class="s2" d="m919.5 1232.5c-4.2 0.3-7.2 1.1-6.1 1.7 1.6 1 7.3 0 10.4-1.6 1-0.5 1.3-0.5-4.3-0.1z"/>
		<path id="&lt;Path&gt;" class="s2" d="m859.5 1230.3c0.2 0 0.6 0 0.8 0 0.2-0.1 0.1-0.2-0.4-0.2-0.5 0-0.7 0.1-0.4 0.2z"/>
		<path id="&lt;Path&gt;" class="s2" d="m861.5 1230.6c0.3 0.1 0.6 0.1 0.7 0 0.1-0.1-0.1-0.2-0.5-0.2-0.3 0-0.5 0.1-0.2 0.2z"/>
		<path id="&lt;Path&gt;" class="s2" d="m851.4 1234c0.1 1 0.5 2.3 0.8 2.8 0.9 1.3 3.3 2.2 6.7 2.4 1.7 0.1 3 0.2 3 0.3 0 0-0.2 1.3-0.6 2.7-0.7 3-0.6 5.1 0.3 5.6 0.4 0.2 0.9-0.5 3.3-5.3 1.6-3.1 2.8-6 2.8-6.5 0-0.7-0.1-0.7-4-0.9-3.9-0.2-7.8-1.1-9.9-2.1-0.5-0.3-1.3-0.6-1.7-0.7-0.9-0.3-0.9-0.3-0.7 1.7z"/>
		<path id="&lt;Path&gt;" class="s2" d="m285.6 1257.6c-5.7 4.8-13.9 8.9-22.5 11.2-1.8 0.5-3.3 0.9-3.3 0.9 0 0.1-0.6 2.2-1.4 4.8-0.6 2.6-1.8 6-2.5 7.7l-1.3 3-3.1 2.1c-7.8 5.3-17.7 13.2-25.7 20.9l-3.5 3.4 1.1 1.4c1.2 1.6 3 5.5 3.9 8.8 0.3 1.1 0.7 2.3 0.9 2.7 0.2 0.4 0.5 1.7 0.7 3l0.4 2.3 3 2.3c3.9 3.1 6.4 4.8 10 6.7l3 1.6 1.1-0.7c0.6-0.4 1.8-0.8 2.6-0.9 0.9-0.1 2.1-0.5 2.7-0.9 1.6-1 4.4-1.6 6.8-1.6 1.2 0 3.1-0.3 4.1-0.6 3.6-1 7.5-0.1 11.3 2.7 0.9 0.7 2.1 1.8 2.5 2.4 0.4 0.6 0.8 1.1 0.9 1.2 0.1 0.2 9.7-1.6 16.7-3.2 8.5-1.9 18.2-4.4 27.6-7.2 0.5-0.1 0.6-0.8 0.6-7 0-8.3 0.4-14.2 1.2-16.2 0.3-1 0.8-1.6 1.6-1.9l1-0.5-4.4-3.6c-7.6-6.3-14.2-10.8-22.4-15.7-2.1-1.2-3.9-2.4-4-2.8-0.6-1.3-2-8.2-2.6-11.8-0.7-5.1-2-9.6-3.7-13.1l-1.4-3z"/>
		<path id="&lt;Path&gt;" class="s2" d="m866.1 1262.4c-4.9 10.1-12.7 20.7-18.3 24.4-2.3 1.6-10.1 7.4-10.1 7.6 0 0.1 0.9 0 2-0.2 3-0.5 10.8-0.1 13.2 0.7 2.4 0.8 4.6 1.8 6.1 2.8l0.9 0.7v-1.2c0-2.5 2.7-4.3 6.3-4.3 5.1 0 17.9 3.4 24.6 6.5 3 1.4 8.7 5.4 9.7 6.8 1 1.5 1.3 1.6 1.5 0.4 0.1-0.5 0.6-1.4 1.1-2.1 3.5-4.1 24.8-11.7 31.6-11.2 3.9 0.3 6.4 2.2 6.7 5.1 0.4 3.8-3.7 7.9-8.9 9.1-1.9 0.5-14.3 2.2-21.1 3-3.2 0.3-4.9 0.4-6.1 0.2-1.8-0.4-1.9-0.4-3.6 0.7-4.9 3.1-5.1 3.2-9.4 3.1-4.1 0-6.9-0.5-12-2.3-3.3-1.3-10.2-4.6-12.7-6.1-1-0.7-1.9-1.2-1.9-1.1 0 0.2 1.3 2.2 3 4.6 6.8 9.9 8 11.8 9.2 14.3 1.6 3.1 2.6 6.1 3.4 10 0.4 2.3 0.6 5.9 0.8 18.4l0.2 15.6 2.6 4.8c1.4 2.6 4.7 8.7 7.3 13.4l4.7 8.5 3.4 2.1c3.7 2.1 11.7 6.1 15.8 7.7 6 2.4 18 6.1 18.4 5.7 0-0.2 1.8-3.8 3.9-8.1 4.2-8.7 16.5-34.1 16.6-34.2 0 0 4 0.4 8.7 1 26.3 3 47.5 4.2 66.7 3.9 18.8-0.3 30.8-1.7 40.1-4.6 2-0.7 4.2-1.1 6.5-1.2 10.2-0.7 23.7-3.2 35.7-6.5 12.9-3.7 23.8-7.9 43-16.5 4.8-2.2 9.1-4.1 9.6-4.3 0.8-0.3 0.7-0.4-1.1-0.8-3-0.7-5.1-1.9-7.3-4.3-3-3.2-3.7-4.9-3.7-8.5 0-3.6 0.9-5.5 3.8-8.2 3.6-3.4 8.9-5.4 15.8-6.2 3.3-0.3 8.9-0.2 10.9 0.3 0.7 0.2 0.7 0.2 0.7-3.9 0-4.2 0-4.2-0.7-4-0.5 0.1-2.5 0.5-4.6 0.9l-3.7 0.9-18.5-0.4c-36.7-0.6-71 0.7-84.6 3.3l-3.9 0.8-7.8-0.8c-20.3-1.9-45.3-5.4-63.4-8.8-27.9-5.3-47.8-10.9-66.1-18.5-3.5-1.5-7.5-3.1-8.8-3.6l-2.4-0.8 0.2-3.6 0.2-3.6-10.8-0.2c-16.7-0.3-27.6-2.1-35-5.6-1.8-0.8-4.9-3.8-5.9-5.7-0.3-0.5-0.8 0.4-2.5 4.1z"/>
		<path id="&lt;Path&gt;" class="s2" d="m867.4 1298.9c0 0.3 4.4 3 7.5 4.6 7 3.5 13.9 5.5 17.8 5.4l2.2-0.1-2.6-1.8c-3.3-2.3-3.8-2.5-9-4.3-5.9-2-15.9-4.4-15.9-3.8z"/>
		<path id="&lt;Path&gt;" class="s2" d="m929.2 1299.8c-3.5 0.8-12.5 3.7-12 3.9 0.5 0.2 12.4-1.5 14.3-2 1.5-0.4 3.9-1.8 3.9-2.3 0-0.6-3-0.4-6.2 0.4z"/>
		<path id="&lt;Path&gt;" class="s2" d="m837.7 1300.4c-5.8 1.2-13.9 4.2-15.5 5.7-0.6 0.6-2.6 2.9-4.6 5.2-9.1 10.9-15.1 22.1-21.4 39.8-2.7 7.3-2.9 7.9-7.6 16.3-11.3 20-18.5 37.9-24.5 60.9-5.1 19.6-9.1 45.3-10.3 65.8-0.1 2-0.3 4.4-0.4 5.4l-0.2 1.9 2.3-2.2c8-7.4 21-14.4 39.5-21.2 2.1-0.8 2.3-0.9 4.6-4.2 5.8-8.5 10.5-15.7 15.1-23.4 2.7-4.5 5-8.2 5.1-8.1 0 0 1 4.1 2.2 9.1 1.1 5 2.4 10.2 2.9 11.6 0.4 1.4 0.9 3.3 1 4.2 0.3 1.8 0.4 1.8 2.6 1.1 3.4-1.2 14.5-3.3 17.8-3.3 2.7 0 1.1-0.6-4.3-1.6-3-0.6-6.2-1.5-7-1.9-2.8-1.4-6.1-5.4-8.9-11.1-3.8-7.5-9.7-23.9-12.4-34-3.5-13.5-4.1-15.4-5-17.4-1.2-2.7-2.6-4.8-3.8-5.7l-1-0.7 1.6-2.4c0.8-1.3 1.7-2.4 1.8-2.4 0.2 0 1.3 1 2.5 2.2 3.6 3.6 5.1 7.1 8.6 20.9 2.1 8.3 2.7 10.3 5.7 18.8 4.2 11.8 6.8 18 9.8 22.4 2.5 3.9 3.1 4.3 7.4 5.1 1.3 0.2 6.9 1.5 12.4 2.7 11.1 2.6 13.4 3 20 3.3 2.5 0.1 6.1 0.4 8 0.7 2 0.2 7.6 0.7 12.3 1 15.1 0.9 29.1 2 47.7 3.9 5.5 0.6 14.8 1.3 20.7 1.7 6 0.4 12.3 0.9 14.2 1 1.9 0.2 4.1 0.4 4.9 0.4h1.6l0.5-2.1c0.2-1.1 0.4-2 0.5-2 0.3 0 17.8 4 24.6 5.5 4.3 1.1 8.7 2.1 9.9 2.3 1.1 0.2 3 0.8 4.2 1.2 1.3 0.5 4.5 1.5 7.2 2.2 2.7 0.8 5 1.5 5.1 1.6 0.1 0.1-1.4 0.2-3.3 0.2-1.9 0-3.5 0.1-3.5 0.2 0 0.1 0.7 1.5 1.4 3.1 1.2 2.6 1.4 3.2 1.2 4.7-0.1 1-0.4 2.4-0.8 3.1-0.9 1.8-4.3 6.3-6.4 8.6l-1.7 1.8-5.1-7c-2.8-3.8-5.1-7-5.1-7-0.1 0 0.3 1.5 0.8 3.3 1.5 5.7 6.4 14 8.9 15.2 1 0.5 1.3 0.5 2.3 0.1 3.2-1.4 8.3-6.7 10.3-10.9 1.6-3.3 1.9-5.8 1.9-15.6 0-12.1-1-18.2-3.9-24.4-2.3-4.9-2.4-5-9.5-8.4-3.4-1.7-8.1-4.1-10.3-5.5-14.1-8.5-32.9-15.9-52.9-20.9-5.8-1.5-15.3-3.4-20.4-4.1-12.6-1.9-32.8-9.6-43.5-16.6l-3.1-2-4.6-8.3c-2.5-4.6-6.1-11.2-8-14.6l-3.3-6.4-0.3-15.9c-0.2-22.6-0.4-23.3-9.6-36.5-2.3-3.3-5-7.2-6-8.8-4.1-6.2-8.1-8.3-16.1-8.2-2.4 0-5 0.2-6.8 0.6z"/>
		<path id="&lt;Path&gt;" class="s2" d="m1247.6 1301.6c-9.2 0.8-17.3 4.3-20.5 8.8-0.7 1-0.6 1 1.1-0.5 2.5-2.1 4.3-3.2 7.2-4.4 10.3-4 26.2-3.4 34.7 1.5 1.9 1.1 4.9 3.7 6 5.4 0.4 0.6 0.4 0.5-0.1-0.6-2.2-4.5-8.3-8.2-15.9-9.5-3.2-0.5-9.8-0.9-12.5-0.7z"/>
		<path id="&lt;Path&gt;" class="s2" d="m1189.6 1304c-3.9 0.6-4.5 0.8-2.4 0.8 2.2 0 4.3 1 5.8 2.7l1.3 1.3 6.2 0.2c3.5 0.2 7.6 0.4 9.3 0.5l3 0.2v-1.9-1.9l-3.8-0.9c-7.4-1.6-13-1.9-19.4-1z"/>
		<path id="&lt;Path&gt;" class="s2" d="m1245.6 1309c-5.9 0.7-10.9 2.7-13.9 5.6-1.7 1.8-2.1 1.9-4.9 2.6l-3.1 0.8 0.1 2.4c0.1 2.9 0.8 3.4 1.1 0.8 0.4-2.9 0.6-3 1.9-1l1.1 1.8 0.6-1.2c0.4-0.7 1.5-2 2.6-2.9 4.4-4 11.2-5.8 21.1-5.9 7.7 0 13.9 1.2 17.6 3.3 0.8 0.5 1.5 0.8 1.6 0.7 0.5-0.4-3.3-3.6-5.4-4.6-5-2.4-12.9-3.3-20.4-2.4z"/>
		<path id="&lt;Path&gt;" class="s2" d="m328.4 1311.7c-0.1 0.3-0.3 5-0.4 10.4-0.2 18.2 1.3 47.7 3.9 73.3 0.5 4.6 0.9 8.8 1 9.5 0.1 0.8 0.1 1.1-0.3 1-1-0.5-38.5-28.6-50.2-37.7l-5.6-4.4-0.9-3.8c-3.7-15.5-3.7-15.3-4.9-16.5-1.5-1.4-3.8-2.4-5.4-2.4-0.6 0-1.8 0.2-2.5 0.5-0.8 0.2-2.6 0.5-4 0.5-2.5 0-4.9 0.6-4.9 1.3 0 0.2 0.7 0.5 1.6 0.7 1.7 0.4 1.8 0.5 3.5 3.4 1 1.6 3.7 5.4 5.9 8.3 3.9 5.2 4.4 6.1 9.5 16.3 8.2 16.4 15.6 29.4 24.5 42.9 18 27.4 36.7 47.5 49.3 52.8 2.8 1.2 4.9 1.5 7.6 1.2 1.8-0.2 1.9-0.3 2.4-1.7 1.8-4.3 4.8-20.4 5.8-31.1 1-9.7 1.2-28.2 0.6-38.3-1.2-17.7-4.1-35.1-7.6-45.9-3.3-10.2-13.3-25.9-22.5-35.4-4.3-4.3-5.9-5.6-6.4-4.9z"/>
		<path id="&lt;Path&gt;" class="s2" d="m1205.1 1314.6c-8.6 3.1-8.6 3.1-6.8 3.5 1.8 0.5 3.8 0.5 7.7-0.1 4.7-0.7 5.8-1.2 6.1-2.4 0.6-2.3 0.7-3.6 0.2-3.5-0.2 0-3.5 1.1-7.2 2.5z"/>
		<path id="&lt;Path&gt;" class="s2" d="m217.2 1317.9c-10.3 12.7-21.3 52.8-28.6 104.4-1.9 13.2-2 15.1-1.4 16.2 1.2 2.3 6.2 6 12.7 9.4 12.3 6.6 31.6 14 85.5 32.8l18.8 6.6 1.9 2.4c1 1.4 3.7 5.1 5.9 8.3 2.3 3.2 4.6 6.4 5.1 7.1 0.6 0.8 1.7 2.5 2.4 3.8 0.7 1.3 1.3 2.2 1.3 1.9 0-0.5 0.6-0.7 2.9-1 2.4-0.3 3.2-0.7 5-1.8l2.1-1.3-0.7-0.8c-0.8-0.8-7.6-11.9-7.5-12.1 0.1 0 2.1 0.8 4.5 1.8 2.4 1 4.5 1.8 4.5 1.8 0.2-0.1-7.8-4.7-12.5-7.1-2-1.1-4.9-2.4-6.5-2.9-2.5-0.8-3.2-1.2-5.1-3.1-1.3-1.1-4.5-4.1-7.4-6.6-26.3-23.7-52.2-43.3-68.6-51.9-2.3-1.2-4.2-2.2-4.2-2.3-0.1 0 0.4-5.5 1-12.1 1.7-16.5 1.7-18.3 1.3-28.5-1.2-28.1-5.2-54.5-9.6-64.3-0.5-1.2-1.1-2.1-1.3-2.1-0.2 0-0.9 0.6-1.5 1.4z"/>
		<path id="&lt;Path&gt;" class="s2" d="m1172.3 1317.5c-8.6 1.2-14.2 5.2-13.4 9.7 0.4 1.6 3.2 4.7 5.1 5.5 3.2 1.2 11 0.9 17.9-0.8l2.4-0.6 0.7-2.4c1.1-3 3-10.1 2.8-10.3-0.1 0-1.4-0.3-2.8-0.6-3.5-0.7-9.7-0.9-12.7-0.5z"/>
		<path id="&lt;Path&gt;" class="s2" d="m1245.2 1318.2c-7 1.2-11.9 4-11.9 7 0 2.2 3 4.5 7.7 5.8 2.7 0.8 12.3 1.1 15.9 0.5 3.2-0.5 6.7-1.7 9.1-3.2 2.2-1.3 4-3.7 3.7-5-0.5-2-3.2-3.6-7.7-4.6-3-0.7-13.7-1-16.8-0.5z"/>
		<path id="&lt;Path&gt;" class="s2" d="m1192.3 1325.6c0 0.3-0.1 1-0.3 1.4-0.2 0.8-0.2 0.8 1.1-0.2 1.2-0.9 1.2-0.9 0.5-1.4-1.1-0.5-1.3-0.5-1.3 0.2z"/>
		<path id="&lt;Path&gt;" class="s2" d="m1214.3 1329.7c-0.4 0-1.8 0.4-3.2 0.7l-2.5 0.5 0.2 1.2c0.3 1.6 1.8 4.1 2.9 4.6 1 0.5 1.1 0.5 2.3-0.4 2.7-2 3.4-3.7 2.6-5.9-0.4-0.9-0.8-1.1-2.3-0.7z"/>
		<path id="&lt;Path&gt;" class="s2" d="m1198.8 1333.5l-3.3 1 0.1 1.6c0.1 2 0.6 3.7 1.5 5.2 0.7 1 0.9 1.1 1.8 0.9 1.8-0.3 3.9-1.8 4.2-2.7 0.4-1.7-0.3-7.1-0.9-7-0.1 0.1-1.6 0.5-3.4 1z"/>
		<path id="&lt;Path&gt;" class="s2" d="m1184.6 1337.2l-3.3 0.9 0.2 1.2c0.3 1.8 1.9 4.3 2.9 4.4 1.1 0.1 3.9-1.6 4.6-2.8 0.5-0.7 0.5-1 0.1-2.6-0.2-1-0.5-1.8-0.7-1.9-0.2 0-1.9 0.3-3.8 0.8z"/>
		<path id="&lt;Path&gt;" class="s2" d="m318.2 1338.5c-8.3 2.6-25.1 6.6-34 8.2-2.7 0.5-5 1-5.1 1-0.1 0.2 0.3 2 1.8 8.4l1 4.3 6.7 5.3c7.9 6.2 35.2 26.8 36.9 27.8 0.4 0.2 0.5 0 0.3-1.4-1-8-3.3-43-3.3-51.2 0-3.8 0.2-3.7-4.3-2.4z"/>
		<path id="&lt;Path&gt;" class="s2" d="m231.1 1339.2c0.7 2.3 2.8 20.6 3.6 31.4 0.6 7.7 0.9 22.5 0.6 27.6l-0.2 4.8 2.2 6.7c1.2 3.6 2.8 8.6 3.4 10.9 0.7 2.7 1.4 4.5 1.8 4.8 0.3 0.2 3.5 2.3 7 4.6 16 10.7 36 26.7 56.7 45.4 6.7 6 6.7 6 9.9 7.2 1.7 0.6 4.5 1.9 6.1 2.8 1.7 0.9 4.5 2.5 6.3 3.5 1.9 0.9 5.1 2.9 7.2 4.2 2 1.3 5.2 3.1 7 4 4.4 2.1 7.7 4.3 8.5 5.6 1.4 2.3 0.6 4.9-2 6.1-1.9 1-4.3 0.7-8.2-0.9-2.5-1-2.8-1-2.3-0.4 0.9 1.3 2.5 4.4 3.9 7.9 3.9 9.4 4.2 13.8 0.8 14.8-1.8 0.6-3.6-0.4-5.4-2.8l-1.4-1.9-0.1 4.4c-0.2 4.4-0.2 4.5-1.2 5.5-1.2 1.3-3.1 1.4-4.7 0.3-0.9-0.7-2.9-4.2-3-5.4 0-0.3-0.3 0.5-0.5 1.7-0.9 4.6-2.3 6.4-4.7 6-1.7-0.2-2.8-1.3-3.5-3.3-0.7-2-1.1-6.8-1.2-11.2 0-1.9-0.2-4.2-0.5-5.3-0.7-2.8-3.2-7.6-6.1-11.6-1.4-1.9-4.1-5.8-6.2-8.7-2-2.8-3.8-5.3-4.1-5.5-0.2-0.2-9.6-3.5-20.8-7.5-11.3-3.9-24.9-8.7-30.2-10.6-5.3-1.9-9.7-3.4-9.9-3.4-0.2 0-0.5 0.2-0.6 0.5-0.2 0.5-0.8 0.6-7.3 0.4-10.6-0.4-24.4 0.4-34 1.8l-2.7 0.4 1.9 0.6c1 0.3 2.3 0.9 3 1.2 1.3 0.6 1.3 0.6 3.2-0.3 3.1-1.5 6.1-2 11-2 14 0 32.6 7.4 46.6 18.6 3.3 2.6 8.1 7.4 10.2 10.2 3 4 5.3 9.2 5.7 12.9 0.8 6.9-3.9 25.8-12.4 50.3-3.8 10.6-5.3 15-7.4 20.3-0.9 2.2-1.5 4.1-1.5 4.3 0.1 0.1 19.4-1.8 43.1-4.2l42.9-4.3 1.3-1.1c0.7-0.5 2.4-2.1 3.6-3.4 7.1-7.5 11.2-17.2 12.9-30.2 0.5-3.9 0.5-15.6 0-20.5-1.5-14.7-5.9-32-12.1-47.2-2.9-7.2-2.5-6.6-5.9-8.6-11-6.5-26.2-22.6-40.5-42.8-11.4-16.2-23.8-37.3-33.2-56.8-2.8-5.7-3.7-7.2-7.1-11.7-2.1-2.8-4.5-6.2-5.4-7.4-1.2-2-1.6-2.3-2.9-2.6-2.8-0.8-5.8-1.9-6.7-2.4-0.4-0.3-2-1.1-3.4-1.7-2.8-1.2-5.5-2.8-8.8-5.1-2.4-1.6-2.6-1.7-2.3-0.9z"/>
		<path id="&lt;Path&gt;" class="s2" d="m233.6 1418c-0.5 1.2-0.3 2.3 0.5 2.7 0.6 0.3 0.7 0.3 0.4-0.8-0.1-0.6-0.3-1.4-0.5-1.8-0.2-0.6-0.2-0.6-0.4-0.1z"/>
		<path id="&lt;Path&gt;" class="s2" d="m439.3 1455.2c-39.9 2.4-72.6 4.5-72.7 4.6 0 0-0.5 1.6-0.9 3.4-2.3 9.6-3.8 11.3-10.2 11.6-1.9 0.2-3.5 0.3-3.5 0.3 0 0 1 2.6 2.2 5.8 5.8 15.6 9.7 31.3 11 45.6 0.5 5.3 0.5 15.7 0 20.2-1.8 16.7-8.5 30.2-19 38.5l-2.3 2-13.4 1.3c-7.4 0.7-13.4 1.4-13.4 1.4 0.1 0.1 425.7-13.1 425.8-13.2 0-0.1-0.5-1.9-1.3-4.1-2.6-7.9-3.5-14.7-3.2-24.7 0.2-7.7 1.1-13.8 3.1-21.5 1.3-5 4-13 5.1-15.1 0.5-1.1 0.7-2.3 0.9-7.8 0.6-14.9 2.6-34.4 4.5-45.7l0.5-2.6-7.9-0.2c-16.2-0.5-220.6-4.3-226.5-4.3-3.4 0.1-38.8 2.1-78.8 4.5z"/>
		<path id="&lt;Path&gt;" class="s2" d="m815.5 1460.2c-1 1.6-3.2 5-4.9 7.5-1.7 2.5-3 4.6-2.9 4.7 0.3 0.3 7.2-0.6 9.9-1.3l3-0.7-0.2-1.4c-0.1-0.7-0.5-2.4-0.9-3.6-0.3-1.2-1-3.6-1.4-5.2l-0.8-2.9z"/>
		<path id="&lt;Path&gt;" class="s2" d="m1041 1466.2c0.7 5.1 1 11.3 0.9 17.1-0.2 7-0.9 11.4-2 14-2.3 5.4-8.5 12.3-13.2 14.6-3.5 1.8-6.8 1.3-9.7-1.3l-1.4-1.3 0.2 1.2c0.8 5.1 1.4 18.4 1.8 43.4l0.2 14.3h1.2c0.7 0 28.3-0.8 61.4-1.9 33.1-1 60.4-1.9 60.7-1.9 0.3 0 0.6-0.3 0.7-0.6 0.2-0.7 0.5-0.7 21.9-0.7 19 0 30.1-0.3 93-2.2 39.2-1.3 71.8-2.3 72.3-2.3h1v-21.1-21.2l-0.8-0.2c-0.4-0.1-64.7-11.5-142.9-25.4-78.2-13.9-142.9-25.4-143.8-25.6l-1.6-0.3z"/>
		<path id="&lt;Path&gt;" class="s2" d="m854.9 1470.2c-5.4 0.3-12.1 1.3-21.3 3.2-6.3 1.4-13.8 3.3-14 3.6-0.1 0.1-0.8 0.3-1.6 0.5-2.3 0.4-11.3 3.1-17.3 5.3-14.7 5.2-27.1 11.3-36.3 17.9-4.9 3.5-11 9.7-12.4 12.5-2.4 5.1-5.5 15.7-6.9 23.7-1 5.8-1.3 17-0.6 22.6 1.8 12.9 6.9 23.6 15.8 32.9 8.8 9.2 18.7 15.1 36.1 21.6 22.8 8.5 46.4 15 68.3 18.8 7.1 1.2 16.7 2.4 19.7 2.4h2.1l-0.1-2.7c-1.5-23.9-1.6-26.6-1.6-40 0-13.6 0.1-14.1 0.7-21.7 0.8-9.6 2.7-21.7 4.5-28.7 1.6-6.3 4.9-15.5 8.1-22.3 6.9-14.6 18.1-26.8 29.5-32 1.9-0.9 2.7-1.4 2.7-1.8 0-1.7-3-5-5.7-6.4-2.9-1.4-23.6-6.6-30.4-7.6-2.2-0.3-5.3-0.8-6.9-1.1-2.4-0.6-4.6-0.7-15-0.9-6.7-0.1-14.5 0-17.4 0.2z"/>
		<path id="&lt;Path&gt;" class="s2" d="m123.3 1478.6c-29.4 2.8-53.7 5.2-54 5.2-0.6 0-0.6 2.1-0.6 38.1 0 21 0.1 38.1 0.2 38.1 0.1 0 14.3 1.9 31.6 4.1 17.3 2.3 31.8 4.1 32.2 4.1 0.7 0 0.8-0.1 0.7-1-0.2-1.4-1.5-15.7-2.1-24.3-0.7-9.6-0.8-24.6-0.1-27.6 1.7-9.2 15.5-23.7 30.6-32.3 1.8-1.1 3.8-2.3 4.2-2.8 1.4-1.1 5.7-4 8.5-5.4 1.3-0.7 2.5-1.4 2.5-1.4q0-0.1-0.1-0.1c-0.1 0-24.2 2.4-53.6 5.3z"/>
		<path id="&lt;Path&gt;" class="s2" d="m938.6 1479.7c11.7 6 14.9 7.8 16.2 9 4.8 4.7 6 14.6 4.7 41.4-0.4 9-0.7 19.9-0.6 24.4 0.1 1.1 0.3 1.7 1 2.5 1.4 1.3 2.3 1.2 4.8-0.3 4.9-3 9-7.6 18.4-20.6 2.6-3.7 6.2-8.4 7.9-10.6 5.2-6.4 10.5-15.8 11.7-20.5 1-4.5 1.5-9.5 1.2-14.3-0.2-4.4-1-8.2-1.9-8.6-0.9-0.5-20.4-2.6-39.1-4.2-12-1.1-31.2-2.6-32.4-2.6-0.2 0 3.4 2 8.1 4.4z"/>
		<path id="&lt;Path&gt;" class="s2" d="m210.4 1479.4c-4.4 0.8-7.1 2.5-8.5 5.2-3 5.7-6.5 27.3-10.4 62.9-0.8 7.7-3.8 36.6-6.5 64.3-6.2 62.4-8.5 83-11.8 107-1.3 9-3.5 22.5-4.6 28.3-0.5 2.3-0.9 4.3-0.9 4.4 0 0.1 0.4 0.1 0.9 0.1 0.6 0 1.3-0.7 3.3-3.6 16.4-23.7 40-69.4 60.8-117.5 21.7-50.4 37.1-95 38.4-111.5 0.3-3.4-0.2-5.5-2.1-9.2-1.6-3.2-3.7-5.8-7.5-9.6-8.2-7.9-19.2-14.2-31.5-18.2-6.8-2.2-15.5-3.4-19.6-2.6z"/>
		<path id="&lt;Path&gt;" class="s2" d="m188.8 1479.6c-7.9 0.9-14.2 3-22.6 7.5-12.3 6.7-23.6 17.2-28.4 26.3-1.2 2.4-1.6 7.3-1.4 15.9 0.8 24 5.4 66.8 14.4 134.4 4.4 32.7 11.6 83.2 11.8 83.2 0.5 0 4.1-22.5 6.2-38.5 3.1-24 4.5-36.8 10.7-99.9 6.8-68.3 8.3-81.4 11.1-100.1 2.1-13.4 3.9-21.5 5.8-25.8 0.7-1.5 0.7-1.7 0.2-2-0.5-0.5-5.1-1.2-6.2-1.2-0.4 0.1-1.1 0.2-1.6 0.2z"/>
		<path id="&lt;Path&gt;" class="s2" d="m1015.2 1481.7c-0.3 0.1-0.6 0.3-0.5 0.5 0.2 0.5 7.5 10.5 7.8 10.5 0.2 0 2.7-3.7 2.7-4.1 0-0.5-8.5-7.2-9.1-7.1-0.1 0-0.5 0.1-0.9 0.2z"/>
		<path id="&lt;Path&gt;" class="s2" d="m938.5 1489.8c-3.6 0.8-10.1 3.9-14.4 6.8-1.4 0.9-4.6 3.7-7 6.2-3.5 3.5-5.1 5.4-7.4 8.9-10.4 15.7-15.9 33.7-18.5 59.9-0.8 8.6-0.2 39.9 1.1 61.8 0.4 5.9 0.9 7.8 5 20 3.5 10.5 7.7 21.5 13.7 36l4.6 11v4.4c0 8.5-1.8 13.6-7.5 20.6-3.3 4.1-3.5 4.5-3.4 5.6l0.1 1 19.6 0.1 19.5 0.1 0.1-0.8c0.1-2.4-0.4-3-4.4-5.4-8-4.7-11.9-10.8-14-21.6l-0.5-3 1.6-7.4c5.7-27.2 13.1-65.9 16.5-87.2 2.4-14.7 5-33.4 7.8-55.8l3-24v-12.3c0-12.8-0.2-15.5-1.6-19.1-0.3-1-1-2.1-1.4-2.4-1.3-1.2-5-2.9-7.4-3.4-2.6-0.6-2.7-0.6-5.1 0z"/>
		<path id="&lt;Path&gt;" class="s2" d="m1008.5 1506.8c-0.8 2.8-3.8 9.7-5 11.7-0.7 1.1-2 3-2.9 4.3-0.9 1.2-3 4.3-4.7 7-7.5 11.1-14 19.2-21.8 27-3.6 3.7-6 5.3-9.4 6.5-3.5 1.2-6.6 0.9-8.5-0.8-0.4-0.3-0.7-0.5-0.8-0.4 0 0.1-0.5 3.7-1 8.2-1.3 10.4-1.1 9.4-2.6 19.4-1.2 8.3-1.3 8.9-0.9 11.5 2.5 15.1 10.5 37.3 20.3 55.8 9 17.3 16.1 28.8 28.1 45.4l1.3 1.9 0.4 6.9c0.9 16.8 1.1 19.1 2.3 20.3 0.5 0.6 2.5 0.7 32.9 0.7 31.3 0 32.4-0.1 32-0.7-0.5-0.8-2.3-2-4.3-2.8-2.4-0.9-5.8-1.5-14.8-2.7-9.1-1.2-12.7-1.9-17.4-3.4-10.1-3.3-14.4-6.7-18.2-14.2l-0.8-1.7-0.2-65.1c-0.2-63-0.8-109.6-1.6-121.4-0.2-2.8-0.6-7.1-0.9-9.4-0.2-2.3-0.5-4.5-0.5-4.9 0-1-0.6-0.6-1 0.9z"/>
		<path id="&lt;Path&gt;" class="s2" d="m71.5 1573.6c0.1 4.1 0.7 44.9 1.1 90.8 0.5 45.8 1 84.9 1.1 86.8l0.2 3.5h41.8 41.8v-0.8c0-0.4-1.5-11.6-3.4-24.8-9.4-66.4-15-109.2-18.5-141.3-0.8-7.3-1.5-13.3-1.5-13.4-0.1-0.1-61.7-8.2-62.5-8.2-0.1 0-0.2 3.3-0.1 7.4z"/>
		<path id="&lt;Path&gt;" class="s2" d="m1172.5 1569.2c-4.3 0.2-11.6 0.4-16.3 0.5l-8.7 0.3v7.6 7.7h27.1 27l-0.2-5.9c-0.1-3.2-0.2-6.9-0.2-8.2v-2.3l-10.5 0.1c-5.8 0-14 0.1-18.2 0.2z"/>
		<path id="&lt;Path&gt;" class="s2" d="m1207.1 1574.3c0.1 2.9 0.2 6.6 0.2 8.1v2.9h26.7 26.6l-0.2-2.2c-0.3-3.4-0.8-12-0.8-13.2v-1h-26.4-26.3z"/>
		<path id="&lt;Path&gt;" class="s2" d="m1265.4 1569.6c0 0.5 0.2 4 0.5 8 0.3 3.9 0.5 7.3 0.5 7.4 0 0.2 13 0.3 28.9 0.3h28.9v-8.2-8.2h-29.4-29.4z"/>
		<path id="&lt;Path&gt;" class="s2" d="m1078 1572.2c-31 1-57.2 1.8-58.2 1.8h-1.9l0.2 19.9c0.1 11 0.2 40.5 0.3 65.6v45.7l1.1 2.1c1.4 2.6 4.3 5.6 6.6 6.9 5.3 2.8 12.5 4.6 24.4 6.2 5 0.7 10.4 1.5 12 1.9 4.2 1 7.5 2.7 9.5 4.9 2 2.2 2.7 4.1 3 7.9l0.2 2.9h-36.2c-34.2 0-36.2-0.1-37.5-0.7q-4.3-1.9-5.3-9.4c-0.2-1.5-0.5-6.6-0.7-11.2-0.2-4.7-0.5-9.1-0.6-9.8-0.2-0.7-1-2.2-1.8-3.3-2.7-3.5-7.6-10.7-11.5-16.9-16-25.3-26.3-47.4-33.5-71.7-0.2-0.5-0.6 1.3-1.4 5.8-2.8 16.5-9.9 53.1-14.4 74.3-1.3 6.5-1.3 6.5-0.8 9.1 1.6 8.6 4.5 13 11.2 17 3.9 2.3 6.1 4.4 6.7 6.5 0.4 1.6 0.4 5.1-0.1 7.9l-0.5 2.2-23.4 0.1-23.4 0.1-1.2-1.8c-1.7-2.6-2.1-3.8-1.9-6.1 0.2-2.4 0.7-3.3 4.1-7.5 4.7-5.8 6.1-8.9 6.8-14.7 0.5-4.8 0.2-6.1-3.2-14.1-8.3-19.6-16.4-41.7-18.7-51l-0.4-1.7-4.4-0.2c-17.3-0.9-48-7.7-74.1-16.3-18.2-6.1-29.3-10.8-37.5-15.9-10.2-6.3-19.3-15.2-24.2-23.7-1.1-2-1.5-2.4-2.2-2.4-1.9-0.1-434.4 13.4-434.5 13.5-0.2 0.1-0.5 146.3-0.4 146.3 0.6 0 797.8 1.7 812.7 1.7h18.8v-86.9-86.9h-3.6c-2.1 0-29.1 0.8-60.1 1.9z"/>
		<path id="&lt;Path&gt;" class="s2" d="m267.2 1594.9c-6.9 0.7-12.9 1.3-13.4 1.4-0.7 0.1-1 0.7-2.6 4.7-11.8 29.6-24.9 58.9-38.6 86.6-13.3 26.7-22.7 43.5-33.8 60.4-2.3 3.5-4.2 6.5-4.2 6.5 0.1 0.1 804.1-1 1020-1.4l138.8-0.2v-1.3-1.3h-19.9c-11 0-238.9-0.5-506.6-1.1-267.6-0.5-489.8-1-493.7-1h-7l-1-0.9-0.9-0.9 0.2-74.9 0.2-74.9-1.3-0.2c-3.8-0.6-22.3-2.9-23-2.9-0.4 0-6.4 0.7-13.2 1.4z"/>
		<path id="&lt;Path&gt;" class="s2" d="m1147.5 1605.1v8.2h27.4 27.4l-0.2-2.1c-0.1-1.2-0.2-4.8-0.2-8.2v-6.1h-27.2-27.2z"/>
		<path id="&lt;Path&gt;" class="s2" d="m1207.7 1602.3c0 2.9 0.1 6.6 0.2 8.2l0.2 2.8h27.1 27.1v-0.8c0-0.4-0.2-4-0.5-7.9-0.3-4-0.5-7.3-0.5-7.5 0-0.1-12.1-0.2-26.8-0.2h-26.8z"/>
		<path id="&lt;Path&gt;" class="s2" d="m1267.3 1599.2c0.3 3.2 0.8 12 0.8 13.1v1h28 28.1v-8.2-8.2h-28.6-28.5z"/>
		<path id="&lt;Path&gt;" class="s2" d="m1147.5 1633.1v8.2h27.5 27.5v-6.4c0-3.5-0.1-7.2-0.2-8.2l-0.2-1.8h-27.3-27.3z"/>
		<path id="&lt;Path&gt;" class="s2" d="m1208.1 1626c0.1 0.5 0.2 4.2 0.2 8.2v7.1h27.9 27.8v-1.2c0-1.9-0.7-12.8-0.9-14.1l-0.1-1.1h-27.6-27.5z"/>
		<path id="&lt;Path&gt;" class="s2" d="m1269.5 1633.1l0.5 8.2h27.1 27.1v-8.2-8.2h-27.6-27.6z"/>
		<path id="&lt;Path&gt;" class="s2" d="m1147.5 1661.1v8.2h27.9 27.8v-2.3c0-1.3-0.1-5-0.2-8.2l-0.2-5.9h-27.7-27.6z"/>
		<path id="&lt;Path&gt;" class="s2" d="m1208.8 1657.8c0.1 2.7 0.2 6.4 0.2 8.2v3.3h28.6 28.5l-0.2-1.1c-0.1-0.6-0.3-4.3-0.5-8.2l-0.4-7.1h-28.2-28.2z"/>
		<path id="&lt;Path&gt;" class="s2" d="m1270.9 1653.9c0 1.4 0.6 11.5 0.9 13.6l0.1 1.8h26.2 26.1v-8.2-8.2h-26.7-26.6z"/>
		<path id="&lt;Path&gt;" class="s2" d="m1147.7 1681c-0.1 0.3-0.1 4-0.1 8.3l0.1 7.9 28.2 0.1h28.1l-0.2-2.6c-0.1-1.4-0.2-5.2-0.2-8.4v-5.7h-27.9c-22.2 0-27.9 0.1-28 0.4z"/>
		<path id="&lt;Path&gt;" class="s2" d="m1209.4 1685.6c0 2.8 0.1 6.6 0.2 8.4l0.2 3.3h29c23 0 29-0.1 29-0.4 0-0.2-0.2-3.7-0.5-7.6-0.3-4-0.5-7.5-0.5-8v-0.7h-28.7-28.7z"/>
		<path id="&lt;Path&gt;" class="s2" d="m1272.6 1681.2c0 0.3 0.2 3.7 0.5 7.6 0.3 3.8 0.5 7.3 0.5 7.7v0.8h25.3 25.3v-8.3-8.4h-25.8c-24.4 0-25.8 0-25.8 0.6z"/>
		<path id="&lt;Path&gt;" class="s2" d="m1147.5 1716.8v8.2h28.4 28.3v-6.6c0-3.7-0.1-7.3-0.2-8.2l-0.2-1.6h-28.1-28.2z"/>
		<path id="&lt;Path&gt;" class="s2" d="m1210 1708.8c-0.1 0.2-0.1 3.9 0 8.2l0.1 8h29.7 29.7v-1.1c0-0.8-0.9-14.6-1-15.2-0.1-0.2-58.4-0.1-58.5 0.1z"/>
		<path id="&lt;Path&gt;" class="s2" d="m1274.5 1710.4c0.2 2.5 0.8 12 0.8 13.4v1.2h24.4 24.5v-8.2-8.2h-25-24.9z"/>
		<path id="&lt;Path&gt;" class="s2" d="m1147.5 1739.2v2.5h28.6 28.5v-2.5-2.6h-28.5-28.6z"/>
		<path id="&lt;Path&gt;" class="s2" d="m1210.5 1739.1l0.1 2.5 30 0.1h30l-0.1-2.4-0.1-2.5-30-0.1-30-0.1z"/>
		<path id="&lt;Path&gt;" class="s2" d="m1276.4 1739.1l0.1 2.5 23.8 0.1h23.9v-2.5-2.6h-24-23.9z"/>
	</g>
</svg>
