<svg version="1.2" xmlns="http://www.w3.org/2000/svg" viewBox="0 0 5334 5334" width="800" height="800">
	<title>08-1-e-LIBRi-hamam2i-ai</title>
	<style>
		.s0 { fill: #000000 } 
		.s1 { fill: #fcfcfc } 
		.s2 { fill: #ffffff } 
	</style>
	<path id="Shape 1" class="s0" d="m5370-31v5413h-5406v-5413z"/>
	<g id="Black">
	</g>
	<g id="Color">
		<path id="&lt;Compound Path&gt;" fill-rule="evenodd" class="s1" d="m0 0h5334v5334h-5334zm2636 754c-98.1 3.8-190.2 13.9-285.5 31.1-354.3 64-688.8 222.4-956.5 452.8-182.3 156.9-328.2 341.7-431.9 547.1-107.6 213-165.9 440.9-174.3 681.6-1.1 32.7-0.3 114.9 9 935.9 5.6 495 10.3 905.9 10.4 913.1 0.2 11.9 0 13.2-1.8 15-2 2-2.1 3.7-2.7 53.4-0.4 28.2-0.7 83.2-0.7 122.2v70.9l2.5 2.4c1.3 1.4 3.1 2.5 3.9 2.5 1 0 1.6 1.4 2 4.2 0.2 2.4 1.6 115 3.1 250.3 1.4 135.3 2.8 260.8 3.2 279l0.6 33 2.9 2.8 2.9 2.9 220.7-0.6c121.4-0.4 955.6-1.6 1853.7-2.8 898.2-1.1 1634-2.4 1635.2-2.9 1.2-0.4 2.9-1.9 3.8-3.3 1.5-2.2 1.5-19.2 0.5-200.3-1.3-238.9-4.2-1025.3-7-1871.8-2-596.8-2.1-624.5-4-657.5-12.1-208.9-54.7-405.4-127-586.5-53.7-134.6-127.3-265.1-212.9-377.5-89.5-117.7-194.5-222.2-310.1-308.6-168.7-126.1-364.6-228-562.9-292.8-167.7-54.8-330.9-84.9-514.1-94.7-25.6-1.3-135.5-2-163-0.9z"/>
		<path id="&lt;Compound Path&gt;" fill-rule="evenodd" class="s2" d="m2780 771c241.5 9.9 467.9 60.8 686.3 154.4 160.3 68.7 323.8 166.7 449.7 269.5 219.2 179 385.2 413.6 484.8 685.1 4.9 13.5 11.2 31.2 13.8 39.3l4.9 14.8-3.4 6.2c-29.5 53.6-79.6 122.2-129.1 176.7-113.9 125.2-263.2 239.9-445 341.7-329 184.2-725 302.3-1087.5 324.3-88.4 5.3-227.9 3.5-354.5-4.6-214.8-13.7-397.9-44.3-555.5-92.9-38.9-12-69.2-22.8-141-50.5-26.3-10.1-98.4-37.1-189.5-71-184.7-68.7-277.1-112.7-375-178.5-56.4-38-108.7-79.9-171-136.9-20.1-18.5-80.1-77.6-102.2-100.9l-15.1-15.8 3.7-14.2c31.7-121.3 74.5-232.6 131.9-343.2 62-119.5 140-233.5 231.2-338 256.4-294.1 613.6-509.4 1007-607.1 135.9-33.8 268.1-52.8 406-58.3 28.7-1.2 121.8-1.2 149.5-0.1zm-215.2 54.6c-12.2 2.9-27 12.2-34.7 21.6-9.4 11.6-13.7 24.5-12.8 38.8 1 15.1 6.7 27.1 18.3 38 7.9 7.4 14.4 11.2 24.9 14.7 6.8 2.2 9.8 2.6 20 2.7 13.9 0.1 19.6-1.3 32-7.7 23.2-12.1 36.2-37.7 31.1-61.4-2.5-11.9-6.8-19.7-16-28.9-9.2-9.3-18-14.3-30.4-17.5-8.9-2.3-23.8-2.4-32.4-0.3zm-397.9 100.9c-27.6 6.7-47.9 30.7-47.9 56.7 0 16 5.4 28.4 17.4 40.3 8.8 8.7 15.9 13 27.1 16.5 24.9 7.6 53.6-0.9 70-20.8 8.7-10.5 12.7-21.5 12.9-34.7 0-10.2-1.6-17.1-6.6-26.8-7.4-14.2-23.3-26.3-40.4-30.7-9.1-2.3-23.9-2.6-32.5-0.5zm856.5-0.1c-7 1.6-18.9 7.4-25.2 12.2-5.7 4.4-13.7 13.5-16.3 18.7-8.7 16.9-8.9 34.7-0.6 51.6 4.5 9.4 15.7 20.4 26.2 25.8 12.1 6.3 18.1 7.7 31.5 7.7 13.4 0 19.4-1.4 31.5-7.7 19.4-10.1 32.4-30.6 32.5-51.3 0-6.7-3.3-19.3-6.7-25.5-3.3-6.1-11.1-15.2-16.7-19.5-4.9-3.7-13-7.9-20.6-10.6-7.3-2.6-26.9-3.4-35.6-1.4zm309.8 0.6c-20.5 5.4-37.7 20.9-44.3 40-2.9 8.4-3.1 22.8-0.5 31.5 4.5 15.2 15.9 28.8 30.1 36.2 12.1 6.2 18.1 7.7 31.5 7.7 12.9 0.1 21.7-2 32.5-7.7 8.6-4.6 21.4-17.5 25.3-25.7 10.2-21.2 7.6-43.1-7.3-61.3-8.1-9.7-21.9-18.2-34.8-21.2-8.7-2.1-23.6-1.8-32.5 0.5zm-474.5 186.6c-9.2 2.2-20.9 8.9-29.1 16.5-22 20.6-24 53.4-4.6 76.4 12.7 15 29.9 22.9 50 22.9 12.3 0 19.1-1.6 30.5-7.1 9.9-4.7 22.4-16.6 27.2-25.8 5.9-11.3 7.8-25.2 5.2-37.7-4.3-20.7-23.5-39.5-46.4-45.3-7.4-1.9-24.9-1.8-32.8 0.1zm-484.8 30.5c-16.5 8.3-27.6 21.7-31.9 38.5-5 19.3 0.3 37.7 15 52.4 19.9 20 48.3 25.3 74.2 13.9 13.2-5.8 24.9-16.6 30.7-28.4 16.5-33.5-3-71.7-41.7-81.6-14.9-3.8-32.4-1.8-46.3 5.2zm1059 11.9c-12 11.8-17.4 24.4-17.3 40.5 0.2 15 5.6 27.6 16.9 39 19.9 20.1 50.4 25 76.4 12.3 16.2-7.9 29.7-24.4 33-40.6 5.2-25-7.6-50.1-31.7-62.5-5.1-2.7-12.3-5.5-16-6.2-22.7-4.9-45.1 1.5-61.3 17.5zm-1617.8 13.1c-16.3 8-29.7 24.5-33 40.7-7.5 36.2 23 70.2 62.9 70.2 17 0 32.5-6.1 45-17.7 12.3-11.4 18.4-24.9 18.4-40.8 0-22.4-12.3-41.5-33.5-51.9-5.2-2.5-12.5-5.3-16.4-6.1-14.6-3-29.9-1.1-43.4 5.6zm792.5 12.3c-18.1 17.9-22.3 41.6-11.5 64.3 4.3 9.1 16.5 21.3 26.6 26.6 27.5 14.4 61.2 8.2 81.5-14.9 5.2-6 8.4-11.7 11.4-20.4 2.8-8.3 2.6-24.3-0.4-33.2-6.8-19.7-25.8-35.8-47.4-40.2-22.1-4.5-44.5 2.1-60.2 17.8zm525.4 33.2c-11 2.8-21.8 9.1-30 17.3-11.7 11.7-17 24-17 39.6 0 16.1 5 27.6 17.5 40.1 13.1 13.1 27 18.8 46 18.8 16 0 28-3.9 40.4-13.3 10.6-8 19.2-20.6 22.1-32.6 1.7-7.1 1.4-20.5-0.5-27.2-5.9-20.2-24.7-37.8-45.6-42.8-8.1-1.9-25.6-1.8-32.9 0.1zm-965.7 24.9c-3.4 0.7-10.4 3.5-15.5 6.1-24.2 12.5-36.9 37.6-31.7 62.6 4.6 22.2 25.5 41.6 49.9 46.4 21.6 4.3 44.1-2.6 59.5-18.1 11.3-11.4 16.7-24 16.9-39 0.1-16.1-5.3-28.7-17.3-40.5-8.8-8.7-18.2-14.1-29.7-17-9-2.3-22.7-2.5-32.1-0.5zm1111.1 101.5c-29.7 7.8-49.2 33.1-47.1 60.9 1.1 14.5 7.1 26.6 18.3 37.1 7.9 7.3 14.4 11.2 24.9 14.7 6.9 2.3 9.7 2.7 20 2.7 13.9 0 19.7-1.3 32-7.7 5.5-2.9 10.2-6.3 15-11.2 17.9-17.9 22.1-41.6 11.4-64.2-2.3-5-5.3-8.9-11.3-14.8-9.3-9.3-18.4-14.5-30.2-17.5-9.9-2.6-23.3-2.6-33 0zm-507.4 51.4c-25.9 28.3-16.7 71.3 19 89 12.1 5.9 21.5 8 33.5 7.3 17.4-1.1 30.7-6.9 43.1-19.2 5.9-5.8 9-9.8 11.2-14.6 16.4-34.5-2.7-72-41.6-82-23.3-5.9-49 1.7-65.2 19.5zm-267.8-2.3c-7.5 1.3-19.7 6.3-25.9 10.6-8.2 5.5-16.8 15.3-20.7 23.5-11.7 24.7-4.9 52.2 17.2 69.1 12.3 9.5 24.9 13.7 40.7 13.7 18.5 0 32.4-5.5 45.7-17.9 22.4-20.9 24.4-53.6 4.6-76.8-8.7-10.2-20-17.4-33-20.9-6.9-1.9-21.9-2.6-28.6-1.3zm990.8 63.4c-26.7 20.6-30.9 56.7-9.3 81.8 13.2 15.4 33.6 23.8 54.3 22.3 18.5-1.3 34-9 45.8-22.9 9.3-10.9 13.2-21.4 13.2-35.7 0-16.3-4.9-28-17-40-8.8-8.7-18.1-14.1-29.6-17-19.8-5.1-41.5-0.7-57.4 11.5zm-1734 37.5c-11.9 11.9-17 23.7-17.1 39.6 0 14.2 4.1 25.3 13.3 36.1 15.5 18.2 39 26.4 62.7 21.9 39.7-7.5 62.1-47.1 46-81.3-7.8-16.5-25-29.9-43.5-33.8-23-4.9-45.3 1.5-61.4 17.5zm1374.5-17.5c-18.3 3.9-35.7 17.5-43.4 33.8-16.1 34.2 6.3 73.8 46 81.3 24.4 4.7 50.1-4.8 64.4-23.8 8.4-11 11.7-21 11.6-34.8-0.1-25.9-19.4-49-46.7-56-9-2.3-22.7-2.5-31.9-0.5zm902.1 73.9c-22 10.6-34.6 29.8-34.6 52.6 0 14.3 3.9 24.8 13.2 35.7 11.8 13.9 27.3 21.6 45.8 22.9 30.6 2.2 59.2-17.3 66.5-45.2 1.9-7.2 1.9-20.2 0.1-27.1-5.7-21.5-24.6-39-47.2-43.8-14.6-3.1-31.2-1.2-43.8 4.9zm-1672.6 16.3c-19.4-1.4-37 5.3-51 19.3-11.9 11.8-17 23.8-17 39.7 0 15.7 5.1 27.5 17.1 39.5 13 12.9 27.9 19.1 46.4 19.1 17.9 0 33-6 45.9-18.3 12-11.5 17.6-24.3 17.6-40.5 0-10.5-1.6-17-6.7-26.7-6.9-13.3-24.1-26.2-39.9-30.1-3.2-0.8-8.8-1.7-12.4-2zm-1129 50.4c-40.4 0.3-70.8 36.2-61.5 72.4 8 31.1 42.7 51.1 76.2 44.1 22.8-4.9 42.3-22.5 47.8-43.3 1.9-6.9 2.1-19.8 0.5-26.8-3.6-16.1-15.8-30.8-32-38.9-5.2-2.5-12.6-5.3-16.5-6.1-3.8-0.8-10.4-1.4-14.5-1.4zm1480.5 19.3c-11.5 11.8-16.7 24-16.7 39.6 0 22.6 13 42.3 34.9 52.6 41.9 19.8 92.3-8.9 92.3-52.6 0-27.2-20.9-51.4-49.5-57.5-21.9-4.6-45.6 2.3-61 17.9zm-638.3 63.9c-9.2 10.8-13.4 22.2-13.3 36.2 0.1 15.8 5.2 27.7 17.1 39.5 4.9 4.9 10 8.8 14.7 11.3 23.1 12.1 52 9.8 72.3-5.8 26.7-20.6 30.9-56.7 9.3-81.8-9.3-10.8-22.6-18.5-36.7-21.2-24.4-4.7-47.7 3.3-63.4 21.8zm-304.2 29.3c-10.9 2.8-21.7 9.1-30 17.3-12.1 12.1-17 23.7-17 40.1 0 17.9 8.3 33.9 23.4 45.3 12.1 9.1 24.3 13.1 40.1 13.1 15.8 0 28-4 40.1-13.1 19-14.3 27.5-37.6 21.8-59.7-5.1-19.9-23.8-37.5-45.9-43.1-7.5-1.9-25.1-1.9-32.5 0.1zm2020.1 56c-29.9 14.8-41.9 47.4-27.9 76.2 4.3 9.1 16.6 21.3 26.5 26.5 43.7 22.9 97.9-8.1 95-54.3-1-15.4-6.8-27.3-19-38.6-8.5-7.8-19.7-13.5-30.9-15.8-15.6-3.2-28.8-1.4-43.7 6zm-473 65c-26 12.8-39.4 41-31.7 66.6 6.2 20.4 25.5 37.8 47.1 42.3 39.9 8.4 78.4-19.7 78.5-57.2 0.1-27.4-21.7-52.3-50.4-57.8-15.9-3.1-28.6-1.3-43.5 6.1zm-1812.3 43c-6.5 5-14.1 14.7-17.3 21.9-9.8 22.2-4.4 47.2 13.7 64 27.7 25.7 72.7 22.8 96.3-6.1 17.3-21.3 16.7-51.2-1.3-71.8-9.6-11-22.5-18.4-36.6-21.1-20-3.8-38.5 0.6-54.8 13.1zm771.2 51.9c-3.6 0.8-10.7 3.5-15.8 6-16.2 8.1-28.6 23-32.2 39-1.7 7.3-1.4 20.6 0.5 27.2 7.6 26.2 32.9 44.3 62 44.3 11.4 0 20.1-2.2 30.6-7.6 14.3-7.4 25.1-19.3 30-32.9 2.9-8.3 3.7-23 1.5-31.2-5.2-20.5-21.8-37.1-43.6-43.7-7.8-2.4-24.9-2.9-33-1.1zm522 51.1c-17.4 4.5-34.3 17.8-41.3 32.5-7.8 16.4-7.8 32.4 0 48.9 10.3 21.6 37.4 36.6 62.7 34.5 33.6-2.8 58.9-28.1 58.9-59 0-9.4-1.8-16.5-6.5-25.7-7.4-14.4-24.4-27.4-41.1-31.3-7.9-1.9-25.5-1.8-32.7 0.1zm-1040.4 54.4c-12 11.4-17.7 24.4-17.7 40.5 0 14 4.7 26.4 13.8 36.7 13 14.7 29.7 22.1 49.8 22.1 18.5 0 33.8-6.3 46.5-19.2 12-12 17-23.8 17-39.6 0-15.7-5.3-28.1-16.9-39.5-8.7-8.6-20-15.1-30.2-17.4-23.9-5.3-45.4 0.4-62.3 16.4zm627.2 166.6c-6.8 1.6-18.5 7.3-24.8 12.1-34.5 26.2-28.7 77 11.1 96.7 19.8 9.8 39.9 9.9 59.4 0.2 15.2-7.5 26.4-19.8 31.6-34.6 3.1-8.6 3.3-24.8 0.5-33-7.1-21-24.2-36.4-46.1-41.5-7.5-1.8-24.2-1.8-31.7 0.1zm578.4 0.4c-22.2 5.8-40.9 24.4-45.1 44.8-2.6 12.5-0.7 26.4 5.2 37.7 4.1 7.8 17.2 21 25.2 25.2 10.7 5.6 19.6 7.8 32 7.7 21.1-0.1 37.1-7.3 50.3-22.7 12-14 16.5-33.7 11.7-50.3-6-20.5-23.9-37.3-46-42.9-8.3-2.1-24.2-1.9-33.3 0.5zm573.5 20.8c-24.1 28.5-14.7 70 19.9 87.5 30.9 15.6 69.9 4.7 86.6-24.3 6.6-11.4 9-27.4 5.9-40-5-20.6-23.5-38.3-45.7-44-24.2-6.2-50.8 2.1-66.7 20.8zm-1594.3 78.1c-20.2 3.2-38.9 16.3-47.4 33.1-16.9 33.5 2.7 72.1 41.6 82 38.8 9.9 79.4-18.8 79.4-56.2 0-16-5.4-28.4-17.4-40.3-8.8-8.7-15.9-13-26.8-16.4-7.7-2.3-21.8-3.4-29.4-2.2z"/>
		<path id="&lt;Path&gt;" class="s2" d="m2568.1 842.6c-8.6 2.3-16.7 7.2-23 14-7.8 8.3-10.4 14.9-10.5 26.5-0.1 7.9 0.2 9 3.7 16.1 13.9 28.2 54.7 34 77.2 11.1 26.9-27.3 4.9-69.7-35.9-69.2-3.3 0-8.5 0.7-11.5 1.5z"/>
		<path id="&lt;Path&gt;" class="s2" d="m2170.1 943.6c-22.3 6-36.8 25.9-33.4 45.9 1.5 9 4.7 15 11.4 21.8 22.8 22.9 63.2 17.1 77.5-11.1 2.6-5.2 2.9-6.6 2.9-16.2 0-9.9-0.2-10.9-3.3-17.2-3.6-7.3-10.3-14.1-18.7-18.9-9.6-5.5-25.2-7.3-36.4-4.3z"/>
		<path id="&lt;Path&gt;" class="s2" d="m3026.3 943.5c-8 2.2-14.5 5.9-21 11.9-21.3 19.7-15.4 52.2 11.9 65.1 19.3 9.1 41.8 5.4 56.5-9.2 22.7-22.8 10.7-59.2-22.4-67.8-7.1-1.9-18.1-1.8-25 0z"/>
		<path id="&lt;Path&gt;" class="s2" d="m3337.8 943.5c-13.2 3.3-24.5 12.1-30 23.3-3.1 6.3-3.3 7.3-3.3 17.2 0 9.4 0.3 11.1 2.7 16.1 4 8 12.3 16.1 21 20.3 23.9 11.7 53.3 2.5 64.5-20.2 3.5-7.1 3.8-8.2 3.7-16.1-0.1-17.9-10-31.3-28.5-38.8-7.9-3.2-21.4-4-30.1-1.8z"/>
		<path id="&lt;Path&gt;" class="s2" d="m2862.3 1130.5c-12.9 3.5-24.1 12.4-29.5 23.3-3.1 6.2-3.3 7.4-3.3 16.7 0 9.3 0.2 10.5 3.2 16.6 4.3 8.7 12 15.9 22 20.7 7.8 3.7 7.9 3.7 20.8 3.7 12.9 0 13.1 0 20.5-3.6 13-6.3 21.1-15.3 24.5-27.3 6.1-21-8.6-44-32-50.1-7.3-1.8-19.2-1.8-26.2 0z"/>
		<path id="&lt;Path&gt;" class="s2" d="m2391.8 1155.6c-17.3 4.1-30.8 17.9-33.8 34.2-4.9 27.1 23 51.9 53.3 47.2 10-1.5 20.5-6.6 27.1-13.3 16.7-16.6 16.3-40.6-0.8-56.4-12.4-11.5-29.1-15.8-45.8-11.7z"/>
		<path id="&lt;Path&gt;" class="s2" d="m3466 1155.8c-12.5 3.3-24.7 13.1-29.8 23.9-2.4 5.2-2.7 7-2.7 16.3 0 9.4 0.3 11.1 2.7 16.1 8.5 17.3 30 28 50.1 24.9 25.6-3.9 43.4-26 38.8-48.2-5-24.7-32.5-39.9-59.1-33z"/>
		<path id="&lt;Path&gt;" class="s2" d="m1834.4 1180.5c-7.7 1.7-16.6 6.2-22.5 11.4-12.9 11.3-16.8 27.5-10.8 43.7 2.7 7.2 12.7 17.8 20.6 21.8 10.2 5.1 22.7 6.8 33.5 4.5 13.6-3 27.3-13.2 32.6-24.6 2.4-5.2 2.7-6.9 2.7-16.3 0-9.5-0.3-11.1-2.8-16.2-5.7-11.7-18.7-21.4-32.4-24.3-8.2-1.8-12.9-1.8-20.9 0z"/>
		<path id="&lt;Path&gt;" class="s2" d="m2643.4 1180.5c-18.3 4-32.7 18.2-35.4 34.9-3.3 20.5 11.8 40.8 34.2 46.1 16.8 3.9 33-0.3 45.5-11.9 13.7-12.7 16.8-30.6 8.1-46.9-5.7-10.7-18.1-19.4-31.7-22.3-8-1.7-12.7-1.7-20.7 0.1z"/>
		<path id="&lt;Path&gt;" class="s2" d="m3136.1 1231.6c-12.6 3.4-24 12.8-29.5 24.3-2.8 5.9-3.1 7.5-3.1 15.6 0.1 12.4 2.7 18.9 11.1 27.3 11.2 11.2 24.7 15.7 41.7 14 14.5-1.4 29.6-11.8 36-24.7 3-6.1 3.2-7.3 3.2-16.6 0-9.3-0.2-10.5-3.3-16.7-5.5-11.1-16.7-19.9-29.9-23.3-7.1-1.9-19.1-1.8-26.2 0.1z"/>
		<path id="&lt;Path&gt;" class="s2" d="m2170.1 1256.6c-12.1 3.2-24 12.3-29.4 22.3-8.3 15.1-4.8 34.4 8.3 46.3 6.9 6.4 16.9 11.3 26.1 12.8 20.1 3.4 42.1-7.4 50.7-24.9 2.4-5 2.7-6.7 2.7-16.1 0-9.4-0.3-11.1-2.7-16.3-8.9-18.9-34.3-29.9-55.7-24.1z"/>
		<path id="&lt;Path&gt;" class="s2" d="m3284.1 1357.1c-8.3 1.6-16.9 6.5-24 13.6-8.8 8.8-11.4 15.1-11.5 27.4-0.1 7.9 0.2 9 3.7 16.1 6.4 13 19.3 22.2 34.8 24.8 24.8 4.2 50.8-12.9 53.8-35.4 2.9-21.3-11.6-40.8-34.1-46.1-6.9-1.6-15.8-1.8-22.7-0.4z"/>
		<path id="&lt;Path&gt;" class="s2" d="m2807.8 1389.6c-17.2 4.1-30.8 17.9-33.7 33.9-4 22.3 13.6 43.8 39.1 47.6 29.9 4.4 57.7-20.2 53-47-0.6-3.3-2.3-8.5-3.8-11.6-3.3-6.6-12.2-15.4-19.5-19-10.2-5.2-23.7-6.7-35.1-3.9z"/>
		<path id="&lt;Path&gt;" class="s2" d="m2507.7 1407.1c-12.7 1.4-26.8 10.1-33.5 20.6-17.5 27.4 5.1 62.2 40.3 62.3 18.5 0 35.3-9.7 42.7-24.8 3.1-6.2 3.3-7.4 3.3-16.7 0-8.8-0.3-10.7-2.7-15.8-4-8.4-11.6-16-21-20.7-6.9-3.4-9.7-4.2-19.8-5.4-1.4-0.1-5.6 0.1-9.3 0.5z"/>
		<path id="&lt;Path&gt;" class="s2" d="m3522.1 1458.6c-13.3 3.6-25 12.9-30.5 24.4-2.8 5.9-3.1 7.4-3.1 16 0 8.8 0.3 10.1 3.3 16.2 8.5 17.3 29.3 27.8 49.6 24.9 10.6-1.5 18.7-5.4 26.8-12.9 8.5-8.1 12-15.4 12.6-26.7 0.3-6.3-0.1-9.3-1.7-13.9-2.3-6.4-8.4-15.1-13.4-18.9-12.2-9.3-29.5-12.9-43.6-9.1z"/>
		<path id="&lt;Path&gt;" class="s2" d="m1794.3 1490.5c-13.5 3.7-25.5 13.1-31 24.4-2.5 5-2.8 6.7-2.8 15.6 0 13.2 2.8 19.7 12.3 28.7 8.1 7.5 16.2 11.4 26.8 12.9 9.3 1.3 19.7-0.2 28.7-4.4 7.8-3.6 17-12.6 20.9-20.5 3-6.1 3.3-7.4 3.3-16.2 0-8.6-0.3-10.1-3.1-16-9.2-19.3-33.8-30.2-55.1-24.5z"/>
		<path id="&lt;Path&gt;" class="s2" d="m3137.1 1490.6c-13.3 3.6-25 12.9-30.5 24.4-2.8 5.9-3.1 7.4-3.1 16 0 8.8 0.3 10.1 3.3 16.2 8.5 17.4 29.7 27.9 50 24.9 16.1-2.4 28.8-11.4 35.5-25.1 2.9-6 3.2-7.3 3.2-16.5 0-9-0.3-10.6-2.9-15.8-9.3-19.1-34.1-29.9-55.5-24.1z"/>
		<path id="&lt;Path&gt;" class="s2" d="m4053.3 1559.5c-21.9 5.9-35.4 23-34.1 43.1 0.7 10.1 4.8 18.3 13 26 15.5 14.3 37.4 17.1 57 7.3 6.6-3.3 15.5-12.6 19-19.7 3-6.1 3.3-7.4 3.3-16.2 0-8.6-0.3-10.1-3.1-16-9.2-19.3-33.8-30.2-55.1-24.5z"/>
		<path id="&lt;Path&gt;" class="s2" d="m2345 1582.9c-15.3 4.9-26 15-30.2 28.3-8.3 26.7 13.8 52.8 44.6 52.8 4.5 0 10.4-0.6 13.1-1.4 12.8-3.4 24.4-12.5 29.7-23.4 3.1-6.2 3.3-7.4 3.3-16.7 0-9.3-0.2-10.5-3.3-16.7-5.3-10.9-15.9-19.3-29.1-23.2-7.3-2.2-21-2-28.1 0.3z"/>
		<path id="&lt;Path&gt;" class="s2" d="m1224.4 1632.5c-13.2 2.9-25.8 12.6-31.6 24.3-3 6.1-3.3 7.4-3.3 16.2 0 8.7 0.3 10.1 3.2 16 7.6 15.4 25 26 42.8 26 15.8 0 33-9.2 40.9-21.9 7.4-11.8 7.4-28.4 0-40.2-6.1-9.8-18-17.9-30.1-20.4-8.2-1.8-13.8-1.8-21.9 0z"/>
		<path id="&lt;Path&gt;" class="s2" d="m2751.3 1632.5c-13.2 2.9-26 12.6-31.9 24.3-2.7 5.2-2.9 6.6-2.9 16.2 0 9.5 0.3 11.1 2.8 16.2 7.3 14.8 25.7 25.8 43.2 25.8 6.6 0 16.4-2.4 22.4-5.5 7.8-3.9 16.6-12.7 20.3-20.3 3-6.1 3.3-7.4 3.3-16.2 0-8.8-0.3-10.1-3.3-16.2-5.9-12-18.4-21.5-32.1-24.4-8.1-1.7-13.7-1.7-21.8 0.1z"/>
		<path id="&lt;Path&gt;" class="s2" d="m2118 1692.1c-14.1 2.4-27 12-33.3 24.9-2.9 6-3.2 7.3-3.2 16.5 0 8.9 0.3 10.6 2.8 15.6 5.6 11.5 17.6 20.8 31.4 24.4 21.3 5.6 45.5-5.3 54.7-24.5 2.8-5.9 3.1-7.4 3.1-16 0-8.8-0.3-10.1-3.3-16.2-3.9-7.9-13.1-16.9-20.8-20.5-6-2.7-17.2-5.3-22.4-5.2-1.9 0.1-6 0.5-9 1z"/>
		<path id="&lt;Path&gt;" class="s2" d="m1776.1 1743.5c-12.5 3.5-24.4 13.2-29.6 24-2.6 5.4-2.9 7.1-3 16 0 9.3 0.2 10.5 3.2 16.6 10.8 21.9 40.6 31.6 63.6 20.6 9.6-4.5 17.8-12.1 21.8-20.2 6.2-12.6 4.7-28.1-3.7-39.6-4.6-6.3-13.5-13-21.2-16-7.5-2.8-23.3-3.6-31.1-1.4z"/>
		<path id="&lt;Path&gt;" class="s2" d="m3814 1793.1c-13.1 2.1-27.9 12.9-33.5 24.4-11.3 23.1 3.5 50.6 30.7 57 17.6 4.1 34-0.5 46.7-13.2 8.8-8.8 11.4-15.1 11.5-27.4 0.1-7.9-0.2-9-3.7-16.1-6.1-12.5-17.9-21.2-32.6-24.4-7.3-1.5-11-1.6-19.1-0.3z"/>
		<path id="&lt;Path&gt;" class="s2" d="m3339.3 1858.5c-13.3 2.9-26.4 12.9-32 24.3-2.5 5.1-2.8 6.7-2.8 16.2 0 9.3 0.3 11.1 2.7 16.3 6.9 14.6 25.5 25.7 43.1 25.7 6.9 0 16.6-2.4 23-5.6 7.9-4 17.9-14.6 20.6-21.8 6-16.1 2.3-32-10.2-43.2-6.5-5.8-15.1-10.2-23.6-12-8-1.7-12.7-1.7-20.8 0.1z"/>
		<path id="&lt;Path&gt;" class="s2" d="m1540 1894.1c-14.1 2.4-27 12-33.3 24.9-2.9 6-3.2 7.3-3.2 16.5 0 9 0.3 10.6 2.9 15.8 7.4 15.2 25.2 25.7 43.4 25.7 17.7 0 35.3-10.8 42.6-26 2.8-5.9 3.1-7.4 3.1-16 0-8.8-0.3-10.1-3.3-16.2-5.9-12.1-18.3-21.2-33.2-24.4-7.3-1.5-11-1.6-19-0.3z"/>
		<path id="&lt;Path&gt;" class="s2" d="m2282.3 1959.5c-13.7 3.1-25.9 12.6-31.7 24.5-2.8 6-3.1 7.3-3.1 16.5 0 8.9 0.3 10.6 2.8 15.6 8.6 17.7 30.2 28.3 50.8 25.2 15.2-2.4 28.7-12.1 35.2-25.3 2.9-5.9 3.2-7.3 3.2-16 0-8.8-0.3-10.1-3.3-16.2-3.4-6.9-12.2-16.2-18.4-19.4-10.5-5.4-24.7-7.4-35.5-4.9z"/>
		<path id="&lt;Path&gt;" class="s2" d="m2805.6 2010.1c-12.7 3-25.5 13.1-30.8 24.4-9.5 20.5-0.4 42.5 22.2 53.4 7.4 3.6 7.6 3.6 20.5 3.6 12.9 0 13 0 20.8-3.7 10-4.8 17.7-12 22-20.7 3-6.1 3.2-7.3 3.2-16.6 0-9.3-0.2-10.5-3.3-16.7-5.5-11.1-16.7-19.9-29.9-23.3-6.2-1.6-18.6-1.8-24.7-0.4z"/>
		<path id="&lt;Path&gt;" class="s2" d="m1792 2048.8c-13.3 4.5-23 12.4-28.2 23-3.1 6.2-3.3 7.4-3.3 16.7 0 9.3 0.2 10.5 3.3 16.7 4.1 8.4 12.1 15.9 22.2 20.7 7.4 3.6 7.6 3.6 20.5 3.6 13 0 13 0 20.8-3.7 19.8-9.5 29.4-28.2 24.2-47.4-3.3-12.1-14.2-23.4-27.4-28.5-8-3.1-24.5-3.6-32.1-1.1z"/>
		<path id="&lt;Path&gt;" class="s2" d="m2391.3 2231.5c-8.1 2.2-15.1 6.2-21.3 12.1-18.9 18-16 46.6 6.2 61.4 25.1 16.7 61.6 6.7 71.9-19.8 3.1-7.8 3-19.4-0.1-27.5-2.8-7.5-11.9-17.3-19.8-21.5-11.2-6-25.3-7.8-36.9-4.7z"/>
		<path id="&lt;Path&gt;" class="s2" d="m2971 2231.4c-13.4 3.8-25 13.1-30.4 24.6-2.7 5.8-3.1 7.5-3.1 15.5 0.1 12.4 2.7 18.9 11.1 27.3 23.1 23.1 63.8 17.6 77.7-10.7 3-6.1 3.2-7.3 3.2-16.6 0-9.3-0.2-10.5-3.3-16.7-5.4-11-16.8-19.9-29.9-23.3-6.8-1.8-19-1.8-25.3-0.1z"/>
		<path id="&lt;Path&gt;" class="s2" d="m3576.5 2231.3c-24.5 8.2-37.5 28.4-32.1 49.7 3.1 12.1 11.3 21.5 24.1 27.6 19 9.1 41.4 5.5 55.9-9 20.8-20.9 14.7-51-13.1-64.8-8.1-4-8.8-4.2-19.6-4.5-7.4-0.2-12.6 0.2-15.2 1z"/>
		<path id="&lt;Path&gt;" class="s2" d="m1944.3 2331.5c-13.2 2.9-26 12.6-31.9 24.3-2.7 5.2-2.9 6.6-2.9 16.2 0 9.9 0.2 11 3.3 17.2 7.4 15.1 24.2 24.8 42.7 24.8 18.4 0 35.6-10.2 43.1-25.5 2.6-5.4 2.9-7 2.9-16 0-9.1-0.3-10.6-3.1-16.5-5.9-12.2-18.2-21.6-32.1-24.5-8.3-1.8-13.8-1.8-22 0z"/>
		<path id="&lt;Path&gt;" class="s2" d="m4418.1 1970.4c-89.7 150.2-248.1 302.6-447.9 430.9-366 235-837.7 384.9-1260.7 400.7-57.4 2.1-169 0.6-254-3.5-214.3-10.2-409.1-38.6-567.2-82.5-60.1-16.8-101.2-30.7-179.8-61-33.4-12.9-92.8-35.2-173.5-65.2-122.1-45.4-182.4-69.7-243.5-98.5-96.7-45.4-188.9-104.9-273.5-176.2-43.9-37.1-74.4-65.4-126.7-117.7-31.9-31.8-45.4-44.7-45.7-43.5-1.3 4.6-7 31.2-11 51.3-14.6 73.1-23.6 144.5-28.7 226.3-2.7 44.4-2.1 114.4 8.1 1005.5 5.6 489.2 10.3 889.5 10.4 889.6 0.1 0.1 435.8-42.3 437.6-42.6 0.3 0-6.5-3-15-6.5-43.3-18.2-68.7-31.7-84.4-44.9-5.1-4.4-13.1-14.2-14.6-18.1-2.8-7.4 14.2-118.5 28.1-183.5 13.1-61.1 27.9-111.7 42-144 11.6-26.4 20.7-39.7 41.9-61.4 23-23.5 46.8-44 71.5-61.5 7.2-5 14.3-10.2 15.8-11.4 3-2.4 7.2-11.7 10.1-22.7 1-3.6 1.9-7.2 2.2-8.1 0.4-1.4-0.4-1.5-8.3-0.3-4.9 0.8-9.3 1.4-9.9 1.4-0.6 0-4.3-2.9-8.1-6.4-19.8-18.3-32.2-48.5-37.9-92.1-2-14.9-2.8-47.4-1.6-61.5l1-11.5-3.9-11.5c-6.5-19.6-7.4-25.7-7.4-50 0.1-20 0.3-22.4 2.9-33.4 6.6-28.1 18.1-52.5 36.6-77.1 7.7-10.4 8-10.9 8-16.2 0-9.1 2.9-25.9 6.6-37.9 12.2-40.5 39-70.5 72.4-81.2 12.4-4 18-4.7 35.5-4.6 15.5 0.1 17.8 0.3 26 2.8 15.6 4.7 23.4 10.7 29.1 22 2.1 4.4 3.7 9.3 4.1 12.8l0.6 5.6 23.6 0.5c24.8 0.5 37.3 2 54.1 6.2 33.3 8.4 54.5 21.5 71 43.6 6.5 8.8 14.8 24.5 18 33.9 5.2 16 6 35.3 2 51.3l-1.8 7.2 2.8 4.5c11.1 17.4 17.1 44.4 15.6 70.2-1.3 23.8-9.6 40.5-31.1 62.7-17.9 18.5-46.9 39.9-74 54.5-6.5 3.5-7.3 4.3-10.5 10.4-3.7 7.2-12 16.7-18.6 21.2-2.2 1.6-11.6 6.9-20.7 11.9-9.1 4.9-18.8 10.4-21.4 12.2-12.8 8.7-24.3 25.7-24.3 35.9 0 5 4.1 30.8 6 37 0.8 2.9 2.1 4.2 7.7 7.4 35.2 20.1 74.4 50.6 100.9 78.6 11.6 12.3 17.5 19.8 24.5 31.1 2.8 4.5 7.6 11.5 10.6 15.6 16.3 22.1 33.9 54.7 40.6 75.3 11.1 34.5 19.6 86.8 22.8 141.5 1.5 25.8 0.7 85.3-1.5 107-1.8 17.6-6.2 49.3-7.3 52-0.6 1.6 0.1 1.7 6.8 1.1 4.1-0.3 102.1-6.3 217.9-13.2l210.5-12.7 323 6.2c177.7 3.4 333.9 6.4 347.3 6.8 22.5 0.6 24.2 0.5 24.2-1.1 0-3.1 9-43.8 13.6-61.6 17.8-68.7 39.7-124 71.9-181.5 16-28.5 14.9-26.3 22.9-48.4 17.9-49.4 35.5-83.4 58.1-112.2 11.9-15.2 11.3-14.1 8.2-13.4-1.5 0.4-2.7 0.5-2.7 0.1 0-0.6 15.5-12.6 28.4-22 4.5-3.2 16.4-12.3 26.6-20.1 10.2-7.8 23.9-18.2 30.5-23 14.2-10.2 17.4-13.2 26.9-24.6 11-13 26.5-38 31.6-50.7l1.3-3.4-6.6-5.9c-7.4-6.7-12.5-15.5-13.3-23-0.8-7.3-1.4-8.9-2.9-8.9-2.7 0-13-5.1-15.8-7.8-3.3-3.1-7.2-9.5-8.1-13.3-0.7-3.1-2.8-3.9-10.2-3.9-7.8 0-21.4-2.7-30.3-5.9-7.3-2.7-13.3-6.2-18.6-10.8-6.5-5.7-11.8-17.9-11.4-26.2 0.2-4.5 0-4.8-7.5-12.3-12.4-12.5-17.4-26.3-16.2-44.5 2.2-32.3 21.1-59.3 49.7-70.8l8.4-3.4-0.3-5.8c-0.2-3.2 0.4-8.5 1.3-11.7 2.8-10.7 13.9-26.1 23.2-32.6 4.8-3.3 5.1-3.8 5.6-8.6 1.1-11 11-24.3 24.7-33.2 17.9-11.8 39.5-19.1 56.1-19.2h7.7l0.4-11.3c0.3-9.4 0.8-12.1 2.9-16.7 4.7-9.9 13.2-16.6 25.4-20.1 7.2-2 27.2-1.7 35.4 0.5 12.3 3.3 23 10.7 27.1 18.5 1.7 3.3 2 3.5 6.4 3.2 3.3-0.2 5.9 0.4 8.8 1.9 13.6 7.1 22.5 21.4 23.6 37.7l0.5 8.1 4.3 3.6c5.4 4.5 14.9 18.7 17.5 26.2 4.5 12.7 3.2 25.4-3.7 36.7l-3.5 5.7 5.2 10.1c3.6 6.7 6.2 10.5 7.9 11.4 1.5 0.8 3.9 3 5.4 4.9 2.2 2.9 2.5 3.9 1.6 5.6-1.2 2.2-0.7 9 1 13.4 1.6 4.4 1.2 8.9-1.4 14.1l-2.5 4.8 4.1 8.6c10.6 22.9 20.4 54.5 28.7 92.8 5.9 27 11.4 68 10.5 77.1-1.4 14.3-4.2 20.7-11.2 25.5-7 4.9-28.2 13.8-35.4 15l-6.8 1.1v4c0 2.3-0.3 5.7-0.6 7.6l-0.6 3.5 20.4 8.4c40.8 16.9 74.9 27.7 126.3 40.1 21.5 5.2 69.7 14.8 97 19.5 61.1 10.4 167.7 23.2 176.5 21.3 38.8-8.6 144.8-13.1 257.2-11 50 1 53 0.9 59.9-0.8 4-1.1 9.7-2.2 12.7-2.6 2.9-0.3 6-1.3 6.8-2.2 0.9-0.8 7-2.8 13.7-4.4 11.4-2.8 13.1-2.9 26.7-2.5 21.8 0.8 43.4 5.1 54.9 10.9 8.2 4.2 11.2 9.3 12.1 20.4l0.5 7.4 4.7-5.9c11.5-14.5 32.6-25.4 57.4-29.6 12.8-2.2 38.3-2.2 51.4-0.1 26.5 4.3 45.4 14 56.6 29 5.7 7.6 6.7 9.4 9.4 18.4 4.4 14.4 1.6 33.1-7.2 48-5 8.6-20.8 23.8-30.1 29.1-18 10.1-34.5 13.5-61.7 12.8-19.1-0.5-28-2-40.8-6.7-11.8-4.4-24.5-12.4-31.6-19.9l-3-3.1-1.4 4.3c-2.9 8.5-14.9 20.4-23.7 23.4-4.8 1.6-9.1 1.3-13.7-1.1-2.6-1.4-2.8-1.3-5.4 2.5-4.8 7-19.9 14.9-28.4 14.9-4 0-8.8-2.1-12.3-5.3l-2.7-2.6-4.8 3.6c-11.8 9-22.1 10.8-30.5 5.2-5-3.3-12.1-12.9-13.2-17.9-0.4-1.6-1.1-3-1.6-3-1 0-23.8 10-54.9 24-93.9 42.4-159.6 61.4-233.5 67.5-4.4 0.4-13.4 2.3-20 4.2-59.1 17-176.6 17.5-312.5 1.4-8.5-1-15.6-1.8-15.7-1.7-0.1 0.1-25.1 51.5-43.8 90.3l-9.3 19.2 7.2 1.1c12.3 2 40.5 8 56.1 12 56.7 14.2 112.9 36.5 154 61.1 6.6 3.9 20.7 11.4 31.3 16.6 23.5 11.6 26.6 14.2 34 29.5 2.7 5.7 5.5 12 6.2 14.1 0.8 2.4 1.9 3.9 3.3 4.2 4.9 1.2 855.2 152.3 855.5 152 0.1-0.1-0.4-181.5-1.3-403.1-0.8-221.6-2.4-666.6-3.5-988.9-2.2-639.3-1.7-600.1-8.1-673.4-10.1-116.6-29.8-228.7-59.3-336.6-5.7-21.2-18.2-63.6-18.9-64.1-0.1-0.1-4 6.2-8.6 14z"/>
		<path id="&lt;Path&gt;" class="s2" d="m1426 3257.5c-30 6.4-51.6 24.7-66 55.9-7.1 15.4-11 32.2-12.6 53.9l-0.6 9.7-6.1 7.3c-20.2 24-35.6 57.7-39.7 86.6-1.2 8.6-1.5 30.7-0.5 37.4l0.7 4.7 3.9-11.7c8.2-24.7 20.9-46.1 44.6-75.8 19-23.7 23.9-30.4 35.2-47.8 5.7-8.6 10.6-15.7 11-15.7 0.4 0 1.9 7.3 3.4 16.2 6.2 37.9 16.3 56.7 59.1 110.5 32.3 40.6 40.5 53.9 45.6 73.9l1 4.1 8.8-4.3c26.4-13.1 46.3-14.4 55.5-3.4 7 8.3 5.9 26.3-2.2 39.2-12.6 19.9-35.8 31.9-64.7 33.5l-11.1 0.6-2.3 4.6c-3.1 6.5-8.7 15.7-13.2 21.7-2.1 2.8-3.8 5.3-3.8 5.6 0 0.3 2.2 4.7 4.9 9.8l4.9 9.2 3-4.4c4.4-6.3 13.2-15.1 19.9-19.6 3.2-2.2 12.6-7.6 21-12 25.5-13.5 31-18.4 37.2-33.2 1.7-4.2 2.6-4.9 13.7-11 43.8-24 79.9-55.4 91.4-79.6 7.1-14.8 8-36.6 2.4-60.9-2.2-9.6-9.3-24.2-14.4-29.4l-4.2-4.3 2-4.2c10.1-20.4 7-49.2-7.7-73.1-15.2-24.6-33.8-37.2-67.3-45.5-20.4-5-34.7-6.3-63.2-5.7-13.8 0.4-26.5 0.9-28.3 1.3l-3.2 0.6 1.9-7.1c5.3-18.9-0.5-30.7-17.8-36.2-8.7-2.7-32.3-3.6-42.2-1.4z"/>
		<path id="&lt;Path&gt;" class="s2" d="m3211.2 3301c-17.9 3.8-21.5 16.9-13.2 47 2.2 8 4 14.8 4 15.2 0 0.4-5-2.3-11.2-6l-11.2-6.7h-11.1c-9.8 0.1-12.1 0.4-20.5 3.4-17.7 6.1-32.8 15.6-39.1 24.7-3.9 5.7-4.7 11.5-2.6 17.8 0.9 2.5 1.3 4.7 0.9 4.9-0.4 0.3-3 1.2-5.9 2.1-2.8 1-7 3-9.2 4.6-5.4 4-13.6 15-15.7 21.2-2.3 7-1.4 11.8 3.6 19.2 2.3 3.3 4.1 6.5 4.1 7.1 0 0.5-5.3 2-11.8 3.2-16.5 3.1-26.2 8-36.3 18.2-11.3 11.4-17.4 25.3-18.7 42.7-1.3 16.5 6.1 30.7 19.8 38 4.8 2.6 5.4 3.2 5.2 5.9-1 13.7-0.7 18.1 1.2 21.2 5.8 9.7 22 15.4 47.5 16.9l12.5 0.7-5.7-6.1c-7.6-8.3-10.1-14.9-9.6-25.7 0.5-9.7 2.9-15.3 10-23 7-7.7 14.1-11 23.8-11 6.3 0 8.5 0.5 13.5 2.9 11.7 5.8 20.4 16.2 26 31.3l3.2 8.4 3.7-8.6 3.7-8.6-1.6-9.2c-0.8-5.1-3.3-18.7-5.5-30.2-8.8-47.2-9.5-51.7-9.4-63.5 0-7.8 0.5-13.6 1.7-17.9 2.1-7.7 9-18.4 15.5-24.2 13.6-11.9 34.8-23.5 57.1-31 13.9-4.7 16-5.1 22-4.7 7.7 0.6 14.4 3.3 21.8 8.8 2.8 2.2 5.4 3.6 5.6 3.2 0.2-0.4 2.7-8.6 5.6-18.3 5.9-20.3 6.4-27.2 3.1-36.3-2.4-6.4-9.9-15-12.7-14.4-1 0.2-5.3 5.5-9.8 12.2l-8 11.8-0.7-5.3c-0.3-3-0.7-9.7-0.7-14.9-0.2-14.7-4.2-21.1-15.5-25.1-6.7-2.3-22.6-3.3-29.4-1.9z"/>
		<path id="&lt;Path&gt;" class="s2" d="m3292.4 3385.9l-8.6 12.9 8 10.4c4.3 5.7 8.4 11.3 9 12.4 1.1 1.8 1.5 1.6 5.7-3.1 5-5.6 8.5-13.6 8.5-19.3-0.1-2-0.8-6-1.8-8.7-1.9-5.4-9.7-17.5-11.2-17.5-0.6 0-4.9 5.8-9.6 12.9z"/>
		<path id="&lt;Compound Path&gt;" fill-rule="evenodd" class="s2" d="m3260.1 3401.8c8.4 5.4 21.3 21.2 31.2 38.3l2.7 4.5-6.2 1.2c-7.5 1.4-10.8 3.6-12.7 8.5-1.2 3.2-1.1 4 0.6 7.3 1.2 2.4 3.5 4.5 6.4 6.1 5 2.6 17.5 5.3 24.5 5.3 4.1 0 4.5 0.3 6.4 4l2 4h-3.7q-6.2 0.1-9.3 6c-1.2 2.3-1.3 2.2-4.7-3.8l-3.5-6.1-8.9 4.4c-4.9 2.5-8.9 4.6-8.9 4.8 0 0.1 2.3 12.1 5 26.7 2.7 14.6 4.6 26.6 4.2 26.8-4.2 1.4-8 4.4-9.9 7.7-2.8 5.1-4 15.3-2.3 20.8 1.4 4.8 6.2 9.7 9.6 9.7 4.3 0 2.5 1.5-6.2 5.3-12.7 5.5-27.2 14.3-32.9 20.1-4.4 4.5-5.4 6.2-7.7 14.1-7.8 25.9-9.6 57.7-4.2 73.8 0.9 2.7 1.4 5 1.2 5.2-0.6 0.7-18-2.9-27.3-5.5-9.4-2.6-19.6-7.1-24.1-10.5-5.5-4.2-5.9-8.1-5.6-48.9l0.3-35.9 4-7.8c7-14 9-20.5 9.1-29.4 0-8.3-2.6-24.1-6.8-40.7-5-19.8-9.4-49-9.3-61.8 0-10.3 1.8-15.3 8.1-22.4 11.1-12.6 37.4-27 59.3-32.7 10.3-2.6 14.3-2.4 19.6 0.9zm-36.6 54.2c-10.5 3.4-20.4 7.9-22.2 10.2-0.5 0.7-1.5 3.7-2 6.6l-1 5.2 7.9 2.5c15.5 4.9 29.1 4 42.7-2.6 8.5-4.2 16.6-11.9 15.7-15.1-0.3-1.3-0.6-3.3-0.6-4.6 0-1.8-1.1-2.8-5.2-4.6-10-4.4-15.1-4.1-35.3 2.4zm-0.3 56.1c-0.4 8.7 1.6 15.1 8.1 25.1l3.7 5.8 7.7-4.1 7.8-4.1 9.5 0.5c5.3 0.3 10.3 0.9 11.1 1.2 1.4 0.5 1.7-0.6 2.2-7.7 0.6-9.7-0.6-16.4-4-23.1-3.1-6.3-9.4-13-14.1-15.3-16.6-7.8-31.1 2-32 21.7z"/>
		<path id="&lt;Path&gt;" class="s2" d="m3241 3506.9c-1.2 2.4-1.3 10.1-0.1 11.9 0.6 1.1 1.6 1.1 4.7 0.3 2.2-0.6 5.4-1.1 7.2-1.1 1.7 0 3.2-0.2 3.2-0.5 0-0.3-0.9-2.3-2-4.4-3.6-7.2-10.7-10.5-13-6.2z"/>
		<path id="&lt;Compound Path&gt;" fill-rule="evenodd" class="s2" d="m1387.3 3404.7l2.7 7.4c8.6 24.2 21.8 45.6 47.9 77.8l3.6 4.5-6-4.1c-3.3-2.2-9.1-5.6-13-7.5-6.6-3.4-22.1-8.8-24.9-8.8-1.4 0-2 3-3.2 15.5l-0.6 7.1 9.9-0.4c12.1-0.5 22.4 1.4 33.5 6.2 13.5 5.8 18.6 9.8 27.1 21 14.3 19 21.6 33.3 23.8 46.6 1.7 9.7-0.9 28.1-5.1 37.5-1.8 3.8-3.4 8-3.7 9.4-0.2 1.4-2.9 7.4-6 13.3-16.1 31.6-41.7 52.5-79.2 64.8-11.2 3.7-31.8 8.2-43.3 9.6l-5.4 0.6-4.9-5.4c-17.9-19.8-28.7-57.2-30.2-104.8-0.8-26.8 2-59.5 5.4-63 1.3-1.3 1.4-1.2 0.9 0.7-2.4 8 0.4 20.1 5.6 23.7 3.1 2.2 9.7 2 13.2-0.3 9-5.9 12.9-21.5 7.9-31.4-1.7-3.3-1-3.4 4.5-0.2l4.3 2.4-3.3-4.6c-8.2-11.6-19.1-14.4-27.3-7.1-1.9 1.6-3.5 2.5-3.5 1.8 0-2.7 6.4-20.1 7.8-21.2 1-0.9 4.9-1.3 12.1-1.2 8.4 0 11.7 0.5 16.1 2.2 3 1.2 5.8 2.2 6.1 2.2 0.3 0-0.3-5.4-1.4-12l-2-12h-3.6c-3.7 0-15.1 2.2-18.6 3.6-1.7 0.7-1.6 0.2 0.9-4.2 5.3-9.1 15.9-23.8 29.1-40.4 7.2-9.1 15.3-19.4 18-22.9zm30.2 107.6c-9.5-0.6-19.3 5-24.9 14.5-0.4 0.7 0.7 0.4 2.6-0.8 5.2-3.2 6.2-2.6 3.6 2.2-1.6 3.2-2.2 6.1-2.2 10.8 0 22.6 24.4 28.9 32.9 8.6 1.7-4 2.2-12.9 1-16.7-0.6-1.9-0.2-1.8 4.1 1.1 2.7 1.8 5.9 4.2 7.2 5.3 1.9 1.8 2.2 1.9 2.2 0.3 0-2.5-5.6-13-8.9-16.8-1.6-1.9-5.1-4.4-7.7-5.8-2.7-1.3-7.1-2.5-9.9-2.7zm-52 40.7c-2.3 0-14.4 23.9-15.2 29.9-0.7 5.4 1 6.3 13 6.8l10.2 0.4-6.8-2.4c-9.4-3.3-10.4-4.4-9.1-10.4 0.6-2.7 2.7-9.2 4.7-14.6 2-5.3 3.4-9.7 3.2-9.7zm39 56.5l-8.5-0.1c-9.4-0.2-63.2 2.6-63.9 3.3-1 0.9 2.1 14.9 4.9 22.2 3.5 9 9.1 16.1 15.3 19.3 3.6 1.8 5.3 2 15.1 1.6 14.1-0.6 20.7-3 27.6-9.8 6.9-7 9.3-13.7 9.4-26.5z"/>
		<path id="&lt;Path&gt;" class="s2" d="m1360.7 3618c-7.5 0.4-14 1-14.3 1.3-1 1 1.5 9.9 3.9 14.1 1.2 2.2 3.9 5.3 6 7 3.7 3 4.3 3.1 13 3.1 10.8 0 15.5-1.5 20.8-6.2 4.5-4 7.5-12.3 6.4-17.3l-0.7-3-10.6 0.2c-5.9 0-16.9 0.4-24.5 0.8z"/>
		<path id="&lt;Path&gt;" class="s2" d="m3312.4 3497.8c0.9 6 3.8 14.4 5.2 14.9 0.6 0.2 2.6 0.1 4.3-0.4l3.1-0.8-2.6-5.5c-5.2-11.2-11.3-16.2-10-8.2z"/>
		<path id="&lt;Path&gt;" class="s2" d="m3292 3501.7c0 0.9 7.2 40.1 8.6 46.5 0.5 2.7 0.4 2.8-3.3 2.8-2.1 0-5.5 0.5-7.5 1-3.1 0.9-3.8 1.6-4.3 4.4-0.4 1.8-0.5 4.6-0.3 6.2 0.3 2.9 0.4 2.9 7.3 3.2 7.9 0.3 25.1-1.2 30.7-2.8l3.8-1.1-2.6-5.2c-3.2-6.2-30.4-53.8-31.6-55.2-0.5-0.5-0.8-0.5-0.8 0.2z"/>
		<path id="&lt;Path&gt;" class="s2" d="m3328.8 3538.2c10.1 17.7 12.6 23.7 11.1 27.5-1.3 3.5-4.8 7.3-6.6 7.3-2.6 0-0.3 1.8 3 2.4 1.9 0.4 6.2 1.7 9.6 3 3.3 1.4 6.1 2.3 6.1 2.2 0-0.6-9.9-36.2-11.7-42.1l-1.8-6-7.5-3.7c-4.1-2.1-8-3.8-8.7-3.8-0.6 0 2.3 6 6.5 13.2z"/>
		<path id="&lt;Path&gt;" class="s2" d="m3114.5 3550.7c-6.5 3.4-12.6 11.2-14 18.1-0.9 4.4 1.1 12.1 4 15.7l2.5 3-2.1-4.9c-4.4-10.3-0.2-22.1 10.1-28.4 4.8-2.9 6.2-3.3 10.9-2.9 4.8 0.3 5.1 0.3 3-0.9-3.3-1.8-10.8-1.7-14.4 0.3z"/>
		<path id="&lt;Path&gt;" class="s2" d="m1551 3568.5c0 0.2 0.9 1.9 2 3.7 1.1 1.8 2 5.1 2 7.3 0 3 0.3 3.6 1 2.5 0.5-0.8 1-3.9 1-6.8 0-4.7-0.3-5.3-2.6-6.2-2.9-1.1-3.4-1.2-3.4-0.5z"/>
		<path id="&lt;Path&gt;" class="s2" d="m3122 3570c-2.7 2.7-2.5 5.6 0.5 8.5 2.5 2.5 4.5 3.2 4.5 1.6 0-0.5 1.2-2.3 2.6-4l2.5-3.1-2.5-2.5c-3-3-4.9-3.2-7.6-0.5z"/>
		<path id="&lt;Path&gt;" class="s2" d="m1529.4 3583.1l-6.1 2.1v6.8 6.9l3.1-1.6c6.3-3.1 11.6-9.7 11.6-14.3 0-2.5-0.9-2.5-8.6 0.1z"/>
		<path id="&lt;Path&gt;" class="s2" d="m3143 3587.5c0 0.3 1.8 4.1 4 8.5 3.4 6.8 4.4 8 6.5 8 3 0 3.2-2.2 1.1-11l-1.2-5.5-5.2-0.3c-2.9-0.2-5.2 0-5.2 0.3z"/>
		<path id="&lt;Path&gt;" class="s2" d="m1499 3592l-4.5 3.9 4.1 0.1c2.7 0 5-0.7 6.5-1.9l2.4-2-2-2-2-2.1z"/>
		<path id="&lt;Compound Path&gt;" fill-rule="evenodd" class="s2" d="m3331.5 3592c16.3 4.2 18.8 6.7 24.3 24 6.1 19.3 8.5 32.3 8.5 47 0 7.4-0.3 14.6-0.7 15.9-1.2 3.6-21.2 12.8-33 15.1-33.4 6.7-70.1 7.2-78 0.9-8.9-7-9.2-45.9-0.5-72.6 2.3-7.1 4.6-9.3 17.4-16.5 6.3-3.6 23.3-11.3 35.5-16.2 2.8-1.1 18.4 0.3 26.5 2.4zm-11.1 3.1c-22.1 0.3-32.7 2.5-38.8 8.3-8.3 7.7-4.5 18.7 7.8 22.6 13.4 4.3 44.6-5.2 51.4-15.6 2-3.1 2.1-3.9 1.1-7.4-1-3.2-2.1-4.4-5.4-6-3.5-1.7-6-2-16.1-1.9z"/>
		<path id="&lt;Path&gt;" class="s2" d="m3309.6 3608.1c-12.4 0.9-21.2 3.4-18 5.2 4.7 2.7 21.5 0 30.4-4.8 2.9-1.6 3.9-1.6-12.4-0.4z"/>
		<path id="&lt;Path&gt;" class="s2" d="m3133.8 3601.7c0.6 0.2 1.8 0.2 2.5 0 0.6-0.3 0.1-0.5-1.3-0.5-1.4 0-1.9 0.2-1.2 0.5z"/>
		<path id="&lt;Path&gt;" class="s2" d="m3139.8 3602.7c0.7 0.3 1.6 0.2 1.9-0.1 0.4-0.3-0.2-0.6-1.3-0.5-1.1 0-1.4 0.3-0.6 0.6z"/>
		<path id="&lt;Path&gt;" class="s2" d="m3110.3 3612.5c0.3 3.1 1.3 6.8 2.2 8.2 2.6 3.9 9.7 6.5 19.7 7.1 4.8 0.3 8.8 0.6 8.8 0.8 0 0.1-0.8 3.8-1.8 8.1-2.1 8.7-1.8 14.9 0.7 16.3 1.4 0.7 2.9-1.6 9.9-15.6 4.5-9 8.2-17.5 8.2-18.8 0-2.3-0.3-2.3-11.7-2.9-11.4-0.6-23.1-3-29.2-6.1-1.4-0.7-3.7-1.7-5-2.1-2.4-0.7-2.4-0.7-1.8 5z"/>
		<path id="&lt;Path&gt;" class="s2" d="m1454 3681.7c-16.8 14.1-40.7 26-65.9 32.7-5.1 1.4-9.5 2.7-9.6 2.8-0.1 0.2-1.9 6.4-4 14-2 7.5-5.4 17.6-7.5 22.5l-3.7 8.8-9.1 6.1c-23 15.5-51.7 38.8-75.2 61.1l-10.4 10 3.3 4.2c3.6 4.6 8.9 16.2 11.5 25.6 0.9 3.3 2.1 6.9 2.6 8 0.5 1.1 1.4 5 2 8.8l1.2 6.7 8.7 6.8c11.4 9 18.8 13.9 29.3 19.6l8.8 4.8 3.3-2.1c1.8-1.1 5.3-2.3 7.7-2.7 2.4-0.4 5.9-1.6 7.7-2.6 4.8-2.9 12.9-4.8 20.1-4.8 3.5 0 8.9-0.7 12-1.6 10.3-3 21.8-0.3 32.9 7.8 2.8 2 6.1 5.2 7.4 7 1.2 1.8 2.4 3.4 2.5 3.6 0.4 0.6 28.4-4.8 48.9-9.4 25.1-5.6 53.3-13 80.8-21 1.5-0.5 1.7-2.4 1.7-20.7 0-24.2 1.3-41.3 3.5-47.2 1.1-2.9 2.6-4.7 4.7-5.6l3-1.5-12.8-10.5c-22.4-18.4-41.7-31.8-65.7-45.9-6.1-3.5-11.2-7.2-11.7-8.4-1.6-3.8-5.9-23.8-7.4-34.6-2.2-14.9-6-28.1-10.9-38.2l-4.2-8.8z"/>
		<path id="&lt;Path&gt;" class="s2" d="m3153.1 3695.6c-14.1 29.7-37.2 60.6-53.5 71.6-6.8 4.7-29.6 21.7-29.6 22.2 0 0.2 2.6-0.1 5.8-0.6 9-1.5 31.6-0.3 38.9 2.1 6.8 2.2 13.2 5.3 17.6 8.3l2.7 1.9v-3.5c0-7.3 7.9-12.6 18.6-12.6 14.9 0 52.3 9.9 71.9 19 8.8 4.1 25.6 16 28.3 20 3 4.5 3.8 4.7 4.5 1.2 0.3-1.6 1.8-4.3 3.2-6.1 10.3-12.1 72.6-34.3 92.5-32.9 11.5 0.9 18.8 6.4 19.7 14.9 1.2 11.1-10.8 23.3-26.2 26.8-5.5 1.2-41.9 6.3-61.8 8.6-9.2 1-14.1 1.2-17.9 0.5-5-1-5.5-0.9-10.3 2.2-14.5 9.1-14.9 9.3-27.5 9.2-12.1 0-20.4-1.7-35.2-7-9.8-3.6-30-13.2-37.1-17.7-3.1-2-5.7-3.4-5.7-3.1 0 0.3 3.9 6.3 8.7 13.2 19.9 29.1 23.5 34.6 27.1 41.9 4.7 9.3 7.5 17.8 9.8 29.3 1.4 6.9 1.8 17.2 2.4 54l0.6 45.5 7.5 14.1c4.2 7.7 13.8 25.4 21.4 39.2l13.9 25 10 6.1c10.6 6.3 34.2 17.9 46.1 22.6 17.6 7 52.7 17.7 53.8 16.5 0.2-0.3 5.4-10.9 11.5-23.5 12.2-25.5 48.3-99.9 48.5-100.2 0.1-0.1 11.7 1.2 25.7 2.8 76.9 8.9 138.8 12.5 195 11.6 55.1-1 90.4-5 117.4-13.6 6.1-1.9 12.4-3.1 19.1-3.5 30-2 69.4-9.2 104.5-19.1 37.7-10.7 69.7-22.9 126-48.2 14-6.3 26.6-12 28-12.5 2.3-1 2.1-1.1-3.2-2.4-8.8-2.1-14.9-5.6-21.5-12.7-8.7-9.3-10.8-14.2-10.8-24.7 0.1-10.6 2.6-16.1 11.3-24.1 10.5-9.8 26-15.8 46.1-18 9.7-1 26-0.6 31.9 0.8 2.2 0.5 2.2 0.5 2.2-11.6 0-12.1 0-12.1-2.2-11.6-1.3 0.2-7.2 1.5-13.3 2.8l-11 2.4-54-1c-107.5-1.9-207.8 2-247.6 9.7l-11.5 2.2-23-2.2c-59.4-5.6-132.5-15.9-185.4-26-81.6-15.5-140-31.9-193.5-54.1-10.4-4.4-22.1-9.1-25.9-10.4l-6.9-2.4 0.6-10.6 0.6-10.6-31.7-0.6c-48.8-0.8-80.8-5.9-102.4-16.2-5.3-2.5-14.5-11.3-17.4-16.7-0.7-1.4-2.3 1.1-7.3 11.8z"/>
		<path id="&lt;Path&gt;" class="s2" d="m3157 3802.5c0 1.1 12.8 9 22.1 13.6 20.4 10.1 40.6 16.2 52 15.7l6.4-0.3-7.5-5.1c-9.9-6.7-11.3-7.4-26.6-12.7-17.1-5.9-46.4-13-46.4-11.2z"/>
		<path id="&lt;Path&gt;" class="s2" d="m3338 3805.1c-10.4 2.4-36.8 11.1-35.3 11.6 1.5 0.5 36.5-4.4 41.8-5.8 4.5-1.2 11.5-5.4 11.5-6.9 0-1.6-8.7-1-18 1.1z"/>
		<path id="&lt;Path&gt;" class="s2" d="m3070 3806.9c-16.9 3.6-40.6 12.4-45.4 16.9-1.6 1.5-7.6 8.3-13.3 15.2-26.6 31.8-44.3 64.6-62.8 116.5-7.7 21.4-8.5 23-22.3 47.7-32.8 58.5-53.9 110.9-71.5 178.3-15.1 57.2-26.8 132.4-30.2 192.5-0.3 5.8-0.8 13-1.1 16l-0.6 5.4 6.8-6.3c23.2-21.8 61.3-42.3 115.4-62.3 6.3-2.3 6.7-2.6 13.4-12.3 17.1-24.7 30.8-45.8 44.3-68.3 8-13.3 14.7-24.1 14.9-23.9 0.2 0.2 3.1 12.2 6.4 26.8 3.4 14.5 7.2 29.8 8.5 33.9 1.3 4.1 2.6 9.6 3 12.2 0.8 5.3 1.2 5.5 7.6 3.2 10.1-3.5 42.4-9.4 52.2-9.4 7.7 0 3.2-1.8-12.5-4.9-9-1.8-18.2-4.2-20.6-5.4-8.3-4.1-17.8-15.9-26.1-32.6-11-21.9-28.4-69.9-36.2-99.5-10.4-39.5-12-45-14.6-51-3.5-7.9-7.6-13.9-11.3-16.6l-2.9-2.1 4.6-7c2.5-3.8 5-6.9 5.5-6.9 0.6 0 3.8 2.8 7.3 6.3 10.4 10.4 14.7 20.8 25 61.2 6.1 24.2 7.9 30 16.7 55 12.3 34.7 20.1 52.7 28.6 65.5 7.6 11.6 9.3 12.8 21.7 15 3.9 0.6 20.3 4.3 36.5 8 32.4 7.5 39.2 8.6 58.5 9.5 7.2 0.3 17.7 1.2 23.5 2 5.8 0.8 22 2.1 36 3 44.1 2.6 85 6 139.5 11.5 16 1.6 43.2 3.9 60.7 5 17.4 1.1 36 2.5 41.5 3 5.4 0.5 11.9 1 14.4 1h4.6l1.3-6c0.7-3.3 1.4-6 1.6-6 0.9 0 52.2 11.7 71.9 16.3 12.7 3 25.7 6 29 6.7 3.3 0.6 8.9 2.2 12.5 3.5 3.6 1.3 13 4.2 20.9 6.4 7.9 2.2 14.6 4.3 14.9 4.6 0.3 0.3-4 0.5-9.6 0.5-5.6 0-10.2 0.3-10.2 0.6 0 0.3 1.9 4.5 4.1 9.3 3.6 7.6 4.1 9.2 3.6 13.7-0.3 2.8-1.4 6.9-2.5 9.1-2.7 5.2-12.6 18.4-18.8 25.1l-4.9 5.3-14.8-20.5c-8.2-11.3-15-20.6-15.1-20.6-0.2 0 0.9 4.4 2.3 9.7 4.6 16.7 18.9 41 26.3 44.6 2.8 1.4 3.6 1.4 6.7 0.1 9.3-3.9 24.1-19.6 30.1-31.9 4.6-9.4 5.5-17 5.5-45.5 0-35.4-2.9-53.3-11.5-71.6-6.6-14.1-6.9-14.4-27.7-24.5-10.1-4.9-23.7-12.1-30.1-16-41.4-24.9-96.3-46.7-154.9-61.3-17.1-4.3-44.8-9.9-59.6-12.1-36.9-5.4-96.2-27.9-127.5-48.4l-8.9-5.9-13.5-24.3c-7.5-13.4-18-32.7-23.4-42.9l-9.9-18.5-0.6-46.5c-0.8-66.2-1.4-68.3-28.2-106.9-6.7-9.7-14.7-21.3-17.6-25.9-11.9-18.2-23.7-24.3-47.1-24.1-7 0-14.8 0.7-20 1.8z"/>
		<path id="&lt;Path&gt;" class="s2" d="m4270 3810.6c-26.9 2.2-50.8 12.4-60.2 25.7-2 2.9-1.7 2.8 3.2-1.4 7.4-6.2 12.8-9.5 21.3-12.9 29.9-11.9 76.7-10 101.5 4.2 5.6 3.2 14.2 10.9 17.5 15.8 1.3 1.9 1.3 1.6-0.2-1.5-6.5-13.4-24.4-24.1-46.6-27.9-9.4-1.5-28.8-2.6-36.5-2z"/>
		<path id="&lt;Path&gt;" class="s2" d="m4100.1 3817.6c-11.4 1.6-13.1 2.2-6.9 2.3 6.2 0.1 12.5 3 16.9 7.8l3.7 4 18.3 0.6c10.1 0.4 22.3 1 27.2 1.4l8.7 0.6v-5.6-5.5l-11.2-2.6c-21.5-4.9-38-5.7-56.7-3z"/>
		<path id="&lt;Path&gt;" class="s2" d="m4264.1 3832.1c-17.2 2-32 8.1-40.7 16.6-5 5-6.1 5.5-14.5 7.6l-9 2.2 0.3 6.9c0.4 8.6 2.3 10 3.3 2.4 1.1-8.3 1.8-8.6 5.5-2.8l3.3 5.2 1.8-3.5c1-1.9 4.4-5.8 7.5-8.5 13-11.6 32.9-17.1 61.7-17.2 22.6 0 40.7 3.4 51.5 9.7 2.4 1.3 4.6 2.2 4.9 1.9 1.2-1.2-9.8-10.5-15.8-13.3-14.7-7-37.8-9.7-59.8-7.2z"/>
		<path id="&lt;Path&gt;" class="s2" d="m1579.4 3840.2c-0.5 0.7-1 14.4-1.2 30.4-0.8 53.2 3.8 139.6 11.3 214.4 1.4 13.5 2.7 26 2.9 27.8 0.4 2.5 0.2 3.2-0.8 2.9-3.1-1.2-112.8-83.5-146.9-110.2l-16.6-13-2.6-11c-10.8-45.5-10.6-44.8-14.3-48.4-4.3-4-11.1-7.1-15.7-7.1-1.8 0-5.2 0.7-7.5 1.5-2.3 0.8-7.6 1.5-11.7 1.5-7.2 0-14.3 1.9-14.3 3.8 0 0.6 2.2 1.5 4.9 2.2 4.7 1.1 5.1 1.5 10.2 9.8 2.9 4.8 10.6 15.8 17.2 24.5 11.3 15 12.9 17.7 27.8 47.5 24 48.2 45.6 86.2 71.7 125.7 52.8 80.3 107.5 139 144.3 154.6 8.1 3.5 14.4 4.4 22.2 3.5 5.3-0.7 5.6-0.9 7.2-4.9 5.1-12.8 13.9-59.9 16.9-91.2 2.8-28.4 3.6-82.4 1.6-112-3.4-51.8-11.8-102.7-22.1-134.5-9.7-29.7-39.1-75.9-66-103.5-12.5-12.8-17.2-16.4-18.5-14.3z"/>
		<path id="&lt;Path&gt;" class="s2" d="m4145.4 3848.5c-25.1 9.1-25 9-19.8 10.4 5.2 1.5 11 1.4 22.4-0.3 13.9-2.1 17.2-3.5 18.1-7.1 1.6-6.7 1.8-10.5 0.6-10.4-0.7 0.1-10.3 3.4-21.3 7.4z"/>
		<path id="&lt;Path&gt;" class="s2" d="m1253.7 3858.2c-30.2 37.2-62.3 154.6-83.7 305.8-5.4 38.4-5.9 44.1-4.1 47.4 3.7 6.5 18.3 17.4 37.1 27.4 36.1 19.2 92.6 41 250.5 96.1l55 19.3 5.5 7.1c3 3.9 10.8 14.8 17.4 24.2 6.5 9.3 13.2 18.8 14.9 20.9 1.7 2.2 4.8 7.1 6.9 11 2.1 3.9 3.8 6.4 3.8 5.5 0-1.3 1.8-1.9 8.5-2.9 7.1-1 9.5-1.9 14.6-5.2l6.1-3.9-2-2.2c-2.3-2.4-22.2-35-21.8-35.5 0.2-0.1 6.1 2.2 13.1 5.3 7.1 3 13 5.3 13.2 5.2 0.4-0.4-22.9-13.7-36.7-20.9-5.8-3.1-14.3-6.8-19-8.3-7.4-2.4-9.4-3.6-15-9-3.6-3.3-13.2-12.2-21.5-19.6-77-69.2-152.8-126.5-201-151.9-6.6-3.4-12.1-6.4-12.3-6.5-0.1-0.1 1.3-16.1 3.2-35.6 4.7-48.2 4.9-53.6 3.6-83.4-3.5-82.2-15.1-159.5-28.1-188.3-1.5-3.4-3.2-6.2-3.8-6.2-0.5 0-2.5 1.9-4.4 4.2z"/>
		<path id="&lt;Path&gt;" class="s2" d="m4049.5 3857.1c-25.2 3.4-41.5 15.2-39.1 28.3 0.9 4.7 9.3 13.9 14.9 16.1 9.3 3.7 32.2 2.8 52.2-2.3l7-1.7 2.3-7c3-8.9 8.5-29.6 8-30.1-0.3-0.2-3.9-1-8.2-1.8-10.2-2-28.3-2.7-37.1-1.5z"/>
		<path id="&lt;Path&gt;" class="s2" d="m4263 3859c-20.7 3.5-35 11.9-35 20.5 0 6.6 8.9 13.3 22.5 17.1 7.9 2.2 36.2 3.1 46.5 1.5 9.5-1.5 19.6-5 26.7-9.3 6.6-4 11.7-11 10.8-14.8-1.4-5.7-9.3-10.4-22.5-13.5-8.7-2.1-40-3-49-1.5z"/>
		<path id="&lt;Path&gt;" class="s2" d="m4108 3880.7c0 1-0.3 2.9-0.7 4.2-0.6 2.4-0.6 2.4 3-0.5 3.6-2.8 3.6-2.9 1.4-4.1-3-1.7-3.7-1.6-3.7 0.4z"/>
		<path id="&lt;Path&gt;" class="s2" d="m4172.5 3892.7c-1.1 0.2-5.3 1.1-9.4 2l-7.3 1.5 0.5 3.5c0.8 4.9 5.3 12 8.6 13.7 2.7 1.4 3.1 1.3 6.7-1.4 7.8-5.7 10-10.8 7.5-17.3-1-2.6-2.2-3-6.6-2z"/>
		<path id="&lt;Path&gt;" class="s2" d="m4127 3904l-9.5 2.8 0.3 4.8c0.3 5.8 1.7 10.7 4.4 15.2 1.8 2.9 2.4 3.2 5.2 2.7 5.2-1.1 11.5-5.3 12.2-8.1 1.3-5-0.7-20.6-2.5-20.3-0.3 0.1-4.9 1.4-10.1 2.9z"/>
		<path id="&lt;Path&gt;" class="s2" d="m4085.6 3914.7l-9.8 2.6 0.6 3.5c0.8 5.4 5.7 12.6 8.6 13 3 0.3 11.2-4.6 13.5-8.1 1.4-2.2 1.4-3.2 0.3-7.8-0.7-2.9-1.7-5.3-2.3-5.5-0.5-0.1-5.4 0.9-10.9 2.3z"/>
		<path id="&lt;Path&gt;" class="s2" d="m1549.5 3918.6c-24.3 7.4-73.7 19.3-99.5 24-8 1.4-14.7 2.8-14.9 3-0.5 0.4 0.6 5.6 5 24.5l3 12.6 19.7 15.5c23 18.1 103.1 78.3 108.1 81.3 1.2 0.7 1.3-0.1 0.8-4.1-3.1-23.5-9.7-125.7-9.7-149.7 0-11.4 0.6-11-12.5-7.1z"/>
		<path id="&lt;Path&gt;" class="s2" d="m1294.4 3920.7c2 6.6 8.2 60.1 10.6 91.8 1.8 22.5 2.7 65.9 1.9 80.9l-0.8 14 6.5 19.5c3.6 10.7 8.1 25.2 10 32.1 2.1 7.7 4.1 13 5.1 13.8 1 0.7 10.3 6.9 20.6 13.7 47 31.3 105.4 78 165.9 132.7 19.6 17.8 19.7 17.8 29 21.1 5.1 1.9 13.2 5.6 18 8.3 4.8 2.7 13.1 7.3 18.5 10.2 5.4 2.8 14.8 8.4 20.8 12.3 6.1 3.8 15.3 9.1 20.5 11.6 12.9 6.2 22.6 12.6 25 16.5 4.1 6.8 1.7 14.3-5.8 17.9-5.7 2.8-12.6 2.1-24-2.5-7.5-3-8.1-3.2-6.7-1.2 2.6 3.6 7.2 12.8 11.4 23 11.5 27.6 12.2 40.4 2.4 43.4-5.4 1.6-10.7-1.1-16-8.3l-4.1-5.5-0.3 12.9c-0.4 12.8-0.4 13-3.3 16-3.7 3.9-9.2 4.2-13.8 1-2.8-2.1-8.7-12.5-8.9-15.9 0-0.8-0.7 1.4-1.4 5-2.7 13.4-6.8 18.6-13.8 17.7-5-0.7-8.2-3.8-10.2-9.8-2-5.8-3.4-19.9-3.5-32.9 0-5.3-0.7-12.1-1.5-15.3-2.2-8.3-9.5-22.4-17.9-34-4-5.6-12.1-17-18.1-25.4-5.9-8.4-11.2-15.7-11.9-16.2-0.6-0.5-28.1-10.3-61.1-21.9-33-11.6-72.7-25.6-88.2-31.1-15.5-5.6-28.6-10.1-29.1-10.1-0.6 0-1.3 0.7-1.6 1.7-0.6 1.5-2.6 1.6-21.4 1-31-1-71.4 1.2-99.6 5.4l-7.9 1.2 5.4 1.7c3 0.9 7 2.5 9 3.5 3.6 1.7 3.7 1.7 9.2-0.9 9.3-4.4 17.8-5.9 32.2-5.9 41.1 0.1 95.4 21.7 136.5 54.4 9.6 7.6 23.7 21.7 29.7 29.9 8.9 11.9 15.6 27.1 16.9 37.9 2.3 20.2-11.4 75.5-36.5 147.1-10.9 31.1-15.5 43.9-21.5 59.4-2.6 6.6-4.5 12.2-4.4 12.6 0.2 0.3 56.9-5.1 126.1-12.1l125.7-12.7 3.8-3.1c2.1-1.6 6.8-6.2 10.5-10 20.7-21.9 32.8-50.5 37.8-88.6 1.5-11.4 1.4-45.6 0-60-4.4-42.8-17.5-93.7-35.5-138.1-8.5-21-7.3-19.3-17.3-25.2-32.1-19-76.6-66-118.5-125.2-33.5-47.4-69.7-109.2-97.3-166.4-8-16.6-10.7-21.1-20.6-34.2-6.3-8.3-13.4-18-15.8-21.7-3.7-5.8-4.9-6.8-8.5-7.7-8.2-2.2-17.1-5.3-19.6-7-1.4-0.9-5.9-3.1-10-4.9-8.3-3.6-16.2-8.2-25.8-14.8-7.1-4.8-7.6-5-6.8-2.6z"/>
		<path id="&lt;Path&gt;" class="s2" d="m1301.7 4151.4c-1.3 3.4-0.7 6.5 1.4 7.7 2 1 2.1 0.9 1.4-2.3-0.4-1.8-1.1-4.2-1.5-5.2-0.6-1.8-0.7-1.8-1.3-0.2z"/>
		<path id="&lt;Path&gt;" class="s2" d="m1904 4260.2c-116.8 7.1-212.6 13.1-212.8 13.3-0.2 0.2-1.5 4.8-2.7 10.2-6.7 28-11.2 33.1-29.9 34-5.5 0.3-10.2 0.6-10.2 0.7-0.1 0 2.8 7.7 6.3 17.1 17.2 45.5 28.4 91.6 32.3 133.5 1.4 15.3 1.5 46 0 59-5.3 48.8-24.8 88.4-55.5 112.9l-7 5.6-39.2 3.9c-21.6 2.2-39.2 4.1-39 4.2 0.3 0.3 1245.9-38.4 1246.2-38.8 0.2-0.2-1.4-5.5-3.6-11.8-7.7-23.4-10.4-43.2-9.6-72.5 0.6-22.4 3.2-40.3 9.1-63 3.8-14.4 11.7-37.8 14.9-44 1.7-3.4 2.1-6.9 2.8-23 1.8-43.6 7.5-100.7 13.2-133.6l1.4-7.7-23.1-0.6c-47.6-1.4-645.8-12.6-663.1-12.5-9.9 0.1-113.6 6-230.5 13.1z"/>
		<path id="&lt;Path&gt;" class="s2" d="m3005.1 4274.9c-3 4.7-9.5 14.6-14.4 21.9-4.8 7.4-8.7 13.5-8.5 13.7 0.9 0.9 21.2-1.7 29.1-3.7l8.8-2.2-0.7-4c-0.3-2.2-1.5-7-2.6-10.6-1-3.6-2.9-10.4-4.1-15.1l-2.2-8.6z"/>
		<path id="&lt;Path&gt;" class="s2" d="m3665.3 4292.4c2 14.8 2.9 33.2 2.4 50.1-0.6 20.3-2.4 33.4-5.7 40.9-6.8 15.9-24.9 35.9-38.6 42.7-10.4 5.2-20 3.9-28.5-3.8l-4.1-3.7 0.6 3.5c2.4 14.9 4 53.8 5.2 127.1l0.7 41.8h3.6c2 0 82.8-2.5 179.6-5.5 96.8-3 176.7-5.5 177.6-5.5 0.9 0 1.9-0.9 2.2-2 0.5-2 1.4-2 63.9-2 55.8 0 88.1-0.8 272.3-6.5 114.9-3.6 210.2-6.5 211.7-6.5h2.8v-62-62l-2.2-0.5c-1.3-0.3-189.5-33.8-418.3-74.5-228.8-40.7-418.2-74.4-420.9-74.9l-4.8-0.9z"/>
		<path id="&lt;Path&gt;" class="s2" d="m3120.5 4304c-15.9 1-35.6 4-62.5 9.6-18.3 3.9-40.2 9.4-41 10.4-0.3 0.4-2.3 1-4.5 1.4-6.7 1.1-33.1 9.2-50.7 15.5-43.1 15.4-79.5 33.3-106.3 52.4-14.4 10.3-32.3 28.4-36.3 36.7-7.1 14.9-16.1 45.9-20.3 69.5-2.9 16.9-3.7 49.5-1.5 66 5 37.8 20 69.1 46.1 96.3 25.9 27 54.6 44.2 105.7 63.3 66.7 24.8 135.7 43.8 199.8 54.9 20.8 3.5 49 7 57.7 7h6.2l-0.4-7.8c-4.3-70-4.6-77.9-4.5-117.2 0-39.7 0.1-41.1 2-63.3 2.4-28.1 7.9-63.5 13.1-84.2 4.7-18.3 14.5-45.2 23.9-65.1 20.1-42.8 52.9-78.5 86.3-93.9 5.4-2.5 7.7-4.1 7.7-5.3 0-4.7-8.8-14.5-16.5-18.5-8.5-4.3-69.2-19.4-89-22.2-6.6-0.9-15.7-2.5-20.2-3.5-7-1.6-13.4-2-44-2.4-19.7-0.3-42.5-0.1-50.8 0.4z"/>
		<path id="&lt;Path&gt;" class="s2" d="m979 4328.6c-86.1 8.4-157.3 15.3-158.2 15.4-1.7 0-1.8 6-1.8 111.5 0 61.3 0.3 111.5 0.6 111.5 0.4 0 42 5.4 92.6 12 50.5 6.6 93 12 94.3 12 2.1 0 2.4-0.4 2-2.8-0.7-4.2-4.3-46-6.1-71.2-2-28.2-2.3-72-0.5-81 5.2-26.8 45.6-69.3 89.6-94.5 5.5-3.1 11.1-6.7 12.5-8 3.9-3.5 16.7-11.8 24.8-16 3.9-2 7.2-3.9 7.2-4.1 0-0.2-0.1-0.3-0.2-0.3-0.2 0.1-70.7 7-156.8 15.5z"/>
		<path id="&lt;Path&gt;" class="s2" d="m3365.5 4331.9c34.2 17.5 43.4 22.7 47.3 26.4 14.2 13.8 17.5 42.6 13.7 121.2-1.2 26.4-2 58.3-1.6 71.3 0.1 3.4 0.8 5 3 7.3 3.9 3.8 6.5 3.7 13.9-0.9 14.3-8.6 26.3-22.1 53.9-60.2 7.7-10.7 18.2-24.6 23.2-30.9 15.2-19 30.6-46.3 34-60.1 3.1-13.1 4.5-27.9 3.7-42-0.6-12.9-3.1-23.8-5.7-25.2-2.6-1.3-59.6-7.5-114.4-12.3-35.1-3.1-91.3-7.5-94.7-7.5-0.7 0 10 5.8 23.7 12.9z"/>
		<path id="&lt;Path&gt;" class="s2" d="m1233.8 4331c-12.7 2.3-20.8 7.2-24.9 15.1-8.6 16.9-19 80.1-30.4 184.4-2.4 22.5-11 107.1-19 188-18.1 182.8-24.8 243.2-34.6 313.5-3.6 26.1-10.1 65.8-13.4 82.6-1.4 6.8-2.5 12.6-2.5 12.9 0 0.3 1.1 0.5 2.4 0.5 2 0 3.9-2.1 9.9-10.7 47.8-69.2 117.1-203.2 177.7-343.8 63.8-147.8 108.7-278.1 112.6-326.6 0.8-9.9-0.6-16.1-6.1-26.8-4.7-9.4-10.9-17.2-22.1-28.1-24-23.1-56.1-41.7-92.1-53.4-20.1-6.4-45.5-9.8-57.5-7.6z"/>
		<path id="&lt;Path&gt;" class="s2" d="m1170.5 4331.6c-23 2.7-41.4 8.9-65.9 22.1-36 19.4-69.3 50.3-83.1 76.9-3.6 7.1-4.9 21.2-4.1 46.4 2.2 70.3 15.6 195.6 42.1 393.5 12.8 95.9 33.8 243.5 34.5 243.5 1.4 0 11.9-65.7 18-112.5 9.2-70.3 13.2-107.9 31.5-292.5 19.8-199.9 24.1-238.2 32.5-293.2 6.1-39.2 11.4-62.8 17-75.5 1.9-4.3 1.9-4.9 0.5-5.9-1.6-1.2-15-3.5-18.3-3.3-0.9 0.1-3 0.4-4.7 0.5z"/>
		<path id="&lt;Path&gt;" class="s2" d="m3589.7 4337.7c-1 0.3-1.7 0.9-1.5 1.4 0.6 1.7 22 30.9 22.7 30.9 0.8 0 8.1-10.9 8.1-12.1 0-1.4-25.1-21-26.7-20.8-0.4 0.1-1.6 0.3-2.6 0.6z"/>
		<path id="&lt;Path&gt;" class="s2" d="m3365 4361.4c-10.5 2.4-29.5 11.4-42 19.9-4.1 2.8-13.4 11-20.6 18.2-10.3 10.2-14.9 15.8-21.6 26-30.3 45.9-46.5 98.6-54 175.5-2.4 25.1-0.8 116.7 3.2 181 1 17 2.4 22.6 14.4 58.5 10.3 30.7 22.6 62.9 40.3 105.3l13.5 32.2v12.8c-0.1 24.9-5.5 39.8-22.2 60.5-9.4 11.8-10.2 13.1-9.8 16.4l0.3 2.8 57.3 0.3 57.2 0.2 0.1-2.2c0.4-7.1-1-8.8-12.9-15.8-23.4-13.8-34.8-31.6-40.7-63.2l-1.6-8.8 4.6-21.7c16.9-79.8 38.4-193 48.4-255.4 6.9-42.8 14.6-97.6 22.8-163.4l8.7-70v-36c0.1-37.6-0.6-45.4-4.5-56.1-1.1-2.8-2.9-6-4.2-7.1-3.7-3.4-14.5-8.4-21.6-9.9-7.7-1.6-7.9-1.6-15.1 0z"/>
		<path id="&lt;Path&gt;" class="s2" d="m3570 4411.2c-2.3 8.1-11 28.3-14.7 34.3-2 3.3-5.7 8.9-8.3 12.5-2.6 3.6-8.9 12.8-14 20.5-21.7 32.6-40.8 56.4-63.6 79.2-10.6 10.6-17.7 15.5-27.5 18.9-10.4 3.6-19.5 2.8-25.1-2.3-1-0.9-2-1.4-2.2-1.2-0.1 0.2-1.5 11-3 23.9-3.6 30.6-3.2 27.6-7.6 57-3.6 24.3-3.7 25.9-2.5 33.5 7.2 44.2 30.8 109.2 59.2 163.5 26.6 50.6 47.4 84.3 82.3 133l4 5.5 1 20c2.6 49.2 3.3 55.9 6.8 59.7 1.4 1.7 7.3 1.8 96.4 1.8 91.4 0 94.8-0.1 93.7-1.8-1.6-2.6-6.9-6-12.6-8.2-7.1-2.7-17-4.5-43.3-8-26.7-3.6-37.4-5.7-51-10.1-29.5-9.5-42.2-19.5-53.3-41.6l-2.4-4.8-0.6-190.5c-0.6-184.7-2.4-321-4.7-355.4-0.6-8.3-1.7-20.8-2.5-27.6-0.8-6.9-1.5-13.3-1.5-14.3 0-3.1-1.7-1.8-3 2.5z"/>
		<path id="&lt;Path&gt;" class="s2" d="m827.4 4606.7c0.3 12 1.8 131.6 3.1 265.8 1.4 134.2 2.8 248.6 3.1 254.2l0.6 10.3h122.4 122.4v-2.3c0-1.2-4.5-33.9-10-72.7-27.5-194.5-43.9-319.6-54.1-413.5-2.4-21.5-4.4-39.1-4.5-39.3-0.2-0.3-180.4-24.1-182.7-24.2-0.5 0-0.6 9.8-0.3 21.7z"/>
		<path id="&lt;Path&gt;" class="s2" d="m4050 4594c-12.4 0.4-33.9 1.1-47.7 1.5l-25.3 0.8v22.3 22.4h79.2 79.1l-0.6-17.3c-0.4-9.4-0.7-20.2-0.7-24v-6.7l-30.7 0.2c-17 0.1-40.9 0.4-53.3 0.8z"/>
		<path id="&lt;Path&gt;" class="s2" d="m4151.3 4608.7c0.4 8.7 0.7 19.5 0.7 24v8.3h78 78.1l-0.6-6.3c-0.9-10.1-2.5-35.3-2.5-38.6v-3.1h-77.2-77.1z"/>
		<path id="&lt;Path&gt;" class="s2" d="m4322 4595.2c0 1.3 0.7 11.7 1.5 23.3 0.8 11.5 1.5 21.3 1.5 21.7 0 0.5 38 0.8 84.5 0.8h84.5v-24-24h-86-86z"/>
		<path id="&lt;Path&gt;" class="s2" d="m3773.5 4602.6c-90.7 2.9-167.5 5.3-170.5 5.3l-5.5 0.1 0.6 58.2c0.4 32.1 0.7 118.5 0.8 192.2l0.1 133.8 3.3 6.1c3.9 7.5 12.5 16.3 19.3 20 15.4 8.2 36.4 13.5 71.4 18.2 14.6 2 30.3 4.5 35 5.6 12.3 3 22 8 27.9 14.5 5.8 6.3 7.9 11.8 8.8 23.1l0.6 8.3h-105.9c-100.3 0-106.1-0.1-109.9-1.9-8.3-3.7-13.4-12.9-15.4-27.7-0.6-4.3-1.5-19.1-2.1-32.8-0.6-13.7-1.4-26.6-1.9-28.6-0.5-2.1-2.8-6.5-5.3-9.7-7.8-10.2-22.1-31.3-33.5-49.3-46.8-74.2-77.1-138.9-98.2-209.9-0.5-1.6-1.7 3.8-4 17-8.2 48.3-28.9 155.4-42 217.4-3.9 18.9-4 19-2.5 26.5 4.8 25.2 13.3 38.3 32.7 49.8 11.5 6.7 18 13.1 19.7 19.1 1.3 4.8 1.2 15.1-0.4 23.1l-1.2 6.5-68.5 0.3-68.6 0.2-3.5-5.2c-5.1-7.7-6.2-11-5.5-17.8 0.6-7.1 2.1-9.7 11.8-21.9 13.8-17.1 18-26.1 19.9-43.2 1.6-13.9 0.7-17.7-9.2-41.3-24.3-57.2-48.1-122-54.8-149.2l-1.3-5.1-12.6-0.6c-50.7-2.5-140.7-22.3-217-47.7-53.2-17.7-85.8-31.5-109.9-46.4-29.9-18.5-56.3-44.5-70.6-69.3-3.3-5.9-4.6-7.2-6.6-7.3-5.5-0.1-1271.5 39.3-1271.9 39.6-0.5 0.4-1.5 428.4-1 428.4 1.6 0.1 2335.1 5 2378.7 5h55.2v-254.5-254.5l-10.7 0.1c-6 0.1-85 2.5-175.8 5.5z"/>
		<path id="&lt;Path&gt;" class="s2" d="m1400 4669.1c-20.1 2.1-37.6 3.9-39 4.1-2.1 0.3-3.1 2-7.8 13.8-34.5 86.6-72.7 172.4-113 253.5-38.9 78.2-66.4 127.4-98.9 176.9-6.8 10.3-12.3 18.9-12.1 19 0.3 0.3 2353.6-2.9 2985.6-4l406.2-0.6v-3.9-3.9h-58.2c-32.1 0-699.3-1.4-1482.8-3-783.5-1.6-1433.8-3-1445.1-3h-20.6l-2.8-2.6-2.8-2.6 0.6-219.3 0.7-219.3-3.8-0.6c-11.1-1.8-65.4-8.6-67.4-8.5-1.3 0.1-18.7 1.9-38.8 4z"/>
		<path id="&lt;Path&gt;" class="s2" d="m3977 4699v24h80.1 80.2l-0.7-6.1c-0.3-3.4-0.6-14.2-0.6-24v-17.9h-79.5-79.5z"/>
		<path id="&lt;Path&gt;" class="s2" d="m4153 4690.7c0 8.7 0.3 19.5 0.7 24l0.6 8.3h79.3 79.4v-2.3c0-1.2-0.7-11.7-1.5-23.2-0.8-11.6-1.5-21.3-1.5-21.8 0-0.4-35.3-0.7-78.5-0.7h-78.5z"/>
		<path id="&lt;Path&gt;" class="s2" d="m4327.5 4681.7c0.8 9.5 2.5 35.2 2.5 38.5v2.8h82 82v-24-24h-83.6-83.5z"/>
		<path id="&lt;Path&gt;" class="s2" d="m3977 4781v24h80.5 80.5v-18.8c0-10.3-0.3-21.1-0.6-24l-0.7-5.2h-79.8-79.9z"/>
		<path id="&lt;Path&gt;" class="s2" d="m4154.4 4760.1c0.3 1.7 0.6 12.5 0.6 24v20.9h81.5 81.5v-3.6c0-5.5-2-37.4-2.6-41.2l-0.5-3.2h-80.6-80.5z"/>
		<path id="&lt;Path&gt;" class="s2" d="m4333.9 4781l1.5 24h79.3 79.3v-24-24h-80.7-80.8z"/>
		<path id="&lt;Path&gt;" class="s2" d="m3977 4863v24h81.5 81.5v-6.8c0-3.7-0.3-14.5-0.7-24l-0.6-17.2h-80.9-80.8z"/>
		<path id="&lt;Path&gt;" class="s2" d="m4156.3 4853.2c0.4 7.9 0.7 18.7 0.7 24v9.8h83.5 83.6l-0.5-3.3c-0.3-1.7-1.1-12.5-1.7-24l-1.2-20.7h-82.5-82.5z"/>
		<path id="&lt;Path&gt;" class="s2" d="m4338 4841.8c0 4.1 1.9 33.7 2.6 39.9l0.5 5.3h76.5 76.4v-24-24h-78-78z"/>
		<path id="&lt;Path&gt;" class="s2" d="m3977.4 4921.3c-0.2 0.7-0.3 11.6-0.2 24.2l0.3 23 82.4 0.3 82.4 0.2-0.7-7.6c-0.3-4.3-0.6-15.3-0.6-24.6v-16.8h-81.5c-65.1 0-81.7 0.3-82.1 1.3z"/>
		<path id="&lt;Path&gt;" class="s2" d="m4158 4934.7c0 8.2 0.3 19.2 0.7 24.5l0.6 9.8h84.9c67.2 0 84.8-0.3 84.8-1.3 0-0.6-0.7-10.7-1.5-22.2-0.8-11.6-1.5-22-1.5-23.3v-2.2h-84-84z"/>
		<path id="&lt;Path&gt;" class="s2" d="m4343 4921.7c0 1 0.7 11 1.5 22.3 0.8 11.3 1.5 21.5 1.5 22.7v2.3h74 74v-24.5-24.5h-75.5c-71.2 0-75.5 0.1-75.5 1.7z"/>
		<path id="&lt;Path&gt;" class="s2" d="m3977 5026v24h83 83v-19.4c0-10.6-0.3-21.4-0.6-24l-0.7-4.6h-82.3-82.4z"/>
		<path id="&lt;Path&gt;" class="s2" d="m4159.8 5002.7c-0.2 0.5-0.2 11.3 0 24l0.3 23.3h86.9 87v-3.3c0-2.3-2.7-42.5-3-44.5-0.1-0.6-170.9-0.1-171.2 0.5z"/>
		<path id="&lt;Path&gt;" class="s2" d="m4348.5 5007.2c0.7 7.3 2.5 35.2 2.5 39.4v3.4h71.5 71.5v-24-24h-73-73z"/>
		<path id="&lt;Path&gt;" class="s2" d="m3977 5091.5v7.5h83.5 83.5v-7.5-7.5h-83.5-83.5z"/>
		<path id="&lt;Path&gt;" class="s2" d="m4161.2 5091.2l0.3 7.3 87.8 0.3 87.8 0.2-0.3-7.2-0.3-7.3-87.8-0.3-87.8-0.2z"/>
		<path id="&lt;Path&gt;" class="s2" d="m4354.2 5091.2l0.3 7.3 69.8 0.3 69.7 0.2v-7.5-7.5h-70-70.1z"/>
	</g>
</svg>
