<svg version="1.2" xmlns="http://www.w3.org/2000/svg" viewBox="0 0 1280 1280" width="1280" height="1280">
	<title>Kisha-22-ilu-pastrokes-groupblack-color-01-svg</title>
	<style>
		.s0 { fill: #010101 } 
		.s1 { fill: #ffffff } 
	</style>
	<g id="Black">
		<path class="s0" d="m0 0h1280v1280h-1280z"/>
	</g>
	<g id="Color">
		<path class="s1" d="m962.1 942.5c-10.3 0-18.7 12.7-18.7 28.3 0 16.5 8.9 31.6 18.7 31.6 9.7 0 17.8-13.5 17.8-29.9 0-16.5-8-30-17.8-30z"/>
		<path class="s1" d="m585.3 1042.5l16.4-0.2c-0.1-5.8-0.1-12.7-0.2-19.8l-16.4 0.2z"/>
		<path class="s1" d="m501.9 972.3c-0.2-5-0.3-8.3-0.3-9.3q0-0.1-0.1-0.2 0-0.1 0-0.2-0.1-0.1-0.1-0.2 0-0.1 0-0.2c-2.6-10.2-8.1-15.5-16.6-15.9l0.7 26.2z"/>
		<path class="s1" d="m1004.8 820.2l13.8 14.4q0 0.1 0 0.1 0 0 0.1 0 0 0 0 0.1 0 0 0 0 0 0 0 0 0 0 0.1 0.1 0 0 0 0 0 0 0 0l0.1 0.2q0 0 0 0 0 0 0 0 0 0 0 0 0 0 0 0.1v0.1c0 0 0 0.1 0.1 0.2 0.1 0.1 0 0.1 0 0.1q0 0.1 0 0.1 0 0.1 0 0.1 0 0.1 0 0.1 0 0.1 0 0.1l0.9 151 12.3 14.3q0.3 0.1 0.6 0.3 0.2 0.1 0.4 0.4 0.2 0.2 0.3 0.5 0.1 0.3 0.1 0.6l2 171.3c0 0 0-0.1 0-0.1l-2-172.2q0-0.3-0.1-0.6-0.1-0.3-0.3-0.5-0.2-0.3-0.4-0.4-0.3-0.2-0.6-0.3l-12.2-14.3-0.9-151q0 0 0-0.1 0 0 0-0.1 0 0 0-0.1 0 0 0-0.1 0 0 0 0 0 0 0 0 0-0.1 0-0.1 0 0 0 0 0 0 0-0.1 0 0 0 0 0-0.1 0-0.1 0 0 0 0v-0.1q0-0.1-0.1-0.1 0 0 0 0 0 0 0 0 0 0 0 0l-0.1-0.2q0 0 0 0 0 0 0-0.1 0 0-0.1 0 0 0 0 0 0 0 0-0.1 0 0 0 0-0.1 0-0.1 0 0 0 0-0.1l-13.8-14.4-2.9-242.8z"/>
		<path class="s1" d="m1008.6 579.4q0 0.1 0 0.1 0 0.1 0.1 0.1 0 0.1 0 0.1 0 0.1 0 0.1 0.1-0.1 0.1-0.3 0-0.2 0-0.4 0-0.2-0.1-0.3 0-0.2-0.1-0.4l-103.1-204.3h-0.5z"/>
		<path class="s1" d="m387.9 997.5l16.4-0.8c-0.2-6.7-0.4-12.8-0.6-17.9l-16.4 0.3z"/>
		<path class="s1" d="m403.5 974.8c-0.1-4.9-0.3-8.3-0.3-9.3q-0.1-0.4-0.2-0.8c-2.6-10.2-8.3-15.5-16.7-15.8l0.9 26.2z"/>
		<path class="s1" d="m486 994.9l16.4-0.7c-0.2-6.7-0.3-12.9-0.5-17.9l-16.4 0.2z"/>
		<path class="s1" d="m486.7 1021.5l16.5-0.4c-0.2-7.7-0.4-15.5-0.6-22.9l-16.5 0.7z"/>
		<path class="s1" d="m388.8 1024.1l16.4-0.5c-0.3-7.6-0.5-15.5-0.8-22.9l-16.4 0.8z"/>
		<path class="s1" d="m928 353.8q0-0.3 0-0.6c0-10.6-10.9-19.4-24.5-20v1c13.4 0.6 24.1 9.1 24.5 19.6z"/>
		<path class="s1" d="m468.3 1026c0.2 7.1 0.4 13.9 0.6 19.7l14.4-0.3-0.5-19.8z"/>
		<path class="s1" d="m899.5 334.3l0.5-54.8-0.5 53.8c-13.1 1-23.3 9.6-23.3 19.9q0 0.3 0 0.6c0.3-10.2 10.4-18.5 23.3-19.5z"/>
		<path class="s1" d="m778.4 815.9v-16.1l-477.5 54.6v11.4l477.5-49.9z"/>
		<path class="s1" d="m678 942.9c-11.8 1.8-13.9 14.6-14.2 17.3 0 0.6 0.1 3.9 0.2 8.9l14.7-0.2z"/>
		<path class="s1" d="m480.8 946.5c-11.8 1.8-13.9 14.6-14.3 17.3 0.1 0.6 0.1 3.9 0.3 8.9l14.7-0.2z"/>
		<path class="s1" d="m899.2 374.1h-0.4l-87.8 194.4q-0.1 0.2-0.1 0.3-0.1 0.2-0.1 0.4 0 0.1 0 0.3 0 0.2 0.1 0.3 0 0 0 0 0-0.1 0-0.1 0.1-0.1 0.1-0.1 0 0 0-0.1z"/>
		<path class="s1" d="m900.3 244h4v-1h-4l-0.3 31.5-30 0.3v1l30-0.3 0.3-31.5z"/>
		<path class="s1" d="m389.5 1047.9l16.5-0.5c-0.2-5.9-0.5-12.7-0.7-19.8l-16.4 0.5z"/>
		<path class="s1" d="m481.6 976.5l-14.7 0.2c0.1 5.3 0.3 11.9 0.5 19l14.6-0.6z"/>
		<path class="s1" d="m458.4 1053.5l49.8-1.5 0.2 8.8-49.7 1.5z"/>
		<path class="s1" d="m934.7 275.2v3-4l-30.7 0.3v1l30.7-0.3z"/>
		<path fill-rule="evenodd" class="s1" d="m780.4 1137.4l-90.2 0.3-387.6 1.1-1.6-269 477.5-49.9 0.2 29.6zm-362.2-73.7q0.1-0.2 0.2-0.4 0-0.2 0.1-0.4 0-0.2 0-0.4l-0.5-12.7q0-0.4-0.2-0.8-0.2-0.4-0.5-0.6-0.3-0.3-0.6-0.4-0.4-0.2-0.8-0.2l-5.8 0.3c-0.2-4.5-0.8-22.8-1.4-41-0.4-10.6-0.7-21.1-1-29-0.1-3.9-0.3-7.2-0.3-9.5-0.1-1.2-0.1-2.1-0.1-2.7q0-0.3 0-0.5-0.1-0.3-0.1-0.5-0.1-0.3-0.2-0.5 0-0.3-0.1-0.5 0 0 0 0.1 0 0 0.1 0.1 0 0 0 0.1 0 0 0 0.1 0-0.2-0.1-0.6c-4.1-16.2-14.5-19.2-22.5-18.9-17.1 0.7-19.8 17.9-20.2 21.3 0 0.2 0 0.6 3 83.7l-5 0.2q-0.2 0.1-0.4 0.1-0.2 0-0.4 0.1-0.2 0.1-0.3 0.2-0.2 0.1-0.3 0.3-0.2 0.1-0.3 0.3-0.1 0.2-0.1 0.4-0.1 0.1-0.1 0.3-0.1 0.2-0.1 0.4l0.6 12.8q0 0.4 0.1 0.7 0.2 0.4 0.5 0.7 0.3 0.2 0.6 0.4 0.4 0.1 0.8 0.1l53.7-2.2q0.2 0 0.4 0 0.2-0.1 0.4-0.1 0.2-0.1 0.3-0.2 0.2-0.2 0.3-0.3 0.2-0.1 0.3-0.3zm97.7-2.4q0.1-0.2 0.1-0.4 0.1-0.2 0.2-0.4 0-0.1 0-0.3l-0.4-12.8q-0.1-0.4-0.2-0.8-0.2-0.3-0.5-0.6-0.3-0.3-0.6-0.4-0.4-0.2-0.8-0.2l-5.8 0.2c-0.1-4.5-0.6-22.7-1.1-41-0.3-10.5-0.6-21.1-0.8-29-0.1-3.9-0.2-7.2-0.3-9.5-0.1-1.2-0.1-2.1 0-2.7q0-0.2-0.1-0.5 0-0.2 0-0.5-0.1-0.2-0.1-0.4-0.1-0.3-0.2-0.5 0 0 0.1 0.1 0 0 0 0 0 0.1 0 0.1 0 0 0 0.1 0-0.2-0.1-0.6c-4-16.2-14.3-19.3-22.3-19-17.1 0.6-20 17.7-20.4 21.1 0 0.2-0.1 0.6 2.4 83.8l-5 0.1q-0.4 0-0.8 0.2-0.3 0.2-0.6 0.5-0.3 0.3-0.4 0.6-0.2 0.4-0.2 0.8l0.5 12.8q0 0.4 0.1 0.7 0.2 0.4 0.5 0.6 0.3 0.3 0.6 0.5 0.4 0.1 0.8 0.1l53.7-1.8q0.2 0 0.4 0 0.2-0.1 0.4-0.2 0.2-0.1 0.3-0.2 0.2-0.1 0.3-0.2 0.2-0.2 0.3-0.3zm97.6-2.4q0.1-0.1 0.2-0.3 0-0.1 0.1-0.3 0-0.2 0-0.4l-0.2-12.7q0-0.4-0.1-0.8-0.2-0.4-0.5-0.6-0.3-0.3-0.6-0.5-0.4-0.1-0.8-0.1l-5.8 0.1c-0.1-4.5-0.2-22.8-0.4-41-0.2-10.6-0.3-21.1-0.4-29 0-4-0.1-7.3-0.1-9.6q0-1.7 0-2.7 0-0.2 0-0.5 0-0.2 0-0.5-0.1-0.2-0.1-0.5-0.1-0.2-0.2-0.5 0 0.1 0 0.1 0.1 0 0.1 0.1 0 0 0 0.1 0 0 0 0 0-0.1-0.1-0.5c-3.7-16.3-14-19.6-22-19.4-17.1 0.3-20.2 17.4-20.7 20.8 0 0.2-0.1 0.6 1 83.8l-5 0.1q-0.4 0-0.7 0.1-0.4 0.2-0.7 0.5-0.3 0.2-0.4 0.6-0.2 0.4-0.2 0.8l0.2 12.8q0.1 0.2 0.1 0.3 0 0.2 0.1 0.4 0.1 0.2 0.2 0.4 0.1 0.1 0.3 0.3 0.1 0.1 0.3 0.2 0.1 0.1 0.3 0.2 0.2 0 0.4 0.1 0.2 0 0.3 0l53.8-1q0.2 0 0.4 0 0.2-0.1 0.3-0.1 0.2-0.1 0.4-0.2 0.1-0.1 0.3-0.3 0.1-0.1 0.2-0.3zm-8.8-99.6q0 0 0 0 0 0 0 0zm107.6 99.1q0.4-0.2 0.6-0.5 0.3-0.2 0.5-0.6 0.1-0.4 0.1-0.8l-0.5-12.8q0-0.2 0-0.4 0-0.2-0.1-0.3-0.1-0.2-0.2-0.4-0.1-0.1-0.3-0.3-0.1-0.1-0.3-0.2-0.2-0.1-0.4-0.2-0.1 0-0.3-0.1-0.2 0-0.4 0l-5.9 0.2c-0.1-4.5-0.6-22.7-1.1-41-0.2-10.5-0.5-21.1-0.8-29-0.1-3.9-0.2-7.2-0.2-9.5-0.1-1.2-0.1-2.1-0.1-2.7q0-0.2 0-0.5 0-0.2-0.1-0.5 0-0.2-0.1-0.4-0.1-0.3-0.2-0.5 0.1 0 0.1 0.1 0 0 0 0 0 0.1 0 0.1 0.1 0 0.1 0.1-0.1-0.2-0.2-0.6c-4-16.2-14.3-19.3-22.3-19-17.1 0.6-20 17.7-20.4 21.1 0 0.3 0 0.6 2.5 83.8l-5 0.1q-0.2 0.1-0.4 0.1-0.2 0-0.4 0.1-0.2 0.1-0.3 0.2-0.2 0.1-0.3 0.3-0.2 0.1-0.3 0.3-0.1 0.2-0.1 0.3-0.1 0.2-0.1 0.4-0.1 0.2-0.1 0.4l0.5 12.8q0 0.4 0.2 0.7 0.1 0.4 0.4 0.7 0.3 0.2 0.6 0.4 0.4 0.1 0.8 0.1l53.7-1.8q0.4 0 0.8-0.2z"/>
		<path class="s1" d="m566.5 1022.9c0.1 7.1 0.2 13.9 0.3 19.7l14.4-0.1-0.2-19.8z"/>
		<path class="s1" d="m699.1 968.7c-0.1-5-0.2-8.3-0.3-9.3q0-0.1 0-0.2-0.1-0.1-0.1-0.2 0-0.1-0.1-0.2 0-0.1 0-0.2c-2.5-10.2-8.1-15.6-16.6-16l0.7 26.3z"/>
		<path class="s1" d="m302.8 1142.8l-0.2 34.4 479.2 2.6-1.5-38.4-477.6 1.4z"/>
		<path class="s1" d="m580.8 996.2l-14.6 0.4c0.1 7.2 0.2 14.9 0.3 22.3l14.5-0.2z"/>
		<path class="s1" d="m562.4 1046.9l49.7-1 0.2 8.8-49.7 1z"/>
		<path class="s1" d="m659.4 1047.6l49.7-1.7 0.3 8.8-49.7 1.7z"/>
		<path class="s1" d="m684.6 1041.7l16.5-0.5c-0.2-5.8-0.4-12.6-0.5-19.8l-16.5 0.5z"/>
		<path class="s1" d="m679.4 995.5l-14.6 0.6c0.2 7.2 0.5 14.9 0.7 22.3l14.5-0.4z"/>
		<path class="s1" d="m683.3 991.3l16.4-0.7c-0.2-6.7-0.3-12.9-0.5-17.9l-16.4 0.2z"/>
		<path class="s1" d="m684 1017.9l16.4-0.5c-0.2-7.6-0.4-15.5-0.6-22.8l-16.4 0.7z"/>
		<path class="s1" d="m665.6 1022.4c0.2 7.1 0.4 13.9 0.6 19.7l14.4-0.3-0.5-19.8z"/>
		<path class="s1" d="m600.9 969.7c0-4.9-0.1-8.3-0.1-9.3q-0.1-0.4-0.2-0.8c-2.4-10.2-7.9-15.7-16.3-16.2l0.2 26.3z"/>
		<path class="s1" d="m370.4 1028.8c0.2 7.1 0.5 13.9 0.7 19.7l14.4-0.5-0.6-19.7z"/>
		<path class="s1" d="m384 1001.7l-14.6 0.8c0.3 7.2 0.5 14.8 0.8 22.2l14.5-0.4z"/>
		<path class="s1" d="m585 1018.7l16.4-0.2c0-7.6-0.1-15.5-0.2-22.9l-16.4 0.5z"/>
		<path class="s1" d="m383.3 979.2l-14.7 0.3c0.2 5.3 0.4 11.8 0.7 19l14.6-0.8z"/>
		<path class="s1" d="m487.3 1045.3l16.5-0.4c-0.2-5.9-0.3-12.7-0.5-19.8l-16.5 0.4z"/>
		<path class="s1" d="m584.8 992.1l16.4-0.5c-0.1-6.7-0.2-12.8-0.2-17.9l-16.4-0.1z"/>
		<path class="s1" d="m580.6 973.6h-14.7c0.1 5.3 0.2 11.9 0.2 19l14.7-0.4z"/>
		<path class="s1" d="m382.3 949.1c-11.8 2-13.8 14.8-14.1 17.5 0 0.6 0.1 3.9 0.3 8.9l14.7-0.3z"/>
		<path class="s1" d="m364 1055.1l49.8-2 0.3 8.8-49.7 2z"/>
		<path class="s1" d="m580.3 943.5c-11.9 1.7-14.2 14.4-14.5 17.2 0 0.6 0 3.9 0.1 8.9h14.6z"/>
		<path class="s1" d="m972.2 679.2l-0.1-62-10.1-1.4 0.3 62.1 9.9 1.3z"/>
		<path class="s1" d="m298.8 1141.5l-0.3 36.7 0.3-36.7z"/>
		<path class="s1" d="m988.4 831.2l-4.4-4.8 4.8 349.3 9-2.9-0.8-146.5-2.2-188.2-6.4-6.9z"/>
		<path class="s1" d="m482.1 999.1l-14.6 0.6c0.3 7.2 0.5 14.9 0.7 22.3l14.5-0.4z"/>
		<path class="s1" d="m953.1 578.1c-3.4 0-6.1-6-6.1-13.4 0-7.4 2.7-13.4 6.1-13.4 3.4 0 6.1 6 6.1 13.4 0 7.4-2.7 13.4-6.1 13.4z"/>
		<path class="s1" d="m963.7 707.4l0.3 62.1 9.8 1.3-0.1-61.9-10-1.5z"/>
		<path class="s1" d="m678.8 972.9l-14.7 0.2c0.2 5.3 0.4 11.9 0.6 19l14.6-0.6z"/>
		<path fill-rule="evenodd" class="s1" d="m982.1 985.5l2.6 189.6-32.6-16.6q0-0.1-0.1-0.1 0 0-0.1 0 0 0 0-0.1-0.1 0-0.1 0l-1.2-154.2q0-0.4-0.1-0.7-0.1-0.2-0.3-0.5-0.2-0.3-0.4-0.4-0.3-0.2-0.6-0.3l-12.8-21.4 0.2-156.4q0 0 0 0 0-0.1 0-0.1 0 0 0 0 0-0.1 0-0.1 0 0 0 0 0 0 0-0.1 0 0 0 0 0 0 0 0 0-0.1 0-0.2 0 0-0.1-0.1 0 0 0-0.1 0 0 0-0.1-0.1 0-0.1-0.1 0-0.1-0.1-0.1 0-0.1 0-0.1-0.1-0.1-0.1-0.1l-14.7-18q-0.1-0.2-0.3-0.3-0.1-0.1-0.3-0.2-0.2-0.1-0.4-0.2-0.3 0-0.5 0l-12.2-0.3h-0.4q-0.1 0-0.1 0 0 0-0.1 0 0 0-0.1 0 0 0.1-0.1 0.1h-0.1l-0.2 0.1q-0.1 0.1-0.1 0.1 0 0-0.1 0 0 0.1 0 0.1-0.1 0-0.1 0.1 0 0 0 0 0 0 0 0-0.1 0-0.1 0 0 0 0 0 0 0.1-0.1 0.1 0 0 0 0.1-0.1 0-0.1 0.1 0 0 0 0v0.1q-0.1 0-0.1 0.1 0 0-0.1 0.1 0 0 0 0.1 0 0.1 0 0.1 0 0 0 0 0 0 0 0 0 0.1 0 0.1 0 0 0 0 0 0-0.1 0.1 0 0 0 0.1 0 0 0 0.1 0 0 0 0.1c0 0 0 0.1 0 0.1l2.6 370.7h-1l-0.3-26.8-3.7-348.4q0.1-0.1 0.1-0.2 0-0.1 0-0.2 0-0.1 0-0.2 0.1 0 0-0.1c0-2.2-0.3-33.4-0.8-72.8q0.1-0.1 0.1-0.1 0-0.1 0-0.2 0-0.1 0-0.2 0 0 0-0.1l-0.1-2.5c-0.1-8.3-0.2-17-0.3-25.9-0.1-10-0.2-20.1-0.3-30.1l-0.2-16.2c-0.1-6.3-0.1-12.5-0.2-18.6l-0.1-8.2c-0.2-18.1-0.4-34.3-0.5-46.8l0.1-8.7q0-0.1 0-0.2 0-0.2 0-0.3-0.1-0.1-0.1-0.2 0-0.2-0.1-0.3c-0.1-4.5-0.1-8.2-0.1-10.8q0 0 0 0 0 0 0.1 0 0-0.1 0-0.1 0 0 0 0l0.3-0.3q0.1-0.1 0.2-0.3 0.1-0.1 0.2-0.3 0-0.2 0.1-0.3 0-0.2 0-0.4v-0.7l49.6-57.5c13.4 21.4 43.4 69.2 46.3 74.1l3 246.2-18.9 0.1h-0.4q0 0 0 0-0.1 0.1-0.1 0.1-0.1 0-0.1 0 0 0-0.1 0h-0.1l-0.1 0.1q0 0-0.1 0 0 0.1-0.1 0.1 0 0 0 0-0.1 0-0.1 0.1l-0.2 0.2-0.2 0.2-0.2 0.2c0 0.1 0 0.1 0 0.2q-0.1 0-0.1 0 0 0 0 0 0 0 0 0.1 0 0 0.1 0-0.1 0-0.1 0.1 0 0 0 0 0 0.1 0 0.1 0 0 0 0.1c0 0.1 0 0.2 0 0.3 0 0 0 0.1 0 0.1l1.9 136.8c-3.5-11.5-11-19.5-19.7-19.5-12.7 0-22.7 14.2-22.7 32.3 0 18.9 10.6 35.6 22.7 35.6 9 0 16.8-8.6 20-20.9zm-5.9-77c0-15-6.5-26.7-15-26.7-8.4 0-15 11.7-15 26.7 0 14.9 6.6 26.6 15 26.6 8.4 0 15-11.7 15-26.6zm1.5-201.4q0-0.3-0.1-0.7-0.1-0.3-0.4-0.6-0.2-0.2-0.5-0.4-0.3-0.2-0.7-0.2l-14.1-2q-0.2-0.1-0.4 0-0.2 0-0.4 0-0.2 0.1-0.4 0.2-0.2 0.1-0.4 0.3-0.1 0.1-0.2 0.3-0.2 0.1-0.3 0.3-0.1 0.2-0.1 0.4 0 0.2 0 0.5l0.3 66.1q0 0.3 0.1 0.7 0.1 0.3 0.4 0.6 0.2 0.3 0.5 0.4 0.4 0.2 0.7 0.3l13.9 1.8q0 0.1 0 0.1 0.1 0 0.1 0 0 0 0.1 0 0 0 0-0.1 0.2 0.1 0.4 0 0.2 0 0.3-0.1 0.2 0 0.4-0.1 0.1-0.1 0.3-0.2 0.1-0.2 0.2-0.4 0.2-0.1 0.3-0.3 0-0.2 0.1-0.4 0-0.2 0-0.5l-0.1-66zm-1.6-91.6q0-0.3-0.1-0.7-0.2-0.3-0.4-0.6-0.2-0.2-0.6-0.4-0.3-0.2-0.6-0.2l-14.1-2q-0.5-0.1-0.9 0-0.4 0.1-0.7 0.4-0.3 0.3-0.5 0.7-0.2 0.4-0.2 0.9l0.3 66.1q0 0.3 0.2 0.7 0.1 0.3 0.3 0.6 0.3 0.3 0.6 0.5 0.3 0.1 0.7 0.2l13.8 1.9h0.3q0.4 0 0.7-0.2 0.4-0.1 0.7-0.4 0.3-0.3 0.4-0.7 0.2-0.3 0.2-0.7l-0.1-66zm-23-68.2c-5.7 0-10.1 7.6-10.1 17.4 0 9.8 4.4 17.4 10.1 17.4 5.7 0 10.1-7.6 10.1-17.4 0-9.7-4.4-17.4-10.1-17.4zm-16.6 60.5q-0.1 0.1-0.2 0.3-0.2 0.2-0.3 0.4-0.1 0.2-0.1 0.4 0 0.2 0 0.4l0.3 66.1q0 0.4 0.1 0.8 0.2 0.3 0.4 0.6 0.2 0.3 0.6 0.4 0.3 0.2 0.6 0.2l13.9 1.9q0 0 0 0 0.1 0 0.1 0 0 0 0.1 0 0 0 0.1 0 0.3 0 0.7-0.1 0.4-0.2 0.7-0.5 0.2-0.2 0.4-0.6 0.1-0.4 0.2-0.8l-0.1-66q0-0.3-0.2-0.7-0.1-0.3-0.3-0.6-0.3-0.3-0.6-0.5-0.3-0.1-0.7-0.2l-14-2q-0.3 0-0.5 0-0.2 0-0.4 0.1-0.2 0-0.4 0.2-0.2 0.1-0.3 0.2zm-0.4 159.5q0 0 0 0zm0 0q0 0.3 0.1 0.7 0.1 0.3 0.4 0.6 0.2 0.3 0.5 0.5 0.4 0.2 0.7 0.2l13.9 1.9h0.3q0.3 0 0.7-0.2 0.4-0.1 0.7-0.4 0.2-0.3 0.4-0.6 0.1-0.4 0.2-0.8l-0.1-66q0-0.4-0.2-0.7-0.1-0.3-0.3-0.6-0.3-0.3-0.6-0.5-0.3-0.1-0.7-0.2l-14.1-2q-0.2 0-0.4 0-0.2 0-0.4 0.1-0.2 0-0.4 0.1-0.2 0.1-0.3 0.3-0.2 0.1-0.3 0.3-0.2 0.2-0.3 0.4 0 0.2-0.1 0.4 0 0.2 0 0.4z"/>
		<path class="s1" d="m933.4 983.5l-10.1 0.4 7.8 18.3h13.5l-11.2-18.7z"/>
		<path class="s1" d="m939.9 703.4l0.3 62.1 9.8 1.3v-62l-10.1-1.4z"/>
		<path class="s1" d="m950 674.9v-61.9l-10.1-1.5 0.3 62.1 9.8 1.3z"/>
		<path class="s1" d="m868 671v-62.8h-14l0.4 62.5 13.6 0.3z"/>
		<path class="s1" d="m961.2 931.2c-6 0-10.9-10.2-10.9-22.7 0-12.6 4.9-22.7 10.9-22.7 6.1 0 11 10.1 11 22.7 0 12.5-4.9 22.7-11 22.7z"/>
		<path class="s1" d="m434.9 706.5q0.1-0.1 0.2-0.2 0.2-0.1 0.3-0.2 0.1-0.1 0.3-0.1 0.1-0.1 0.3-0.1l383.5-60.1v-1l-383.5 60.1q-0.2 0-0.3 0.1-0.2 0-0.3 0.1-0.1 0.1-0.3 0.2-0.1 0.1-0.2 0.2l-144.9 144.7q-0.2 0.1-0.3 0.4-0.1 0.2-0.2 0.4-0.1 0.3-0.1 0.6 0 0.2 0.1 0.5 0-0.2 0.1-0.3 0-0.1 0.1-0.2 0.1-0.1 0.1-0.2 0.1-0.1 0.2-0.2z"/>
		<path class="s1" d="m844.7 707.8l-20.4 3q0 0-0.1 0 0 0.1-0.1 0.1 0 0-0.1-0.1 0 0-0.1 0-0.1 0-0.3 0-0.1 0-0.3-0.1-0.1-0.1-0.3-0.1-0.1-0.1-0.2-0.2-0.1-0.1-0.2-0.1 0-0.1-0.1-0.2 0 0-0.1-0.1 0-0.1-0.1-0.1 0-0.1-0.1-0.2 0-0.1 0-0.2-0.1-0.1-0.1-0.2 0-0.1 0-0.2 0 0 0 0 0-0.1 0-0.1 0 0 0 0 0-0.1 0-0.1l-2.4-59.1-382.4 60-140.4 140.2 482.4-54.4 60.7-81.5z"/>
		<path fill-rule="evenodd" class="s1" d="m823.7 647.5q0-0.1 0-0.1 0-0.1-0.1-0.2 0 0 0-0.1 0 0 0-0.1l-3.1-79.3 37.2-47.8 3.1-3.7 6.9 7.6 25.1 28.7-12.7 0.1q-0.4 0-0.8 0.1-0.3 0.2-0.6 0.5-0.3 0.3-0.4 0.6-0.2 0.4-0.2 0.8v15.9q0 0.4 0.2 0.7 0.1 0.4 0.4 0.7 0.3 0.3 0.6 0.4 0.4 0.2 0.8 0.2h16.9l0.1 7.1-17 0.1q-0.4 0-0.8 0.2-0.3 0.1-0.6 0.4-0.3 0.3-0.5 0.7-0.1 0.3-0.1 0.7v14.6q0 0.4 0.1 0.8 0.2 0.3 0.5 0.6 0.3 0.3 0.6 0.4 0.4 0.2 0.8 0.2l16.9 0.2v8.5l-14.6 0.2q-0.3 0-0.7 0.2-0.4 0.1-0.7 0.4-0.2 0.3-0.4 0.6-0.1 0.4-0.2 0.8v16.3q0.1 0.3 0.2 0.7 0.1 0.4 0.4 0.6 0.3 0.3 0.6 0.5 0.4 0.1 0.8 0.2l15.1 0.5 0.1 8.6-15.1-0.2q-0.2 0-0.4 0.1-0.2 0-0.4 0.1-0.2 0.1-0.4 0.2-0.1 0.1-0.3 0.2-0.1 0.2-0.2 0.3-0.1 0.2-0.2 0.4-0.1 0.2-0.1 0.3-0.1 0.2-0.1 0.4v14.4q0.1 0.4 0.2 0.8 0.2 0.4 0.4 0.6 0.3 0.3 0.7 0.5 0.4 0.1 0.7 0.1l15.4 0.1 0.2 12.2-15.3-0.3q-0.2 0-0.4 0.1-0.2 0-0.3 0.1-0.2 0.1-0.4 0.2-0.2 0.1-0.3 0.2-0.1 0.2-0.3 0.3-0.1 0.2-0.1 0.4-0.1 0.2-0.2 0.3 0 0.2 0 0.4v15.2q0 0.4 0.1 0.8 0.2 0.3 0.5 0.6 0.2 0.3 0.6 0.4 0.4 0.2 0.7 0.2l15.6 0.6 0.1 10.6-16.2-0.5q-0.2 0-0.4 0.1-0.2 0-0.4 0.1-0.1 0-0.3 0.1-0.2 0.2-0.3 0.3-0.2 0.1-0.3 0.3-0.1 0.2-0.2 0.4-0.1 0.2-0.1 0.4 0 0.2 0 0.4l0.4 13.5q0 0.4 0.1 0.7 0.2 0.4 0.4 0.6 0.3 0.3 0.6 0.4 0.4 0.2 0.8 0.2l15.8 0.8 0.4 7.2v3.4l-15.8-1q-0.4 0-0.8 0.1-0.4 0.2-0.7 0.4-0.3 0.3-0.5 0.7-0.1 0.4-0.1 0.8v2l-0.2 12.4q0 0.4 0.1 0.8 0.2 0.3 0.4 0.6 0.3 0.3 0.7 0.4 0.4 0.2 0.8 0.2h15.8l0.6 10.1v0.3h-16.5q-0.4 0-0.8 0.1-0.3 0.2-0.6 0.4-0.3 0.3-0.5 0.7-0.1 0.4-0.1 0.8v14.9q0 0.4 0.1 0.7 0.2 0.4 0.5 0.7 0.3 0.3 0.6 0.4 0.4 0.2 0.8 0.2l16.1 0.2v9.5l-14.4-0.1q-0.2 0-0.4 0-0.2 0.1-0.4 0.2-0.1 0-0.3 0.1-0.2 0.1-0.3 0.3-0.1 0.1-0.2 0.3-0.2 0.1-0.2 0.3-0.1 0.2-0.2 0.4 0 0.2 0 0.4v17.2q0 0.4 0.2 0.8 0.1 0.3 0.4 0.6 0.3 0.3 0.6 0.5 0.4 0.1 0.8 0.1l15.3-0.1 3.6 339.3 0.4 35.7-3.1 2.8-3.8-176.5q0.1 0 0.1 0 0 0 0 0 0 0 0-0.1 0 0-0.1 0v-0.1l-2.6-18.4q0 0 0 0 0-0.1 0-0.1 0 0 0-0.1 0 0 0 0l2.6-159.7c0-0.1 0 0 0-0.1q0-0.1 0-0.1l-1-19.1q0-0.4-0.1-0.7-0.2-0.4-0.5-0.7-0.3-0.2-0.7-0.4-0.3-0.1-0.7-0.1l-8.6 0.3q-0.3 0-0.5 0.1-0.2 0-0.4 0.1-0.2 0.1-0.4 0.3-0.2 0.2-0.3 0.3l-13 18.9q0 0-0.1 0.1 0 0.1 0 0.1-0.1 0.1-0.1 0.1 0 0.1 0 0.1 0 0 0 0.1 0 0 0 0 0 0 0 0 0 0 0 0 0 0.1 0 0.1-0.1 0.1-0.1 0.1 0 0.1 0 0.1 0 0.1 0 0.1 0 0.1 0 0.2 0 0 0 0 0 0 0 0 0 0 0 0 0 0 0 0.1l4 159.2-11 18.9q0 0 0 0 0 0 0 0 0 0.1 0 0.1 0 0 0 0 0 0 0 0.1 0 0-0.1 0.1 0 0 0 0 0 0.1 0 0.1v0.1q0 0.1-0.1 0.2 0 0 0 0.1 0 0 0 0.1 0 0 0 0.1l1.7 164-13.5-0.9v-463.1q0-0.1 0-0.1 0-0.1 0-0.2 0 0 0-0.1 0 0 0-0.1v-0.2q0 0 0-0.1 0 0 0 0 0-0.1-0.1-0.1 0 0 0-0.1c0-0.1 0-0.1 0-0.1v-0.1q-0.1 0-0.1 0 0-0.1-0.1-0.1 0 0 0-0.1 0 0-0.1 0v-0.1h-0.1-0.1q0-0.1-0.1-0.1 0 0 0 0-0.1 0-0.1-0.1 0 0 0 0h-0.2-1l-23 3.4zm26.7-42.4q-0.1 0.2-0.2 0.4-0.1 0.2-0.1 0.4-0.1 0.2-0.1 0.4l0.6 66.3q0 0.4 0.1 0.8 0.2 0.4 0.4 0.6 0.3 0.3 0.7 0.5 0.3 0.1 0.7 0.1l17.5 0.4q0.2 0 0.4 0 0.2-0.1 0.4-0.1 0.2-0.1 0.3-0.2 0.2-0.1 0.3-0.3 0.2-0.1 0.3-0.3 0.1-0.1 0.2-0.3 0.1-0.2 0.1-0.4 0.1-0.2 0-0.4v-66.7q0-0.4-0.1-0.8-0.2-0.4-0.4-0.7-0.3-0.2-0.7-0.4-0.4-0.1-0.8-0.1h-18q-0.1-0.1-0.3 0-0.2 0-0.4 0.1-0.2 0.1-0.4 0.2-0.1 0.1-0.3 0.2-0.1 0.2-0.2 0.3z"/>
		<path class="s1" d="m1002.6 990.4l3.4 4.7 6 6.4q0.1 0 0.2 0 0.1-0.1 0.2-0.1 0.1 0 0.2 0 0.1-0.1 0.2-0.1l14.2-0.1-9.8-11.4z"/>
		<path class="s1" d="m785.8 1179.5l61.5-11v-38l-62.9 10.6 1.4 38.4z"/>
		<path class="s1" d="m909.8 814.7l2.6 362 5.1 0.2-0.1-142.5-1.6-208-6-11.7z"/>
		<path class="s1" d="m784.3 1137l63-11v-414.8l-64.9 87 0.4 78.9 1.5 259.9z"/>
		<path fill-rule="evenodd" class="s1" d="m1072.4 472.3v738.9h-822.4l-0.9-739c0-194.1 189.6-352.9 414.4-352.9 224.9 0 408.9 158.9 408.9 353zm-37.5 705.2q0.1-0.2 0.3-0.4 0.1-0.2 0.2-0.4 0-0.3 0.1-0.5 0-0.1 0-0.2 0.1-0.1 0.1-0.2 0-0.2 0-0.3 0.1-0.1 0-0.2c0 0 0-1 0-1l-2-172.2q0-0.3-0.1-0.6-0.1-0.2-0.3-0.5-0.2-0.2-0.4-0.4-0.3-0.2-0.6-0.3l-12.3-14.3-0.9-151q0 0 0-0.1 0 0 0-0.1 0 0 0-0.1 0 0 0-0.1 0 0 0 0 0 0 0 0 0 0 0-0.1 0 0 0 0 0 0 0-0.1 0 0 0 0 0 0 0-0.1 0 0-0.1 0v-0.1q0 0 0-0.1 0 0 0 0 0 0 0 0 0 0 0 0l-0.1-0.2q0 0 0 0 0 0 0 0-0.1-0.1-0.1-0.1 0 0 0 0 0 0 0 0 0-0.1 0-0.1-0.1 0-0.1 0 0 0 0 0l-13.8-14.5-3-242.8 3.3 5q0.2 0.3 0.5 0.5 0.3 0.3 0.7 0.4 0.4 0.1 0.8 0 0.4-0.1 0.7-0.2 0.3-0.4 0.5-0.9 0.2-0.4 0.3-0.9 0.1-0.4 0.1-0.9 0-0.5-0.1-1l-103.1-204.3c12.6-1.3 22.5-9.7 22.5-19.9 0-0.1 0-0.3 0-0.5q0-0.2 0-0.5c0-10.7-10.9-19.4-24.5-20l0.5-53.7 30.7-0.4v-5l-30.6 0.4 0.3-30.5v-1h-4l-0.3 31.5-30.1 0.3v5l30-0.3-0.5 53.8c-13.1 1-23.3 9.6-23.3 19.9q0 0.3 0 0.6 0 0.2 0 0.4c0 10.2 9.9 18.7 22.6 19.9l-87.8 194.4q-0.1 0.5-0.1 0.9 0 0.5 0.1 1 0.1 0.4 0.3 0.9 0.2 0.4 0.5 0.7 0.1 0.1 0.2 0.2 0.1 0 0.3 0.1 0.1 0 0.2 0 0.2 0 0.3 0 0.2 0 0.4 0 0.3-0.1 0.5-0.1 0.2-0.1 0.3-0.3 0.2-0.1 0.3-0.3l2.2-2.5 3 75.7-383.5 60.1q-0.2 0-0.3 0.1-0.2 0-0.3 0.1-0.1 0.1-0.3 0.2-0.1 0.1-0.2 0.2l-144.9 144.7q-0.2 0.4-0.3 0.8-0.1 0.4-0.2 0.8 0 0.4 0 0.8 0 0.4 0.1 0.9 0.1 0.2 0.3 0.4 0.2 0.2 0.5 0.4 0.2 0.1 0.5 0.2 0.2 0.1 0.5 0.1h0.2l5.3-0.6 1.9 286.6q0 0.1 0 0.2 0.1 0.1 0.1 0.2 0 0.1 0 0.2 0.1 0.1 0.1 0.1l-0.2 36.7v1q0 0.2 0 0.4 0.1 0.2 0.1 0.4 0.1 0.2 0.2 0.3 0.1 0.2 0.3 0.3 0.1 0.2 0.3 0.3 0.1 0.1 0.3 0.2 0.2 0.1 0.4 0.1 0.2 0 0.4 0l483.3 2.7q0.1 0 0.1 0 0 0 0.1 0 0 0 0.1 0 0 0 0.1 0l65.1-11.7 15.4 1v6.3q0 0 0 0 0 0.1 0 0.1 0 0 0 0.1 0 0 0 0c0 0.1 0 0.1 0 0.1q0 0.1 0 0.1 0 0 0 0.1 0 0 0 0 0 0 0 0.1c0 0 0 0.1 0 0.1q0 0 0 0 0.1 0.1 0.1 0.1 0 0 0 0 0 0.1 0 0.1 0 0 0 0 0 0 0 0 0 0 0 0.1 0.1 0 0.1 0l0.1 0.1q0 0.1 0 0.1 0 0 0 0 0 0 0 0 0 0 0.1 0.1l0.2 0.2 0.1 0.1 0.2 0.1 0.1 0.1h0.2q0 0.1 0.1 0.1 0 0 0.1 0 0 0 0 0 0.1 0 0.1 0l31.6 5.9q0.1 0 0.1 0 0.1 0 0.1 0 0.1 0 0.1 0 0.1 0 0.1 0h0.5l0.2-0.1 0.3-0.1 0.2-0.1q0 0 0-0.1 0 0 0 0 0.1 0 0.1 0 0 0 0 0l6.4-5.8 14.2 0.2 7.8 6.5q0.1 0 0.1 0.1 0.1 0 0.1 0 0.1 0.1 0.2 0.1 0 0 0.1 0.1 0 0.1 0.1 0.2 0.1 0.1 0.1 0.2 0.1 0.1 0.2 0.2 0.1 0.1 0.2 0.1 0.1 0.1 0.3 0.2 0.1 0.1 0.3 0.1 0.1 0.1 0.3 0.1 0.1 0.1 0.3 0 0.1 0.1 0.1 0 0.1 0 0.2 0 0 0 0.1 0 0.1 0 0.1 0l10.9-3 8.9-2.3q0.3-0.1 0.6-0.3 0.3-0.2 0.5-0.4 0.2-0.3 0.3-0.6 0.1-0.3 0.1-0.6l0.9-18.4 32.8 16.7q0 0 0.1 0.1 0 0 0 0 0.1 0 0.1 0 0.1 0 0.1 0 0.1 0 0.1 0.1 0.1 0 0.2 0 0 0 0.1 0 0.1 0 0.1 0h0.1q0.1 0 0.1 0 0.1 0 0.1 0 0.1 0 0.1 0 0.1 0 0.2 0l12-2.9 11.9 9.2q0.1 0.1 0.2 0.3 0.2 0.1 0.3 0.2 0.2 0 0.4 0.1 0.2 0 0.3 0h0.9 0.1 0.1l20.8-9.4q0.3-0.1 0.5-0.3z"/>
		<path class="s1" d="m886.1 808.8l-10.3 14.9h16.6l-0.7-15.1-5.6 0.2z"/>
		<path class="s1" d="m930.8 822.8l-11.7-14.3-8-0.2 7.8 15.5c1.6-0.1 4.9-0.4 11.9-1z"/>
		<path class="s1" d="m1012.7 834.3l-8.8-9.2-1.9-2-15.6 0.1 11.2 12.1c1.6-0.2 5.5-0.4 15.1-1z"/>
		<path class="s1" d="m932.5 979.6l0.2-152.9-12.9 1.1c0.2 16.2 2.2 135 2.5 152.2z"/>
		<path class="s1" d="m932.7 826.7c-4.6 0.3-10.2 0.8-12.9 1.1z"/>
		<path class="s1" d="m998.8 839.2c0.2 16.1 1.8 130.4 2.1 147.3l15.1-0.7-0.8-147.6z"/>
		<path class="s1" d="m998.8 839.2l16.4-1c-5.9 0.3-13.1 0.8-16.4 1z"/>
		<path class="s1" d="m921.3 990.9v43.6l1.1 142.7q0.2 0.1 0.3 0.1 0.2 0 0.3 0.1 0.2 0.1 0.3 0.1 0.1 0.1 0.2 0.2l3.9 3.4-0.7-177.5z"/>
		<path class="s1" d="m874 827.7l3.9 155.7h12l2.6-155.7h-18.5z"/>
		<path class="s1" d="m868.5 1003l23.7-0.6-2.1-15h-13l-8.6 15.6z"/>
		<path class="s1" d="m868.8 1177.8l27.6 5-3.8-176.4-15.4 0.4-10.2 0.3 1.7 163.7q0 0.1 0 0.1 0.1 0.1 0.1 0.1 0 0.1 0 0.2 0 0 0 0.1z"/>
		<path class="s1" d="m924 354.2c0-8.8-9.8-16-21.9-16-12.1 0-21.9 7.2-21.9 16 0 8.9 9.8 16 21.9 16 12.1 0 21.9-7.1 21.9-16z"/>
		<path class="s1" d="m884.7 728.7l-0.2 10.3h14.2l-0.1-9.5-13.9-0.8z"/>
		<path class="s1" d="m886.1 785.9v13.2l13.3-0.1-0.2-13-13.1-0.1z"/>
		<path class="s1" d="m882.1 583.7v10.6l15.1 0.2-0.1-10.9-15 0.1z"/>
		<path class="s1" d="m884.5 611.2v12.3l13 0.5-0.1-13-12.9 0.2z"/>
		<path class="s1" d="m884.1 700.7l0.3 9.5 14.1 0.7-0.2-9.7-14.2-0.5z"/>
		<path class="s1" d="m884.5 640.5v10.3l13.3 0.1-0.1-10.3-13.2-0.1z"/>
		<path class="s1" d="m884.7 670.9v11.2l13.4 0.4-0.1-11.4-13.3-0.2z"/>
		<path class="s1" d="m896.2 556.5l-14.1 0.1v11.9h14.8l-0.1-11.4-0.6-0.6z"/>
		<path class="s1" d="m884.5 757.4v10.9l14.6 0.2-0.2-11.1h-14.4z"/>
		<path class="s1" d="m899.7 382.9l-79.1 175 34-40.5 4.4-5.6q0.1-0.2 0.3-0.3 0.2-0.2 0.4-0.3 0.2-0.1 0.4-0.1 0.2-0.1 0.4-0.1h0.2 0.2q0.2 0 0.4 0.1 0.2 0 0.4 0.1 0.2 0.1 0.4 0.2 0.2 0.1 0.3 0.3l8.3 9.5 26.9 29.5z"/>
		<path class="s1" d="m859 511.8l-4.4 5.6 4.8-5.7q0.1-0.1 0.3-0.2 0.1-0.2 0.3-0.2 0.2-0.1 0.4-0.2 0.1 0 0.3-0.1h-0.2q-0.2 0-0.4 0.1-0.2 0.1-0.4 0.2-0.2 0-0.4 0.2-0.2 0.1-0.3 0.3z"/>
		<path class="s1" d="m870.6 521.1l26.9 30.7v-1.1l-26.9-29.6z"/>
		<path class="s1" d="m950.3 494l0.2-0.2 0.1-0.1 0.2-0.1 0.2-0.1h0.2q0 0 0-0.1 0.1 0 0.1 0 0.1 0 0.1 0 0 0 0.1 0h0.1q0.1 0 0.1 0 0.1 0 0.1 0 0 0 0.1 0 0 0 0 0 0.1 0 0.1 0 0.1 0 0.2 0 0 0 0.1 0 0 0.1 0.1 0.1 0 0 0 0 0.1 0 0.1 0 0 0 0 0 0.1 0 0.1 0.1l0.2 0.1q0 0 0 0 0.1 0 0.1 0 0 0 0 0.1 0.1 0 0.1 0l0.2 0.1q0 0.1 0 0.1 0 0 0 0 0.1 0.1 0.1 0.1 0 0 0 0 0 0.1 0.1 0.1 0 0 0 0 0 0 0 0.1 0 0 0 0l34.7 53.6-84.4-167.4-1.8 168.3z"/>
		<path class="s1" d=""/>
		<path class="s1" d="m951.9 493.4q0.1-0.1 0.1-0.1 0 0 0.1 0 0 0 0 0 0 0 0.1 0.1-0.1-0.1-0.1-0.1 0 0 0 0-0.1 0-0.1 0 0 0 0 0.1z"/>
		<path class="s1" d=""/>
		<path class="s1" d="m951.2 493.5h-0.2z"/>
		<path class="s1" d="m950.8 493.6l-0.2 0.1z"/>
		<path class="s1" d="m952.6 493.5q0 0 0 0-0.1 0-0.1 0 0 0 0 0-0.1-0.1-0.1-0.1 0 0 0.1 0.1 0 0 0 0 0 0 0.1 0 0 0 0 0z"/>
		<path class="s1" d="m901.9 548.8v1.3l48.4-56.1q0 0 0 0 0-0.1 0.1-0.1 0 0 0 0 0-0.1 0.1-0.1l-0.2 0.2z"/>
		<path class="s1" d="m953.2 493.9q0 0 0 0.1 0 0 0.1 0 0 0 0 0.1 0 0 0 0 0 0 0 0 0-0.1 0-0.1-0.1 0-0.1 0 0-0.1 0-0.1z"/>
		<path class="s1" d="m953 493.8q0 0 0-0.1-0.1 0-0.1 0 0 0 0 0-0.1-0.1-0.1-0.1 0 0 0.1 0.1 0 0 0 0 0 0 0.1 0 0 0.1 0 0.1z"/>
		<path class="s1" d="m901.9 550.1v-1.3l-0.4 0.4v1.3l0.4-0.4z"/>
		<path class="s1" d="m932.5 1184.4l8.3-2.1 7.2-2-1.3-173.9h-15c0.1 20.1 0.7 157 0.8 178z"/>
		<path class="s1" d="m931.7 1006.2v0.2h15v-0.2z"/>
		<path class="s1" d="m932.5 1184.5l8.3-2.2-8.3 2.1z"/>
		<path class="s1" d="m1010.8 1010.4v-4.1h-0.6-0.1q-0.3 0-0.5 0-0.2-0.1-0.4-0.2-0.3-0.1-0.4-0.3-0.2-0.1-0.4-0.3l-5.5-7.9-2.1-2.2 0.2 30.8 1.7 147.7q0 0.1 0 0.2 0 0.2 0 0.3-0.1 0.1-0.1 0.2-0.1 0.2-0.1 0.3l8.3 6.4z"/>
		<path class="s1" d="m1002.9 997.7l5.5 7.8q0.2 0.2 0.4 0.4 0.1 0.1 0.4 0.2 0.2 0.1 0.4 0.2 0.2 0.1 0.5 0.1h0.1 0.6v-0.2z"/>
		<path class="s1" d="m1014.8 1006.1v176l16.8-8-2.1-168.7z"/>
		<path class="s1" d="m1014.8 1005.3v0.8l14.7-0.7v-0.2l-14.7 0.1z"/>
		<path class="s1" d="m1031.6 1174.2l0.2-0.1-2.1-168.7h-0.2l2.1 168.8z"/>
		<path class="s1" d="m1029.7 1005.4v-0.2h-0.2v0.2h0.2z"/>
		<path class="s1" d=""/>
		<path class="s1" d=""/>
	</g>
</svg>