<svg version="1.2" xmlns="http://www.w3.org/2000/svg" viewBox="0 0 600 600" width="600" height="600"><style>.a{fill:#010101}.b{fill:#fff}</style><path class="a" d="m600 0v600h-600v-600z"/><path class="b" d="m451 441.8c-4.8 0-8.8 6-8.8 13.3 0 7.7 4.2 14.8 8.8 14.8 4.5 0 8.3-6.3 8.3-14.1 0-7.7-3.7-14-8.3-14z"/><path class="b" d="m274.3 488.6h7.7c0-2.8 0-6 0-9.3l-7.8 0.1z"/><path class="b" d="m235.2 455.8c0-2.4-0.1-3.9-0.1-4.4q0 0 0-0.1 0 0 0-0.1-0.1 0-0.1-0.1 0 0 0-0.1-1.8-7.2-7.8-7.4l0.4 12.3z"/><path class="b" d="m471 384.5l6.5 6.7q0 0.1 0 0.1 0 0 0 0 0 0 0 0 0 0 0 0 0 0 0 0 0 0 0 0 0.1 0 0.1 0.1 0 0 0 0 0 0 0 0 0 0.1 0 0.1 0 0 0 0 0 0 0 0 0 0.1 0.1 0.1c0 0.1 0 0.1 0 0.1q0 0 0 0 0 0.1 0 0.1 0 0 0 0 0 0.1 0 0.1l0.4 70.8 5.8 6.6q0.1 0.1 0.2 0.2 0.1 0.1 0.2 0.2 0.1 0.1 0.1 0.2 0.1 0.2 0.1 0.3l1 80.3q0 0 0 0l-1-80.8q0-0.1-0.1-0.2 0-0.2-0.1-0.3-0.1-0.1-0.2-0.2-0.1-0.1-0.2-0.1l-5.8-6.7-0.4-70.8q0 0 0 0 0-0.1 0-0.1 0 0 0 0 0 0 0-0.1 0 0 0 0 0 0 0 0 0 0 0 0 0 0 0 0 0 0 0-0.1 0 0 0 0 0 0 0 0 0 0 0 0v-0.1q0 0 0 0 0 0 0 0 0 0 0 0 0 0 0 0l-0.1-0.1q0 0 0 0 0 0 0 0 0 0 0 0 0-0.1 0-0.1 0 0 0 0 0 0-0.1 0 0 0 0 0 0 0 0 0l-6.4-6.8-1.4-113.8z"/><path class="b" d="m472.8 271.6q0 0 0 0.1 0 0 0 0 0 0 0 0 0 0.1 0 0.1 0.1-0.1 0.1-0.2 0-0.1 0-0.1 0-0.1-0.1-0.2 0-0.1 0-0.2l-48.4-95.7h-0.2z"/><path class="b" d="m181.8 467.6l7.7-0.4c-0.1-3.1-0.2-6-0.3-8.4l-7.7 0.2z"/><path class="b" d="m189.2 456.9c-0.1-2.3-0.2-3.8-0.2-4.3q-0.1-0.2-0.1-0.4c-1.2-4.8-3.9-7.3-7.8-7.4l0.4 12.3z"/><path class="b" d="m227.8 466.4l7.7-0.4c-0.1-3.1-0.2-6-0.2-8.4l-7.7 0.1z"/><path class="b" d="m228.2 478.8l7.7-0.2c-0.1-3.6-0.2-7.2-0.3-10.7l-7.7 0.3z"/><path class="b" d="m182.2 480.1l7.7-0.3c-0.1-3.6-0.2-7.3-0.3-10.7l-7.7 0.4z"/><path class="b" d="m435 165.8q0-0.1 0-0.2c0-5-5.1-9.1-11.5-9.4v0.5c6.3 0.2 11.3 4.2 11.5 9.1z"/><path class="b" d="m219.5 480.9c0.1 3.4 0.2 6.6 0.3 9.3l6.8-0.2-0.3-9.2z"/><path class="b" d="m421.6 156.7l0.3-25.7-0.3 25.2c-6.1 0.5-10.9 4.5-10.9 9.4q0 0.1 0 0.2c0.2-4.7 4.9-8.6 10.9-9.1z"/><path class="b" d="m364.9 382.4v-7.5l-223.9 25.6 0.1 5.3 223.8-23.4z"/><path class="b" d="m317.8 442c-5.5 0.8-6.5 6.8-6.7 8.1 0 0.3 0.1 1.8 0.2 4.2l6.8-0.1z"/><path class="b" d="m225.4 443.7c-5.6 0.8-6.6 6.8-6.7 8.1 0 0.3 0 1.8 0.1 4.2l6.9-0.1z"/><path class="b" d="m421.5 175.4h-0.2l-41.1 91.1q-0.1 0.1-0.1 0.1 0 0.1 0 0.2 0 0.1 0 0.2 0 0 0 0.1 0 0 0 0 0 0 0-0.1 0 0 0 0 0 0 0.1 0z"/><path class="b" d="m422 114.4h1.9v-0.5h-1.9l-0.1 14.8-14.1 0.1v0.5l14.1-0.2 0.1-14.7z"/><path class="b" d="m182.6 491.2l7.7-0.2c-0.1-2.8-0.2-6-0.3-9.3l-7.7 0.2z"/><path class="b" d="m225.7 457.7l-6.8 0.1c0 2.5 0.1 5.6 0.2 8.9l6.9-0.3z"/><path class="b" d="m214.9 493.8l23.3-0.7 0.1 4.2-23.3 0.7z"/><path class="b" d="m438.1 129v1.4h0.1l-0.1-1.9-14.3 0.2v0.4l14.3-0.1z"/><path fill-rule="evenodd" class="b" d="m365.8 533.2l-42.3 0.1-181.6 0.5-0.8-126.1 223.8-23.4 0.1 13.9zm-169.8-34.6q0.1 0 0.1-0.1 0-0.1 0.1-0.2 0-0.1 0-0.2l-0.3-6q0-0.2-0.1-0.3 0-0.2-0.2-0.3-0.1-0.2-0.3-0.2-0.2-0.1-0.3-0.1l-2.8 0.1c-0.1-2.1-0.3-10.6-0.6-19.2-0.2-4.9-0.4-9.9-0.5-13.6 0-1.8-0.1-3.3-0.1-4.4q-0.1-0.8-0.1-1.3 0-0.1 0-0.2 0-0.1 0-0.3-0.1-0.1-0.1-0.2 0-0.1-0.1-0.2 0 0 0 0 0.1 0 0.1 0.1 0 0 0 0 0 0 0 0 0 0-0.1-0.2c-1.9-7.6-6.7-9-10.5-8.9-8 0.4-9.3 8.4-9.5 10 0 0.1 0 0.3 1.4 39.3l-2.3 0.1q-0.1 0-0.2 0-0.1 0-0.2 0-0.1 0.1-0.1 0.1-0.1 0.1-0.2 0.2 0 0-0.1 0.1 0 0.1-0.1 0.2 0 0.1 0 0.1 0 0.1 0 0.2l0.2 6q0 0.2 0.1 0.4 0.1 0.1 0.2 0.3 0.1 0.1 0.3 0.2 0.2 0 0.4 0l25.2-1q0 0 0.1 0 0.1 0 0.2-0.1 0.1 0 0.2-0.1 0 0 0.1-0.1 0.1-0.1 0.1-0.2zm45.8-1.1q0.1-0.1 0.1-0.1 0-0.1 0.1-0.2 0-0.1 0-0.2l-0.2-6q0-0.2-0.1-0.3-0.1-0.2-0.2-0.3-0.2-0.2-0.3-0.2-0.2-0.1-0.4-0.1l-2.7 0.1c-0.1-2.1-0.3-10.7-0.5-19.2-0.2-5-0.3-9.9-0.4-13.6-0.1-1.9-0.1-3.4-0.1-4.5q-0.1-0.8-0.1-1.3 0-0.1 0-0.2 0-0.1 0-0.2 0-0.1-0.1-0.2 0-0.1 0-0.2 0 0 0 0 0 0 0 0 0 0 0 0 0 0.1 0 0.1 0-0.1 0-0.3c-1.9-7.6-6.8-9-10.5-8.9-8 0.3-9.4 8.3-9.5 9.9-0.1 0.1-0.1 0.3 1.1 39.3h-2.4q-0.2 0-0.3 0.1-0.2 0.1-0.3 0.2-0.2 0.2-0.2 0.3-0.1 0.2-0.1 0.4l0.2 6q0 0.2 0.1 0.3 0.1 0.2 0.2 0.3 0.1 0.2 0.3 0.2 0.2 0.1 0.3 0.1h0.1l25.2-0.8q0 0 0.1-0.1 0.1 0 0.2 0 0.1-0.1 0.2-0.1 0-0.1 0.1-0.1 0.1-0.1 0.1-0.2zm45.8-1.1q0 0 0.1-0.1 0-0.1 0-0.2 0-0.1 0-0.1l-0.1-6q0-0.2 0-0.4-0.1-0.2-0.2-0.3-0.2-0.1-0.3-0.2-0.2-0.1-0.4-0.1l-2.7 0.1c-0.1-2.1-0.1-10.7-0.2-19.2-0.1-5-0.1-9.9-0.2-13.6 0-1.9 0-3.4 0-4.5q0-0.8 0-1.3 0-0.1 0-0.2 0-0.1-0.1-0.2 0-0.2 0-0.3 0-0.1-0.1-0.2 0 0 0 0 0 0 0 0.1 0.1 0 0.1 0 0 0 0 0-0.1-0.1-0.1-0.2c-1.7-7.6-6.6-9.2-10.3-9.1-8 0.1-9.5 8.1-9.7 9.7 0 0.2 0 0.3 0.5 39.3l-2.4 0.1q-0.2 0-0.3 0-0.2 0.1-0.3 0.2-0.2 0.2-0.2 0.3-0.1 0.2-0.1 0.4l0.1 6q0 0.1 0 0.2 0 0.1 0.1 0.1 0 0.1 0.1 0.2 0 0.1 0.1 0.1 0 0.1 0.1 0.2 0.1 0 0.2 0 0.1 0.1 0.2 0.1 0 0 0.1 0l25.2-0.5q0.1 0 0.2 0 0.1 0 0.2 0 0.1-0.1 0.1-0.1 0.1-0.1 0.2-0.1 0-0.1 0.1-0.2zm-4.1-46.7q0 0 0 0 0 0 0 0zm50.4 46.5q0.2-0.1 0.3-0.2 0.1-0.2 0.2-0.4 0.1-0.1 0-0.3l-0.2-6q0-0.1 0-0.2 0-0.1 0-0.2-0.1 0-0.1-0.1-0.1-0.1-0.2-0.2 0 0-0.1-0.1-0.1 0-0.2-0.1-0.1 0-0.1 0-0.1 0-0.2 0l-2.8 0.1c0-2.1-0.2-10.7-0.5-19.2-0.1-5-0.2-9.9-0.4-13.6 0-1.9 0-3.4-0.1-4.5q0-0.8 0-1.2 0-0.2 0-0.3 0-0.1-0.1-0.2 0-0.1 0-0.2 0-0.1-0.1-0.2 0 0 0 0 0 0 0.1 0 0 0 0 0.1 0 0 0 0 0-0.1-0.1-0.3c-1.9-7.6-6.7-9-10.5-8.9-8 0.3-9.3 8.3-9.5 9.9 0 0.1 0 0.3 1.1 39.3l-2.3 0.1q-0.1 0-0.2 0-0.1 0-0.2 0 0 0.1-0.1 0.1-0.1 0.1-0.2 0.2 0 0-0.1 0.1 0 0.1 0 0.2-0.1 0.1-0.1 0.1 0 0.1 0 0.2l0.2 6q0 0.2 0.1 0.4 0.1 0.1 0.2 0.3 0.1 0.1 0.3 0.2 0.2 0 0.3 0h0.1l25.1-0.8q0.2 0 0.4-0.1z"/><path class="b" d="m265.6 479.5c0 3.3 0.1 6.5 0.1 9.2h6.8l-0.1-9.3z"/><path class="b" d="m327.7 454.1c-0.1-2.4-0.1-3.9-0.1-4.4q0 0-0.1-0.1 0 0 0-0.1 0 0 0-0.1 0 0 0-0.1c-1.2-4.8-3.8-7.3-7.8-7.4l0.3 12.3z"/><path class="b" d="m141.9 535.7l-0.1 16.1 224.7 1.2-0.7-18-223.9 0.7z"/><path class="b" d="m272.3 467l-6.9 0.1c0 3.4 0.1 7 0.1 10.5l6.9-0.1z"/><path class="b" d="m263.6 490.7l23.3-0.4 0.1 4.1-23.3 0.4z"/><path class="b" d="m309.1 491.1l23.3-0.8 0.1 4.1-23.3 0.8z"/><path class="b" d="m320.9 488.3l7.7-0.2c0-2.8-0.1-6-0.2-9.3l-7.7 0.2z"/><path class="b" d="m318.5 466.6l-6.9 0.3c0.1 3.4 0.2 7 0.3 10.5l6.9-0.2z"/><path class="b" d="m320.3 464.7l7.7-0.4c-0.1-3.1-0.2-6-0.2-8.4l-7.7 0.1z"/><path class="b" d="m320.6 477.1l7.7-0.2c-0.1-3.5-0.2-7.2-0.3-10.7l-7.7 0.3z"/><path class="b" d="m312 479.3c0.1 3.3 0.2 6.5 0.3 9.2l6.7-0.2-0.2-9.2z"/><path class="b" d="m281.7 454.6c0-2.4-0.1-3.9-0.1-4.4q0-0.2-0.1-0.4c-1.1-4.8-3.6-7.4-7.6-7.6l0.1 12.3z"/><path class="b" d="m173.6 482.2c0.1 3.4 0.2 6.5 0.3 9.3l6.8-0.2-0.3-9.3z"/><path class="b" d="m180 469.6l-6.8 0.3c0.1 3.4 0.2 7 0.3 10.5l6.8-0.3z"/><path class="b" d="m274.2 477.5l7.7-0.1c0-3.5 0-7.2-0.1-10.7l-7.7 0.2z"/><path class="b" d="m179.7 459l-6.9 0.1c0.1 2.5 0.2 5.6 0.3 8.9l6.8-0.3z"/><path class="b" d="m228.4 490l7.8-0.2c-0.1-2.8-0.2-6-0.3-9.3l-7.7 0.2z"/><path class="b" d="m274.1 465l7.7-0.2c0-3.1-0.1-6-0.1-8.4h-7.7z"/><path class="b" d="m272.1 456.4h-6.8c0 2.5 0 5.5 0.1 8.9l6.8-0.2z"/><path class="b" d="m179.2 444.9c-5.5 0.9-6.5 6.9-6.6 8.2 0 0.3 0 1.8 0.1 4.2l6.9-0.2z"/><path class="b" d="m170.6 494.6l23.4-1 0.1 4.2-23.3 0.9z"/><path class="b" d="m272 442.3c-5.5 0.8-6.6 6.7-6.8 8 0 0.3 0 1.8 0 4.2h6.9z"/><path class="b" d="m455.7 318.4v-29.1l-4.8-0.6 0.2 29.1 4.6 0.6z"/><path class="b" d="m140 535.1l-0.1 17.2 0.1-17.2z"/><path class="b" d="m463.3 389.6l-2.1-2.2 2.3 163.7 4.2-1.4-0.4-68.6-1-88.2-3-3.3z"/><path class="b" d="m226 468.3l-6.8 0.3c0.1 3.4 0.2 7 0.3 10.5l6.8-0.2z"/><path class="b" d="m446.8 271c-1.6 0-2.9-2.8-2.9-6.3 0-3.5 1.3-6.3 2.9-6.3 1.5 0 2.8 2.8 2.8 6.3 0 3.5-1.3 6.3-2.8 6.3z"/><path class="b" d="m451.7 331.6l0.2 29.1 4.6 0.6-0.1-29-4.7-0.7z"/><path class="b" d="m318.2 456.1h-6.9c0.1 2.5 0.2 5.6 0.3 9l6.8-0.3z"/><path fill-rule="evenodd" class="b" d="m460.3 461.9l1.3 88.9-15.3-7.8q0 0 0 0-0.1 0-0.1 0 0 0 0 0 0 0-0.1 0l-0.5-72.4q0-0.1-0.1-0.2 0-0.2-0.1-0.3-0.1-0.1-0.2-0.2-0.1-0.1-0.2-0.1l-6.1-10 0.1-73.4q0 0 0 0 0 0 0 0 0 0 0 0 0 0 0-0.1 0 0 0 0 0 0 0 0 0 0 0 0 0 0 0 0 0 0 0-0.1 0 0 0 0 0-0.1 0-0.1 0 0 0 0 0-0.1-0.1-0.1 0 0 0 0 0-0.1 0-0.1 0 0-0.1 0l-6.8-8.5q-0.1 0-0.2-0.1-0.1-0.1-0.1-0.1-0.1-0.1-0.2-0.1-0.1 0-0.2 0l-5.8-0.1h-0.2q0 0 0 0 0 0 0 0-0.1 0-0.1 0 0 0 0 0h-0.1l-0.1 0.1q0 0 0 0 0 0-0.1 0 0 0 0 0.1 0 0 0 0 0 0 0 0 0 0 0 0 0 0-0.1 0 0 0 0 0 0 0 0 0.1 0 0 0 0 0 0-0.1 0 0 0 0 0.1 0 0 0 0 0 0.1 0 0.1 0 0-0.1 0 0 0.1 0 0.1 0 0 0 0 0 0 0 0 0 0 0 0 0 0 0 0 0 0 0 0.1 0 0 0 0 0 0 0 0 0 0.1 0 0.1c0 0 0 0.1 0 0.1l1.2 173.7h-0.5l-0.1-12.6-1.7-163.3q0 0 0 0 0-0.1 0-0.1 0-0.1 0-0.1 0-0.1 0-0.1c0-1-0.1-15.6-0.3-34.1q0 0 0-0.1 0 0 0 0 0-0.1 0-0.1 0-0.1 0-0.1l-0.1-1.2c0-3.9 0-7.9-0.1-12.1 0-4.7-0.1-9.4-0.1-14.1l-0.1-7.6q-0.1-4.4-0.1-8.7l-0.1-3.8c-0.1-8.5-0.1-16.2-0.2-22l0.1-4.1q0 0 0-0.1-0.1 0-0.1-0.1 0-0.1 0-0.1 0-0.1-0.1-0.1c0-2.2 0-3.9 0-5.1q0 0 0 0 0 0 0 0 0 0 0-0.1 0.1 0 0.1 0l0.1-0.1q0 0 0.1-0.1 0-0.1 0.1-0.2 0 0 0-0.1 0-0.1 0-0.2v-0.3l23.3-27c6.3 10 20.3 32.5 21.7 34.8l1.4 115.4h-8.9-0.1q-0.1 0-0.1 0 0 0 0 0 0 0-0.1 0 0 0 0 0.1h-0.1q0 0 0 0-0.1 0-0.1 0 0 0 0 0.1 0 0 0 0l-0.1 0.1-0.1 0.1-0.1 0.1q0 0 0 0.1 0 0 0 0-0.1 0-0.1 0 0 0 0.1 0 0 0 0 0-0.1 0-0.1 0 0 0.1 0 0.1 0 0 0 0 0 0 0 0c0 0.1 0 0.2 0 0.2q0 0 0 0l0.9 64.2c-1.6-5.4-5.2-9.2-9.2-9.2-6 0-10.6 6.7-10.6 15.2 0 8.8 4.9 16.6 10.6 16.6 4.2 0 7.9-4 9.3-9.8zm-2.7-36.1c0-6.9-3.2-12.5-7-12.5-3.9 0-7.1 5.6-7.1 12.5 0 7 3.2 12.6 7.1 12.6 3.8 0 7-5.6 7-12.6zm0.7-94.3q0-0.2 0-0.4-0.1-0.1-0.2-0.2-0.1-0.2-0.3-0.2-0.1-0.1-0.3-0.2l-6.6-0.9q-0.1 0-0.2 0-0.1 0-0.2 0-0.1 0.1-0.2 0.1-0.1 0.1-0.1 0.1-0.1 0.1-0.2 0.2 0 0.1-0.1 0.2 0 0 0 0.1-0.1 0.1-0.1 0.2l0.2 31q0 0.2 0.1 0.4 0 0.1 0.1 0.3 0.1 0.1 0.3 0.2 0.1 0 0.3 0.1l6.5 0.9q0 0 0 0 0 0 0.1 0 0 0 0 0 0 0 0 0 0.1 0 0.2-0.1 0.1 0 0.2 0 0 0 0.1-0.1 0.1 0 0.1-0.1 0.1 0 0.2-0.1 0-0.1 0.1-0.2 0-0.1 0-0.2 0.1-0.1 0.1-0.2l-0.1-30.9zm-0.8-43q0-0.1 0-0.3-0.1-0.2-0.2-0.3-0.1-0.1-0.2-0.2-0.2-0.1-0.4-0.1l-6.6-0.9q-0.2-0.1-0.4 0-0.2 0.1-0.3 0.2-0.2 0.1-0.3 0.3 0 0.2 0 0.4l0.1 31q0 0.2 0.1 0.3 0 0.2 0.2 0.3 0.1 0.2 0.2 0.2 0.2 0.1 0.3 0.1l6.5 0.9h0.1q0.2 0 0.4-0.1 0.2 0 0.3-0.2 0.1-0.1 0.2-0.3 0.1-0.1 0.1-0.3l-0.1-31zm-10.7-31.9c-2.7 0-4.8 3.6-4.8 8.1 0 4.6 2.1 8.2 4.8 8.2 2.6 0 4.7-3.6 4.7-8.1 0-4.6-2.1-8.2-4.7-8.2zm-7.8 28.3q-0.1 0.1-0.1 0.2-0.1 0.1-0.1 0.2-0.1 0.1-0.1 0.2 0 0.1 0 0.2l0.1 31q0 0.1 0.1 0.3 0.1 0.2 0.2 0.3 0.1 0.1 0.2 0.2 0.2 0.1 0.4 0.1l6.4 0.9q0.1 0 0.1 0 0 0 0 0 0 0 0 0 0.1 0 0.1 0 0.2 0 0.3-0.1 0.2-0.1 0.3-0.2 0.2-0.1 0.2-0.3 0.1-0.2 0.1-0.4v-30.9q0-0.2-0.1-0.3 0-0.2-0.2-0.3-0.1-0.1-0.2-0.2-0.2-0.1-0.3-0.1l-6.6-1q-0.1 0-0.2 0-0.1 0-0.2 0.1-0.1 0-0.2 0-0.1 0.1-0.2 0.2zm-0.2 74.7q0 0 0 0zm0 0q0 0.2 0.1 0.3 0.1 0.2 0.2 0.3 0.1 0.2 0.2 0.3 0.2 0 0.4 0.1l6.4 0.8h0.2q0.2 0 0.3 0 0.2-0.1 0.3-0.2 0.2-0.2 0.2-0.3 0.1-0.2 0.1-0.4v-30.9q0-0.2-0.1-0.4 0-0.1-0.2-0.2-0.1-0.2-0.2-0.3-0.2 0-0.3-0.1l-6.6-0.9q-0.1 0-0.2 0-0.1 0-0.2 0-0.1 0.1-0.2 0.1-0.1 0.1-0.2 0.1-0.1 0.1-0.1 0.2-0.1 0-0.1 0.1-0.1 0.1-0.1 0.2 0 0.1 0 0.2z"/><path class="b" d="m437.5 461l-4.7 0.2 3.6 8.6h6.4l-5.3-8.8z"/><path class="b" d="m440.6 329.7l0.1 29.1 4.6 0.6v-29l-4.7-0.7z"/><path class="b" d="m445.3 316.4v-29.1l-4.7-0.6 0.1 29.1 4.6 0.6z"/><path class="b" d="m406.9 314.5v-29.4h-6.6l0.2 29.3 6.4 0.1z"/><path class="b" d="m450.6 436.5c-2.9 0-5.2-4.8-5.2-10.7 0-5.8 2.3-10.6 5.2-10.6 2.8 0 5.1 4.8 5.1 10.6 0 5.9-2.3 10.7-5.1 10.7z"/><path class="b" d="m203.9 331.2q0-0.1 0.1-0.1 0-0.1 0.1-0.1 0.1 0 0.1-0.1 0.1 0 0.2 0l179.8-28.2v-0.4l-179.8 28.1q-0.1 0-0.2 0.1 0 0-0.1 0-0.1 0-0.1 0.1-0.1 0-0.1 0.1l-68 67.8q0 0.1-0.1 0.2-0.1 0.1-0.1 0.2 0 0.1 0 0.3 0 0.1 0 0.2 0-0.1 0-0.1 0.1-0.1 0.1-0.1 0-0.1 0.1-0.1 0-0.1 0-0.1z"/><path class="b" d="m396 331.8l-9.6 1.4q0 0 0 0-0.1 0-0.1 0 0 0 0 0-0.1 0-0.1 0-0.1 0-0.1 0-0.1 0-0.2-0.1 0 0-0.1 0-0.1-0.1-0.1-0.1-0.1 0-0.1-0.1 0 0 0 0-0.1-0.1-0.1-0.1 0 0 0-0.1-0.1 0-0.1 0 0-0.1 0-0.1 0-0.1 0-0.1 0-0.1 0-0.1-0.1 0-0.1 0 0 0 0 0 0-0.1 0-0.1 0 0 0.1 0l-1.2-27.7-179.2 28.1-65.8 65.7 226.1-25.5 28.4-38.2z"/><path fill-rule="evenodd" class="b" d="m386.1 303.5q0 0 0-0.1 0 0 0 0 0 0 0-0.1 0 0 0 0l-1.5-37.2 17.5-22.4 1.4-1.7 3.2 3.5 11.8 13.5h-6q-0.1 0-0.3 0.1-0.2 0.1-0.3 0.2-0.1 0.1-0.2 0.3-0.1 0.2-0.1 0.4v7.4q0 0.2 0.1 0.4 0.1 0.1 0.2 0.3 0.1 0.1 0.3 0.2 0.2 0 0.3 0l8 0.1v3.3h-8q-0.1 0-0.3 0.1-0.2 0.1-0.3 0.2-0.2 0.2-0.2 0.3-0.1 0.2-0.1 0.4v6.8q0 0.2 0.1 0.4 0 0.1 0.2 0.3 0.1 0.1 0.3 0.2 0.2 0 0.3 0l8 0.1v4l-6.9 0.1q-0.1 0-0.3 0.1-0.2 0.1-0.3 0.2-0.1 0.1-0.2 0.3-0.1 0.2-0.1 0.4v7.6q0 0.2 0.1 0.3 0 0.2 0.2 0.3 0.1 0.2 0.3 0.2 0.1 0.1 0.3 0.1l7.1 0.3 0.1 4-7.1-0.1q-0.1 0-0.2 0-0.1 0.1-0.2 0.1-0.1 0-0.2 0.1 0 0-0.1 0.1-0.1 0.1-0.1 0.1-0.1 0.1-0.1 0.2-0.1 0.1-0.1 0.2 0 0.1 0 0.2v6.7q0 0.2 0.1 0.4 0.1 0.1 0.2 0.3 0.1 0.1 0.3 0.2 0.2 0 0.3 0l7.3 0.1v5.7l-7.1-0.1q-0.1 0-0.2 0-0.1 0-0.2 0-0.1 0.1-0.1 0.1-0.1 0.1-0.2 0.2-0.1 0-0.1 0.1-0.1 0.1-0.1 0.2 0 0-0.1 0.1 0 0.1 0 0.2v7.1q0 0.2 0.1 0.4 0.1 0.1 0.2 0.3 0.1 0.1 0.3 0.2 0.2 0.1 0.3 0.1l7.3 0.2 0.1 5-7.6-0.2q-0.1 0-0.2 0-0.1 0-0.2 0.1-0.1 0-0.1 0-0.1 0.1-0.2 0.2-0.1 0-0.1 0.1-0.1 0.1-0.1 0.2 0 0.1-0.1 0.2 0 0.1 0 0.2l0.2 6.3q0 0.2 0.1 0.3 0.1 0.2 0.2 0.3 0.1 0.1 0.3 0.2 0.1 0.1 0.3 0.1l7.5 0.3 0.1 3.4v1.6l-7.4-0.4q-0.2-0.1-0.4 0-0.2 0.1-0.3 0.2-0.1 0.1-0.2 0.3-0.1 0.2-0.1 0.4v0.9l-0.1 5.8q0 0.2 0.1 0.4 0.1 0.2 0.2 0.3 0.1 0.1 0.3 0.2 0.2 0.1 0.4 0.1h7.4l0.3 4.7v0.1h-7.8q-0.2 0-0.3 0.1-0.2 0.1-0.3 0.2-0.2 0.1-0.2 0.3-0.1 0.2-0.1 0.4v7q0 0.1 0.1 0.3 0 0.2 0.2 0.3 0.1 0.2 0.3 0.2 0.1 0.1 0.3 0.1l7.6 0.1v4.5l-6.8-0.1q-0.1 0-0.2 0 0 0.1-0.1 0.1-0.1 0-0.2 0.1-0.1 0-0.1 0.1-0.1 0.1-0.2 0.1 0 0.1 0 0.2-0.1 0.1-0.1 0.2 0 0.1 0 0.1v8.1q0 0.2 0.1 0.4 0 0.2 0.2 0.3 0.1 0.1 0.3 0.2 0.1 0.1 0.3 0.1l7.2-0.1 1.7 159 0.2 16.8-1.5 1.3-1.7-82.7q0 0 0 0 0 0 0 0 0-0.1 0-0.1 0 0 0 0l-1.3-8.6q0-0.1 0-0.1 0 0 0 0 0 0 0 0 0 0 0-0.1l1.2-74.8c0 0 0 0 0 0q0-0.1 0-0.1l-0.4-8.9q0-0.2-0.1-0.4-0.1-0.2-0.2-0.3-0.2-0.1-0.3-0.2-0.2 0-0.4 0l-4 0.1q-0.1 0-0.2 0-0.1 0.1-0.2 0.1-0.1 0.1-0.2 0.1-0.1 0.1-0.2 0.2l-6 8.8q-0.1 0.1-0.1 0.1 0 0 0 0 0 0.1 0 0.1 0 0-0.1 0 0 0 0 0 0 0.1 0 0.1 0 0 0 0 0 0 0 0 0 0 0 0 0 0.1 0 0.1 0 0 0 0 0 0 0 0.1 0 0 0 0 0 0 0 0 0 0 0 0.1 0 0 0 0 0 0 0 0l1.9 74.6-5.2 8.9q0 0 0 0 0 0 0 0 0 0 0 0 0 0 0 0 0 0 0 0.1 0 0 0 0 0 0 0 0 0 0.1 0 0.1 0 0.1 0 0.1 0 0-0.1 0 0 0.1 0 0.1 0 0 0 0l0.8 76.9-6.3-0.4v-217.1q0 0 0 0 0-0.1 0-0.1 0 0 0-0.1 0 0 0 0v-0.1q0 0 0 0 0-0.1 0-0.1 0 0 0 0 0 0 0 0v-0.1q-0.1 0-0.1 0 0 0 0-0.1 0 0 0 0 0 0 0 0-0.1 0-0.1 0v-0.1h-0.1q0 0 0 0 0 0 0 0 0 0-0.1-0.1 0 0 0 0h-0.5l-10.8 1.6zm12.5-19.8q-0.1 0-0.1 0.1 0 0.1-0.1 0.2 0 0.1 0 0.2l0.3 31.1q0 0.2 0.1 0.4 0 0.1 0.2 0.3 0.1 0.1 0.2 0.2 0.2 0 0.4 0l8.2 0.2q0.1 0 0.2 0 0.1 0 0.2-0.1 0.1 0 0.1 0 0.1-0.1 0.2-0.2 0 0 0.1-0.1 0-0.1 0.1-0.2 0-0.1 0-0.1 0.1-0.1 0.1-0.2v-31.3q0-0.2-0.1-0.4-0.1-0.1-0.2-0.3-0.2-0.1-0.3-0.2-0.2-0.1-0.4-0.1h-8.4q-0.1 0-0.2 0.1-0.1 0-0.2 0-0.1 0.1-0.1 0.1-0.1 0.1-0.2 0.1-0.1 0.1-0.1 0.2z"/><path class="b" d="m470 464.3l1.6 2.2 2.8 3q0-0.1 0.1-0.1 0 0 0.1 0 0 0 0.1 0 0 0 0.1 0l6.6-0.1-4.6-5.3z"/><path class="b" d="m368.3 552.9l28.8-5.2v-17.8l-29.4 5 0.6 18z"/><path class="b" d="m426.5 381.9l1.2 169.7 2.4 0.1-0.1-66.8-0.7-97.5-2.8-5.5z"/><path class="b" d="m367.6 533l29.5-5.2v-194.4l-30.4 40.7 0.3 37 0.6 121.9z"/><path fill-rule="evenodd" class="b" d="m502.7 221.4v346.4h-385.5l-0.4-346.4c0-91 88.8-165.5 194.2-165.5 105.4 0 191.7 74.5 191.7 165.5zm-17.6 330.6q0.1-0.1 0.1-0.2 0.1-0.1 0.1-0.2 0.1-0.2 0.1-0.3 0 0 0-0.1 0 0 0-0.1 0.1 0 0.1-0.1 0 0 0-0.1c0 0 0-0.4 0-0.4l-1-80.7q0-0.2-0.1-0.3 0-0.2-0.1-0.3-0.1-0.1-0.2-0.2-0.1-0.1-0.2-0.1l-5.8-6.7-0.4-70.8q0 0 0 0 0-0.1 0-0.1 0 0 0 0 0 0 0-0.1 0 0 0 0 0 0 0 0 0 0 0 0 0 0 0 0 0 0 0-0.1 0 0 0 0-0.1 0-0.1 0 0 0 0 0v-0.1q0 0 0 0 0 0 0 0 0 0 0 0 0 0 0 0v-0.1q0 0 0 0-0.1 0-0.1 0 0 0 0 0 0-0.1 0-0.1 0 0 0 0 0 0 0 0 0 0 0 0 0 0 0 0l-6.5-6.8-1.4-113.8 1.5 2.3q0.1 0.2 0.3 0.3 0.1 0.1 0.3 0.1 0.2 0.1 0.4 0.1 0.1-0.1 0.3-0.2 0.1-0.1 0.3-0.3 0.1-0.2 0.1-0.5 0-0.2 0-0.4 0-0.3 0-0.5l-48.4-95.8c6-0.6 10.6-4.5 10.6-9.3q0-0.1 0-0.2 0-0.1 0-0.2c0-5-5.1-9.1-11.5-9.4l0.2-25.2 14.4-0.2v-2.3l-14.3 0.1 0.1-14.2v-0.5h-1.8l-0.2 14.8-14.1 0.1v2.4l14.1-0.2-0.3 25.2c-6.1 0.5-10.9 4.5-10.9 9.4q0 0.1 0 0.2 0 0.1 0 0.2c0 4.8 4.6 8.8 10.6 9.4l-41.1 91.1q-0.1 0.2-0.1 0.4 0 0.2 0 0.5 0.1 0.2 0.2 0.4 0.1 0.2 0.2 0.3 0.1 0.1 0.1 0.1 0.1 0 0.1 0 0.1 0.1 0.2 0.1 0 0 0.1 0 0.1 0 0.2 0 0.1-0.1 0.2-0.1 0.1 0 0.2-0.1 0.1-0.1 0.1-0.1l1-1.3 1.4 35.6-179.7 28.1q-0.1 0-0.2 0.1 0 0-0.1 0-0.1 0-0.1 0.1-0.1 0-0.1 0.1l-68 67.8q0 0.2-0.1 0.4-0.1 0.2-0.1 0.4 0 0.2 0 0.4 0 0.2 0.1 0.4 0 0.1 0.1 0.2 0.1 0.1 0.2 0.1 0.1 0.1 0.2 0.2 0.2 0 0.3 0h0.1l2.5-0.3 0.9 134.4q0 0 0 0 0 0.1 0 0.1 0 0.1 0 0.1 0 0.1 0.1 0.1l-0.1 17.2v0.5q0 0.1 0 0.2 0 0 0 0.1 0.1 0.1 0.1 0.2 0.1 0.1 0.1 0.1 0.1 0.1 0.2 0.2 0 0 0.1 0 0.1 0.1 0.2 0.1 0.1 0 0.2 0l226.6 1.2q0 0 0 0 0 0 0 0 0.1 0 0.1 0 0 0 0 0l30.5-5.4 7.3 0.5v2.9q0 0 0 0 0 0 0 0 0 0.1 0 0.1 0 0 0 0 0 0 0 0.1 0 0 0 0 0 0 0 0 0 0 0 0 0 0 0 0.1 0 0 0 0 0 0 0 0 0 0.1 0 0.1 0 0 0 0 0 0 0 0 0 0 0 0 0 0 0 0 0 0 0 0 0 0.1 0 0.1h0.1q0 0 0 0 0 0.1 0 0.1 0 0 0 0 0 0 0 0l0.2 0.1 0.1 0.1 0.1 0.1q0 0 0.1 0 0 0 0 0 0 0 0 0 0.1 0 0.1 0l14.8 2.8q0 0 0 0 0.1 0 0.1 0 0 0 0 0 0.1 0 0.1 0h0.2l0.1-0.1 0.2-0.1q0 0 0 0 0 0 0.1 0 0 0 0 0 0 0 0 0l3-2.8 6.6 0.1 3.7 3.1q0 0 0.1 0 0 0 0 0.1 0 0 0.1 0 0 0 0 0 0 0.1 0.1 0.1 0 0.1 0 0.1 0.1 0.1 0.1 0.1 0.1 0 0.1 0.1 0.1 0 0.1 0.1 0.1 0 0.2 0 0 0 0.1 0.1 0.1 0 0.2 0 0 0 0 0 0.1 0 0.1 0 0 0 0.1-0.1 0 0 0 0l5.1-1.4 4.2-1.1q0.1 0 0.3-0.1 0.1-0.1 0.2-0.2 0.1-0.1 0.1-0.2 0.1-0.2 0.1-0.3l0.4-8.7 15.4 7.9q0 0 0 0 0 0 0.1 0 0 0 0 0 0 0 0 0 0.1 0 0.1 0 0 0.1 0 0.1 0.1 0 0.1 0 0 0 0.1 0 0 0 0.1 0 0 0 0 0 0 0 0.1 0 0 0 0 0l5.6-1.4 5.6 4.3q0.1 0.1 0.1 0.1 0.1 0.1 0.2 0.1 0.1 0.1 0.2 0.1 0 0 0.1 0h0.4 0.1l9.8-4.4q0.1-0.1 0.2-0.1z"/><path class="b" d="m415.4 379.1l-4.9 7h7.8l-0.3-7.1-2.6 0.1z"/><path class="b" d="m436.3 385.7l-5.5-6.7-3.7-0.1 3.6 7.3c0.8-0.1 2.4-0.2 5.6-0.5z"/><path class="b" d="m474.7 391.1l-4.1-4.3-0.9-1-7.3 0.1 5.2 5.6c0.8 0 2.6-0.2 7.1-0.4z"/><path class="b" d="m437.1 459.2l0.1-71.7-6.1 0.5c0.1 7.6 1.1 63.3 1.2 71.4z"/><path class="b" d="m437.2 387.5c-2.2 0.2-4.8 0.4-6.1 0.5z"/><path class="b" d="m468.2 393.4c0.1 7.5 0.8 61.1 1 69l7.1-0.3-0.4-69.2z"/><path class="b" d="m468.2 393.4l7.7-0.5c-2.8 0.2-6.2 0.4-7.7 0.5z"/><path class="b" d="m431.9 464.5v20.4l0.5 66.9q0.1 0 0.1 0.1 0.1 0 0.2 0 0 0 0.1 0.1 0.1 0 0.1 0.1l1.8 1.5-0.3-83.2z"/><path class="b" d="m409.7 388l1.8 73h5.7l1.2-73h-8.7z"/><path class="b" d="m407.1 470.2l11.1-0.3-1-7h-6l-4.1 7.3z"/><path class="b" d="m407.3 552.1l12.9 2.4-1.8-82.7-7.2 0.1-4.8 0.2 0.8 76.7q0 0 0 0.1 0 0 0 0 0 0.1 0 0.1 0 0 0 0z"/><path class="b" d="m422.9 173.6c-5.7 0-10.3-3.4-10.3-7.5 0-4.2 4.6-7.5 10.3-7.5 5.6 0 10.2 3.3 10.2 7.5 0 4.1-4.6 7.5-10.2 7.5z"/><path class="b" d="m414.7 341.6l-0.1 4.8h6.7l-0.1-4.4-6.5-0.4z"/><path class="b" d="m415.4 368.4v6.2l6.2-0.1-0.1-6.1h-6.1z"/><path class="b" d="m413.5 273.6v5l7.1 0.1-0.1-5.1h-7z"/><path class="b" d="m414.6 286.5v5.8l6.1 0.2-0.1-6.1-6 0.1z"/><path class="b" d="m414.4 328.5l0.2 4.4 6.5 0.3v-4.5l-6.7-0.2z"/><path class="b" d="m414.6 300.2v4.9h6.2v-4.8l-6.2-0.1z"/><path class="b" d="m414.7 314.5v5.2l6.3 0.2-0.1-5.3-6.2-0.1z"/><path class="b" d="m420.1 260.8l-6.6 0.1v5.6h6.9v-5.4l-0.3-0.3z"/><path class="b" d="m414.6 355v5.1l6.8 0.1v-5.2h-6.8z"/><path class="b" d="m421.7 179.5l-37 82 15.9-19 2.1-2.6q0-0.1 0.1-0.1 0.1-0.1 0.2-0.2 0.1 0 0.2 0 0.1-0.1 0.2-0.1h0.1q0.1 0 0.2 0.1 0.1 0 0.2 0 0.1 0.1 0.2 0.1 0.1 0.1 0.2 0.2l3.8 4.4 12.6 13.8z"/><path class="b" d="m402.7 239.9l-2.1 2.6 2.2-2.6q0.1-0.1 0.2-0.2 0 0 0.1-0.1 0.1 0 0.2 0 0.1 0 0.2 0h-0.1q-0.1 0-0.2 0-0.1 0-0.2 0-0.1 0.1-0.2 0.2-0.1 0-0.1 0.1z"/><path class="b" d="m408.1 244.3l12.6 14.4v-0.6l-12.6-13.8z"/><path class="b" d="m445.4 231.6l0.1-0.1 0.1-0.1h0.1l0.1-0.1h0.1q0 0 0 0 0 0 0 0 0 0 0.1 0 0 0 0 0h0.1q0 0 0 0 0 0 0.1 0 0 0 0 0 0 0 0 0 0 0 0.1 0 0 0 0 0 0 0 0.1 0 0 0 0 0 0 0 0 0 0.1 0 0.1 0 0 0 0 0 0 0.1 0 0.1h0.1q0 0 0 0 0.1 0 0.1 0 0 0 0 0.1 0 0 0 0h0.1q0 0 0 0.1 0 0 0 0 0 0 0.1 0 0 0 0 0 0 0 0 0 0 0.1 0 0.1 0 0 0 0 0 0 0 0l16.3 25.1-39.6-78.4-0.8 78.9z"/><path class="b" d=""/><path class="b" d="m446.2 231.3q0 0 0 0 0.1 0 0.1 0 0 0 0 0 0 0 0 0 0 0 0 0 0 0 0 0 0 0 0 0-0.1 0-0.1 0z"/><path class="b" d=""/><path class="b" d="m445.9 231.3h-0.1z"/><path class="b" d="m445.7 231.4h-0.1z"/><path class="b" d="m446.5 231.3q0 0 0 0 0 0 0 0 0 0 0 0 0 0-0.1 0 0.1 0 0.1 0 0 0 0 0 0 0 0 0 0 0 0 0z"/><path class="b" d="m422.8 257.3v0.6l22.6-26.3q0.1 0 0.1-0.1 0 0 0 0 0 0 0 0 0 0 0 0l-0.1 0.1z"/><path class="b" d="m446.8 231.5q0 0 0 0 0 0.1 0 0.1 0.1 0 0.1 0 0 0 0 0 0 0 0 0 0 0-0.1 0 0 0 0-0.1 0 0 0 0z"/><path class="b" d="m446.7 231.5q0-0.1 0-0.1 0 0 0 0 0 0 0 0-0.1 0-0.1 0 0 0 0.1 0 0 0 0 0 0 0 0 0 0 0 0 0.1z"/><path class="b" d="m422.8 257.9v-0.6l-0.2 0.1v0.7l0.2-0.2z"/><path class="b" d="m437.1 555.2l3.9-1 3.4-1-0.6-81.5h-7.1c0.1 9.5 0.3 73.7 0.4 83.5z"/><path class="b" d="m436.7 471.6v0.1h7.1v-0.1z"/><path class="b" d="m437.1 555.2l3.9-1-3.9 1z"/><path class="b" d="m473.8 473.6v-1.9h-0.3q-0.1 0-0.3 0-0.1 0-0.2-0.1-0.1 0-0.1-0.1-0.1-0.1-0.2-0.2l-2.6-3.7-1-1 0.1 14.4 0.8 69.3q0 0 0 0.1 0 0 0 0.1 0 0.1 0 0.1-0.1 0.1-0.1 0.1l3.9 3z"/><path class="b" d="m470.1 467.7l2.6 3.6q0.1 0.1 0.2 0.2 0 0.1 0.1 0.1 0.1 0.1 0.2 0.1 0.2 0 0.3 0h0.3v-0.1z"/><path class="b" d="m475.7 471.6v82.5l7.9-3.7-1-79.1z"/><path class="b" d="m475.7 471.3v0.3l6.9-0.3v-0.1h-6.9z"/><path class="b" d="m483.6 550.4l-0.9-79.1h-0.1l1 79.1z"/><path class="b" d="m482.7 471.3v-0.1h-0.1v0.1h0.1z"/><path class="b" d=""/><path class="b" d=""/></svg>