<svg version="1.2" xmlns="http://www.w3.org/2000/svg" viewBox="0 0 800 800" width="800" height="800">
	<title>Kisha-22-ilu-pastrokes-groupblack-color-01-svg</title>
	<style>
		.s0 { fill: #010101 } 
		.s1 { fill: #ffffff } 
	</style>
	<g id="Black">
		<path class="s0" d="m800 0v800h-800v-800z"/>
	</g>
	<g id="Color">
		<path class="s1" d="m601.3 589.1c-6.4 0-11.6 7.9-11.6 17.6 0 10.4 5.5 19.8 11.6 19.8 6.1 0 11.1-8.4 11.1-18.7 0-10.3-5-18.7-11.1-18.7z"/>
		<path class="s1" d="m365.8 651.5l10.3-0.1c-0.1-3.6-0.1-7.9-0.2-12.3l-10.2 0.1z"/>
		<path class="s1" d="m313.7 607.7c-0.1-3.1-0.2-5.2-0.2-5.8q0-0.1 0-0.1-0.1-0.1-0.1-0.2 0 0 0-0.1 0-0.1 0-0.1-2.4-9.6-10.4-10l0.4 16.4z"/>
		<path class="s1" d="m628 512.6l8.6 9.1q0 0 0 0 0.1 0 0.1 0 0 0 0 0 0 0 0 0 0 0.1 0 0.1 0 0 0 0 0 0 0 0 0 0 0.1 0v0.1q0 0 0 0 0 0 0 0 0 0.1 0 0.1 0 0 0 0 0 0.1 0.1 0.2c0 0 0 0 0 0.1q0 0 0 0 0 0.1 0 0.1 0 0 0 0 0 0.1 0 0.1l0.5 94.4 7.7 8.9q0.2 0.1 0.4 0.2 0.1 0.1 0.2 0.2 0.2 0.2 0.2 0.4 0.1 0.2 0.1 0.4l1.3 107q0 0 0-0.1l-1.3-107.6q0-0.2-0.1-0.3 0-0.2-0.2-0.4-0.1-0.1-0.2-0.2-0.2-0.2-0.4-0.2l-7.6-9-0.5-94.3q0-0.1 0-0.1 0 0 0 0 0-0.1 0-0.1 0 0 0-0.1 0 0 0 0 0 0 0 0 0 0 0 0 0 0 0 0 0-0.1-0.1-0.1 0 0 0 0 0 0 0-0.1 0 0 0 0v-0.1q0 0 0 0 0 0 0 0 0 0 0 0 0 0 0 0l-0.1-0.1q0 0 0 0 0 0 0 0 0-0.1 0-0.1 0 0 0 0-0.1 0-0.1 0 0 0 0 0 0 0 0 0 0-0.1 0-0.1l-8.6-9-1.9-151.8z"/>
		<path class="s1" d="m630.4 362.2q0 0 0 0 0 0 0 0.1 0 0 0 0 0 0.1 0.1 0.1 0-0.1 0-0.2 0-0.1 0-0.2 0-0.2-0.1-0.3 0-0.1 0-0.2l-64.5-127.7h-0.3z"/>
		<path class="s1" d="m242.4 623.5l10.3-0.6c-0.2-4.1-0.3-8-0.4-11.1l-10.2 0.1z"/>
		<path class="s1" d="m252.2 609.3c-0.1-3.1-0.2-5.2-0.2-5.8q-0.1-0.3-0.1-0.5c-1.7-6.4-5.2-9.7-10.5-9.9l0.6 16.4z"/>
		<path class="s1" d="m303.8 621.8l10.2-0.4c-0.1-4.2-0.2-8.1-0.3-11.2l-10.2 0.1z"/>
		<path class="s1" d="m304.2 638.4l10.3-0.2c-0.1-4.8-0.3-9.7-0.4-14.3l-10.3 0.4z"/>
		<path class="s1" d="m243 640.1l10.2-0.4c-0.1-4.7-0.3-9.6-0.4-14.3l-10.3 0.6z"/>
		<path class="s1" d="m580 221.1q0-0.2 0-0.3c0-6.7-6.8-12.2-15.3-12.5v0.6c8.4 0.4 15.1 5.7 15.3 12.2z"/>
		<path class="s1" d="m292.7 641.3c0.1 4.4 0.3 8.6 0.4 12.3l9-0.2-0.3-12.4z"/>
		<path class="s1" d="m562.2 208.9l0.3-34.2-0.3 33.6c-8.2 0.6-14.6 6-14.6 12.5q0 0.1 0 0.3c0.2-6.3 6.5-11.5 14.6-12.2z"/>
		<path class="s1" d="m486.5 509.9v-10.1l-298.5 34.2 0.1 7.1 298.4-31.2z"/>
		<path class="s1" d="m423.8 589.3c-7.4 1.1-8.8 9.1-8.9 10.8 0 0.4 0 2.5 0.1 5.6l9.2-0.1z"/>
		<path class="s1" d="m300.5 591.5c-7.4 1.2-8.7 9.2-8.9 10.9 0 0.4 0 2.4 0.1 5.5l9.2-0.1z"/>
		<path class="s1" d="m562 233.8h-0.2l-54.9 121.5q-0.1 0.1-0.1 0.2 0 0.1 0 0.2 0 0.1 0 0.2 0 0.1 0 0.3 0-0.1 0-0.1 0 0 0-0.1 0 0 0.1 0 0 0 0 0z"/>
		<path class="s1" d="m562.7 152.5h2.5v-0.6h-2.5l-0.2 19.7-18.8 0.2v0.6l18.8-0.2 0.2-19.7z"/>
		<path class="s1" d="m243.4 654.9l10.3-0.3c-0.1-3.6-0.2-7.9-0.4-12.4l-10.3 0.4z"/>
		<path class="s1" d="m301 610.3l-9.2 0.1c0.1 3.4 0.2 7.5 0.3 11.9l9.2-0.4z"/>
		<path class="s1" d="m286.5 658.5l31.1-1 0.2 5.5-31.1 0.9z"/>
		<path class="s1" d="m584.2 172v1.9-2.5l-19.2 0.2v0.6l19.2-0.2z"/>
		<path fill-rule="evenodd" class="s1" d="m487.7 710.9l-56.3 0.2-242.3 0.6-1-168.1 298.5-31.2 0.1 18.5zm-226.4-46q0.1-0.1 0.1-0.3 0.1-0.1 0.1-0.2 0-0.1 0-0.3l-0.3-7.9q0-0.3-0.1-0.5-0.1-0.2-0.3-0.4-0.2-0.2-0.4-0.3-0.3 0-0.5 0l-3.7 0.1c-0.1-2.8-0.4-14.2-0.8-25.6-0.3-6.6-0.5-13.2-0.7-18.1 0-2.5-0.1-4.5-0.2-6q0-1.1 0-1.7 0-0.1 0-0.3 0-0.1-0.1-0.3 0-0.1-0.1-0.3 0-0.2-0.1-0.3 0 0 0.1 0.1 0 0 0 0 0 0 0 0.1 0 0 0 0 0-0.1-0.1-0.3c-2.5-10.1-9-12-14-11.8-10.7 0.4-12.4 11.1-12.6 13.3-0.1 0.1-0.1 0.3 1.8 52.3l-3.1 0.1q-0.1 0-0.2 0.1-0.2 0-0.3 0.1-0.1 0-0.2 0.1-0.1 0.1-0.2 0.1-0.1 0.1-0.1 0.2-0.1 0.1-0.1 0.3-0.1 0.1-0.1 0.2 0 0.1 0 0.2l0.3 8q0 0.3 0.1 0.5 0.1 0.2 0.3 0.4 0.2 0.1 0.4 0.2 0.2 0.1 0.5 0.1l33.6-1.3q0.1 0 0.2-0.1 0.1 0 0.2 0 0.2-0.1 0.3-0.2 0.1 0 0.1-0.1 0.1-0.1 0.2-0.2zm61.1-1.5q0-0.1 0.1-0.3 0-0.1 0-0.2 0.1-0.1 0.1-0.2l-0.3-8q0-0.3-0.1-0.5-0.1-0.2-0.3-0.4-0.2-0.2-0.4-0.3-0.3 0-0.5 0l-3.7 0.1c0-2.8-0.3-14.2-0.6-25.6-0.2-6.6-0.4-13.2-0.5-18.2-0.1-2.4-0.1-4.5-0.2-5.9 0-0.7 0-1.3 0-1.7q0-0.2 0-0.3 0-0.2-0.1-0.3 0-0.2 0-0.3-0.1-0.2-0.1-0.3 0 0 0 0 0 0.1 0 0.1 0 0 0 0 0 0 0 0.1 0-0.1-0.1-0.4c-2.5-10.1-8.9-12-13.9-11.9-10.7 0.4-12.5 11.1-12.7 13.2 0 0.2-0.1 0.4 1.4 52.4l-3.1 0.1q-0.2 0-0.5 0.1-0.2 0.1-0.4 0.3-0.1 0.2-0.2 0.4-0.1 0.2-0.1 0.5l0.3 8q0 0.2 0.1 0.4 0.1 0.2 0.3 0.4 0.1 0.2 0.4 0.3 0.2 0.1 0.4 0.1h0.1l33.5-1.2q0.2 0 0.3 0 0.1 0 0.2-0.1 0.1 0 0.2-0.1 0.1-0.1 0.2-0.2 0.1 0 0.2-0.1zm61-1.5q0-0.1 0.1-0.2 0-0.1 0.1-0.2 0-0.1 0-0.2l-0.2-8q0-0.3-0.1-0.5 0-0.2-0.2-0.4-0.2-0.2-0.4-0.3-0.3-0.1-0.5-0.1l-3.7 0.1c0-2.8-0.1-14.2-0.2-25.6-0.1-6.6-0.1-13.2-0.2-18.1 0-2.5-0.1-4.6-0.1-6q0-1.1 0-1.7 0-0.1 0-0.3 0-0.2 0-0.3 0-0.2-0.1-0.3 0-0.2-0.1-0.3 0 0 0 0 0.1 0 0.1 0.1 0 0 0 0 0 0 0 0 0-0.1-0.1-0.3c-2.3-10.2-8.7-12.2-13.7-12.1-10.7 0.2-12.7 10.8-13 13 0 0.1 0 0.3 0.7 52.4h-3.2q-0.2 0-0.4 0.1-0.3 0.1-0.4 0.3-0.2 0.2-0.3 0.4-0.1 0.2-0.1 0.5l0.1 7.9q0 0.2 0.1 0.3 0 0.1 0 0.2 0.1 0.1 0.2 0.2 0 0.1 0.1 0.2 0.1 0.1 0.2 0.2 0.1 0 0.2 0.1 0.1 0 0.2 0.1 0.2 0 0.3 0l33.6-0.7q0.1 0 0.2 0 0.1 0 0.2-0.1 0.1 0 0.2-0.1 0.2 0 0.2-0.1 0.1-0.1 0.2-0.2zm-5.5-62.2q0-0.1 0-0.1 0 0 0 0.1zm67.2 61.9q0.3-0.1 0.4-0.3 0.2-0.2 0.3-0.4 0.1-0.3 0.1-0.5l-0.3-8q0-0.1 0-0.3-0.1-0.1-0.1-0.2-0.1-0.1-0.1-0.2-0.1-0.1-0.2-0.2-0.1-0.1-0.2-0.1-0.1-0.1-0.2-0.1-0.1-0.1-0.3-0.1-0.1 0-0.2 0l-3.6 0.1c-0.1-2.8-0.4-14.2-0.7-25.6-0.2-6.6-0.4-13.2-0.5-18.1-0.1-2.5-0.2-4.5-0.2-6q-0.1-1.1-0.1-1.7 0-0.1 0-0.3 0-0.1 0-0.3 0-0.1-0.1-0.3 0-0.1-0.1-0.3 0 0.1 0 0.1 0.1 0 0.1 0 0 0.1 0 0.1 0 0 0 0 0-0.1-0.1-0.3c-2.5-10.2-9-12.1-14-11.9-10.6 0.3-12.4 11-12.7 13.2 0 0.1 0 0.3 1.6 52.3l-3.2 0.1q-0.1 0-0.2 0.1-0.1 0-0.2 0.1-0.2 0-0.3 0.1-0.1 0.1-0.1 0.1-0.1 0.1-0.2 0.2-0.1 0.1-0.1 0.3 0 0.1-0.1 0.2 0 0.1 0 0.2l0.3 8q0 0.3 0.1 0.5 0.1 0.2 0.3 0.4 0.2 0.1 0.4 0.2 0.2 0.1 0.4 0.1h0.1l33.5-1.1q0.3 0 0.5-0.1z"/>
		<path class="s1" d="m354.1 639.3c0 4.5 0.1 8.7 0.1 12.3l9.1-0.1-0.1-12.3z"/>
		<path class="s1" d="m436.9 605.4c0-3.1-0.1-5.2-0.1-5.8q-0.1 0-0.1-0.1 0-0.1 0-0.1 0-0.1 0-0.2-0.1 0-0.1-0.1c-1.6-6.4-5-9.7-10.3-9.9l0.4 16.3z"/>
		<path class="s1" d="m189.2 714.2l-0.1 21.6 299.5 1.6-0.9-24-298.5 0.8z"/>
		<path class="s1" d="m363 622.6l-9.1 0.3c0 4.5 0.1 9.3 0.1 13.9l9.1-0.1z"/>
		<path class="s1" d="m351.5 654.3l31.1-0.6 0.1 5.5-31.1 0.6z"/>
		<path class="s1" d="m412.1 654.8l31.1-1.1 0.2 5.5-31.1 1z"/>
		<path class="s1" d="m427.9 651l10.3-0.2c-0.1-3.7-0.2-7.9-0.4-12.4l-10.2 0.3z"/>
		<path class="s1" d="m424.6 622.2l-9.1 0.4c0.1 4.5 0.3 9.3 0.4 13.9l9.1-0.3z"/>
		<path class="s1" d="m427.1 619.5l10.2-0.4c-0.1-4.2-0.2-8-0.3-11.2l-10.2 0.1z"/>
		<path class="s1" d="m427.5 636.2l10.3-0.3c-0.2-4.8-0.3-9.7-0.4-14.3l-10.3 0.4z"/>
		<path class="s1" d="m416 639c0.1 4.5 0.3 8.7 0.4 12.3l9-0.2-0.3-12.4z"/>
		<path class="s1" d="m375.6 606.1c-0.1-3.1-0.1-5.2-0.1-5.8q-0.1-0.3-0.1-0.5c-1.5-6.4-4.9-9.9-10.2-10.2l0.1 16.4z"/>
		<path class="s1" d="m231.5 643c0.1 4.4 0.3 8.7 0.4 12.3l9.1-0.3-0.4-12.3z"/>
		<path class="s1" d="m240 626.1l-9.1 0.4c0.1 4.6 0.3 9.3 0.5 14l9.1-0.3z"/>
		<path class="s1" d="m365.6 636.7l10.3-0.1c-0.1-4.8-0.1-9.7-0.2-14.3l-10.2 0.2z"/>
		<path class="s1" d="m239.5 612l-9.1 0.2c0.1 3.3 0.2 7.4 0.4 11.8l9.1-0.4z"/>
		<path class="s1" d="m304.6 653.3l10.3-0.3c-0.1-3.6-0.2-7.9-0.4-12.3l-10.2 0.2z"/>
		<path class="s1" d="m365.5 620l10.2-0.2c0-4.2-0.1-8.1-0.1-11.2l-10.2-0.1z"/>
		<path class="s1" d="m362.9 608.5h-9.2c0 3.3 0.1 7.4 0.1 11.9l9.2-0.3z"/>
		<path class="s1" d="m238.9 593.2c-7.3 1.2-8.6 9.2-8.8 10.9 0 0.4 0.1 2.4 0.2 5.6l9.2-0.2z"/>
		<path class="s1" d="m227.5 659.4l31.1-1.2 0.2 5.5-31.1 1.2z"/>
		<path class="s1" d="m362.7 589.7c-7.4 1.1-8.9 9-9.1 10.7 0 0.4 0 2.5 0.1 5.6h9.1z"/>
		<path class="s1" d="m607.6 424.5v-38.7l-6.3-0.9 0.2 38.8 6.1 0.8z"/>
		<path class="s1" d="m186.7 713.5l-0.1 22.9 0.1-23z"/>
		<path class="s1" d="m617.7 519.5l-2.7-3 3 218.3 5.6-1.8-0.5-91.5-1.4-117.7-4-4.3z"/>
		<path class="s1" d="m301.3 624.4l-9.1 0.4c0.1 4.5 0.3 9.3 0.4 13.9l9.1-0.2z"/>
		<path class="s1" d="m595.7 361.3c-2.1 0-3.8-3.7-3.8-8.4 0-4.6 1.7-8.3 3.8-8.3 2.1 0 3.8 3.7 3.8 8.3 0 4.7-1.7 8.4-3.8 8.4z"/>
		<path class="s1" d="m602.3 442.2l0.2 38.7 6.1 0.9v-38.8l-6.3-0.8z"/>
		<path class="s1" d="m424.3 608.1l-9.2 0.1c0.1 3.3 0.2 7.4 0.3 11.9l9.2-0.4z"/>
		<path fill-rule="evenodd" class="s1" d="m613.8 615.9l1.7 118.5-20.4-10.4q-0.1 0-0.1 0 0 0 0 0-0.1 0-0.1 0 0 0 0-0.1l-0.8-96.4q0-0.2 0-0.3-0.1-0.2-0.2-0.4-0.1-0.1-0.3-0.3-0.1-0.1-0.3-0.1l-8-13.4 0.1-97.8q0 0 0 0 0 0 0 0 0 0 0 0 0-0.1 0-0.1 0 0 0 0 0 0 0 0 0 0 0 0 0-0.1 0-0.1 0 0 0 0-0.1-0.1-0.1-0.1 0 0 0-0.1 0 0 0 0 0-0.1 0-0.1-0.1 0-0.1-0.1 0 0 0 0 0-0.1-0.1-0.1l-9.1-11.3q-0.1-0.1-0.2-0.1-0.1-0.1-0.3-0.2-0.1 0-0.2-0.1-0.1 0-0.3 0l-7.6-0.2h-0.3q0 0 0 0-0.1 0-0.1 0 0 0 0 0.1-0.1 0-0.1 0h-0.1l-0.1 0.1q0 0-0.1 0 0 0 0 0 0 0.1-0.1 0.1 0 0 0 0 0 0 0 0 0 0 0 0 0 0 0 0 0 0 0 0.1-0.1 0-0.1 0 0 0 0 0-0.1 0.1-0.1 0.1 0 0 0 0.1 0 0 0 0-0.1 0.1-0.1 0.1 0 0 0 0.1 0 0 0 0 0 0 0 0.1 0 0 0 0 0 0 0 0 0 0 0 0 0 0 0 0-0.1 0.1-0.1 0.1 0 0 0 0.1 0 0 0 0c0 0 0 0.1 0 0.1l1.7 231.7h-0.7l-0.1-16.8-2.4-217.7q0.1-0.1 0.1-0.1 0-0.1 0-0.1 0-0.1 0-0.1 0-0.1 0-0.2c0-1.3-0.2-20.8-0.5-45.4q0-0.1 0-0.1 0-0.1 0.1-0.1 0-0.1 0-0.1 0-0.1 0-0.1l-0.1-1.6c-0.1-5.2-0.1-10.6-0.2-16.2-0.1-6.2-0.1-12.5-0.2-18.8l-0.1-10.1q-0.1-5.9-0.1-11.6l-0.1-5.1c-0.1-11.3-0.2-21.5-0.3-29.3l0.1-5.4q0-0.1 0-0.2 0-0.1-0.1-0.1 0-0.1 0-0.2 0-0.1-0.1-0.1c0-2.9-0.1-5.2-0.1-6.8q0.1 0 0.1 0 0 0 0 0 0-0.1 0-0.1 0 0 0.1 0l0.1-0.1q0.1-0.1 0.1-0.2 0.1-0.1 0.1-0.2 0.1-0.1 0.1-0.2 0-0.2 0-0.3v-0.4l31-36c8.4 13.4 27.1 43.3 29 46.4l1.8 153.9h-11.8-0.2q0 0-0.1 0 0 0 0 0 0 0-0.1 0.1 0 0 0 0h-0.1q-0.1 0-0.1 0.1 0 0 0 0-0.1 0-0.1 0 0 0 0 0l-0.1 0.1-0.2 0.2-0.1 0.1c0 0.1 0 0.1 0 0.1q0 0 0 0.1 0 0 0 0 0 0 0 0 0 0 0 0 0 0 0 0-0.1 0.1-0.1 0.1 0 0 0 0 0 0.1 0 0.1c0 0 0 0.2 0 0.2 0 0 0 0.1 0 0.1l1.2 85.5c-2.2-7.2-6.9-12.2-12.3-12.2-7.9 0-14.1 8.8-14.1 20.1 0 11.9 6.6 22.3 14.1 22.3 5.6 0 10.5-5.4 12.5-13.1zm-3.7-48.1c0-9.2-4.2-16.7-9.3-16.7-5.2 0-9.4 7.5-9.4 16.7 0 9.2 4.2 16.7 9.4 16.7 5.1 0 9.3-7.5 9.3-16.7zm1-125.9q0-0.2-0.1-0.4-0.1-0.2-0.2-0.4-0.2-0.1-0.4-0.2-0.2-0.1-0.4-0.2l-8.8-1.2q-0.1 0-0.3 0-0.1 0-0.2 0-0.2 0.1-0.3 0.1-0.1 0.1-0.2 0.2-0.1 0.1-0.2 0.2 0 0.1-0.1 0.2-0.1 0.1-0.1 0.3 0 0.1 0 0.2l0.2 41.3q0 0.3 0.1 0.5 0.1 0.2 0.2 0.4 0.2 0.1 0.4 0.3 0.2 0.1 0.4 0.1l8.6 1.2q0.1 0 0.1 0 0 0 0 0 0 0 0.1 0 0 0 0 0 0.1 0 0.2-0.1 0.1 0 0.2 0 0.1 0 0.2-0.1 0.1-0.1 0.2-0.1 0.1-0.1 0.2-0.2 0.1-0.1 0.1-0.3 0.1-0.1 0.1-0.2 0-0.1 0-0.3v-41.2zm-1-57.3q0-0.2-0.1-0.4-0.1-0.2-0.3-0.4-0.1-0.2-0.3-0.3-0.2-0.1-0.4-0.1l-8.8-1.3q-0.3 0-0.6 0.1-0.2 0-0.4 0.2-0.2 0.2-0.3 0.5-0.2 0.2-0.1 0.5l0.2 41.3q0 0.2 0 0.4 0.1 0.3 0.3 0.4 0.1 0.2 0.3 0.3 0.2 0.1 0.4 0.1l8.7 1.2h0.2q0.2 0 0.4-0.1 0.3-0.1 0.4-0.2 0.2-0.2 0.3-0.4 0.1-0.3 0.1-0.5v-41.3zm-14.4-42.6c-3.6 0-6.3 4.8-6.3 10.9 0 6.1 2.7 10.9 6.3 10.9 3.5 0 6.3-4.8 6.3-10.9 0-6.1-2.8-10.9-6.3-10.9zm-10.4 37.8q-0.1 0.1-0.1 0.2-0.1 0.1-0.2 0.3 0 0.1-0.1 0.2 0 0.2 0 0.3l0.2 41.3q0 0.2 0.1 0.5 0.1 0.2 0.2 0.3 0.2 0.2 0.4 0.3 0.2 0.1 0.4 0.2l8.7 1.1q0 0 0 0 0 0 0 0 0.1 0 0.1 0 0 0 0 0 0.3 0 0.5-0.1 0.2-0.1 0.4-0.2 0.2-0.2 0.3-0.4 0.1-0.3 0.1-0.5l-0.1-41.3q0-0.2-0.1-0.4 0-0.2-0.2-0.4-0.1-0.2-0.3-0.3-0.2-0.1-0.4-0.1l-8.9-1.3q-0.1 0-0.2 0-0.2 0-0.3 0.1-0.1 0-0.2 0.1-0.2 0-0.3 0.1zm-0.2 99.7q0 0 0 0zm0 0q0 0.2 0.1 0.5 0.1 0.2 0.2 0.4 0.2 0.1 0.4 0.2 0.2 0.2 0.4 0.2l8.7 1.2h0.1q0.3 0 0.5-0.1 0.2-0.1 0.4-0.3 0.2-0.2 0.3-0.4 0.1-0.2 0.1-0.5l-0.1-41.2q0-0.3-0.1-0.5 0-0.2-0.2-0.4-0.1-0.1-0.3-0.2-0.2-0.2-0.4-0.2l-8.9-1.2q-0.1-0.1-0.2 0-0.2 0-0.3 0-0.1 0-0.2 0.1-0.2 0.1-0.3 0.2-0.1 0.1-0.1 0.2-0.1 0.1-0.2 0.2 0 0.1-0.1 0.2 0 0.2 0 0.3z"/>
		<path class="s1" d="m583.4 614.7l-6.3 0.2 4.8 11.4h8.5l-7-11.6z"/>
		<path class="s1" d="m587.4 439.6l0.2 38.8 6.2 0.9-0.1-38.8-6.3-0.9z"/>
		<path class="s1" d="m593.8 421.8l-0.1-38.7-6.3-0.9 0.2 38.8 6.2 0.8z"/>
		<path class="s1" d="m542.5 419.4v-39.2h-8.7l0.2 39 8.5 0.2z"/>
		<path class="s1" d="m600.8 582c-3.8 0-6.9-6.4-6.9-14.2 0-7.9 3.1-14.2 6.9-14.2 3.8 0 6.8 6.3 6.8 14.2 0 7.8-3 14.2-6.8 14.2z"/>
		<path class="s1" d="m271.8 441.5q0.1 0 0.2-0.1 0 0 0.1-0.1 0.1 0 0.2-0.1 0.1 0 0.2 0l239.7-37.6v-0.6l-239.7 37.6q-0.1 0-0.2 0-0.1 0-0.2 0.1-0.1 0-0.1 0.1-0.1 0-0.2 0.1l-90.6 90.5q-0.1 0.1-0.1 0.2-0.1 0.1-0.2 0.3 0 0.2 0 0.3 0 0.2 0 0.3 0.1 0 0.1-0.1 0-0.1 0.1-0.2 0 0 0-0.1 0.1-0.1 0.1-0.1z"/>
		<path class="s1" d="m528 442.4l-12.8 1.9q0 0-0.1 0 0 0 0 0-0.1 0-0.1 0 0 0 0 0-0.1 0-0.2-0.1-0.1 0-0.2 0-0.1 0-0.2-0.1-0.1 0-0.2-0.1 0 0 0-0.1-0.1 0-0.1-0.1-0.1 0-0.1 0 0-0.1 0-0.1-0.1-0.1-0.1-0.1 0-0.1 0-0.2-0.1 0-0.1-0.1 0 0 0-0.1 0 0 0 0 0-0.1 0-0.1 0 0 0 0 0 0 0 0l-1.5-37-239 37.5-87.7 87.7 301.5-34 37.9-51z"/>
		<path fill-rule="evenodd" class="s1" d="m514.8 404.7q0-0.1 0-0.1 0 0 0-0.1 0 0 0-0.1 0 0-0.1 0l-1.9-49.6 23.3-29.8 1.9-2.3 4.3 4.7 15.7 17.9-7.9 0.1q-0.3 0-0.5 0.1-0.2 0.1-0.4 0.2-0.2 0.2-0.3 0.4-0.1 0.3-0.1 0.5v9.9q0 0.3 0.1 0.5 0.1 0.2 0.3 0.4 0.2 0.2 0.4 0.3 0.2 0.1 0.5 0.1h10.5l0.1 4.5h-10.6q-0.3 0-0.5 0.1-0.3 0.1-0.4 0.3-0.2 0.2-0.3 0.4-0.1 0.2-0.1 0.5v9.1q0 0.2 0.1 0.5 0.1 0.2 0.3 0.4 0.1 0.1 0.4 0.2 0.2 0.1 0.5 0.1l10.5 0.1v5.4l-9.1 0.1q-0.2 0-0.4 0.1-0.3 0.1-0.5 0.3-0.1 0.1-0.2 0.4-0.1 0.2-0.1 0.5v10.1q0 0.3 0.1 0.5 0.1 0.2 0.2 0.4 0.2 0.2 0.4 0.3 0.2 0.1 0.5 0.1l9.5 0.3v5.4l-9.5-0.1q-0.1 0-0.2 0-0.1 0-0.2 0.1-0.2 0-0.3 0.1-0.1 0.1-0.1 0.1-0.1 0.1-0.2 0.2-0.1 0.1-0.1 0.2-0.1 0.2-0.1 0.3 0 0.1 0 0.2v9q0 0.3 0.1 0.5 0.1 0.2 0.2 0.4 0.2 0.2 0.5 0.3 0.2 0.1 0.4 0.1h9.7v7.6l-9.5-0.1q-0.1 0-0.2 0-0.2 0-0.3 0.1-0.1 0-0.2 0.1-0.1 0-0.2 0.1-0.1 0.1-0.1 0.2-0.1 0.1-0.2 0.2 0 0.2 0 0.3-0.1 0.1-0.1 0.2v9.5q0 0.2 0.1 0.5 0.1 0.2 0.3 0.4 0.2 0.1 0.4 0.2 0.2 0.1 0.5 0.2l9.7 0.3v6.7l-10.1-0.4q-0.1 0-0.2 0.1-0.1 0-0.3 0-0.1 0.1-0.2 0.2-0.1 0-0.2 0.1-0.1 0.1-0.1 0.2-0.1 0.1-0.2 0.2 0 0.2 0 0.3-0.1 0.1-0.1 0.2l0.3 8.5q0 0.2 0.1 0.4 0.1 0.2 0.2 0.4 0.2 0.2 0.4 0.3 0.2 0.1 0.5 0.1l9.9 0.5 0.2 4.5v2.1l-9.9-0.6q-0.2 0-0.5 0.1-0.2 0-0.4 0.2-0.2 0.2-0.3 0.4-0.1 0.3-0.1 0.5v1.3l-0.1 7.7q0 0.3 0.1 0.5 0.1 0.2 0.3 0.4 0.1 0.2 0.4 0.3 0.2 0.1 0.4 0.1h9.9l0.4 6.3v0.2h-10.3q-0.3 0-0.5 0-0.2 0.1-0.4 0.3-0.2 0.2-0.3 0.4-0.1 0.3-0.1 0.5v9.3q0 0.3 0.1 0.5 0.1 0.2 0.3 0.4 0.2 0.2 0.4 0.3 0.2 0.1 0.5 0.1l10.1 0.1v5.9h-9q-0.2 0-0.3 0-0.1 0-0.2 0.1-0.1 0-0.2 0.1-0.1 0.1-0.2 0.2-0.1 0-0.2 0.1 0 0.1-0.1 0.3 0 0.1-0.1 0.2 0 0.1 0 0.2v10.8q0 0.2 0.1 0.5 0.1 0.2 0.3 0.4 0.2 0.2 0.4 0.2 0.2 0.1 0.5 0.1h9.5l2.3 212 0.2 22.4-1.9 1.7-2.4-110.3q0 0 0 0 0 0 0 0 0 0 0-0.1 0 0 0 0l-1.6-11.5q0 0 0-0.1 0 0 0 0 0 0 0 0 0-0.1 0-0.1l1.6-99.8c0 0 0 0 0 0q0-0.1 0-0.1l-0.6-11.9q0-0.3-0.1-0.5-0.1-0.2-0.3-0.4-0.2-0.2-0.4-0.2-0.2-0.1-0.5-0.1l-5.3 0.2q-0.2 0-0.3 0-0.2 0-0.3 0.1-0.1 0.1-0.2 0.2-0.2 0.1-0.2 0.2l-8.2 11.8q0 0 0 0 0 0.1 0 0.1-0.1 0-0.1 0.1 0 0 0 0 0 0.1 0 0.1 0 0 0 0 0 0 0 0 0 0 0 0 0 0 0 0.1 0 0 0 0 0 0.1 0 0.1 0 0 0 0 0 0.1 0 0.1-0.1 0-0.1 0.1 0 0 0 0 0 0 0 0 0 0 0.1 0l2.5 99.5-6.9 11.8q0 0 0 0.1 0 0 0 0 0 0 0 0 0 0 0 0 0 0 0 0-0.1 0.1-0.1 0.1 0 0 0 0 0 0.1 0 0.1v0.1q0 0 0 0.1 0 0 0 0 0 0.1 0 0.1 0 0 0 0.1l1 102.5-8.4-0.6v-289.5q0 0 0 0 0-0.1 0-0.1 0 0 0-0.1 0 0 0 0v-0.2q0 0 0 0 0 0 0-0.1 0 0-0.1 0 0 0 0 0v-0.1q0 0 0 0v-0.1q0 0 0 0-0.1 0-0.1 0 0-0.1 0-0.1 0 0-0.1 0v-0.1h-0.1q0 0 0 0-0.1 0-0.1-0.1 0 0 0 0 0 0 0 0h-0.1-0.7l-14.3 2.1zm16.6-26.4q0 0.1-0.1 0.2 0 0.1-0.1 0.2 0 0.1 0 0.3l0.4 41.4q0 0.3 0 0.5 0.1 0.2 0.3 0.4 0.2 0.2 0.4 0.3 0.2 0.1 0.5 0.1l10.9 0.2q0.1 0 0.3 0 0.1 0 0.2-0.1 0.1 0 0.2-0.1 0.1-0.1 0.2-0.1 0.1-0.1 0.2-0.2 0-0.1 0.1-0.3 0-0.1 0-0.2 0.1-0.1 0.1-0.2v-41.8q0-0.2-0.1-0.4-0.1-0.3-0.3-0.4-0.2-0.2-0.4-0.3-0.2-0.1-0.5-0.1h-11.2q-0.2 0-0.3 0-0.1 0-0.2 0.1-0.1 0-0.2 0.1-0.1 0.1-0.2 0.2-0.1 0-0.2 0.2z"/>
		<path class="s1" d="m626.7 619l2 3 3.8 4q0.1-0.1 0.1-0.1 0.1 0 0.1 0 0.1 0 0.2-0.1 0 0 0.1 0h8.9l-6.2-7.2z"/>
		<path class="s1" d="m491.1 737.2l38.4-6.9v-23.7l-39.3 6.6 0.9 24z"/>
		<path class="s1" d="m568.6 509.2l1.6 226.3h3.2v-89l-1.1-130-3.7-7.3z"/>
		<path class="s1" d="m490.2 710.6l39.3-6.9v-259.2l-40.5 54.3 0.3 49.4 0.9 162.4z"/>
		<path fill-rule="evenodd" class="s1" d="m670.2 295.2v461.8h-513.9l-0.6-461.9c0-121.3 118.5-220.5 259-220.5 140.5 0 255.5 99.2 255.5 220.6zm-23.4 440.7q0.1-0.1 0.2-0.2 0.1-0.1 0.1-0.3 0.1-0.1 0.1-0.3 0-0.1 0-0.1 0-0.1 0.1-0.2 0 0 0-0.1 0-0.1 0-0.1c0 0 0-0.7 0-0.7l-1.3-107.6q0-0.2-0.1-0.3 0-0.2-0.2-0.4-0.1-0.1-0.2-0.2-0.2-0.2-0.4-0.2l-7.7-8.9-0.5-94.4q0 0 0-0.1 0 0 0 0 0-0.1 0-0.1 0 0 0-0.1 0 0 0 0 0 0 0 0 0 0 0 0 0 0 0 0 0-0.1 0-0.1 0 0 0 0 0 0 0 0 0-0.1-0.1-0.1 0-0.1 0-0.1 0 0 0 0 0 0 0 0 0 0 0 0v-0.1q-0.1 0-0.1 0 0 0 0 0 0 0 0-0.1 0 0 0 0 0 0 0 0 0 0 0 0-0.1 0-0.1 0 0-0.1 0-0.1l-8.6-9-1.8-151.8 2 3.2q0.1 0.2 0.3 0.3 0.2 0.2 0.5 0.2 0.2 0.1 0.4 0 0.3 0 0.5-0.1 0.2-0.3 0.3-0.5 0.1-0.3 0.2-0.6 0.1-0.3 0.1-0.6-0.1-0.3-0.1-0.6l-64.5-127.7c7.9-0.8 14.1-6.1 14.1-12.4q0-0.2 0-0.3 0-0.2 0-0.3c0-6.7-6.8-12.2-15.3-12.5l0.3-33.6 19.2-0.2v-3.2l-19.2 0.2 0.2-19v-0.6h-2.5l-0.2 19.7-18.8 0.2v3.1l18.8-0.2-0.3 33.6c-8.2 0.7-14.6 6-14.6 12.5q0 0.1 0 0.3 0 0.2 0 0.3c0 6.4 6.2 11.6 14.2 12.4l-54.9 121.5q-0.1 0.3-0.1 0.6 0 0.3 0 0.6 0.1 0.3 0.2 0.5 0.2 0.3 0.3 0.5 0.1 0.1 0.2 0.1 0.1 0 0.2 0.1 0 0 0.1 0 0.1 0 0.2 0 0.1 0 0.3 0 0.1 0 0.2-0.1 0.2-0.1 0.3-0.1 0.1-0.1 0.2-0.2l1.3-1.6 1.9 47.3-239.7 37.6q-0.1 0-0.2 0-0.1 0-0.2 0.1-0.1 0-0.1 0.1-0.1 0-0.2 0.1l-90.5 90.5q-0.2 0.2-0.2 0.5-0.1 0.2-0.1 0.5-0.1 0.2-0.1 0.5 0.1 0.3 0.1 0.5 0.1 0.2 0.2 0.3 0.1 0.1 0.3 0.2 0.1 0.1 0.3 0.2 0.2 0 0.3 0h0.2l3.2-0.3 1.3 179.1q0 0 0 0.1 0 0.1 0 0.1 0 0.1 0 0.1 0 0.1 0.1 0.1l-0.2 23v0.6q0 0.1 0.1 0.2 0 0.2 0 0.3 0.1 0.1 0.1 0.2 0.1 0.1 0.2 0.2 0.1 0.1 0.2 0.1 0.1 0.1 0.2 0.2 0.1 0 0.2 0 0.2 0.1 0.3 0l302.1 1.7q0 0 0 0 0.1 0 0.1 0 0 0 0 0 0.1 0 0.1 0l40.7-7.3 9.6 0.7v3.9q0 0 0 0 0 0 0 0 0 0 0 0.1 0 0 0 0 0 0 0 0.1 0 0 0 0 0 0 0 0 0 0.1 0 0.1 0 0 0 0 0 0.1 0 0.1 0 0 0.1 0 0 0 0 0.1 0 0 0 0 0 0 0 0 0 0 0 0 0 0 0 0 0 0.1 0 0.1 0 0 0 0l0.1 0.1q0 0 0 0 0 0 0 0 0 0 0 0 0 0 0.1 0l0.1 0.2 0.1 0.1h0.1l0.1 0.1h0.1q0 0 0 0 0 0 0.1 0.1 0 0 0 0 0.1 0 0.1 0l19.7 3.6q0.1 0 0.1 0 0 0 0 0 0.1 0 0.1 0 0 0 0.1 0h0.3 0.1l0.2-0.1 0.1-0.1q0 0 0 0 0 0 0 0 0 0 0.1 0 0 0 0 0l4-3.7 8.8 0.2 4.9 4q0.1 0.1 0.1 0.1 0 0 0.1 0 0 0.1 0.1 0.1 0 0 0 0 0.1 0.1 0.1 0.2 0 0 0.1 0.1 0 0 0.1 0.1 0 0.1 0.1 0.1 0.1 0.1 0.2 0.1 0.1 0.1 0.2 0.1 0.1 0 0.2 0 0.1 0.1 0.2 0.1 0 0 0 0 0.1 0 0.1-0.1 0.1 0 0.1 0 0 0 0.1 0l6.8-1.9 5.6-1.4q0.2-0.1 0.3-0.2 0.2-0.1 0.3-0.2 0.1-0.2 0.2-0.4 0.1-0.2 0.1-0.4l0.6-11.5 20.5 10.5q0 0 0 0 0 0 0 0 0.1 0 0.1 0 0 0 0 0 0.1 0.1 0.1 0.1 0.1 0 0.1 0 0 0 0.1 0 0 0 0.1 0 0.1 0 0.1 0 0 0 0.1 0 0 0 0 0 0.1 0 0.1 0l7.5-1.8 7.4 5.7q0.1 0.1 0.2 0.2 0.1 0.1 0.2 0.1 0.1 0.1 0.2 0.1 0.1 0 0.2 0h0.5 0.1 0.1l13-5.9q0.2-0.1 0.3-0.2z"/>
		<path class="s1" d="m553.8 505.5l-6.4 9.3h10.4l-0.5-9.4-3.5 0.1z"/>
		<path class="s1" d="m581.7 514.3l-7.3-9-5-0.1 4.9 9.7c1-0.1 3.1-0.3 7.4-0.6z"/>
		<path class="s1" d="m633 521.4l-5.6-5.7-1.2-1.3-9.7 0.1 7 7.5c1 0 3.5-0.2 9.5-0.6z"/>
		<path class="s1" d="m582.8 612.2l0.1-95.5-8 0.7c0.1 10.1 1.4 84.4 1.5 95.1z"/>
		<path class="s1" d="m582.9 516.7c-2.9 0.2-6.3 0.5-8 0.6z"/>
		<path class="s1" d="m624.2 524.5c0.2 10.1 1.2 81.5 1.3 92l9.5-0.4-0.5-92.3z"/>
		<path class="s1" d="m624.2 524.5l10.3-0.6c-3.7 0.2-8.2 0.4-10.3 0.6z"/>
		<path class="s1" d="m575.8 619.3v27.2l0.7 89.3q0.1 0 0.2 0 0.1 0 0.2 0.1 0.1 0 0.2 0.1 0 0 0.1 0.1l2.4 2.1-0.4-111z"/>
		<path class="s1" d="m546.3 517.3l2.4 97.4h7.5l1.6-97.4h-11.5z"/>
		<path class="s1" d="m542.8 626.9l14.9-0.4-1.4-9.3h-8.1l-5.4 9.7z"/>
		<path class="s1" d="m543 736.1l17.2 3.2-2.3-110.3-9.6 0.3-6.4 0.1 1 102.3q0.1 0.1 0.1 0.1 0 0.1 0 0.1 0 0 0 0.1 0 0 0 0.1z"/>
		<path class="s1" d="m563.8 231.4c-7.6 0-13.7-4.5-13.7-10 0-5.5 6.1-10 13.7-10 7.6 0 13.7 4.5 13.7 10 0 5.5-6.1 10-13.7 10z"/>
		<path class="s1" d="m552.9 455.4l-0.1 6.5h8.9l-0.1-5.9-8.7-0.6z"/>
		<path class="s1" d="m553.8 491.2v8.2h8.3l-0.1-8.1-8.2-0.1z"/>
		<path class="s1" d="m551.3 364.8v6.7l9.5 0.1-0.1-6.8h-9.4z"/>
		<path class="s1" d="m552.8 382v7.7l8.2 0.3-0.1-8.1-8.1 0.1z"/>
		<path class="s1" d="m552.6 438l0.2 5.9 8.7 0.4v-6.1l-8.9-0.2z"/>
		<path class="s1" d="m552.8 400.3v6.5h8.3v-6.4l-8.3-0.1z"/>
		<path class="s1" d="m552.9 419.3v7l8.4 0.3v-7.2l-8.4-0.1z"/>
		<path class="s1" d="m560.1 347.8l-8.8 0.1v7.4h9.3l-0.1-7.1-0.4-0.4z"/>
		<path class="s1" d="m552.8 473.4v6.8l9.1 0.1-0.1-6.9h-9z"/>
		<path class="s1" d="m562.3 239.3l-49.4 109.4 21.2-25.3 2.8-3.5q0.1-0.1 0.2-0.2 0.1-0.1 0.2-0.2 0.1 0 0.2-0.1 0.2 0 0.3 0h0.2q0.2 0 0.3 0 0.1 0 0.3 0.1 0.1 0.1 0.2 0.1 0.1 0.1 0.2 0.2l5.2 5.9 16.8 18.5z"/>
		<path class="s1" d="m536.9 319.9l-2.8 3.5 3-3.6q0.1-0.1 0.2-0.1 0.1-0.1 0.2-0.2 0.1 0 0.2-0.1 0.1 0 0.3 0h-0.2q-0.1 0-0.3 0-0.1 0.1-0.2 0.1-0.1 0.1-0.2 0.2-0.1 0.1-0.2 0.2z"/>
		<path class="s1" d="m544.2 325.7l16.7 19.2 0.1-0.7-16.8-18.5z"/>
		<path class="s1" d="m593.9 308.8l0.1-0.2h0.1l0.1-0.1 0.2-0.1h0.1q0 0 0 0 0 0 0.1 0 0 0 0 0 0 0 0.1 0h0.1q0 0 0 0 0 0 0.1 0 0 0 0 0 0 0 0.1 0 0 0 0 0 0.1 0 0.1 0 0 0 0.1 0 0 0 0 0 0 0 0.1 0 0 0 0 0 0 0.1 0 0.1 0 0 0.1 0h0.1q0 0 0 0.1 0 0 0.1 0 0 0 0 0 0 0 0 0l0.1 0.1q0 0 0 0 0.1 0.1 0.1 0.1 0 0 0 0 0 0 0 0 0 0 0 0.1 0.1 0 0.1 0 0 0 0 0 0 0 0 0l21.7 33.5-52.8-104.6-1.1 105.2z"/>
		<path class="s1" d=""/>
		<path class="s1" d="m595 308.3q0 0 0 0 0 0 0 0 0.1 0 0.1 0 0 0 0 0 0 0 0 0 0 0-0.1 0 0 0 0 0 0 0 0 0z"/>
		<path class="s1" d=""/>
		<path class="s1" d="m594.5 308.4h-0.1z"/>
		<path class="s1" d="m594.2 308.5l-0.1 0.1z"/>
		<path class="s1" d="m595.4 308.5q0-0.1-0.1-0.1 0 0 0 0 0 0 0 0 0 0 0 0 0 0 0 0 0 0 0 0 0 0 0 0 0.1 0 0.1 0.1z"/>
		<path class="s1" d="m563.7 343v0.8l30.2-35q0-0.1 0.1-0.1 0 0 0 0 0 0 0 0 0-0.1 0-0.1l-0.1 0.1z"/>
		<path class="s1" d="m595.7 308.7q0.1 0 0.1 0 0 0 0 0.1 0 0 0 0 0 0 0 0 0 0 0 0 0 0 0 0 0-0.1 0-0.1 0 0-0.1 0z"/>
		<path class="s1" d="m595.6 308.6q0 0 0 0 0 0 0 0 0-0.1-0.1-0.1 0 0 0 0 0 0 0 0 0.1 0 0.1 0.1 0 0 0 0 0 0 0 0z"/>
		<path class="s1" d="m563.7 343.8v-0.8l-0.2 0.2v0.9l0.2-0.3z"/>
		<path class="s1" d="m582.8 740.3l5.2-1.4 4.5-1.2-0.8-108.7h-9.4c0.1 12.5 0.4 98.1 0.5 111.3z"/>
		<path class="s1" d="m582.3 628.9v0.1h9.4v-0.1z"/>
		<path class="s1" d="m582.8 740.3l5.2-1.4-5.2 1.4z"/>
		<path class="s1" d="m631.7 631.5v-2.5h-0.3-0.1q-0.2 0-0.3-0.1-0.1 0-0.3-0.1-0.1-0.1-0.2-0.2-0.1-0.1-0.2-0.2l-3.5-4.9-1.3-1.4 0.1 19.3 1.1 92.3q0 0.1 0 0.1 0 0.1 0 0.2-0.1 0.1-0.1 0.1 0 0.1-0.1 0.2l5.2 4z"/>
		<path class="s1" d="m626.8 623.5l3.5 4.9q0.1 0.2 0.2 0.3 0.1 0.1 0.2 0.1 0.2 0.1 0.3 0.1 0.1 0.1 0.3 0.1h0.1 0.3v-0.1z"/>
		<path class="s1" d="m634.2 628.8v110l10.5-5-1.2-105.4z"/>
		<path class="s1" d="m634.2 628.3v0.5l9.3-0.4v-0.2l-9.3 0.1z"/>
		<path class="s1" d="m644.8 733.9l0.1-0.1-1.3-105.4h-0.1l1.3 105.5z"/>
		<path class="s1" d="m643.6 628.4v-0.2h-0.1v0.2h0.1z"/>
		<path class="s1" d=""/>
		<path class="s1" d=""/>
	</g>
</svg>